<svg width="1085" height="344" viewBox="0 0 1085 344" fill="none" xmlns="http://www.w3.org/2000/svg">
<g clip-path="url(#clip0_904_11234)">
<path d="M911.702 58.0069C884.312 72.7472 855.987 87.9879 827.352 101.41C797.929 115.2 774.723 124.038 752.109 130.06C739.56 133.403 727.998 135.582 716.764 136.725C710.875 137.324 704.805 137.483 698.938 137.639C693.441 137.784 687.76 137.933 682.129 138.439C630.216 143.103 581.619 163.246 528.015 187.124C512.087 194.219 496.003 201.693 480.447 208.921C442.083 226.747 402.413 245.182 361.865 259.426C323.595 272.869 292.149 279.132 262.906 279.132C245.208 279.132 228.087 276.719 212.02 271.964C193.048 266.349 173.39 257.618 151.924 245.277C132.702 234.225 113.836 221.361 95.5928 208.921C65.1998 188.193 34.1884 167.047 0 153.222V151.489C4.37906 153.316 8.81237 155.307 13.3238 157.477C40.5747 170.586 66.6559 188.371 91.88 205.573C128.707 230.686 166.788 256.655 210.141 269.487C226.817 274.424 244.57 276.928 262.906 276.928C292.922 276.928 325.064 270.548 364.061 256.849C404.911 242.498 444.728 223.998 483.233 206.106C498.766 198.889 514.828 191.425 530.708 184.351C555.522 173.297 579.88 162.658 605.057 153.972C633.495 144.161 658.899 138.352 682.725 136.212C688.148 135.724 693.723 135.577 699.118 135.435C705.107 135.277 711.302 135.113 717.439 134.489C729.027 133.312 740.925 131.069 753.817 127.634C776.825 121.506 800.37 112.547 830.16 98.5841C858.96 85.0854 887.365 69.8 914.835 55.0193C939.087 41.9677 964.166 28.4732 989.37 16.2905C1000.28 11.0179 1012.32 5.34921 1024.96 -3.05176e-05H1028.85C1014.13 6.0051 999.945 12.6469 986.495 19.1482C961.162 31.3927 936.021 44.9234 911.706 58.0069H911.702Z" fill="#3292C6"/>
<path d="M827.352 79.0527C797.929 92.8432 774.725 101.678 752.109 107.703C739.562 111.046 728 113.224 716.764 114.368C710.875 114.966 704.807 115.126 698.938 115.281C693.441 115.426 687.758 115.575 682.129 116.082C630.216 120.746 581.619 140.888 528.015 164.766C512.087 171.862 496.003 179.336 480.447 186.564C442.083 204.389 402.413 222.824 361.865 237.068C323.595 250.512 292.149 256.772 262.906 256.772C245.208 256.772 228.087 254.362 212.02 249.605C193.048 243.989 173.39 235.258 151.924 222.918C132.702 211.866 113.836 199.002 95.5928 186.561C65.1998 165.835 34.1884 144.69 0 130.867V129.134C4.37906 130.961 8.81237 132.952 13.3238 135.122C40.5747 148.231 66.6559 166.018 91.88 183.218C128.707 208.331 166.788 234.3 210.141 247.132C226.817 252.068 244.57 254.573 262.906 254.573C292.922 254.573 325.064 248.193 364.061 234.494C404.911 220.143 444.728 201.642 483.233 183.751C498.766 176.534 514.828 169.07 530.708 161.996C555.522 150.942 579.88 140.303 605.057 131.617C633.495 121.806 658.899 115.997 682.725 113.857C688.148 113.369 693.725 113.222 699.118 113.08C705.107 112.922 711.302 112.758 717.439 112.134C729.029 110.954 740.927 108.714 753.817 105.279C776.825 99.1507 800.37 90.192 830.16 76.229C858.96 62.7303 887.363 47.4449 914.831 32.6642C935.125 21.7442 955.998 10.5155 977.036 9.15527e-05H979.92C956.814 11.3779 933.912 23.6969 911.702 35.6497C884.312 50.3899 855.987 65.6306 827.352 79.0527Z" fill="#3292C6"/>
<path d="M827.352 56.6953C797.929 70.4857 774.723 79.321 752.109 85.3452C739.56 88.6885 728 90.867 716.764 92.0105C710.875 92.6089 704.805 92.7686 698.938 92.924C693.441 93.0688 687.758 93.2179 682.129 93.7247C630.216 98.3883 581.619 118.531 528.015 142.409C512.087 149.504 496.003 156.979 480.447 164.206C442.083 182.032 402.413 200.467 361.865 214.711C323.595 228.154 292.149 234.415 262.906 234.415C245.208 234.415 228.087 232.004 212.02 227.247C193.048 221.632 173.39 212.901 151.924 200.561C132.702 189.509 113.836 176.644 95.5928 164.204C65.1998 143.478 34.1884 122.332 0 108.51V106.776C4.37906 108.603 8.81237 110.594 13.3238 112.764C40.5747 125.873 66.6559 143.659 91.88 160.861C128.707 185.974 166.788 211.943 210.141 224.775C226.817 229.711 244.57 232.215 262.906 232.215C292.922 232.215 325.064 225.835 364.061 212.136C404.911 197.786 444.728 179.285 483.233 161.393C498.766 154.176 514.828 146.713 530.708 139.638C555.522 128.584 579.88 117.945 605.057 109.259C633.495 99.4488 658.899 93.6396 682.725 91.4994C688.146 91.0118 693.723 90.8649 699.118 90.7243C705.107 90.5667 711.302 90.4028 717.439 89.7788C729.027 88.6012 740.927 86.3589 753.817 82.924C776.825 76.7954 800.37 67.8367 830.16 53.8737C858.96 40.3749 887.365 25.0896 914.833 10.3089C921.18 6.89319 927.584 3.44768 934.031 0.00431824H936.507C928.163 4.44215 919.887 8.8949 911.706 13.2965C884.316 28.0368 855.991 43.2774 827.356 56.6995L827.352 56.6953Z" fill="#3292C6"/>
<path d="M752.109 62.9878C739.56 66.3311 727.998 68.5096 716.764 69.6531C710.875 70.2515 704.805 70.4133 698.937 70.5666C693.441 70.7114 687.76 70.8605 682.129 71.3673C630.214 76.0309 581.619 96.1736 528.015 120.051C512.085 127.147 495.999 134.621 480.442 141.851C442.081 159.677 402.411 178.109 361.865 192.354C323.595 205.797 292.149 212.058 262.906 212.058C245.208 212.058 228.087 209.645 212.02 204.89C193.048 199.274 173.389 190.544 151.924 178.203C132.702 167.151 113.836 154.287 95.5928 141.847C65.1998 121.12 34.1884 99.9747 0 86.1523V84.4189C4.37906 86.246 8.81237 88.237 13.3238 90.407C40.5747 103.516 66.6559 121.301 91.88 138.503C128.707 163.616 166.788 189.585 210.141 202.417C226.817 207.354 244.57 209.858 262.906 209.858C292.922 209.858 325.064 203.478 364.061 189.779C404.911 175.428 444.726 156.928 483.231 139.036C498.764 131.817 514.826 124.355 530.708 117.281C555.522 106.227 579.88 95.588 605.057 86.9019C633.495 77.0914 658.899 71.2822 682.725 69.142C688.146 68.6544 693.723 68.5074 699.115 68.3669C705.107 68.2093 711.302 68.0453 717.439 67.4214C729.027 66.2438 740.925 64.0014 753.817 60.5666C776.825 54.438 800.37 45.4792 830.16 31.5163C851.174 21.6674 871.978 10.8646 892.36 0.00215149H894.826C872.741 11.8207 850.147 23.6564 827.354 34.34C797.931 48.1305 774.725 56.9657 752.111 62.99L752.109 62.9878Z" fill="#3292C6"/>
<path d="M752.109 40.6304C739.56 43.9737 727.998 46.1522 716.764 47.2957C710.875 47.8941 704.805 48.0538 698.938 48.2092C693.441 48.354 687.758 48.5031 682.129 49.0099C630.216 53.6735 581.619 73.8162 528.015 97.694C512.087 104.789 496.003 112.264 480.447 119.491C442.083 137.317 402.413 155.752 361.865 169.996C323.595 183.44 292.149 189.7 262.906 189.7C245.208 189.7 228.087 187.29 212.02 182.532C193.048 176.917 173.39 168.186 151.924 155.846C132.702 144.794 113.836 131.93 95.5928 119.489C65.1998 98.763 34.1884 77.6173 0 63.7949V62.0615C4.37906 63.8886 8.81237 65.8796 13.3238 68.0496C40.5747 81.1586 66.6559 98.9462 91.88 116.146C128.707 141.259 166.788 167.228 210.141 180.06C226.817 184.996 244.57 187.5 262.906 187.5C292.922 187.5 325.064 181.121 364.061 167.422C404.911 153.071 444.728 134.57 483.233 116.678C498.766 109.462 514.828 101.998 530.708 94.9236C555.522 83.8694 579.88 73.2306 605.057 64.5445C633.495 54.734 658.899 48.9247 682.725 46.7846C688.146 46.297 693.723 46.15 699.115 46.0095C705.107 45.8519 711.3 45.6879 717.439 45.064C729.027 43.8864 740.925 41.6441 753.817 38.2092C776.825 32.0806 800.37 23.1219 830.16 9.15887C836.5 6.18613 842.822 3.12395 849.119 0.00212097H851.968C843.798 4.10776 835.589 8.12183 827.354 11.9826C797.931 25.7731 774.725 34.6104 752.111 40.6326L752.109 40.6304Z" fill="#3292C6"/>
<path d="M716.766 24.9382C710.877 25.5366 704.809 25.6964 698.94 25.8518C693.443 25.9966 687.76 26.1457 682.131 26.6525C630.218 31.316 581.621 51.4588 528.017 75.3366C512.09 82.432 496.003 89.9065 480.447 97.136C442.083 114.962 402.416 133.395 361.867 147.639C323.597 161.082 292.151 167.343 262.909 167.343C245.21 167.343 228.089 164.932 212.022 160.175C193.05 154.56 173.392 145.829 151.926 133.488C132.704 122.436 113.838 109.572 95.595 97.1318C65.1998 76.4056 34.1884 55.262 0 41.4375V39.7041C4.37906 41.5311 8.81237 43.5222 13.3238 45.6921C40.5747 58.8012 66.6559 76.5866 91.88 93.7885C128.707 118.901 166.788 144.87 210.141 157.703C226.817 162.639 244.57 165.143 262.906 165.143C292.922 165.143 325.064 158.763 364.061 145.064C404.911 130.714 444.726 112.213 483.231 94.3209C498.764 87.102 514.826 79.6381 530.708 72.564C555.522 61.5099 579.88 50.871 605.057 42.1849C633.495 32.3744 658.899 26.5652 682.725 24.425C688.148 23.9374 693.725 23.7905 699.118 23.6478C705.107 23.4902 711.302 23.3262 717.439 22.7023C729.029 21.5226 740.927 19.2824 753.817 15.8475C768.564 11.9186 783.537 6.82491 800.229 -0.00219727H804.187C785.106 8.09621 768.453 13.9182 752.111 18.2709C739.564 21.6141 728.002 23.7926 716.766 24.9361V24.9382Z" fill="#3292C6"/>
<path d="M698.94 3.49437C693.443 3.63918 687.76 3.78824 682.131 4.29506C630.218 8.95862 581.621 29.1013 528.017 52.9792C512.09 60.0746 496.006 67.549 480.449 74.7765C442.085 92.6023 402.416 111.037 361.867 125.281C323.597 138.725 292.154 144.985 262.909 144.985C245.21 144.985 228.089 142.575 212.022 137.818C193.05 132.202 173.392 123.471 151.926 111.131C132.704 100.079 113.838 87.2148 95.595 74.7744C65.1998 54.0482 34.1884 32.9046 0 19.08V17.3466C4.37906 19.1737 8.81237 21.1648 13.3238 23.3347C40.5747 36.4438 66.6559 54.2292 91.88 71.4311C128.707 96.544 166.788 122.513 210.141 135.345C226.817 140.281 244.57 142.786 262.906 142.786C292.922 142.786 325.064 136.406 364.061 122.707C404.911 108.356 444.728 89.8553 483.233 71.9635C498.766 64.7467 514.828 57.2828 530.708 50.2087C555.522 39.1546 579.88 28.5157 605.057 19.8296C633.495 10.0191 658.899 4.20988 682.725 2.06976C688.146 1.58212 693.723 1.43518 699.115 1.29463C705.107 1.13705 711.3 0.973068 717.439 0.349136C718.48 0.242661 719.529 0.125534 720.577 0.00202942H734.33C728.332 1.14343 722.508 1.99948 716.768 2.58295C710.879 3.18134 704.81 3.34105 698.942 3.49651L698.94 3.49437Z" fill="#3292C6"/>
<path d="M480.442 52.4212C442.081 70.2471 402.411 88.6798 361.865 102.924C323.595 116.367 292.149 122.628 262.906 122.628C245.208 122.628 228.087 120.215 212.02 115.46C193.048 109.845 173.39 101.114 151.924 88.7735C132.702 77.7215 113.836 64.8574 95.5929 52.4169C67.511 33.2666 38.8995 13.7584 7.74268 -0.000137329H11.2581C11.9438 0.323547 12.6317 0.647247 13.3217 0.979446C40.5726 14.0885 66.6538 31.876 91.8779 49.0758C128.705 74.1887 166.786 100.158 210.139 112.99C226.815 117.926 244.568 120.43 262.904 120.43C292.92 120.43 325.062 114.05 364.059 100.351C404.909 86.0009 444.724 67.5 483.229 49.6082C498.762 42.3893 514.824 34.9254 530.706 27.8513C553.168 17.847 575.258 8.18344 597.915 -0.000137329H603.013C578.557 8.46027 553.869 19.1077 528.015 30.6239C512.085 37.7193 495.999 45.1938 480.442 52.4233V52.4212Z" fill="#3292C6"/>
<path d="M480.447 30.0617C442.083 47.8875 402.414 66.3224 361.865 80.5665C323.595 94.0099 292.149 100.271 262.907 100.271C245.208 100.271 228.087 97.86 212.02 93.1027C193.048 87.4873 173.39 78.7564 151.924 66.4161C132.702 55.3641 113.836 42.4999 95.593 30.0595C80.594 19.8316 65.4431 9.50155 49.8364 -0.00231171H51.5464C65.2543 8.56245 78.6844 17.7192 91.878 26.7163C128.705 51.8292 166.786 77.7982 210.139 90.6304C226.815 95.5665 244.568 98.0708 262.904 98.0708C292.92 98.0708 325.062 91.6908 364.059 77.9919C404.909 63.6414 444.727 45.1405 483.231 27.2486C498.764 20.0318 514.826 12.568 530.706 5.49388C534.851 3.64762 538.98 1.81626 543.106 -0.000183105H546.771C540.58 2.69148 534.332 5.45129 528.016 8.26646C512.088 15.3619 496.004 22.8363 480.447 30.0638V30.0617Z" fill="#3292C6"/>
<path d="M361.865 58.2091C323.595 71.6524 292.15 77.9131 262.907 77.9131C245.208 77.9131 228.087 75.5025 212.02 70.7453C193.048 65.1299 173.39 56.399 151.924 44.0587C132.702 33.0067 113.836 20.1425 95.5931 7.7021C91.8303 5.13609 88.0567 2.56367 84.27 -0.00235748H85.4787C87.6183 1.45421 89.7514 2.90866 91.8802 4.35883C128.707 29.4718 166.789 55.4407 210.141 68.2729C226.817 73.2091 244.57 75.7133 262.907 75.7133C292.922 75.7133 325.064 69.3334 364.061 55.6345C404.911 41.284 444.729 22.7831 483.233 4.8912C486.72 3.27068 490.236 1.63734 493.769 -0.000221252H497.063C491.479 2.5807 485.931 5.15952 480.449 7.70637C442.086 25.5322 402.416 43.9671 361.867 58.2112L361.865 58.2091Z" fill="#3292C6"/>
<path d="M262.906 55.5576C245.208 55.5576 228.087 53.147 212.02 48.3898C193.048 42.7722 173.39 34.0435 151.924 21.7032C140.219 14.9719 128.646 7.56984 117.265 -0.00044632H118.608C147.248 18.8007 177.17 36.1581 210.141 45.9175C226.817 50.8536 244.57 53.3579 262.906 53.3579C292.922 53.3579 325.064 46.978 364.061 33.279C391.642 23.5899 418.751 12.0077 445.304 -0.00044632H448.717C420.34 12.9361 391.336 25.5 361.867 35.8536C323.597 49.2969 292.154 55.5576 262.909 55.5576H262.906Z" fill="#3292C6"/>
<path d="M262.907 33.201C245.208 33.201 228.087 30.7883 212.02 26.0332C193.384 20.5178 174.088 11.9957 153.07 0.00030899H155.303C172.782 9.61916 190.945 17.8794 210.141 23.5608C226.817 28.497 244.57 31.0013 262.907 31.0013C292.922 31.0013 325.064 24.6213 364.061 10.9224C373.811 7.49821 383.502 3.83337 393.13 0.00030899H397.31C385.579 4.77885 373.761 9.3189 361.867 13.4969C323.597 26.9403 292.152 33.2031 262.909 33.2031L262.907 33.201Z" fill="#3292C6"/>
<path d="M212.02 3.67592C208.292 2.57285 204.538 1.34627 200.749 0.000443459H206.211C207.515 0.413562 208.826 0.816038 210.139 1.2036C226.815 6.13973 244.568 8.64401 262.904 8.64401C282.751 8.64401 303.531 5.85225 326.607 0.000443459H333.97C307.776 7.35566 284.726 10.8438 262.904 10.8438C245.206 10.8438 228.085 8.43317 212.018 3.67592H212.02Z" fill="#3292C6"/>
</g>
<defs>
<clipPath id="clip0_904_11234">
<rect width="1085" height="344" fill="white" transform="matrix(1 0 0 -1 0 344)"/>
</clipPath>
</defs>
</svg>
