<svg width="583" height="215" viewBox="0 0 583 215" fill="none" xmlns="http://www.w3.org/2000/svg">
<g opacity="0.8">
<path d="M199.878 251.451C199.878 251.451 199.987 251.493 200.021 251.451C200.063 251.409 200.063 251.341 200.021 251.299L155.441 206.713C155.441 206.713 155.332 206.68 155.29 206.713C155.248 206.755 155.248 206.822 155.29 206.856L199.87 251.442L199.878 251.451Z" fill="#FFA500" fill-opacity="0.5"/>
<path d="M147.879 199.436C147.879 199.436 147.988 199.478 148.022 199.436C148.064 199.394 148.064 199.327 148.022 199.285L140.595 191.857C140.595 191.857 140.486 191.823 140.444 191.857C140.402 191.89 140.402 191.957 140.444 191.999L147.871 199.428L147.879 199.436Z" fill="#FFA500" fill-opacity="0.5"/>
<path d="M241.478 105.823C241.478 105.823 241.587 105.865 241.621 105.823C241.663 105.781 241.663 105.714 241.621 105.68L234.194 98.2521C234.194 98.2521 234.093 98.2101 234.051 98.2521C234.009 98.2856 234.009 98.3528 234.051 98.3948L241.478 105.823Z" fill="#FFA500" fill-opacity="0.5"/>
<path d="M308.339 172.703C308.339 172.703 308.449 172.745 308.482 172.703C308.524 172.661 308.524 172.594 308.482 172.56L301.055 165.132C301.055 165.132 300.954 165.09 300.912 165.132C300.87 165.174 300.87 165.233 300.912 165.275L308.339 172.703Z" fill="#FFA500" fill-opacity="0.5"/>
<path d="M293.485 157.838C293.485 157.838 293.594 157.879 293.628 157.838C293.67 157.796 293.67 157.728 293.628 157.686L249.048 113.108C249.048 113.108 248.947 113.067 248.905 113.108C248.864 113.15 248.864 113.218 248.905 113.251L293.485 157.829V157.838Z" fill="#FFA500" fill-opacity="0.5"/>
<path d="M239.531 258.618L284.111 214.032C284.111 214.032 284.153 213.931 284.111 213.889C284.069 213.847 284.01 213.847 283.968 213.889L239.389 258.475C239.389 258.475 239.347 258.576 239.389 258.618C239.431 258.66 239.498 258.66 239.531 258.618Z" fill="#FFA500" fill-opacity="0.5"/>
<path d="M291.538 206.604L298.965 199.168C298.965 199.168 299.007 199.067 298.965 199.025C298.923 198.983 298.864 198.983 298.822 199.025L291.387 206.462C291.387 206.462 291.345 206.571 291.387 206.604C291.429 206.646 291.496 206.638 291.53 206.604H291.538Z" fill="#FFA500" fill-opacity="0.5"/>
<path d="M197.931 112.992L205.358 105.563C205.358 105.563 205.4 105.463 205.358 105.421C205.316 105.387 205.249 105.387 205.215 105.421L197.788 112.849C197.788 112.849 197.746 112.958 197.788 112.992C197.83 113.034 197.897 113.034 197.931 112.992Z" fill="#FFA500" fill-opacity="0.5"/>
<path d="M145.924 165.005L190.504 120.419C190.504 120.419 190.546 120.318 190.504 120.276C190.462 120.243 190.403 120.234 190.361 120.276L145.781 164.863C145.781 164.863 145.739 164.964 145.781 165.005C145.823 165.047 145.89 165.047 145.924 165.005Z" fill="#FFA500" fill-opacity="0.5"/>
<path d="M240.764 580.485C264.531 578.546 287.518 572.637 309.321 562.976L292.847 579.452C292.847 579.452 292.805 579.561 292.847 579.603C292.889 579.645 292.956 579.645 292.998 579.603L309.841 562.758C311.62 561.969 313.391 561.138 315.153 560.298C316.907 560.936 318.947 560.584 320.373 559.215L321.733 560.567C321.733 560.567 321.842 560.609 321.876 560.567C321.918 560.525 321.918 560.458 321.876 560.416L320.516 559.064C321.07 558.485 321.414 557.814 321.641 557.109C321.741 557.05 321.842 557.016 321.943 556.958C342.21 546.373 360.539 532.675 376.417 516.249C390.684 501.502 402.643 484.857 412.109 466.702C412.789 466.467 413.427 466.123 413.972 465.594L415.323 466.946C415.323 466.946 415.432 466.988 415.466 466.946C415.508 466.904 415.508 466.837 415.466 466.795L414.115 465.443C415.424 464.075 415.768 462.178 415.248 460.474C415.256 460.466 415.265 460.441 415.273 460.424C415.29 460.374 415.265 460.306 415.223 460.29C415.223 460.29 415.223 460.29 415.214 460.29C415.189 460.222 415.206 460.147 415.172 460.088C415.936 458.485 416.599 456.848 417.329 455.237L419.284 453.281C419.284 453.281 419.326 453.172 419.284 453.13C419.243 453.088 419.175 453.088 419.142 453.13L417.573 454.708C423.229 441.967 427.727 428.696 430.79 415.107C434.24 399.789 435.994 384.051 435.985 368.33C435.985 352.609 434.24 336.872 430.782 321.545C427.727 307.964 423.237 294.694 417.573 281.953L427.198 291.58C427.198 291.58 427.307 291.622 427.341 291.58C427.383 291.538 427.383 291.471 427.341 291.429L417.338 281.424C416.616 279.804 415.944 278.159 415.172 276.556C415.877 274.768 415.516 272.67 414.107 271.209L442.917 242.394L443.698 241.614C444.159 242 444.805 242 445.267 241.614L446.039 242.394L536.365 332.733L537.137 333.514C536.751 333.984 536.751 334.63 537.137 335.092L536.357 335.873L504.055 368.179L501.621 365.745C501.621 365.745 501.52 365.703 501.478 365.745C501.436 365.787 501.436 365.854 501.478 365.888L503.912 368.322L493.413 378.822C493.413 378.822 493.38 378.931 493.413 378.965C493.455 379.007 493.522 379.007 493.556 378.965L504.055 368.465L508.905 373.316C508.905 373.316 509.015 373.358 509.048 373.316C509.09 373.274 509.09 373.207 509.048 373.165L504.197 368.314L536.499 336.007L537.28 335.226C537.741 335.612 538.387 335.604 538.849 335.226L539.63 336.007C539.63 336.007 539.739 336.049 539.772 336.007C539.806 335.965 539.814 335.898 539.772 335.856L538.992 335.075C539.378 334.614 539.378 333.967 538.992 333.506L539.772 332.725C539.772 332.725 539.806 332.616 539.772 332.574C539.73 332.532 539.671 332.532 539.63 332.574L538.849 333.355C538.387 332.977 537.733 332.969 537.271 333.355L536.491 332.574L446.165 242.235L445.384 241.463C445.77 241.001 445.77 240.355 445.384 239.885L446.165 239.104C446.165 239.104 446.198 238.995 446.165 238.961C446.123 238.919 446.056 238.919 446.022 238.961L445.242 239.742C444.772 239.356 444.126 239.356 443.664 239.742L442.884 238.97L352.558 148.63L351.777 147.85C352.163 147.388 352.163 146.742 351.777 146.272L352.558 145.491C352.558 145.491 352.6 145.39 352.558 145.348C352.516 145.307 352.457 145.307 352.415 145.348L351.635 146.129C351.173 145.743 350.518 145.743 350.057 146.129L349.285 145.357L258.959 55.0176L258.178 54.237C258.564 53.7754 258.564 53.1291 258.178 52.659L258.959 51.8784C258.959 51.8784 259.001 51.7693 258.959 51.7357C258.917 51.7021 258.858 51.6937 258.816 51.7357L258.036 52.5163C257.574 52.1302 256.919 52.1302 256.458 52.5163L255.677 51.7357C255.677 51.7357 255.568 51.7021 255.535 51.7357C255.493 51.7777 255.493 51.8364 255.535 51.8784L256.315 52.659C255.929 53.1207 255.929 53.7754 256.315 54.237L255.543 55.0176L223.241 87.3242L187.247 51.3244L186.475 50.5523C186.861 50.0822 186.861 49.4359 186.475 48.9743L187.247 48.202C187.247 48.202 187.289 48.0929 187.247 48.0593C187.205 48.0174 187.138 48.0174 187.104 48.0593L186.332 48.8316C185.871 48.4455 185.224 48.4455 184.755 48.8316L183.982 48.0593L182.145 46.2212C182.145 46.2212 182.119 46.2212 182.111 46.2212C182.103 46.2128 182.111 46.196 182.111 46.1876L166.208 30.2819L165.427 29.5097C165.813 29.0397 165.813 28.3934 165.427 27.9317L166.199 27.1596C166.199 27.1596 166.241 27.0504 166.199 27.0084C166.157 26.9665 166.09 26.9665 166.057 27.0084L165.284 27.7807C164.823 27.3946 164.168 27.3946 163.707 27.7807L162.935 27L162.23 26.295C162.23 26.295 162.129 26.2531 162.087 26.295C162.045 26.337 162.045 26.4041 162.087 26.4376L162.792 27.1428L163.564 27.9149C163.178 28.3849 163.178 29.0312 163.564 29.4929L162.792 30.2651L-114.698 307.855L-115.479 308.636C-115.948 308.25 -116.595 308.25 -117.056 308.636L-117.828 307.864L-118.533 307.159C-118.575 307.117 -118.642 307.117 -118.684 307.159C-118.726 307.2 -118.726 307.268 -118.684 307.31L-117.979 308.015L-117.207 308.787C-117.593 309.257 -117.593 309.903 -117.207 310.365L-117.979 311.137C-117.979 311.137 -118.021 311.246 -117.979 311.288C-117.937 311.33 -117.87 311.322 -117.828 311.288L-117.056 310.516C-116.595 310.902 -115.948 310.902 -115.479 310.516L-114.698 311.296L-98.7947 327.202C-98.7947 327.202 -98.7695 327.202 -98.7611 327.202C-98.7611 327.211 -98.7695 327.227 -98.7611 327.236L-96.9232 329.066L-96.1427 329.846C-96.5288 330.316 -96.5372 330.963 -96.1427 331.424L-96.9148 332.196C-96.9148 332.196 -96.9568 332.305 -96.9148 332.347C-96.8729 332.389 -96.8057 332.381 -96.7638 332.347L-95.9917 331.575C-95.5301 331.961 -94.8839 331.961 -94.4139 331.575L-93.6419 332.347L-54.1731 371.822C-54.1731 371.822 -54.064 371.856 -54.0304 371.822C-53.9884 371.78 -53.9884 371.713 -54.0304 371.671L-93.4992 332.196L-94.2713 331.424C-93.8936 330.963 -93.8936 330.316 -94.2713 329.846L-93.4908 329.066L-3.16493 238.726L-2.39285 237.954C-1.92287 238.34 -1.27667 238.34 -0.815094 237.954L-0.0430069 238.726L32.4518 271.226C31.0503 272.686 30.6894 274.785 31.3944 276.573C30.6307 278.176 29.9593 279.812 29.2292 281.441L12.0586 298.605C12.0586 298.605 12.0167 298.715 12.0586 298.757C12.1006 298.799 12.1677 298.79 12.2097 298.757L29.0026 281.961C23.3462 294.703 18.8564 307.964 15.8016 321.553C12.3524 336.872 10.59 352.618 10.59 368.33C10.59 384.043 12.3356 399.789 15.7932 415.107C19.2843 430.61 24.5379 445.735 31.3944 460.088C30.681 461.91 31.0419 464.058 32.5105 465.536C33.1484 466.173 33.9372 466.534 34.7513 466.761C34.7513 466.778 34.7345 466.786 34.7345 466.803C44.8472 486.175 57.6202 503.592 72.8186 518.801C77.6105 523.593 82.6459 528.176 87.9162 532.516C99.4136 542 111.784 550.134 124.884 556.958C124.884 556.958 124.884 556.974 124.884 556.991C124.876 556.991 124.859 556.991 124.851 556.991L121.653 562.329C121.653 562.329 121.636 562.422 121.67 562.455C121.67 562.455 121.678 562.464 121.687 562.472C121.737 562.497 121.804 562.481 121.829 562.43L124.943 557.235C125.186 557.931 125.547 558.594 126.101 559.157C127.553 560.609 129.676 560.97 131.48 560.29C133.15 561.079 134.846 561.809 136.533 562.565L146.41 572.444C146.41 572.444 146.519 572.486 146.561 572.444C146.603 572.402 146.603 572.335 146.561 572.293L137.07 562.799C144.405 566.048 151.932 568.944 159.678 571.369C186.055 579.645 213.339 582.717 240.773 580.485H240.764ZM310.236 562.363L313.391 559.207C313.844 559.635 314.348 559.962 314.893 560.189C313.349 560.928 311.805 561.65 310.244 562.355L310.236 562.363ZM229.158 570.48L225.642 573.996L225.793 574.148C194.531 574.475 163.648 567.693 135.576 554.49L223.082 466.971C223.216 466.971 223.35 466.971 223.485 466.971V466.979L311.05 554.557C283.724 567.45 254.847 573.778 226.271 574.139L229.922 570.488L229.158 569.724L228.545 569.867L229.158 570.48ZM134.443 553.986C134.216 553.29 133.864 552.627 133.327 552.064L177.109 508.275C177.109 508.275 177.151 508.166 177.109 508.124C177.067 508.082 177 508.082 176.958 508.124L133.176 551.913C132.311 551.091 131.229 550.671 130.121 550.579L215.672 465.015C215.672 465.015 215.672 464.982 215.672 464.956C216.956 465.057 218.223 465.225 219.515 465.284C219.515 465.284 219.524 465.267 219.524 465.275C219.574 465.326 219.591 465.384 219.633 465.452L199.248 485.839C199.248 485.839 199.206 485.949 199.248 485.99C199.29 486.032 199.357 486.032 199.399 485.99L219.784 465.603C220.648 466.417 221.722 466.837 222.839 466.937L135.374 554.414C135.064 554.272 134.753 554.146 134.443 553.995V553.986ZM122.232 547.96C124.037 548.975 125.849 549.957 127.679 550.923C127.133 551.158 126.63 551.485 126.177 551.913L122.224 547.96H122.232ZM101.831 527.849L120.705 546.726C89.9639 529.108 63.436 503.407 44.7045 470.723L79.5408 505.564C79.5408 505.564 79.6499 505.606 79.6918 505.564C79.7338 505.522 79.7338 505.455 79.6918 505.413L44.3436 470.051C43.1519 467.944 41.9351 465.855 40.8105 463.697C41.0455 463.068 41.1378 462.405 41.1126 461.742L126.688 376.153C128.543 399.109 138.329 420.572 154.685 436.939C171.042 453.298 192.509 463.085 215.462 464.94L129.886 550.528C129.29 550.503 128.711 550.604 128.132 550.797C125.858 549.622 123.617 548.388 121.393 547.12L101.982 527.706C101.982 527.706 101.873 527.664 101.831 527.706C101.789 527.74 101.789 527.815 101.831 527.849ZM39.7195 465.435C40.1475 464.99 40.4748 464.486 40.7098 463.941C41.6749 465.787 42.682 467.6 43.6974 469.413L39.7195 465.435ZM83.5019 414.511C83.5019 414.511 83.3928 414.478 83.3593 414.511L39.5768 458.3C38.9726 457.73 38.2593 457.377 37.504 457.15C37.504 457.142 37.5207 457.134 37.5207 457.117C37.3949 456.857 37.2941 456.58 37.1683 456.319L124.699 368.767C124.8 369.875 125.211 370.966 126.034 371.822L105.649 392.21C105.649 392.21 105.607 392.319 105.649 392.361C105.691 392.403 105.758 392.403 105.8 392.361L126.185 371.973C126.244 372.015 126.311 372.032 126.353 372.082C126.353 372.091 126.336 372.091 126.344 372.091C126.395 373.383 126.571 374.651 126.672 375.935C126.655 375.935 126.63 375.91 126.613 375.935L41.0623 461.498C40.9615 460.39 40.5503 459.299 39.7279 458.443L83.5103 414.654C83.5103 414.654 83.5523 414.545 83.5103 414.503L83.5019 414.511ZM37.0759 280.543L124.649 368.129C124.649 368.129 124.649 368.129 124.658 368.129C124.649 368.263 124.658 368.398 124.658 368.532L37.0843 456.118C10.7494 400.259 10.7494 336.41 37.0843 280.543H37.0759ZM31.6042 276.581C32.2672 275.188 33.0057 273.845 33.6939 272.476L35.9346 274.718L32.5861 278.067C32.1581 277.622 31.8224 277.126 31.6042 276.581ZM34.9191 270.076C36.4885 269.69 38.1921 270.026 39.4342 271.209L36.0773 274.567L33.7862 272.275C34.1554 271.536 34.5247 270.806 34.9107 270.076H34.9191ZM33.6435 272.124L32.7371 271.217C33.2994 270.68 33.9624 270.345 34.659 270.135C34.3149 270.798 33.9792 271.461 33.6435 272.124ZM443.714 241.337C443.404 240.959 443.412 240.438 443.714 240.052L444.352 240.69L443.706 241.337H443.714ZM443.572 241.479L442.791 242.26L413.981 271.075C413.36 270.47 412.613 270.126 411.832 269.908C411.832 269.891 411.857 269.883 411.849 269.866C401.837 250.679 388.997 233.203 373.698 217.894C358.399 202.592 340.918 189.758 321.741 179.745C321.725 179.737 321.716 179.762 321.691 179.762C321.473 178.981 321.129 178.226 320.524 177.605L349.327 148.798L350.099 148.026C350.56 148.412 351.215 148.412 351.676 148.026L352.449 148.807L442.774 239.146L443.547 239.927C443.16 240.388 443.16 241.043 443.547 241.505L443.572 241.479ZM409.054 279.527C409.18 279.796 409.289 280.064 409.407 280.324L321.867 367.877C321.766 366.769 321.355 365.686 320.533 364.83L325.702 359.66C325.702 359.66 325.744 359.551 325.702 359.509C325.66 359.467 325.593 359.467 325.551 359.509L320.382 364.679C320.323 364.629 320.264 364.612 320.214 364.57C320.214 364.562 320.231 364.57 320.231 364.553C320.18 363.261 320.004 361.993 319.903 360.709C319.929 360.709 319.954 360.726 319.971 360.709L364.307 316.366L364.5 316.559L364.886 316.165L364.693 315.972L366.162 314.503L366.497 314.545L366.976 314.066L366.64 314.024L367.58 313.084L367.773 313.277L368.847 312.203C369.074 311.976 369.099 311.716 369.2 311.473L371.6 309.072L371.793 309.265L372.179 308.879L371.986 308.686L405.521 275.146C405.622 276.254 406.033 277.336 406.856 278.201L399.856 285.201C399.856 285.201 399.823 285.31 399.856 285.344C399.89 285.377 399.957 285.386 399.999 285.344L406.998 278.344C407.594 278.923 408.307 279.267 409.063 279.485C409.063 279.502 409.046 279.51 409.054 279.519V279.527ZM409.499 456.11L321.926 368.523C321.926 368.389 321.926 368.255 321.926 368.121L409.499 280.534C435.834 336.401 435.834 400.259 409.499 456.118V456.11ZM411.732 460.701C411.732 460.701 411.841 460.743 411.883 460.701L413.997 458.586C414.509 459.123 414.845 459.752 415.063 460.424C414.425 461.75 413.737 463.051 413.074 464.352L408.131 459.408C408.475 458.712 408.845 458.023 409.172 457.327C410.783 456.874 412.562 457.201 413.846 458.435L411.732 460.55C411.732 460.55 411.69 460.659 411.732 460.701ZM359.725 512.715C359.725 512.715 359.834 512.757 359.876 512.715L401.913 470.672C383.752 502.274 357.215 528.865 325.585 547.011L337.586 535C337.586 535 337.628 534.891 337.586 534.849C337.544 534.807 337.477 534.807 337.435 534.849L324.922 547.364C322.849 548.547 320.759 549.706 318.645 550.814C318.007 550.579 317.352 550.478 316.689 550.511L231.105 464.914C254.058 463.068 275.525 453.281 291.89 436.914C308.255 420.546 318.032 399.084 319.887 376.128L405.462 461.717C405.437 462.371 405.538 463.017 405.756 463.639C404.64 465.779 403.465 467.894 402.273 469.993L359.725 512.548C359.725 512.548 359.683 512.657 359.725 512.699V512.715ZM317.042 555.556L320.399 552.198C321.649 553.508 321.968 555.321 321.481 556.949C320.801 557.302 320.122 557.604 319.442 557.948L317.042 555.547V555.556ZM319.24 558.049C317.881 558.737 316.513 559.409 315.137 560.072C314.558 559.845 314.02 559.501 313.542 559.048L316.891 555.699L319.24 558.049ZM320.247 552.047L316.891 555.405L314.549 553.063C315.917 552.383 317.31 551.754 318.67 551.04C319.24 551.267 319.769 551.611 320.239 552.056L320.247 552.047ZM320.39 551.905C319.945 551.477 319.433 551.149 318.896 550.923C320.751 549.941 322.572 548.925 324.393 547.909L320.39 551.913V551.905ZM219.943 465.435L223.292 462.086L226.64 465.435C224.769 467.223 221.823 467.223 219.943 465.435ZM126.563 372.217C128.459 373.727 131.136 373.702 132.983 372.099C133.05 373.618 133.234 375.121 133.377 376.632C133.36 376.632 133.335 376.615 133.318 376.632C133.276 376.674 133.276 376.741 133.318 376.783L133.402 376.867C135.383 397.783 144.438 417.315 159.376 432.255C174.323 447.204 193.852 456.252 214.757 458.233L214.841 458.317C214.841 458.317 214.95 458.359 214.992 458.317C215.009 458.3 214.992 458.284 214.992 458.25C216.494 458.393 217.996 458.577 219.515 458.644C217.912 460.491 217.887 463.169 219.406 465.066C169.321 463.051 128.585 422.309 126.571 372.217H126.563ZM126.244 364.889C128.115 363.017 131.136 363.009 133.041 364.83L129.684 368.188L128.711 367.214C128.711 367.214 128.602 367.18 128.56 367.214C128.518 367.256 128.518 367.323 128.56 367.365L129.533 368.33L126.185 371.679C124.364 369.782 124.372 366.761 126.235 364.889H126.244ZM126.563 364.436C128.577 314.343 169.313 273.601 219.389 271.587C217.879 273.484 217.904 276.145 219.498 277.999C217.979 278.058 216.477 278.251 214.967 278.394C214.967 278.377 214.983 278.352 214.967 278.335C214.925 278.293 214.858 278.293 214.824 278.335L214.74 278.419C193.827 280.4 174.306 289.457 159.36 304.405C144.413 319.346 135.366 338.878 133.385 359.794L133.302 359.878C133.302 359.878 133.26 359.987 133.302 360.029C133.318 360.046 133.344 360.029 133.369 360.029C133.226 361.54 133.041 363.034 132.974 364.553C131.128 362.959 128.451 362.933 126.554 364.444L126.563 364.436ZM39.5601 278.041L38.7124 277.194C39.3502 275.901 40.0132 274.608 40.6762 273.333C41.163 274.969 40.8189 276.791 39.5601 278.092C39.5601 278.075 39.5685 278.058 39.5601 278.041ZM39.4677 278.184C38.939 278.704 38.318 279.04 37.6634 279.267C37.9655 278.637 38.3096 278.025 38.6117 277.395L39.409 278.193C39.409 278.193 39.4426 278.193 39.4593 278.193L39.4677 278.184ZM43.7814 267.155C42.7407 269.002 41.7336 270.857 40.7518 272.745C40.5168 272.183 40.1727 271.671 39.7363 271.209L43.7897 267.155H43.7814ZM39.5852 271.352C40.0552 271.847 40.3909 272.401 40.6175 272.997C39.9125 274.34 39.2328 275.683 38.5614 277.034L36.2283 274.701L39.5852 271.343V271.352ZM41.1126 274.911C41.1378 274.273 41.0455 273.643 40.8273 273.03C41.9602 270.857 43.1352 268.716 44.3353 266.601L56.7726 254.162C56.7726 254.162 56.8145 254.053 56.7726 254.011C56.7306 253.969 56.6635 253.969 56.6215 254.011L44.7129 265.921C63.0416 233.833 89.2674 207.687 121.032 189.591L78.9113 231.718C78.9113 231.718 78.8694 231.827 78.9113 231.86C78.9533 231.902 79.0204 231.902 79.054 231.86L121.687 189.221C123.743 188.055 125.807 186.905 127.922 185.805C128.552 186.04 129.215 186.141 129.886 186.116L215.462 271.713C192.509 273.568 171.05 283.346 154.685 299.713C138.329 316.072 128.543 337.543 126.688 360.499L41.1042 274.911H41.1126ZM312.065 182.532C312.065 182.532 312.082 182.523 312.099 182.523C312.317 183.279 312.669 183.992 313.24 184.588L306.241 191.588C306.241 191.588 306.199 191.689 306.241 191.731C306.283 191.773 306.341 191.773 306.383 191.731L313.383 184.731C314.247 185.553 315.321 185.973 316.429 186.074L230.887 271.629C230.887 271.629 230.887 271.671 230.887 271.696C229.603 271.595 228.335 271.419 227.043 271.369C227.043 271.369 227.043 271.377 227.035 271.377C226.984 271.327 226.968 271.268 226.917 271.209L232.087 266.039C232.087 266.039 232.129 265.93 232.087 265.896C232.045 265.854 231.986 265.854 231.944 265.896L226.775 271.066C225.91 270.244 224.828 269.824 223.72 269.732L311.259 182.179C311.52 182.305 311.788 182.414 312.057 182.532H312.065ZM371.826 308.543L368.276 304.993L367.513 305.757L367.655 306.369L368.268 305.757L371.44 308.93L369.426 310.944C369.434 310.508 369.283 310.138 368.981 309.836C368.83 309.685 368.654 309.567 368.461 309.5C368.268 309.433 368.067 309.4 367.874 309.425C367.672 309.433 367.429 309.517 367.16 309.643C367.236 309.391 367.244 309.156 367.185 308.93C367.127 308.703 367.009 308.51 366.833 308.334C366.648 308.149 366.438 308.023 366.187 307.973C365.935 307.914 365.692 307.939 365.457 308.023C365.222 308.115 364.945 308.317 364.643 308.627L363.87 309.4L367.42 312.95L366.371 313.999L363.77 313.663C364.089 313.336 364.307 313.034 364.408 312.774C364.508 312.505 364.533 312.237 364.475 311.976C364.416 311.716 364.273 311.481 364.063 311.263C363.812 311.011 363.526 310.868 363.207 310.843C362.889 310.818 362.586 310.885 362.301 311.061C362.116 311.179 361.798 311.456 361.37 311.892L360.597 312.665L364.147 316.215L319.878 360.491C318.049 337.812 308.448 316.618 292.444 300.326L292.847 297.128C293.182 297.447 293.476 297.665 293.736 297.766C294.005 297.867 294.265 297.892 294.525 297.825C294.794 297.766 295.02 297.632 295.239 297.414C295.49 297.162 295.633 296.876 295.658 296.557C295.692 296.239 295.616 295.936 295.432 295.651C295.314 295.466 295.037 295.156 294.601 294.719L293.829 293.947L289.943 297.833L290.329 298.219L292.133 296.415L292.352 296.633L291.957 299.789C291.957 299.789 291.898 299.722 291.865 299.688C275.5 283.321 254.041 273.542 231.088 271.688L316.672 186.099C317.335 186.124 317.99 186.032 318.619 185.797C320.726 186.905 322.807 188.055 324.872 189.221L360.337 224.684C360.337 224.684 360.446 224.726 360.48 224.684C360.522 224.642 360.522 224.575 360.48 224.533L325.518 189.566C357.492 207.838 383.71 234.068 401.98 266.039L382.77 246.826C382.77 246.826 382.669 246.784 382.627 246.826C382.585 246.86 382.594 246.927 382.627 246.969L402.332 266.677C403.499 268.741 404.648 270.823 405.748 272.93C405.513 273.568 405.421 274.222 405.446 274.877L371.818 308.51L371.826 308.543ZM368.251 312.027L367.764 312.514L366.271 311.02L366.497 310.793C366.824 310.466 367.068 310.247 367.236 310.155C367.479 310.004 367.722 309.937 367.966 309.953C368.209 309.962 368.419 310.063 368.587 310.231C368.73 310.373 368.813 310.541 368.855 310.734C368.889 310.936 368.872 311.129 368.797 311.313C368.721 311.506 368.537 311.733 368.251 312.018V312.027ZM366.103 310.407L365.885 310.633L364.643 309.383L365.087 308.93C365.364 308.653 365.616 308.51 365.834 308.485C366.061 308.451 366.262 308.543 366.438 308.72C366.573 308.854 366.657 309.005 366.69 309.19C366.724 309.374 366.699 309.551 366.632 309.727C366.556 309.903 366.38 310.121 366.111 310.398L366.103 310.407ZM365.893 314.469L364.533 315.829L363.065 314.36L363.283 314.142L365.893 314.469ZM363.358 313.319L362.687 313.982L361.361 312.656L362.049 311.968C362.318 311.699 362.536 311.532 362.696 311.464C362.855 311.397 363.023 311.38 363.199 311.414C363.375 311.448 363.526 311.532 363.661 311.666C363.795 311.8 363.879 311.96 363.921 312.136C363.954 312.312 363.938 312.488 363.862 312.665C363.787 312.841 363.619 313.059 363.358 313.319ZM318.116 367.097C318.116 367.097 318.225 367.139 318.267 367.097L320.382 364.981C322.178 366.853 322.178 369.799 320.382 371.679L313.542 364.83C315.414 363.034 318.368 363.042 320.239 364.83L318.124 366.945C318.124 366.945 318.082 367.055 318.124 367.097H318.116ZM231.726 458.032C230.131 458.183 228.545 458.393 226.934 458.46C226.934 458.46 226.934 458.451 226.934 458.443L243.979 441.396C243.979 441.396 244.021 441.287 243.979 441.245C243.937 441.203 243.87 441.203 243.828 441.245L226.783 458.292C225.919 457.469 224.844 457.05 223.728 456.957L311.906 368.767C312.006 369.908 312.426 371.033 313.299 371.906C313.324 371.931 313.366 371.94 313.391 371.973C313.332 373.585 313.122 375.171 312.963 376.774L231.726 458.023V458.032ZM312.938 377.102C308.742 419.631 274.568 453.81 232.045 458.007L312.938 377.102ZM214.832 458.032L133.595 376.783C133.444 375.188 133.234 373.593 133.176 371.973L173.14 411.943C173.14 411.943 173.249 411.985 173.282 411.943C173.324 411.901 173.324 411.834 173.282 411.792L133.318 371.822C134.141 370.966 134.56 369.883 134.653 368.775L176.396 410.533C176.396 410.533 176.505 410.575 176.547 410.533L216.805 370.269C217.115 371.335 217.652 372.342 218.491 373.173C219.305 373.988 220.271 374.525 221.303 374.835L181.079 415.065C181.079 415.065 181.037 415.175 181.079 415.216L222.822 456.974C221.714 457.066 220.64 457.486 219.775 458.309L195.572 434.093C195.572 434.093 195.463 434.06 195.421 434.093C195.379 434.135 195.379 434.203 195.421 434.245L219.624 458.451C218.005 458.393 216.418 458.183 214.824 458.032H214.832ZM214.505 458.007C171.99 453.81 137.817 419.623 133.62 377.11L214.505 458.007ZM214.824 278.637C216.427 278.486 218.013 278.268 219.624 278.209C219.658 278.243 219.666 278.276 219.691 278.302C220.564 279.175 221.689 279.594 222.839 279.695L134.661 367.885C134.569 366.778 134.149 365.695 133.327 364.83L150.371 347.783C150.371 347.783 150.413 347.674 150.371 347.632C150.329 347.59 150.271 347.59 150.229 347.632L133.184 364.679C133.184 364.679 133.176 364.679 133.167 364.679C133.234 363.059 133.444 361.473 133.604 359.87L214.832 278.629L214.824 278.637ZM133.62 359.568C137.817 317.038 171.99 282.859 214.513 278.662L133.62 359.568ZM226.632 271.226L224.517 273.341C224.517 273.341 224.475 273.45 224.517 273.484C224.559 273.526 224.626 273.526 224.668 273.484L226.783 271.369C228.579 273.24 228.579 276.186 226.783 278.067L222.318 273.601C222.318 273.601 222.209 273.568 222.167 273.601C222.125 273.635 222.125 273.702 222.167 273.744L226.632 278.209C224.727 280.031 221.714 280.022 219.843 278.15C217.946 276.254 217.946 273.165 219.843 271.276C221.714 269.405 224.735 269.396 226.632 271.217V271.226ZM231.726 278.637L312.963 359.886C313.114 361.481 313.332 363.059 313.391 364.688H313.383L289.179 340.481C289.137 340.439 289.07 340.447 289.028 340.481C288.986 340.514 288.986 340.581 289.028 340.623L313.232 364.839C312.401 365.703 311.989 366.786 311.897 367.894L270.146 326.136C270.146 326.136 270.045 326.086 270.003 326.136L229.787 366.358C229.468 365.334 228.94 364.36 228.126 363.546C227.286 362.707 226.279 362.17 225.222 361.859L265.471 321.604C265.471 321.604 265.505 321.503 265.471 321.461L223.72 279.703C224.828 279.603 225.91 279.191 226.775 278.36L266.738 318.33C266.738 318.33 266.848 318.372 266.881 318.33C266.923 318.288 266.923 318.221 266.881 318.179L226.917 278.209C228.537 278.276 230.123 278.486 231.718 278.646L231.726 278.637ZM232.045 278.662C274.568 282.851 308.75 317.038 312.938 359.568L232.045 278.662ZM311.847 368.532C311.847 368.532 311.847 368.532 311.838 368.532L223.476 456.915C223.334 456.915 223.216 456.915 223.074 456.915L181.305 415.141L221.529 374.911C223.812 375.532 226.347 374.97 228.126 373.182C229.913 371.394 230.467 368.867 229.854 366.584L270.079 326.354L311.855 368.137C311.855 368.272 311.855 368.406 311.855 368.54L311.847 368.532ZM176.471 410.315L134.703 368.54C134.711 368.398 134.703 368.272 134.703 368.129L223.065 279.754C223.065 279.754 223.065 279.754 223.065 279.745C223.199 279.754 223.334 279.745 223.468 279.745L265.236 321.528L224.979 361.792C222.729 361.213 220.237 361.792 218.475 363.546C216.712 365.3 216.15 367.793 216.721 370.051L176.463 410.315H176.471ZM218.634 363.697C220.312 362.018 222.662 361.456 224.819 361.96L216.897 369.883C216.393 367.734 216.956 365.367 218.634 363.697ZM225.046 362.027C226.12 362.312 227.135 362.849 227.975 363.689C228.789 364.503 229.317 365.485 229.611 366.526L221.462 374.676C220.43 374.374 219.448 373.845 218.634 373.031C217.795 372.191 217.258 371.176 216.964 370.11L225.046 362.027ZM229.678 366.752C230.224 368.926 229.678 371.335 227.975 373.039C226.271 374.743 223.871 375.289 221.689 374.751L229.678 366.761V366.752ZM133.167 364.981C134.963 366.853 134.955 369.808 133.167 371.688L129.819 368.339L133.176 364.981H133.167ZM226.623 458.451L223.267 461.809L219.918 458.46C221.79 456.672 224.744 456.672 226.623 458.46V458.451ZM313.433 371.772C312.476 370.815 312.015 369.564 312.015 368.305L312.115 368.406C312.115 368.406 312.224 368.448 312.266 368.406C312.308 368.364 312.3 368.305 312.266 368.263L312.073 368.07C312.141 366.954 312.56 365.863 313.391 364.99L320.231 371.839C318.334 373.66 315.313 373.652 313.441 371.78L313.433 371.772ZM313.576 364.553C313.517 363.034 313.315 361.54 313.181 360.029C313.206 360.029 313.223 360.046 313.24 360.029C313.282 359.987 313.282 359.92 313.24 359.878L313.156 359.803C311.184 338.878 302.12 319.354 287.174 304.405C272.227 289.457 252.707 280.4 231.785 278.419L231.701 278.344C231.701 278.344 231.592 278.31 231.558 278.344C231.541 278.36 231.558 278.377 231.558 278.402C230.048 278.26 228.554 278.067 227.026 278.008C228.629 276.161 228.654 273.492 227.144 271.595C277.229 273.618 317.965 314.352 319.979 364.444C318.082 362.933 315.405 362.959 313.559 364.553H313.576ZM293.174 296.742L292.511 296.062L293.837 294.736L294.525 295.424C294.794 295.693 294.953 295.903 295.02 296.071C295.087 296.23 295.113 296.398 295.071 296.574C295.037 296.751 294.953 296.902 294.827 297.036C294.693 297.17 294.534 297.263 294.357 297.296C294.173 297.338 293.996 297.321 293.82 297.246C293.652 297.162 293.434 297.002 293.174 296.742ZM324.343 188.735C322.53 187.719 320.709 186.703 318.863 185.738C319.408 185.503 319.912 185.176 320.357 184.748L324.343 188.735ZM402.836 267.239L406.822 271.226C406.394 271.671 406.067 272.183 405.832 272.72C404.867 270.882 403.851 269.06 402.836 267.247V267.239ZM402.483 266.601C393.344 250.494 382.098 235.713 368.981 222.594C355.864 209.475 341.085 198.236 324.981 189.095L320.499 184.613C321.716 183.346 322.077 181.608 321.708 179.997C360.32 200.192 391.389 231.264 411.58 269.883C409.969 269.514 408.232 269.866 406.956 271.092L402.475 266.609L402.483 266.601ZM320.357 184.462L317.008 181.113L320.365 177.756C322.161 179.636 322.153 182.582 320.365 184.462H320.357ZM320.214 184.605C318.342 186.401 315.388 186.401 313.517 184.605L316.865 181.256L320.214 184.605ZM223.468 269.698C223.334 269.698 223.199 269.698 223.065 269.698C223.065 269.698 223.065 269.698 223.065 269.69L135.458 182.07C141.694 179.141 148.105 176.505 154.693 174.18C206.197 155.983 261.678 158.82 311.05 182.104L223.468 269.698ZM135.257 182.179L222.822 269.749C221.68 269.849 220.556 270.269 219.683 271.142C219.616 271.209 219.582 271.318 219.515 271.402C219.515 271.402 219.515 271.385 219.498 271.385C218.206 271.436 216.939 271.612 215.655 271.713C215.655 271.688 215.672 271.671 215.655 271.654L130.113 186.091C131.262 185.99 132.387 185.57 133.251 184.697C133.864 184.085 134.216 183.346 134.451 182.582C134.72 182.448 134.988 182.305 135.265 182.179H135.257ZM133.142 184.496C133.142 184.496 133.159 184.462 133.142 184.445L132.328 183.631C132.957 183.329 133.579 183.002 134.216 182.7C133.99 183.354 133.654 183.967 133.142 184.496ZM132.999 184.597C132.999 184.597 133.033 184.597 133.05 184.597C131.724 185.889 129.861 186.217 128.207 185.696C129.508 185.025 130.826 184.387 132.143 183.74L132.999 184.605V184.597ZM129.668 368.498L133.016 371.847C131.145 373.635 128.191 373.643 126.319 371.847L129.668 368.498ZM219.775 458.619L223.124 461.968L219.775 465.317C217.988 463.437 217.979 460.491 219.775 458.619ZM223.418 461.968L226.775 458.611C228.562 460.491 228.562 463.437 226.775 465.309L223.426 461.96L223.418 461.968ZM227.051 458.67C228.57 458.603 230.064 458.418 231.575 458.275C231.575 458.3 231.558 458.326 231.575 458.342C231.617 458.384 231.684 458.384 231.726 458.342L231.81 458.258C252.723 456.278 272.252 447.221 287.19 432.28C302.137 417.332 311.192 397.808 313.164 376.892L313.248 376.808C313.248 376.808 313.29 376.699 313.248 376.657C313.232 376.64 313.206 376.657 313.19 376.657C313.324 375.146 313.517 373.652 313.576 372.124C315.422 373.719 318.091 373.753 319.987 372.233C317.973 422.326 277.237 463.06 227.161 465.082C228.671 463.185 228.646 460.508 227.051 458.661V458.67ZM407.032 458.527C407.577 457.981 408.215 457.637 408.895 457.402C408.576 458.074 408.232 458.72 407.896 459.383C407.896 459.383 407.896 459.383 407.879 459.383C407.879 459.383 407.879 459.4 407.879 459.408C407.225 460.734 406.562 462.077 405.874 463.387C405.362 461.717 405.697 459.845 407.015 458.527H407.032ZM408.005 459.643L412.948 464.587C412.613 465.233 412.302 465.888 411.966 466.534C410.28 467.08 408.375 466.744 407.04 465.41C406.545 464.914 406.201 464.335 405.966 463.731C406.671 462.38 407.342 461.02 408.014 459.652L408.005 459.643ZM409.012 457.176C408.24 457.402 407.493 457.763 406.881 458.376C406.008 459.249 405.588 460.365 405.488 461.515L319.945 375.952C319.945 375.952 319.903 375.952 319.878 375.952C319.979 374.676 320.155 373.4 320.206 372.116C320.206 372.107 320.197 372.107 320.197 372.107C320.247 372.057 320.315 372.04 320.373 371.99L333.6 385.218C333.6 385.218 333.709 385.26 333.742 385.218C333.784 385.176 333.784 385.109 333.742 385.067L320.516 371.839C321.338 370.983 321.75 369.9 321.85 368.792L409.39 456.345C409.273 456.605 409.163 456.882 409.038 457.142C409.029 457.15 409.029 457.167 409.021 457.184L409.012 457.176ZM407.124 278.226L410.473 274.869L413.821 278.218C411.95 280.014 409.004 280.006 407.124 278.218V278.226ZM406.973 278.075C405.186 276.195 405.177 273.249 406.973 271.369L410.322 274.718L406.973 278.075ZM407.124 271.226C408.996 269.43 411.95 269.43 413.83 271.226L410.473 274.583L407.124 271.234V271.226ZM350.241 147.875L350.888 147.237L351.534 147.875C351.148 148.185 350.627 148.185 350.25 147.875H350.241ZM350.099 147.732C349.788 147.354 349.788 146.826 350.099 146.44L350.745 147.086L350.099 147.724V147.732ZM316.874 180.962L315.9 179.997C315.9 179.997 315.8 179.955 315.758 179.997C315.716 180.03 315.716 180.098 315.758 180.14L316.731 181.113L313.383 184.462C311.561 182.557 311.57 179.544 313.441 177.672C315.313 175.8 318.334 175.792 320.231 177.613L316.874 180.971V180.962ZM313.29 177.521C311.99 178.822 311.629 180.643 312.048 182.314C311.813 182.196 311.561 182.104 311.327 181.986C311.327 181.986 311.327 181.978 311.327 181.969C311.318 181.961 311.301 181.969 311.293 181.969C286.435 170.227 260.033 163.621 232.783 162.371C206.163 161.153 179.87 165.056 154.635 173.979C147.736 176.413 141.039 179.225 134.502 182.33C134.913 180.694 134.569 178.906 133.318 177.605L136.398 174.533C191.368 149.931 256.34 148.622 314.801 176.522C314.264 176.765 313.743 177.076 313.299 177.521H313.29ZM133.167 177.462C132.781 177.093 132.328 176.824 131.866 176.606C133.201 175.968 134.527 175.364 135.87 174.759L133.167 177.462ZM133.025 177.605L130.91 179.72C130.91 179.72 130.868 179.829 130.91 179.871C130.952 179.913 131.019 179.913 131.061 179.871L133.176 177.756C134.409 179.048 134.745 180.836 134.283 182.448C133.587 182.784 132.899 183.128 132.202 183.472L127.494 178.763C128.879 178.066 130.272 177.37 131.673 176.698C132.16 176.916 132.622 177.21 133.033 177.605H133.025ZM127.259 178.528L126.328 177.605C127.679 176.312 129.592 175.976 131.262 176.556C129.919 177.202 128.585 177.865 127.259 178.536V178.528ZM127.058 178.629C126.412 178.956 125.749 179.258 125.111 179.594C125.329 178.931 125.665 178.293 126.177 177.756L127.058 178.637V178.629ZM127.293 178.864L132.001 183.573C130.624 184.252 129.231 184.907 127.872 185.612C127.276 185.377 126.722 185.025 126.235 184.538C124.993 183.296 124.658 181.566 125.035 179.972C125.774 179.586 126.537 179.241 127.293 178.855V178.864ZM126.093 184.689C126.554 185.15 127.091 185.469 127.654 185.721C125.816 186.686 124.011 187.711 122.19 188.735L123.625 187.299C123.625 187.299 123.667 187.19 123.625 187.148C123.583 187.106 123.525 187.106 123.483 187.148L121.536 189.095C109.073 196.154 97.3491 204.456 86.5315 214.041C69.5204 229.107 55.3459 246.717 44.1506 266.484L39.5684 271.066C38.318 269.866 36.6144 269.505 35.0198 269.849C55.7739 230.123 87.5386 199.52 124.8 180.081C124.465 181.692 124.834 183.43 126.084 184.68L126.093 184.689ZM36.0773 274.869L38.4607 277.252C38.1166 277.949 37.7473 278.621 37.4032 279.326C35.8003 279.779 34.0128 279.452 32.7288 278.218L36.0773 274.869ZM37.5459 279.502C38.318 279.267 39.0565 278.914 39.6608 278.31C40.5336 277.437 40.9615 276.312 41.0623 275.179L126.605 360.734C126.605 360.734 126.655 360.734 126.672 360.734C126.571 362.01 126.395 363.277 126.344 364.57C126.344 364.57 126.353 364.579 126.353 364.587C126.277 364.662 126.177 364.679 126.101 364.755C125.228 365.628 124.817 366.744 124.708 367.894L37.1683 280.341C37.2941 280.073 37.3949 279.804 37.5291 279.535C37.5291 279.527 37.5375 279.51 37.5459 279.494V279.502ZM126.336 552.073C126.806 551.619 127.351 551.275 127.931 551.057C130.037 552.156 132.143 553.248 134.292 554.28C134.745 555.883 134.409 557.637 133.184 558.922L126.344 552.081L126.336 552.073ZM133.033 559.064C132.58 559.501 132.068 559.845 131.522 560.072C129.349 559.039 127.209 557.931 125.077 556.823C124.649 555.237 124.985 553.491 126.193 552.224L133.033 559.064ZM128.434 550.956C130.02 550.528 131.774 550.864 133.033 552.073L132.387 552.727C132.387 552.727 132.345 552.836 132.387 552.87C132.429 552.912 132.496 552.912 132.538 552.87L133.184 552.215C133.654 552.711 133.998 553.281 134.216 553.894C132.269 552.954 130.347 551.955 128.434 550.956ZM311.251 554.473L223.728 466.937C224.836 466.837 225.919 466.425 226.775 465.603L240.001 478.831C240.001 478.831 240.11 478.873 240.152 478.831C240.194 478.789 240.194 478.722 240.152 478.68L226.926 465.452C226.976 465.401 226.993 465.334 227.035 465.284C227.043 465.284 227.051 465.284 227.051 465.284C228.344 465.233 229.611 465.049 230.887 464.956C230.887 464.982 230.87 465.007 230.887 465.024L316.429 550.579C315.288 550.679 314.163 551.099 313.29 551.972C312.703 552.568 312.342 553.281 312.107 554.028C311.822 554.171 311.536 554.314 311.243 554.456L311.251 554.473ZM313.45 552.14C314.767 550.814 316.664 550.478 318.334 550.998C316.353 552.031 314.348 552.971 312.35 553.936C312.585 553.281 312.929 552.669 313.45 552.148V552.14ZM314.348 553.181L316.74 555.573L313.391 558.922C312.149 557.621 311.813 555.816 312.3 554.188C312.988 553.86 313.668 553.516 314.348 553.181ZM315.464 560.156C316.773 559.526 318.082 558.88 319.391 558.225L320.239 559.073C318.93 560.323 317.1 560.659 315.464 560.156ZM320.382 558.93L319.585 558.133C320.197 557.822 320.818 557.545 321.422 557.226C321.196 557.847 320.86 558.418 320.382 558.922V558.93ZM321.867 556.79C321.817 556.815 321.758 556.84 321.708 556.865C322.136 555.212 321.792 553.399 320.533 552.081L325.039 547.574C342.21 537.829 357.845 525.717 371.583 511.482C383.617 499.017 393.948 485.143 402.458 470.144L404.439 468.163C404.439 468.163 404.481 468.054 404.439 468.012C404.397 467.97 404.33 467.97 404.288 468.012L402.819 469.481C403.851 467.651 404.867 465.821 405.84 463.958C406.092 464.528 406.428 465.082 406.898 465.552C408.24 466.895 410.145 467.248 411.857 466.769C391.842 504.993 360.136 536.796 321.859 556.79H321.867ZM412.243 466.484C412.537 465.905 412.831 465.317 413.125 464.747L413.846 465.468C413.368 465.922 412.831 466.266 412.252 466.492L412.243 466.484ZM413.989 465.317L413.225 464.554C413.863 463.303 414.509 462.061 415.122 460.793C415.516 462.363 415.181 464.067 413.989 465.317ZM415.072 459.887C414.837 459.383 414.543 458.896 414.132 458.477L416.943 455.665C416.314 457.075 415.735 458.493 415.063 459.895L415.072 459.887ZM417.186 455.128L413.989 458.326C412.697 457.083 410.917 456.731 409.281 457.134C409.39 456.899 409.491 456.655 409.6 456.412C409.6 456.412 409.608 456.412 409.617 456.412C409.625 456.403 409.617 456.387 409.617 456.378C416.062 442.722 421.03 428.369 424.345 413.655C427.685 398.816 429.38 383.573 429.38 368.356C429.38 353.138 427.685 337.895 424.345 323.064C421.03 308.35 416.062 293.989 409.617 280.341C409.617 280.324 409.633 280.308 409.617 280.291C409.617 280.291 409.6 280.291 409.591 280.291C409.482 280.056 409.39 279.804 409.273 279.569C410.909 279.972 412.688 279.619 413.981 278.377L417.178 281.575C442.019 337.031 442.011 399.663 417.178 455.119L417.186 455.128ZM416.951 281.063L414.132 278.243C414.534 277.823 414.837 277.336 415.072 276.833C415.743 278.226 416.322 279.661 416.951 281.072V281.063ZM413.981 278.092L410.632 274.743L413.989 271.385C415.777 273.257 415.777 276.212 413.989 278.083L413.981 278.092ZM443.857 241.513L444.503 240.867L445.141 241.505C444.755 241.815 444.243 241.815 443.857 241.505V241.513ZM537.313 333.699L537.951 334.337L537.305 334.975C536.994 334.597 537.003 334.076 537.305 333.69L537.313 333.699ZM537.456 335.134L538.102 334.488L538.74 335.126C538.354 335.428 537.842 335.428 537.456 335.126V335.134ZM538.883 334.983L538.245 334.345L538.883 333.707C539.185 334.085 539.185 334.605 538.883 334.983ZM538.74 333.556L538.102 334.194L537.464 333.556C537.842 333.254 538.362 333.254 538.748 333.556H538.74ZM445.284 241.37L444.646 240.732L445.284 240.094C445.586 240.48 445.586 240.992 445.284 241.37ZM445.141 239.943L444.503 240.581L443.865 239.943C444.243 239.633 444.763 239.633 445.149 239.943H445.141ZM351.685 147.757L351.039 147.111L351.676 146.473C351.979 146.859 351.979 147.38 351.676 147.757H351.685ZM351.542 146.322L350.904 146.96L350.258 146.314C350.644 146.012 351.165 146.012 351.542 146.314V146.322ZM257.297 53.641L257.943 54.2873C257.557 54.5979 257.037 54.5979 256.651 54.2873L257.297 53.641ZM258.086 54.1362L257.44 53.49L258.078 52.8521C258.38 53.2382 258.38 53.7585 258.078 54.1362H258.086ZM257.935 52.701L257.297 53.3389L256.651 52.6926C257.029 52.3904 257.549 52.3904 257.935 52.6926V52.701ZM256.5 52.8437L257.146 53.4816L256.5 54.1279C256.189 53.7502 256.189 53.2214 256.5 52.8437ZM223.132 87.5004L212.634 97.9923C212.634 97.9923 212.592 98.1014 212.634 98.135C212.676 98.177 212.734 98.177 212.776 98.135L223.275 87.6431L226.607 90.9753C226.607 90.9753 226.707 91.0173 226.749 90.9753C226.791 90.9334 226.791 90.8663 226.749 90.8327L223.418 87.5004L255.719 55.1938L256.491 54.4217C256.953 54.8078 257.608 54.8078 258.069 54.4217L258.85 55.2022L349.176 145.542L349.948 146.314C349.562 146.784 349.562 147.43 349.948 147.892L349.176 148.664L320.373 177.47C318.905 176.06 316.815 175.708 315.028 176.404C289.137 164.024 261.586 157.083 233.153 155.773C205.685 154.506 178.544 158.535 152.495 167.726C147.216 169.589 142.071 171.696 137.003 173.945L138.496 172.451C138.496 172.451 138.538 172.342 138.496 172.3C138.454 172.266 138.387 172.266 138.354 172.3L136.491 174.163C134.837 174.902 133.201 175.641 131.573 176.413C129.785 175.691 127.662 176.06 126.193 177.47L93.6985 144.971L92.9264 144.19C93.3041 143.729 93.3041 143.082 92.9264 142.612L93.7069 141.832L184.033 51.4923L184.805 50.7201C185.266 51.1062 185.921 51.1062 186.383 50.7201L187.155 51.5007L223.149 87.5004H223.132ZM-2.40963 237.66C-2.72015 237.283 -2.72015 236.762 -2.40963 236.384L-1.77181 237.022L-2.40963 237.66ZM-2.26695 236.233C-1.88091 235.923 -1.36898 235.931 -0.982941 236.233L-1.62914 236.88L-2.26695 236.242V236.233ZM-0.840271 236.376C-0.538147 236.762 -0.529755 237.283 -0.840271 237.669L-1.48648 237.022L-0.840271 236.376ZM184.788 50.4348C184.478 50.057 184.478 49.5366 184.788 49.1505L185.434 49.7968L184.796 50.4348H184.788ZM185.577 49.9395L186.223 50.5858C185.837 50.8963 185.317 50.8879 184.939 50.5858L185.577 49.9479V49.9395ZM91.9781 143.258L91.3319 142.612C91.7095 142.31 92.2299 142.31 92.6159 142.612L91.9781 143.25V143.258ZM91.827 143.41L91.1808 144.056C90.8787 143.67 90.8787 143.149 91.1808 142.763L91.827 143.41ZM91.9697 143.552L92.6159 144.199C92.2299 144.501 91.7095 144.501 91.3235 144.199L91.9697 143.552ZM92.1208 143.401L92.7586 142.763C93.0607 143.149 93.0607 143.67 92.7586 144.048L92.1124 143.401H92.1208ZM186.366 50.4348L185.72 49.7884L186.366 49.1421C186.668 49.5282 186.668 50.0486 186.366 50.4348ZM186.223 48.9994L185.577 49.6457L184.931 49.0078C185.317 48.6972 185.837 48.6972 186.223 49.0078V48.9994ZM164.529 28.8886L165.167 29.5265C164.781 29.8371 164.261 29.8371 163.883 29.5265L164.521 28.8886H164.529ZM165.318 29.3838L164.672 28.7459L165.318 28.0996C165.62 28.4857 165.62 29.0061 165.318 29.3838ZM165.175 27.9485L164.529 28.5948L163.883 27.9485C164.269 27.638 164.789 27.6463 165.175 27.9485ZM163.74 28.0912L164.386 28.7376L163.749 29.3754C163.438 28.9893 163.438 28.4689 163.749 28.0828L163.74 28.0912ZM-115.479 308.93C-115.168 309.307 -115.176 309.828 -115.479 310.205L-116.116 309.567L-115.479 308.93ZM-115.621 308.787L-116.259 309.425L-116.905 308.787C-116.528 308.485 -116.007 308.485 -115.621 308.787ZM-117.048 308.93L-116.402 309.567L-117.048 310.214C-117.358 309.828 -117.358 309.316 -117.048 308.93ZM-116.905 310.356L-116.259 309.71L-115.621 310.348C-116.007 310.659 -116.528 310.659 -116.905 310.348V310.356ZM-115.327 310.356C-114.941 309.895 -114.941 309.248 -115.327 308.787L-114.547 308.006L162.977 30.4414L163.749 29.6692C164.21 30.0553 164.856 30.0553 165.326 29.6692L166.099 30.4498L182.002 46.3555C182.002 46.3555 182.027 46.3555 182.035 46.3555C182.035 46.3639 182.027 46.3806 182.035 46.389L183.865 48.2273L184.645 48.9994C184.259 49.4694 184.259 50.1157 184.645 50.5774L183.873 51.3496L93.5474 141.689L92.767 142.47C92.297 142.092 91.6508 142.083 91.1892 142.47L90.4171 141.689L88.5792 139.859C88.5792 139.859 88.4701 139.817 88.4282 139.859C88.3862 139.901 88.3862 139.968 88.4282 140.002L90.2577 141.832L91.0382 142.612C90.6521 143.082 90.6521 143.729 91.0382 144.19L90.2577 144.971L-0.0681839 235.31L-0.840271 236.082C-1.30185 235.696 -1.94805 235.696 -2.41802 236.082L-3.19849 235.302L-5.02802 233.463C-5.02802 233.463 -5.13711 233.422 -5.17907 233.463C-5.22103 233.497 -5.22103 233.573 -5.17907 233.606L-3.34117 235.444L-2.56068 236.225C-2.94673 236.687 -2.94673 237.333 -2.56068 237.803L-3.33277 238.575L-93.6586 328.915L-94.4391 329.695C-94.9007 329.309 -95.5469 329.309 -96.0085 329.695L-96.789 328.915L-98.6185 327.085C-98.6185 327.085 -98.6436 327.085 -98.6604 327.085C-98.6604 327.068 -98.652 327.051 -98.6604 327.043L-114.564 311.137L-115.344 310.356H-115.327ZM-95.2112 330.476L-95.849 329.838C-95.4714 329.536 -94.951 329.527 -94.5734 329.838L-95.2112 330.476ZM-96.0001 329.98L-95.3623 330.618L-96.0085 331.256C-96.3106 330.879 -96.319 330.358 -96.0085 329.972L-96.0001 329.98ZM-95.8574 331.407L-95.2112 330.769L-94.565 331.407C-94.951 331.718 -95.4714 331.718 -95.849 331.407H-95.8574ZM-94.4223 331.256L-95.0685 330.618L-94.4307 329.98C-94.1202 330.358 -94.1202 330.887 -94.4307 331.265L-94.4223 331.256ZM-2.25018 237.786L-1.61236 237.148L-0.966164 237.795C-1.34381 238.097 -1.87252 238.105 -2.24178 237.795L-2.25018 237.786ZM-0.672432 237.786C-0.286385 237.316 -0.286385 236.67 -0.672432 236.208L0.0996552 235.436L90.4255 145.097L91.206 144.316C91.676 144.702 92.3222 144.702 92.7837 144.316L93.5558 145.097L126.051 177.596C125.463 178.209 125.119 178.931 124.901 179.695C109.551 187.677 95.2595 197.481 82.2011 209.047C62.7311 226.279 46.8361 246.75 34.7681 269.9C33.9792 270.11 33.2239 270.462 32.5861 271.066L0.0912704 238.567L-0.680817 237.786H-0.672432ZM32.5945 271.36L33.5512 272.309C32.8882 273.626 32.1833 274.927 31.5371 276.262C30.9748 274.592 31.3105 272.695 32.5945 271.352V271.36ZM31.5119 276.791C31.7385 277.294 32.0406 277.781 32.4434 278.209L29.6236 281.03C30.2614 279.619 30.8405 278.192 31.5035 276.799L31.5119 276.791ZM29.397 281.542L32.5861 278.352C33.8869 279.594 35.666 279.947 37.3025 279.535C37.185 279.77 37.0927 280.022 36.9836 280.257C36.9752 280.257 36.9668 280.257 36.9585 280.257C36.9501 280.266 36.9585 280.283 36.9585 280.299C30.5132 293.947 25.545 308.308 22.23 323.014C18.8899 337.854 17.1947 353.096 17.1947 368.314C17.1947 383.531 18.8899 398.774 22.23 413.613C25.5366 428.327 30.5132 442.68 36.9585 456.328C36.9585 456.345 36.9417 456.361 36.9585 456.378C36.9585 456.378 36.9668 456.378 36.9836 456.378C37.0927 456.613 37.185 456.865 37.3025 457.1C35.6325 456.689 33.8114 457.05 32.5105 458.342C32.0658 458.787 31.7553 459.308 31.5119 459.845C4.5056 403.231 3.84261 338.584 29.397 281.533V281.542ZM32.6532 458.493C34.5247 456.622 37.5375 456.622 39.4426 458.435L38.7964 459.081C38.7964 459.081 38.7544 459.19 38.7964 459.224C38.8383 459.266 38.9055 459.266 38.939 459.224L39.5852 458.577C41.3812 460.449 41.3728 463.395 39.5852 465.275L35.1205 460.81C35.1205 460.81 35.0114 460.768 34.9695 460.81C34.9275 460.844 34.9275 460.911 34.9695 460.953L39.4342 465.418C37.5291 467.239 34.5163 467.231 32.6448 465.359C30.7482 463.462 30.7482 460.374 32.6448 458.485L32.6532 458.493ZM34.9695 466.778C36.5808 467.147 38.3096 466.795 39.5852 465.569L44.0667 470.051C53.2562 486.293 64.4431 501.032 77.4847 514.075C82.134 518.725 87.0183 523.157 92.1375 527.371C101.386 534.992 111.23 541.698 121.552 547.549L126.051 552.039C124.825 553.323 124.473 555.052 124.851 556.664C86.6154 536.763 55.3711 505.766 34.9779 466.769L34.9695 466.778ZM126.252 558.98C125.69 558.418 125.346 557.747 125.119 557.042C127.125 558.082 129.122 559.132 131.162 560.114C129.483 560.651 127.578 560.307 126.252 558.98ZM131.741 560.147C132.261 559.921 132.748 559.61 133.184 559.19L136.13 562.136C134.67 561.482 133.184 560.835 131.732 560.147H131.741ZM136.675 562.388L133.335 559.048C134.569 557.755 134.921 555.984 134.527 554.356C134.762 554.473 135.005 554.565 135.249 554.675C143.75 558.687 152.537 562.145 161.617 564.99C187.155 573.006 213.574 575.969 240.135 573.803C264.884 571.781 288.768 565.326 311.276 554.666C311.301 554.666 311.327 554.683 311.352 554.666C311.36 554.658 311.352 554.641 311.352 554.633C311.595 554.515 311.838 554.381 312.082 554.272C311.654 555.917 312.006 557.721 313.257 559.039L309.732 562.565C262.383 583.674 209.646 586.813 159.746 571.159C151.832 568.675 144.153 565.712 136.684 562.388H136.675Z" fill="#FFA500" fill-opacity="0.5"/>
<path d="M394.561 188.239L395.333 187.467L395.769 187.904L396.13 187.543L395.694 187.106L397.783 185.016L397.456 184.697L393.889 185.318L393.528 185.679L394.93 187.081L394.158 187.853L394.552 188.248L394.561 188.239ZM394.292 185.696L396.751 185.251L395.299 186.703L394.292 185.696Z" fill="#FFA500" fill-opacity="0.5"/>
<path d="M396.078 188.853L395.628 189.305L396.08 189.755L396.53 189.303L396.078 188.853Z" fill="#FFA500" fill-opacity="0.5"/>
<path d="M398.254 188.742C397.155 189.842 396.961 190.74 397.658 191.437C398.355 192.133 399.261 191.94 400.352 190.849C401.451 189.75 401.653 188.843 400.948 188.146C400.251 187.45 399.345 187.643 398.246 188.742H398.254ZM399.949 190.438C399.068 191.319 398.413 191.546 397.985 191.109C397.557 190.681 397.784 190.027 398.657 189.145C399.135 188.667 399.53 188.381 399.832 188.289C400.142 188.197 400.402 188.255 400.612 188.457C401.049 188.893 400.822 189.556 399.941 190.438H399.949Z" fill="#FFA500" fill-opacity="0.5"/>
<path d="M400.755 191.252C399.655 192.351 399.462 193.25 400.159 193.946C400.864 194.651 401.762 194.45 402.861 193.359C403.961 192.259 404.162 191.361 403.457 190.656C402.752 189.951 401.854 190.152 400.755 191.252ZM402.45 192.947C401.569 193.829 400.914 194.055 400.486 193.619C400.058 193.182 400.277 192.528 401.158 191.655C401.636 191.176 402.031 190.891 402.341 190.799C402.652 190.706 402.912 190.765 403.121 190.975C403.558 191.411 403.323 192.066 402.442 192.947H402.45Z" fill="#FFA500" fill-opacity="0.5"/>
<path d="M300.962 94.6183L301.734 93.8461L302.171 94.2825L302.532 93.9216L302.095 93.4851L304.185 91.3951L303.866 91.0762L300.299 91.6973L299.938 92.0582L301.34 93.46L300.568 94.2321L300.962 94.6267V94.6183ZM300.694 92.0751L303.161 91.6302L301.709 93.0822L300.702 92.0667L300.694 92.0751Z" fill="#FFA500" fill-opacity="0.5"/>
<path d="M302.477 95.2338L302.026 95.6855L302.478 96.1359L302.928 95.6842L302.477 95.2338Z" fill="#FFA500" fill-opacity="0.5"/>
<path d="M304.647 95.1298C303.547 96.2293 303.354 97.1274 304.059 97.824C304.756 98.5291 305.654 98.3277 306.753 97.2281C307.852 96.1286 308.054 95.2305 307.349 94.5254C306.644 93.8288 305.746 94.0218 304.647 95.1213V95.1298ZM306.342 96.8253C305.461 97.7066 304.806 97.9331 304.378 97.4967C303.95 97.0686 304.177 96.4139 305.049 95.5326C305.528 95.0542 305.922 94.7688 306.233 94.6765C306.543 94.5841 306.803 94.6345 307.013 94.8527C307.441 95.2808 307.223 95.9439 306.342 96.8253Z" fill="#FFA500" fill-opacity="0.5"/>
<path d="M307.155 97.6394C306.056 98.7389 305.863 99.637 306.559 100.334C307.264 101.039 308.162 100.837 309.262 99.7378C310.361 98.6382 310.563 97.7401 309.858 97.0351C309.153 96.3384 308.255 96.5314 307.155 97.631V97.6394ZM308.85 99.3349C307.969 100.216 307.315 100.443 306.887 100.006C306.459 99.5782 306.685 98.9236 307.567 98.0423C308.045 97.5638 308.439 97.2784 308.75 97.1861C309.06 97.0938 309.32 97.1525 309.53 97.3623C309.967 97.7988 309.74 98.4536 308.859 99.3349H308.85Z" fill="#FFA500" fill-opacity="0.5"/>
<path d="M541.536 330.736C541.536 330.736 541.494 330.845 541.536 330.887C541.578 330.929 541.645 330.929 541.687 330.887L550.272 322.3L551.053 321.52C551.514 321.897 552.161 321.897 552.622 321.52L553.403 322.3C553.403 322.3 553.512 322.342 553.554 322.3C553.596 322.258 553.587 322.191 553.554 322.158L552.773 321.377C553.159 320.915 553.159 320.261 552.773 319.799L553.545 319.018L554.25 318.313C554.25 318.313 554.292 318.204 554.25 318.162C554.208 318.12 554.141 318.12 554.099 318.162L553.394 318.867L552.622 319.64C552.161 319.253 551.506 319.253 551.044 319.64L550.264 318.867L272.74 41.3026L271.96 40.5219C272.346 40.0603 272.346 39.4056 271.96 38.9439L272.732 38.1634L273.437 37.4583C273.437 37.4583 273.479 37.3492 273.437 37.3157C273.395 37.2737 273.336 37.2737 273.294 37.3157L272.589 38.0207L271.817 38.8013C271.356 38.4152 270.701 38.4152 270.239 38.8013L269.459 38.0207C269.459 38.0207 269.358 37.9787 269.316 38.0207C269.274 38.0626 269.274 38.1214 269.316 38.1634L270.097 38.9439C269.711 39.4056 269.711 40.0519 270.097 40.5219L269.325 41.3026L260.739 49.8891C260.739 49.8891 260.697 49.9983 260.739 50.0318C260.781 50.0738 260.848 50.0738 260.882 50.0318L269.467 41.4452L270.239 40.6647C270.709 41.0508 271.356 41.0508 271.817 40.6647L272.598 41.4452L550.121 319.01L550.893 319.791C550.507 320.252 550.507 320.907 550.893 321.369L550.121 322.141L541.536 330.727V330.736ZM551.187 321.377L551.825 320.739L552.463 321.377C552.085 321.688 551.565 321.688 551.187 321.377ZM552.614 321.234L551.976 320.596L552.622 319.95C552.924 320.328 552.924 320.848 552.622 321.234H552.614ZM552.471 319.799L551.825 320.445L551.187 319.807C551.573 319.497 552.093 319.497 552.471 319.807V319.799ZM271.817 40.3877L271.171 39.7414L271.817 39.0951C272.119 39.4812 272.119 40.0016 271.817 40.3877ZM271.674 38.9523L271.028 39.5987L270.382 38.9523C270.768 38.6418 271.288 38.6418 271.674 38.9523ZM270.239 39.1035L270.886 39.7414L270.239 40.3877C269.937 40.0016 269.937 39.4812 270.239 39.1035ZM270.382 40.5387L271.028 39.8924L271.674 40.5387C271.288 40.8493 270.768 40.8409 270.382 40.5387ZM551.044 319.959L551.682 320.596L551.036 321.234C550.734 320.848 550.734 320.328 551.036 319.95L551.044 319.959Z" fill="#FFA500" fill-opacity="0.5"/>
<path d="M405.588 171.804L405.983 172.206L409.222 168.967L408.962 168.706C408.475 168.874 407.896 168.824 407.217 168.589L406.839 168.967C407.267 169.168 407.695 169.269 408.106 169.285L405.58 171.812L405.588 171.804Z" fill="#FFA500" fill-opacity="0.5"/>
<path d="M408.971 172.795C407.972 172.695 407.292 172.812 406.948 173.156L409.08 175.288L409.458 174.91L407.871 173.324C408.073 173.274 408.283 173.257 408.492 173.274L409.113 173.324C409.944 173.399 410.49 173.391 410.758 173.307C411.035 173.223 411.245 173.097 411.405 172.938C411.673 172.669 411.799 172.359 411.774 172.015C411.757 171.662 411.589 171.335 411.295 171.041C410.649 170.395 409.986 170.361 409.315 170.932L409.676 171.377C409.852 171.2 410.062 171.1 410.288 171.075C410.515 171.049 410.742 171.142 410.96 171.36C411.119 171.519 411.211 171.704 411.237 171.922C411.27 172.14 411.195 172.342 411.01 172.527C410.884 172.652 410.674 172.753 410.406 172.812C410.129 172.871 409.651 172.862 408.954 172.795H408.971Z" fill="#FFA500" fill-opacity="0.5"/>
<path d="M410.641 175.943L410.188 175.498L409.734 175.951L410.188 176.396L410.641 175.943Z" fill="#FFA500" fill-opacity="0.5"/>
<path d="M411.766 178.083C412.471 178.779 413.369 178.586 414.46 177.487C415.559 176.387 415.761 175.481 415.056 174.784C414.351 174.087 413.453 174.28 412.354 175.38C411.254 176.48 411.061 177.378 411.766 178.074V178.083ZM413.948 174.935C414.259 174.843 414.519 174.902 414.729 175.111C415.165 175.548 414.938 176.203 414.057 177.084C413.176 177.965 412.521 178.192 412.093 177.764C411.665 177.327 411.892 176.673 412.765 175.8C413.243 175.321 413.638 175.036 413.948 174.944V174.935Z" fill="#FFA500" fill-opacity="0.5"/>
<path d="M414.266 180.592C414.971 181.297 415.869 181.096 416.969 179.996C418.068 178.897 418.27 177.999 417.565 177.294C416.86 176.589 415.962 176.79 414.862 177.89C413.763 178.989 413.57 179.887 414.266 180.584V180.592ZM416.448 177.445C416.759 177.353 417.019 177.411 417.229 177.621C417.665 178.058 417.439 178.712 416.558 179.594C415.676 180.475 415.022 180.693 414.594 180.265C414.166 179.837 414.392 179.182 415.265 178.301C415.744 177.823 416.138 177.537 416.457 177.445H416.448Z" fill="#FFA500" fill-opacity="0.5"/>
<path d="M132.79 98.5125L132.43 98.1515L131.993 98.588L129.903 96.498L129.576 96.8254L130.189 100.393L130.55 100.754L131.951 99.3519L132.723 100.124L133.118 99.7295L132.346 98.9573L132.782 98.5208L132.79 98.5125ZM130.592 99.9897L130.147 97.5304L131.599 98.9825L130.592 99.9897Z" fill="#FFA500" fill-opacity="0.5"/>
<path d="M134.23 97.6855L133.779 98.1367L134.23 98.5876L134.681 98.1363L134.23 97.6855Z" fill="#FFA500" fill-opacity="0.5"/>
<path d="M133.629 96.0371C134.728 97.1367 135.626 97.3297 136.323 96.633C137.019 95.9364 136.826 95.0299 135.735 93.9387C134.636 92.8308 133.729 92.6378 133.033 93.3428C132.328 94.0395 132.529 94.946 133.629 96.0455V96.0371ZM135.324 94.3416C136.205 95.2229 136.432 95.8777 135.995 96.3058C135.567 96.7338 134.913 96.5072 134.031 95.6258C133.553 95.1474 133.268 94.7613 133.167 94.4507C133.075 94.1402 133.134 93.88 133.343 93.6702C133.78 93.2337 134.434 93.4603 135.316 94.3416H135.324Z" fill="#FFA500" fill-opacity="0.5"/>
<path d="M136.139 93.5266C137.238 94.6261 138.136 94.8191 138.841 94.1225C139.546 93.4174 139.345 92.5194 138.254 91.4198C137.154 90.3203 136.256 90.1188 135.551 90.8239C134.846 91.529 135.048 92.427 136.147 93.5266H136.139ZM137.834 91.8311C138.715 92.7124 138.942 93.3671 138.505 93.7951C138.077 94.2232 137.423 93.9966 136.542 93.1153C136.063 92.6369 135.778 92.2424 135.686 91.9318C135.585 91.6212 135.652 91.3611 135.862 91.1513C136.298 90.7148 136.953 90.9414 137.834 91.8311Z" fill="#FFA500" fill-opacity="0.5"/>
<path d="M39.183 192.125L38.8221 191.764L38.3857 192.201L36.296 190.111L35.9688 190.438L36.5898 194.005L36.9506 194.366L38.3521 192.964L39.1242 193.737L39.5187 193.342L38.7466 192.57L39.183 192.133V192.125ZM36.9842 193.602L36.5394 191.135L37.9913 192.587L36.9842 193.594V193.602Z" fill="#FFA500" fill-opacity="0.5"/>
<path d="M40.5946 191.366L40.1436 191.817L40.5946 192.268L41.0456 191.817L40.5946 191.366Z" fill="#FFA500" fill-opacity="0.5"/>
<path d="M40.0303 189.649C41.1297 190.748 42.0276 190.941 42.7242 190.245C43.4207 189.548 43.2277 188.641 42.1367 187.542C41.0373 186.442 40.131 186.241 39.4344 186.946C38.7379 187.643 38.9309 188.549 40.0303 189.649ZM41.7255 187.953C42.6067 188.834 42.8417 189.481 42.4053 189.917C41.9689 190.354 41.3227 190.119 40.4415 189.237C39.9631 188.759 39.6778 188.373 39.5771 188.062C39.4848 187.752 39.5435 187.491 39.7533 187.282C40.1897 186.845 40.8443 187.072 41.7255 187.953Z" fill="#FFA500" fill-opacity="0.5"/>
<path d="M42.5316 187.148C43.631 188.247 44.529 188.44 45.234 187.743C45.9389 187.038 45.7375 186.14 44.6465 185.041C43.5471 183.941 42.6491 183.74 41.9442 184.445C41.2476 185.141 41.4407 186.048 42.54 187.148H42.5316ZM44.2353 185.444C45.1165 186.325 45.3431 186.98 44.9067 187.416C44.4787 187.844 43.8241 187.618 42.9429 186.736C42.4645 186.258 42.1792 185.863 42.0869 185.553C41.9945 185.242 42.0533 184.982 42.2631 184.772C42.6995 184.336 43.3541 184.562 44.2353 185.444Z" fill="#FFA500" fill-opacity="0.5"/>
<path d="M15.7763 174.985L16.1708 174.59L12.9314 171.351L12.6712 171.602C12.839 172.089 12.7887 172.668 12.5537 173.348L12.9314 173.726C13.1328 173.29 13.2419 172.87 13.2503 172.459L15.7763 174.985Z" fill="#FFA500" fill-opacity="0.5"/>
<path d="M14.904 171.25L15.3488 170.889C15.181 170.713 15.0803 170.503 15.0467 170.285C15.0215 170.05 15.1138 169.823 15.332 169.614C15.4915 169.454 15.6761 169.362 15.9027 169.337C16.1209 169.303 16.3223 169.387 16.5069 169.563C16.6328 169.689 16.7335 169.891 16.7923 170.168C16.851 170.445 16.8426 170.923 16.7755 171.62C16.6748 172.627 16.8007 173.29 17.1448 173.642L19.2764 171.511L18.8987 171.124L17.3126 172.711C17.2622 172.509 17.2455 172.299 17.2622 172.09L17.3126 171.468C17.3881 170.638 17.3797 170.092 17.2958 169.823C17.2119 169.546 17.0944 169.337 16.9266 169.169C16.658 168.9 16.3391 168.783 15.995 168.799C15.6425 168.816 15.3152 168.984 15.0215 169.278C14.3753 169.924 14.3417 170.579 14.904 171.259V171.25Z" fill="#FFA500" fill-opacity="0.5"/>
<path d="M19.4609 170.395L19.9141 170.848L20.3673 170.395L19.9141 169.941L19.4609 170.395Z" fill="#FFA500" fill-opacity="0.5"/>
<path d="M19.3604 168.22C20.4597 169.32 21.3577 169.513 22.0543 168.816C22.7508 168.119 22.5578 167.213 21.4668 166.113C20.3674 165.014 19.4611 164.821 18.7645 165.518C18.068 166.214 18.261 167.121 19.3604 168.22ZM21.0556 166.525C21.9368 167.406 22.1634 168.061 21.727 168.489C21.299 168.917 20.6444 168.69 19.7632 167.809C19.2848 167.33 18.9995 166.944 18.8988 166.634C18.8065 166.323 18.8652 166.063 19.075 165.853C19.5114 165.417 20.166 165.643 21.0472 166.525H21.0556Z" fill="#FFA500" fill-opacity="0.5"/>
<path d="M21.8693 165.711C22.9687 166.81 23.8666 167.003 24.5716 166.306C25.2765 165.61 25.0835 164.703 23.9841 163.604C22.8848 162.496 21.9784 162.303 21.2818 163.008C20.5769 163.713 20.7783 164.611 21.8777 165.711H21.8693ZM23.5645 164.015C24.4457 164.896 24.6639 165.551 24.2359 165.979C23.8079 166.407 23.1449 166.189 22.2637 165.308C21.7854 164.829 21.5 164.435 21.4077 164.124C21.3154 163.814 21.3742 163.553 21.584 163.344C22.012 162.907 22.6749 163.134 23.5561 164.015H23.5645Z" fill="#FFA500" fill-opacity="0.5"/>
<path d="M376.955 118.211L377.752 119.009L384.24 112.521L383.728 112.009C382.754 112.336 381.596 112.252 380.236 111.757L379.464 112.529C380.329 112.924 381.176 113.142 382.007 113.159L376.955 118.211Z" fill="#FFA500" fill-opacity="0.5"/>
<path d="M147.905 7.93826L138.967 11.9168L139.873 12.8232L142.534 11.581L145.236 14.2837L144.036 16.9948L145.009 17.9685L148.819 8.86993L147.896 7.94666L147.905 7.93826ZM143.482 11.1277L146.083 9.94432C146.629 9.69252 147.158 9.3987 147.67 9.06296C147.418 9.50782 147.124 10.1122 146.788 10.8592L145.672 13.3268L143.482 11.1361V11.1277Z" fill="#FFA500" fill-opacity="0.5"/>
<path d="M283.356 24.5987L284.145 25.3876L290.632 18.8995L290.12 18.3875C289.147 18.7148 287.989 18.631 286.629 18.1357L285.857 18.8995C286.721 19.3024 287.569 19.5122 288.4 19.529L283.348 24.5819L283.356 24.5987Z" fill="#FFA500" fill-opacity="0.5"/>
<path d="M470.562 211.825L471.359 212.622L477.847 206.134L477.335 205.622C476.361 205.949 475.203 205.865 473.844 205.37L473.071 206.142C473.936 206.537 474.783 206.755 475.606 206.772L470.554 211.825H470.562Z" fill="#FFA500" fill-opacity="0.5"/>
<path d="M53.1389 106.428C54.0369 106.73 54.7922 106.579 55.4048 105.966C55.8748 105.496 56.0846 104.934 56.051 104.271C56.0174 103.599 55.6398 102.902 54.9097 102.172L52.4927 99.7549L46.0391 106.209L48.498 108.669C50.1093 110.28 51.536 110.457 52.7864 109.206C53.5921 108.4 53.7096 107.468 53.1389 106.428ZM52.5934 101.366L53.8858 102.659C54.6327 103.406 54.9936 103.943 54.9516 104.287C54.9181 104.623 54.7586 104.934 54.4733 105.219C54.104 105.588 53.7264 105.723 53.3487 105.605C52.9711 105.488 52.5347 105.194 52.0479 104.699L50.6548 103.305L52.6018 101.358L52.5934 101.366ZM50.6884 108.786C50.2604 108.702 49.7904 108.409 49.2785 107.905L47.6755 106.293L49.8995 104.069L51.3933 105.563C52.0311 106.201 52.3752 106.73 52.4088 107.158C52.4424 107.578 52.2829 107.964 51.9304 108.316C51.5444 108.702 51.1332 108.862 50.7052 108.786H50.6884Z" fill="#FFA500" fill-opacity="0.5"/>
<path d="M374.035 123.81L370.854 126.991C370.854 126.991 370.812 127.1 370.854 127.134C370.896 127.176 370.963 127.167 370.997 127.134L374.177 123.953C378.961 128.653 386.673 128.636 391.423 123.886C396.198 119.11 396.198 111.337 391.423 106.561C386.648 101.786 378.877 101.786 374.102 106.561C369.352 111.312 369.335 119.026 374.035 123.81ZM391.281 106.704C395.98 111.396 395.98 119.043 391.281 123.743C386.581 128.443 378.944 128.443 374.244 123.743C369.553 119.043 369.553 111.404 374.244 106.704C378.944 102.004 386.581 102.004 391.281 106.704Z" fill="#FFA500" fill-opacity="0.5"/>
<path d="M156.784 20.8306C161.483 16.0463 161.475 8.34105 156.717 3.58193C151.941 -1.19398 144.17 -1.19398 139.395 3.58193C134.62 8.36623 134.62 16.1302 139.395 20.9061C144.145 25.6653 151.857 25.6737 156.641 20.9734L159.822 24.1544C159.822 24.1544 159.922 24.1964 159.964 24.1544C160.006 24.1125 160.006 24.0454 159.964 24.0118L156.784 20.8306ZM139.538 20.7635C134.838 16.0632 134.846 8.42502 139.538 3.72466C144.229 -0.975708 151.874 -0.975708 156.574 3.72466C161.273 8.42502 161.265 16.0632 156.574 20.7635C151.883 25.4639 144.237 25.4639 139.538 20.7635Z" fill="#FFA500" fill-opacity="0.5"/>
<path d="M280.427 30.189L277.246 33.3701C277.246 33.3701 277.204 33.4708 277.246 33.5128C277.288 33.5548 277.356 33.5548 277.389 33.5128L280.57 30.3316C285.353 35.032 293.066 35.0153 297.816 30.2645C302.591 25.4886 302.591 17.7162 297.816 12.9403C293.041 8.16442 285.269 8.16442 280.494 12.9403C275.744 17.6911 275.727 25.4047 280.427 30.189ZM297.673 13.0831C302.373 17.7834 302.373 25.4214 297.673 30.1218C292.974 34.8222 285.337 34.8222 280.637 30.1218C275.937 25.4298 275.937 17.7834 280.637 13.0831C285.337 8.38269 292.974 8.38269 297.673 13.0831Z" fill="#FFA500" fill-opacity="0.5"/>
<path d="M467.633 217.423L464.452 220.604C464.452 220.604 464.419 220.713 464.452 220.747C464.494 220.789 464.561 220.789 464.595 220.747L467.775 217.566C472.559 222.266 480.272 222.249 485.022 217.499C489.797 212.723 489.797 204.95 485.022 200.166C480.246 195.39 472.467 195.382 467.692 200.166C462.942 204.917 462.925 212.63 467.624 217.415L467.633 217.423ZM484.879 200.326C489.57 205.026 489.579 212.664 484.879 217.364C480.179 222.065 472.542 222.065 467.843 217.364C463.143 212.664 463.143 205.026 467.843 200.326C472.542 195.625 480.179 195.625 484.879 200.326Z" fill="#FFA500" fill-opacity="0.5"/>
<path d="M63.1846 114.435C67.8843 109.659 67.8759 101.945 63.1175 97.1862C58.3423 92.4103 50.571 92.4103 45.7875 97.1862C41.0123 101.962 41.0123 109.735 45.7875 114.51C50.5375 119.27 58.25 119.278 63.0335 114.578L66.2142 117.759C66.2142 117.759 66.3149 117.801 66.3569 117.759C66.3988 117.717 66.3988 117.65 66.3569 117.608L63.1762 114.427L63.1846 114.435ZM45.9385 114.376C41.2388 109.676 41.2388 102.038 45.9385 97.3374C50.6382 92.637 58.2751 92.637 62.9748 97.3374C67.6745 102.038 67.6745 109.676 62.9748 114.376C58.2835 119.076 50.6382 119.076 45.9385 114.376Z" fill="#FFA500" fill-opacity="0.5"/>
<path d="M273.511 214.342C273.36 214.191 273.184 214.082 272.999 214.007C272.806 213.94 272.605 213.906 272.412 213.931C272.21 213.948 271.967 214.023 271.698 214.149C271.774 213.898 271.782 213.663 271.724 213.436C271.665 213.209 271.547 213.016 271.379 212.84C271.195 212.655 270.985 212.529 270.733 212.479C270.481 212.429 270.238 212.446 270.003 212.538C269.768 212.63 269.491 212.832 269.189 213.134L268.417 213.906L272.311 217.792L273.385 216.726C273.771 216.34 273.964 215.929 273.973 215.484C273.989 215.039 273.838 214.661 273.528 214.351L273.511 214.342ZM270.414 215.14L269.164 213.889L269.609 213.444C269.886 213.167 270.137 213.025 270.364 212.999C270.591 212.974 270.792 213.058 270.968 213.234C271.103 213.369 271.186 213.52 271.22 213.705C271.254 213.889 271.228 214.065 271.161 214.242C271.077 214.418 270.91 214.636 270.641 214.913L270.414 215.131V215.14ZM272.294 217.02L270.8 215.526L271.027 215.308C271.354 214.98 271.598 214.762 271.766 214.67C272.009 214.519 272.252 214.452 272.496 214.468C272.739 214.485 272.94 214.577 273.117 214.745C273.259 214.88 273.343 215.048 273.385 215.249C273.419 215.45 273.402 215.643 273.326 215.836C273.243 216.021 273.066 216.256 272.781 216.542L272.294 217.02Z" fill="#FFA500" fill-opacity="0.5"/>
<path d="M272.034 210.272L272.177 210.884L272.789 210.272L276.306 213.78L276.683 213.402L272.798 209.508L272.034 210.272Z" fill="#FFA500" fill-opacity="0.5"/>
<path d="M377.6 215.518C377.869 215.627 378.137 215.644 378.389 215.577C378.649 215.527 378.884 215.384 379.103 215.174C379.354 214.922 379.497 214.637 379.531 214.31C379.556 213.991 379.48 213.688 379.312 213.403C379.195 213.218 378.918 212.908 378.482 212.471L377.709 211.699L373.815 215.594L374.201 215.98L376.014 214.167L376.232 214.385L375.821 217.6L376.3 218.078L376.711 214.872C377.038 215.199 377.332 215.417 377.6 215.51V215.518ZM376.392 213.789L377.709 212.471L378.398 213.16C378.666 213.428 378.834 213.638 378.901 213.798C378.968 213.957 378.993 214.125 378.951 214.301C378.918 214.486 378.834 214.637 378.7 214.771C378.565 214.905 378.406 214.989 378.23 215.031C378.054 215.065 377.877 215.048 377.701 214.973C377.533 214.906 377.315 214.738 377.055 214.469L376.392 213.789Z" fill="#FFA500" fill-opacity="0.5"/>
<path d="M380.949 218.984C380.94 218.783 380.856 218.548 380.731 218.271C380.982 218.346 381.217 218.355 381.452 218.296C381.679 218.237 381.872 218.128 382.048 217.952C382.233 217.767 382.35 217.549 382.409 217.305C382.468 217.054 382.451 216.81 382.359 216.567C382.266 216.323 382.065 216.055 381.754 215.744L380.991 214.98L377.097 218.875L378.163 219.941C378.549 220.327 378.968 220.52 379.405 220.537C379.849 220.545 380.227 220.394 380.538 220.092C380.689 219.941 380.806 219.765 380.873 219.572C380.957 219.379 380.974 219.186 380.957 218.976L380.949 218.984ZM380.982 215.753L381.436 216.206C381.704 216.475 381.855 216.726 381.88 216.953C381.905 217.18 381.822 217.381 381.645 217.557C381.511 217.692 381.352 217.776 381.175 217.809C380.991 217.843 380.814 217.818 380.638 217.75C380.462 217.666 380.235 217.499 379.967 217.23L379.74 217.012L380.991 215.761L380.982 215.753ZM379.623 219.966C379.421 220 379.237 219.983 379.035 219.907C378.851 219.832 378.607 219.656 378.322 219.37L377.844 218.892L379.337 217.398L379.556 217.616C379.883 217.943 380.101 218.187 380.202 218.355C380.353 218.606 380.42 218.842 380.403 219.093C380.395 219.328 380.294 219.547 380.126 219.714C379.992 219.849 379.816 219.941 379.623 219.975V219.966Z" fill="#FFA500" fill-opacity="0.5"/>
<path d="M70.6961 218.372L68.8917 216.567L69.1099 216.349L72.3158 216.752L72.7941 216.273L69.5883 215.862C69.9072 215.535 70.1254 215.241 70.2261 214.972C70.3268 214.704 70.352 214.435 70.2932 214.183C70.2345 213.923 70.1002 213.688 69.882 213.47C69.6303 213.218 69.3449 213.075 69.026 213.042C68.7071 213.017 68.405 213.092 68.1196 213.26C67.935 213.378 67.6245 213.655 67.1881 214.091L66.416 214.872L70.31 218.766L70.6961 218.38V218.372ZM68.5057 216.181L67.1797 214.855L67.8679 214.167C68.1364 213.898 68.3462 213.73 68.5141 213.663C68.6735 213.596 68.8414 213.579 69.0176 213.613C69.1938 213.646 69.3533 213.73 69.4792 213.864C69.6135 213.999 69.7058 214.15 69.7393 214.326C69.7729 214.511 69.7561 214.687 69.6806 214.863C69.6135 215.031 69.4456 215.249 69.1771 215.509L68.5057 216.173V216.181Z" fill="#FFA500" fill-opacity="0.5"/>
<path d="M74.6573 214.41C75.0349 214.032 75.2363 213.612 75.2447 213.167C75.2531 212.731 75.1021 212.345 74.7916 212.034C74.6405 211.883 74.4642 211.766 74.2712 211.699C74.0782 211.623 73.8852 211.598 73.6838 211.615C73.4824 211.623 73.239 211.707 72.9704 211.833C73.0376 211.581 73.0543 211.346 72.9956 211.119C72.9369 210.893 72.8194 210.691 72.6515 210.523C72.4669 210.339 72.2571 210.213 72.0053 210.162C71.7536 210.104 71.5186 210.129 71.2752 210.221C71.0402 210.314 70.7633 210.515 70.4528 210.826L69.6807 211.589L73.5747 215.484L74.6489 214.41H74.6573ZM71.7032 212.832L70.4528 211.581L70.9059 211.128C71.1829 210.851 71.4346 210.708 71.6612 210.683C71.8878 210.658 72.0809 210.742 72.2655 210.918C72.3998 211.052 72.4837 211.203 72.5172 211.388C72.5508 211.573 72.5256 211.757 72.4585 211.933C72.3746 212.11 72.2067 212.328 71.9298 212.605L71.7032 212.832ZM73.5914 214.712L72.0976 213.218L72.3158 212.999C72.6431 212.672 72.8865 212.454 73.0544 212.362C73.2977 212.21 73.5411 212.143 73.7845 212.16C74.0279 212.177 74.2293 212.269 74.4055 212.437C74.5482 212.58 74.6321 212.748 74.6741 212.941C74.7076 213.151 74.6908 213.335 74.6153 213.528C74.5398 213.713 74.3635 213.948 74.0782 214.225L73.5914 214.712Z" fill="#FFA500" fill-opacity="0.5"/>
<path d="M74.078 207.963L77.5943 211.472L77.9804 211.086L74.0948 207.191L73.3311 207.955L73.4737 208.568L74.078 207.963Z" fill="#FFA500" fill-opacity="0.5"/>
<path d="M219.431 168.027C219.7 168.128 219.968 168.145 220.22 168.086C220.489 168.019 220.715 167.893 220.934 167.675C221.185 167.423 221.328 167.137 221.353 166.818C221.387 166.499 221.311 166.197 221.135 165.912C221.018 165.727 220.741 165.417 220.304 164.98L219.532 164.208L215.646 168.094L216.033 168.48L217.837 166.676L218.055 166.894L217.652 170.1L218.131 170.579L218.533 167.381C218.861 167.7 219.163 167.918 219.423 168.019L219.431 168.027ZM218.223 166.298L219.549 164.972L220.237 165.66C220.506 165.929 220.673 166.139 220.741 166.306C220.808 166.466 220.824 166.634 220.791 166.81C220.757 166.978 220.682 167.137 220.548 167.263C220.413 167.398 220.254 167.482 220.078 167.524C219.901 167.557 219.725 167.54 219.549 167.473C219.381 167.398 219.154 167.238 218.894 166.97L218.231 166.29L218.223 166.298Z" fill="#FFA500" fill-opacity="0.5"/>
<path d="M222.78 171.485C222.764 171.292 222.688 171.049 222.562 170.772C222.806 170.847 223.049 170.864 223.276 170.805C223.502 170.746 223.704 170.629 223.871 170.453C224.056 170.268 224.173 170.05 224.232 169.806C224.291 169.555 224.266 169.311 224.173 169.085C224.081 168.841 223.88 168.573 223.569 168.262L222.806 167.498L218.92 171.384L219.986 172.45C220.372 172.836 220.783 173.038 221.228 173.046C221.673 173.055 222.05 172.912 222.361 172.601C222.512 172.45 222.629 172.274 222.696 172.081C222.772 171.888 222.797 171.687 222.78 171.485ZM222.806 168.254L223.259 168.707C223.527 168.975 223.678 169.227 223.703 169.454C223.729 169.68 223.645 169.89 223.469 170.058C223.334 170.193 223.175 170.268 222.99 170.31C222.814 170.344 222.629 170.318 222.453 170.243C222.277 170.167 222.05 169.991 221.782 169.722L221.563 169.504L222.806 168.262V168.254ZM221.446 172.467C221.245 172.501 221.052 172.484 220.867 172.408C220.682 172.324 220.447 172.148 220.162 171.863L219.684 171.376L221.177 169.882L221.396 170.1C221.723 170.427 221.941 170.679 222.033 170.839C222.185 171.082 222.252 171.326 222.235 171.569C222.218 171.812 222.126 172.022 221.95 172.19C221.807 172.333 221.639 172.417 221.446 172.459V172.467Z" fill="#FFA500" fill-opacity="0.5"/>
<path d="M222.932 175.388L223.318 175.774L227.203 171.888L226.44 171.124L225.827 171.267L226.44 171.88L222.932 175.388Z" fill="#FFA500" fill-opacity="0.5"/>
</g>
</svg>
