<svg width="1085" height="268" viewBox="0 0 1085 268" fill="none" xmlns="http://www.w3.org/2000/svg">
<g clip-path="url(#clip0_907_9694)">
<path d="M173.298 209.993C200.688 195.253 229.013 180.012 257.648 166.59C287.071 152.8 310.277 143.962 332.891 137.94C345.44 134.597 357.002 132.418 368.236 131.275C374.125 130.676 380.195 130.517 386.063 130.361C391.559 130.217 397.24 130.067 402.871 129.561C454.784 124.897 503.381 104.754 556.985 80.8765C572.913 73.7811 588.997 66.3066 604.553 59.0792C642.917 41.2533 682.587 22.8184 723.135 8.57435C761.405 -4.86904 792.851 -11.1318 822.094 -11.1318C839.792 -11.1318 856.913 -8.71915 872.98 -3.96403C891.952 1.6514 911.61 10.3823 933.076 22.7226C952.298 33.7746 971.164 46.6387 989.407 59.0791C1019.8 79.8075 1050.81 100.953 1085 114.778L1085 116.511C1080.62 114.684 1076.19 112.693 1071.68 110.523C1044.43 97.414 1018.34 79.6286 993.12 62.4267C956.293 37.3137 918.212 11.3448 874.859 -1.48744C858.183 -6.42357 840.43 -8.92784 822.094 -8.92783C792.078 -8.92783 759.936 -2.54791 720.939 11.151C680.089 25.5016 640.272 44.0025 601.767 61.8943C586.234 69.1111 570.172 76.575 554.292 83.6491C529.478 94.7032 505.12 105.342 479.943 114.028C451.505 123.839 426.101 129.648 402.275 131.788C396.852 132.276 391.277 132.423 385.882 132.565C379.893 132.723 373.698 132.887 367.561 133.511C355.973 134.688 344.075 136.931 331.183 140.366C308.175 146.494 284.63 155.453 254.84 169.416C226.04 182.915 197.635 198.2 170.165 212.981C145.913 226.032 120.834 239.527 95.6297 251.71C84.7233 256.982 72.682 262.651 60.044 268L56.1466 268C70.8744 261.995 85.0553 255.353 98.505 248.852C123.838 236.607 148.979 223.077 173.294 209.993L173.298 209.993Z" fill="#3292C6"/>
<path d="M257.648 188.947C287.071 175.157 310.275 166.322 332.891 160.297C345.438 156.954 357 154.776 368.236 153.632C374.125 153.034 380.193 152.874 386.063 152.719C391.559 152.574 397.242 152.425 402.871 151.918C454.784 147.254 503.381 127.112 556.985 103.234C572.913 96.1384 588.997 88.664 604.553 81.4365C642.917 63.6107 682.587 45.1758 723.135 30.9317C761.405 17.4883 792.851 11.2277 822.094 11.2277C839.792 11.2277 856.913 13.6382 872.98 18.3955C891.952 24.0109 911.61 32.7417 933.076 45.0821C952.298 56.1341 971.164 68.9982 989.407 81.4386C1019.8 102.165 1050.81 123.311 1085 137.133L1085 138.866C1080.62 137.039 1076.19 135.048 1071.68 132.878C1044.43 119.769 1018.34 101.982 993.12 84.7819C956.293 59.669 918.212 33.7 874.859 20.8678C858.183 15.9317 840.43 13.4274 822.094 13.4274C792.078 13.4274 759.936 19.8073 720.939 33.5063C680.089 47.8568 640.272 66.3577 601.767 84.2496C586.234 91.4664 570.172 98.9302 554.292 106.004C529.478 117.058 505.12 127.697 479.943 136.383C451.505 146.194 426.101 152.003 402.275 154.143C396.852 154.631 391.275 154.778 385.882 154.921C379.893 155.078 373.698 155.242 367.561 155.866C355.971 157.046 344.073 159.286 331.183 162.721C308.175 168.849 284.63 177.808 254.84 191.771C226.04 205.27 197.637 220.555 170.169 235.336C149.875 246.256 129.002 257.485 107.964 268L105.08 268C128.186 256.622 151.088 244.303 173.298 232.35C200.688 217.61 229.013 202.37 257.648 188.947Z" fill="#3292C6"/>
<path d="M257.648 211.305C287.071 197.514 310.277 188.679 332.891 182.655C345.44 179.312 357 177.133 368.236 175.99C374.125 175.391 380.195 175.232 386.063 175.076C391.559 174.931 397.242 174.782 402.871 174.275C454.784 169.612 503.381 149.469 556.985 125.591C572.913 118.496 588.997 111.021 604.553 103.794C642.917 85.9681 682.587 67.5332 723.135 53.2891C761.405 39.8457 792.851 33.585 822.094 33.585C839.792 33.585 856.913 35.9956 872.98 40.7529C891.952 46.3683 911.61 55.0992 933.076 67.4395C952.298 78.4915 971.164 91.3556 989.407 103.796C1019.8 124.522 1050.81 145.668 1085 159.49L1085 161.224C1080.62 159.397 1076.19 157.406 1071.68 155.236C1044.43 142.127 1018.34 124.341 993.12 107.139C956.293 82.0264 918.212 56.0574 874.859 43.2252C858.183 38.2891 840.43 35.7848 822.094 35.7848C792.078 35.7848 759.936 42.1647 720.939 55.8636C680.089 70.2142 640.272 88.7151 601.767 106.607C586.234 113.824 570.172 121.288 554.292 128.362C529.478 139.416 505.12 150.055 479.943 158.741C451.505 168.551 426.101 174.361 402.275 176.501C396.854 176.988 391.277 177.135 385.882 177.276C379.893 177.433 373.698 177.597 367.561 178.221C355.973 179.399 344.073 181.641 331.183 185.076C308.175 191.205 284.63 200.163 254.84 214.126C226.04 227.625 197.635 242.911 170.167 257.691C163.82 261.107 157.416 264.552 150.969 267.996L148.493 267.996C156.837 263.558 165.113 259.105 173.294 254.704C200.684 239.963 229.009 224.723 257.644 211.301L257.648 211.305Z" fill="#3292C6"/>
<path d="M332.891 205.012C345.44 201.669 357.002 199.49 368.236 198.347C374.125 197.749 380.195 197.587 386.063 197.433C391.559 197.289 397.24 197.14 402.871 196.633C454.786 191.969 503.381 171.826 556.985 147.949C572.915 140.853 589.001 133.379 604.558 126.149C642.919 108.323 682.589 89.8905 723.135 75.6465C761.405 62.2031 792.851 55.9424 822.094 55.9424C839.792 55.9424 856.913 58.3551 872.98 63.1102C891.952 68.7257 911.611 77.4565 933.076 89.7968C952.298 100.849 971.164 113.713 989.407 126.153C1019.8 146.88 1050.81 168.025 1085 181.848L1085 183.581C1080.62 181.754 1076.19 179.763 1071.68 177.593C1044.43 164.484 1018.34 146.699 993.12 129.497C956.293 104.384 918.212 78.4148 874.859 65.5825C858.183 60.6464 840.43 58.1422 822.094 58.1422C792.078 58.1422 759.936 64.5221 720.939 78.221C680.089 92.5716 640.274 111.072 601.769 128.964C586.236 136.183 570.174 143.645 554.292 150.719C529.478 161.773 505.12 172.412 479.943 181.098C451.505 190.909 426.101 196.718 402.275 198.858C396.854 199.346 391.277 199.493 385.885 199.633C379.893 199.791 373.698 199.955 367.561 200.579C355.973 201.756 344.075 203.999 331.183 207.433C308.175 213.562 284.63 222.521 254.84 236.484C233.826 246.333 213.022 257.135 192.64 267.998L190.174 267.998C212.259 256.179 234.853 244.344 257.646 233.66C287.069 219.87 310.275 211.034 332.889 205.01L332.891 205.012Z" fill="#3292C6"/>
<path d="M332.891 227.37C345.44 224.026 357.002 221.848 368.236 220.704C374.125 220.106 380.195 219.946 386.063 219.791C391.559 219.646 397.242 219.497 402.871 218.99C454.784 214.327 503.381 194.184 556.985 170.306C572.913 163.211 588.997 155.736 604.553 148.509C642.917 130.683 682.587 112.248 723.135 98.0039C761.405 84.5605 792.851 78.2998 822.094 78.2998C839.792 78.2998 856.913 80.7104 872.98 85.4676C891.952 91.0831 911.61 99.8139 933.076 112.154C952.298 123.206 971.164 136.07 989.407 148.511C1019.8 169.237 1050.81 190.383 1085 204.205L1085 205.939C1080.62 204.111 1076.19 202.12 1071.68 199.95C1044.43 186.841 1018.34 169.054 993.12 151.854C956.293 126.741 918.212 100.772 874.859 87.94C858.183 83.0038 840.43 80.4996 822.094 80.4996C792.078 80.4996 759.936 86.8795 720.939 100.578C680.089 114.929 640.272 133.43 601.767 151.322C586.234 158.539 570.172 166.002 554.292 173.076C529.478 184.131 505.12 194.769 479.943 203.456C451.505 213.266 426.101 219.075 402.275 221.215C396.854 221.703 391.277 221.85 385.885 221.991C379.893 222.148 373.7 222.312 367.561 222.936C355.973 224.114 344.075 226.356 331.183 229.791C308.175 235.919 284.63 244.878 254.84 258.841C248.5 261.814 242.178 264.876 235.881 267.998L233.032 267.998C241.202 263.892 249.411 259.878 257.646 256.018C287.069 242.227 310.275 233.39 332.889 227.368L332.891 227.37Z" fill="#3292C6"/>
<path d="M368.234 243.062C374.123 242.463 380.191 242.304 386.06 242.148C391.557 242.003 397.24 241.854 402.869 241.348C454.782 236.684 503.379 216.541 556.983 192.663C572.91 185.568 588.997 178.094 604.553 170.864C642.917 153.038 682.584 134.605 723.133 120.361C761.403 106.918 792.849 100.657 822.091 100.657C839.79 100.657 856.911 103.068 872.978 107.825C891.95 113.44 911.608 122.171 933.074 134.512C952.296 145.564 971.162 158.428 989.405 170.868C1019.8 191.594 1050.81 212.738 1085 226.562L1085 228.296C1080.62 226.469 1076.19 224.478 1071.68 222.308C1044.43 209.199 1018.34 191.413 993.12 174.211C956.293 149.099 918.212 123.13 874.859 110.297C858.183 105.361 840.43 102.857 822.094 102.857C792.078 102.857 759.936 109.237 720.939 122.936C680.089 137.286 640.274 155.787 601.769 173.679C586.236 180.898 570.174 188.362 554.292 195.436C529.478 206.49 505.12 217.129 479.943 225.815C451.505 235.626 426.101 241.435 402.275 243.575C396.852 244.063 391.275 244.21 385.882 244.352C379.893 244.51 373.698 244.674 367.561 245.298C355.971 246.477 344.073 248.718 331.183 252.152C316.436 256.081 301.463 261.175 284.771 268.002L280.813 268.002C299.894 259.904 316.547 254.082 332.889 249.729C345.436 246.386 356.998 244.207 368.234 243.064L368.234 243.062Z" fill="#3292C6"/>
<path d="M386.06 264.506C391.557 264.361 397.24 264.212 402.869 263.705C454.782 259.041 503.379 238.899 556.983 215.021C572.91 207.925 588.994 200.451 604.551 193.223C642.915 175.398 682.584 156.963 723.133 142.719C761.403 129.275 792.846 123.015 822.091 123.015C839.79 123.015 856.911 125.425 872.978 130.182C891.95 135.798 911.608 144.529 933.074 156.869C952.296 167.921 971.162 180.785 989.405 193.226C1019.8 213.952 1050.81 235.095 1085 248.92L1085 250.653C1080.62 248.826 1076.19 246.835 1071.68 244.665C1044.43 231.556 1018.34 213.771 993.12 196.569C956.293 171.456 918.212 145.487 874.859 132.655C858.183 127.719 840.43 125.214 822.094 125.214C792.078 125.214 759.936 131.594 720.939 145.293C680.089 159.644 640.272 178.145 601.767 196.036C586.234 203.253 570.172 210.717 554.292 217.791C529.478 228.845 505.12 239.484 479.943 248.17C451.505 257.981 426.101 263.79 402.275 265.93C396.854 266.418 391.277 266.565 385.885 266.705C379.893 266.863 373.7 267.027 367.561 267.651C366.52 267.757 365.471 267.874 364.423 267.998L350.67 267.998C356.668 266.857 362.492 266 368.232 265.417C374.121 264.819 380.191 264.659 386.058 264.503L386.06 264.506Z" fill="#3292C6"/>
<path d="M604.558 215.579C642.919 197.753 682.589 179.32 723.135 165.076C761.405 151.633 792.851 145.372 822.094 145.372C839.792 145.372 856.913 147.785 872.98 152.54C891.952 158.155 911.61 166.886 933.076 179.226C952.298 190.278 971.164 203.143 989.407 215.583C1017.49 234.733 1046.1 254.241 1077.26 268L1073.74 268C1073.06 267.676 1072.37 267.353 1071.68 267.02C1044.43 253.911 1018.35 236.124 993.122 218.924C956.295 193.811 918.214 167.842 874.861 155.01C858.185 150.074 840.432 147.57 822.096 147.57C792.08 147.57 759.938 153.95 720.941 167.648C680.091 181.999 640.276 200.5 601.771 218.392C586.238 225.611 570.176 233.074 554.294 240.149C531.832 250.153 509.742 259.816 487.085 268L481.987 268C506.443 259.54 531.131 248.892 556.985 237.376C572.915 230.281 589.001 222.806 604.558 215.577L604.558 215.579Z" fill="#3292C6"/>
<path d="M604.553 237.938C642.917 220.112 682.586 201.677 723.135 187.433C761.405 173.99 792.851 167.729 822.093 167.729C839.792 167.729 856.913 170.14 872.98 174.897C891.952 180.513 911.61 189.243 933.076 201.584C952.298 212.636 971.164 225.5 989.407 237.94C1004.41 248.168 1019.56 258.498 1035.16 268.002L1033.45 268.002C1019.75 259.437 1006.32 250.281 993.122 241.284C956.295 216.171 918.214 190.202 874.861 177.369C858.185 172.433 840.432 169.929 822.096 169.929C792.08 169.929 759.938 176.309 720.941 190.008C680.091 204.358 640.273 222.859 601.769 240.751C586.236 247.968 570.174 255.432 554.294 262.506C550.149 264.352 546.02 266.184 541.894 268L538.229 268C544.42 265.308 550.668 262.549 556.985 259.733C572.912 252.638 588.996 245.164 604.553 237.936L604.553 237.938Z" fill="#3292C6"/>
<path d="M723.135 209.791C761.406 196.347 792.851 190.087 822.094 190.087C839.792 190.087 856.914 192.497 872.98 197.255C891.953 202.87 911.611 211.601 933.076 223.941C952.298 234.993 971.164 247.857 989.407 260.298C993.17 262.864 996.944 265.436 1000.73 268.002L999.522 268.002C997.382 266.546 995.249 265.091 993.12 263.641C956.293 238.528 918.212 212.559 874.86 199.727C858.183 194.791 840.43 192.286 822.094 192.286C792.078 192.286 759.936 198.666 720.939 212.365C680.089 226.716 640.272 245.217 601.767 263.109C598.28 264.729 594.765 266.362 591.232 268L587.938 268C593.521 265.419 599.07 262.84 604.551 260.293C642.915 242.468 682.585 224.033 723.133 209.789L723.135 209.791Z" fill="#3292C6"/>
<path d="M822.094 212.442C839.792 212.442 856.913 214.853 872.98 219.61C891.952 225.227 911.61 233.956 933.076 246.296C944.781 253.028 956.354 260.43 967.735 268L966.392 268C937.752 249.199 907.83 231.841 874.859 222.082C858.183 217.146 840.43 214.642 822.094 214.642C792.078 214.642 759.936 221.022 720.939 234.721C693.358 244.41 666.249 255.992 639.696 268L636.283 268C664.66 255.063 693.664 242.5 723.133 232.146C761.403 218.703 792.846 212.442 822.091 212.442L822.094 212.442Z" fill="#3292C6"/>
<path d="M822.093 234.799C839.792 234.799 856.913 237.212 872.98 241.967C891.616 247.482 910.912 256.005 931.93 268L929.697 268C912.218 258.381 894.055 250.121 874.859 244.439C858.183 239.503 840.43 236.999 822.093 236.999C792.078 236.999 759.936 243.379 720.939 257.078C711.189 260.502 701.498 264.167 691.87 268L687.69 268C699.421 263.221 711.239 258.681 723.133 254.503C761.403 241.06 792.848 234.797 822.091 234.797L822.093 234.799Z" fill="#3292C6"/>
<path d="M872.98 264.325C876.708 265.428 880.462 266.654 884.251 268L878.789 268C877.485 267.587 876.174 267.184 874.861 266.797C858.185 261.861 840.432 259.356 822.096 259.356C802.249 259.356 781.469 262.148 758.393 268L751.03 268C777.224 260.645 800.274 257.157 822.096 257.157C839.794 257.157 856.915 259.567 872.982 264.325L872.98 264.325Z" fill="#3292C6"/>
</g>
<defs>
<clipPath id="clip0_907_9694">
<rect width="1085" height="344" fill="white" transform="matrix(-1 8.74228e-08 8.74228e-08 1 1085 -76)"/>
</clipPath>
</defs>
</svg>
