<svg width="140" height="140" viewBox="0 0 140 140" fill="none" xmlns="http://www.w3.org/2000/svg">
<rect width="140" height="140" rx="70" fill="#EAA800"/>
<g clip-path="url(#clip0_904_10306)">
<path d="M55.1567 58.9143L31 113.346L48.215 106.73L54.8223 123.994L78.9852 69.5497L55.1567 58.9081V58.9143Z" fill="#EE8F00"/>
<path d="M70.8545 84.1608L54.9275 120.049L49.0819 104.773L33.8608 110.631L49.7878 74.7555L51.2121 75.3891L36.8208 107.817L49.9798 102.748L55.0266 115.955L69.424 83.521L70.8545 84.1608Z" fill="#F4F4F4"/>
<path d="M61.015 69.5558L85.1717 123.994L91.7914 106.73L109 113.358L84.8373 58.9142L61.0088 69.5558H61.015Z" fill="#EE8F00"/>
<path d="M90.2185 74.7493L106.146 110.637L90.9183 104.773L85.0726 120.037L69.1519 84.1608L70.5761 83.521L84.9674 115.949L90.0204 102.748L103.179 107.823L88.7881 75.3891L90.2185 74.7493Z" fill="#F4F4F4"/>
<path d="M33.3654 52.1056C34.1085 53.8637 34.1085 55.8516 33.3654 57.6159C33.0929 58.2619 32.839 58.908 32.5913 59.5665C32.4489 59.9455 32.3188 60.3244 32.1826 60.7034C31.2476 63.4305 31.9287 66.487 34.0589 68.4314C34.6472 68.9656 35.2417 69.4626 35.8423 69.9285C37.5329 71.2393 38.4494 73.2894 38.4741 75.4264C38.4741 75.7122 38.4865 75.9979 38.4927 76.2837C38.6104 79.6942 41.1059 82.5581 44.4684 83.0985C44.5861 83.1172 44.7037 83.1358 44.8214 83.1544C47.1064 83.4961 49.0756 84.9498 50.1159 87.0184C50.1283 87.0433 50.1469 87.0744 50.1593 87.0992C51.6826 90.1122 55.1318 91.6155 58.3828 90.721C58.5129 90.6837 58.6429 90.6464 58.773 90.6091C60.9837 89.9693 63.3678 90.4725 65.145 91.9261C65.2379 92.0007 65.3246 92.0752 65.4174 92.1498C67.9997 94.2247 71.6656 94.2433 74.2665 92.1933C74.3593 92.1187 74.4522 92.0442 74.5513 91.9696C76.3471 90.5284 78.7374 90.0562 80.9357 90.721C81.0658 90.7582 81.1958 90.8017 81.332 90.839C84.5707 91.7708 88.0322 90.3047 89.5866 87.3104C89.5989 87.2794 89.6175 87.2545 89.6299 87.2235C90.695 85.1672 92.6828 83.7384 94.9678 83.4216C95.0854 83.4029 95.1969 83.3905 95.3146 83.3719C98.6833 82.8687 101.216 80.0359 101.371 76.6191C101.383 76.3644 101.389 76.1159 101.396 75.8612C101.451 73.6807 102.411 71.6059 104.145 70.2951C104.727 69.8602 105.297 69.3881 105.866 68.8911C108.028 66.9839 108.752 63.9275 107.842 61.1879C107.446 59.9952 107 58.821 106.517 57.6718C105.755 55.8702 105.755 53.8326 106.517 52.0373C107 50.888 107.446 49.7139 107.842 48.5211C108.758 45.7815 108.028 42.7251 105.866 40.8179C105.303 40.321 104.727 39.855 104.145 39.414C102.405 38.1032 101.445 36.0283 101.396 33.8478C101.396 33.5931 101.383 33.3446 101.371 33.0899C101.216 29.6794 98.6833 26.8404 95.3146 26.3372C95.1969 26.3185 95.0854 26.3061 94.9678 26.2875C92.6828 25.9706 90.6888 24.5418 89.6299 22.4856C89.6175 22.4545 89.5989 22.4297 89.5866 22.3986C88.0261 19.4043 84.5707 17.9382 81.332 18.87C81.202 18.9073 81.0719 18.9446 80.9357 18.9881C78.7374 19.6466 76.3471 19.1744 74.5513 17.7394C74.4584 17.6649 74.3655 17.5903 74.2665 17.5158C71.6594 15.4719 67.9997 15.4906 65.4174 17.5593C65.3246 17.6338 65.2317 17.7084 65.145 17.7829C63.3678 19.2428 60.9837 19.7398 58.773 19.0999C58.6429 19.0626 58.5129 19.0254 58.3828 18.9881C55.1318 18.0873 51.6826 19.5907 50.1593 22.6098C50.1469 22.6347 50.1283 22.6657 50.1159 22.6906C49.0756 24.7593 47.1064 26.2129 44.8214 26.5546C44.7037 26.5732 44.5861 26.5919 44.4684 26.6105C41.1059 27.151 38.6104 30.0148 38.4927 33.4254C38.4803 33.7111 38.4741 33.9969 38.4741 34.2826C38.4494 36.4259 37.5329 38.4759 35.8423 39.7805C35.2417 40.2464 34.6472 40.7434 34.0589 41.2776C31.9287 43.2159 31.2414 46.2785 32.1826 49.0057C32.3127 49.3846 32.4489 49.7636 32.5913 50.1425C32.8328 50.801 33.0929 51.4471 33.3654 52.0932V52.1056Z" fill="#F4F4F4"/>
<path d="M75.2701 29.8347C76.1742 29.201 76.7067 28.2381 76.8244 27.2255C75.8336 26.9895 74.7499 27.1634 73.8458 27.7971C72.9417 28.4307 72.4092 29.3936 72.2915 30.4062C73.2823 30.6423 74.366 30.4683 75.2701 29.8347Z" fill="#EE8F00"/>
<path d="M74.2234 25.6539C74.855 26.5609 75.8148 27.0951 76.8242 27.2131C77.0595 26.2192 76.8861 25.132 76.2545 24.225C75.6229 23.3181 74.6631 22.7838 73.6537 22.6658C73.4184 23.6597 73.5918 24.7469 74.2234 25.6539Z" fill="#EE8F00"/>
<path d="M63.7458 85.4965C63.1142 84.5895 62.9408 83.5024 63.1761 82.5084C64.1917 82.6265 65.1515 83.1669 65.777 84.0677C66.4086 84.9747 66.582 86.0618 66.3467 87.0558C65.3311 86.9378 64.3713 86.3973 63.7458 85.4965Z" fill="#EE8F00"/>
<path d="M66.1548 81.9244C65.2507 82.5581 64.1671 82.732 63.1763 82.496C63.2939 81.4772 63.8327 80.5143 64.7306 79.8868C65.6285 79.2594 66.7183 79.0792 67.7091 79.3153C67.5915 80.3341 67.0527 81.297 66.1548 81.9244Z" fill="#EE8F00"/>
<path d="M79.5055 31.1268C80.5025 30.6609 81.196 29.8036 81.4871 28.8283C80.552 28.4245 79.4498 28.4058 78.4528 28.8718C77.4558 29.3377 76.7622 30.195 76.4712 31.1703C77.4063 31.5741 78.5085 31.5927 79.5055 31.1268Z" fill="#EE8F00"/>
<path d="M79.2018 26.8217C79.6663 27.8219 80.5208 28.5177 81.493 28.8096C81.8955 27.8716 81.9141 26.7658 81.4497 25.7656C80.9852 24.7655 80.1307 24.0697 79.1585 23.7777C78.756 24.7158 78.7374 25.8215 79.2018 26.8217Z" fill="#EE8F00"/>
<path d="M58.5505 83.9496C58.086 82.9495 58.1046 81.8499 58.5071 80.9056C59.4855 81.1976 60.3339 81.8934 60.7983 82.8936C61.2627 83.8937 61.2442 84.9933 60.8417 85.9376C59.8633 85.6456 59.0149 84.9498 58.5505 83.9496Z" fill="#EE8F00"/>
<path d="M61.5416 80.8497C60.5446 81.3156 59.4486 81.297 58.5073 80.8932C58.7984 79.9117 59.4919 79.0606 60.4889 78.5947C61.4859 78.1287 62.582 78.1474 63.5232 78.5512C63.2322 79.5327 62.5386 80.3838 61.5416 80.8497Z" fill="#EE8F00"/>
<path d="M83.4561 33.1396C84.5212 32.8538 85.351 32.1332 85.8093 31.22C84.9547 30.6609 83.8772 30.4497 82.8121 30.7354C81.747 31.0212 80.9172 31.7418 80.459 32.655C81.3135 33.2141 82.391 33.4253 83.4561 33.1396Z" fill="#EE8F00"/>
<path d="M83.902 28.8469C84.1869 29.9154 84.9052 30.7479 85.8155 31.2076C86.3728 30.3503 86.5833 29.2694 86.2985 28.2009C86.0136 27.1324 85.2953 26.2999 84.385 25.8402C83.8277 26.6975 83.6172 27.7784 83.902 28.8469Z" fill="#EE8F00"/>
<path d="M53.7018 81.5144C53.417 80.4459 53.6275 79.365 54.1848 78.5077C55.0951 78.9674 55.8134 79.7998 56.0983 80.8683C56.3831 81.9369 56.1726 83.0178 55.6153 83.8751C54.705 83.4154 53.9867 82.5829 53.7018 81.5144Z" fill="#EE8F00"/>
<path d="M57.1882 78.986C56.1231 79.2718 55.0456 79.0606 54.1973 78.5015C54.6555 77.5883 55.4853 76.8676 56.5504 76.5819C57.6155 76.2961 58.693 76.5073 59.5475 77.0664C59.0893 77.9796 58.2595 78.7002 57.1944 78.986H57.1882Z" fill="#EE8F00"/>
<path d="M87.0048 35.8171C88.1009 35.7239 89.0421 35.1524 89.6552 34.3324C88.9121 33.6304 87.8841 33.239 86.7881 33.3322C85.692 33.4254 84.7507 33.9969 84.1377 34.8169C84.8808 35.5189 85.9087 35.9103 87.0048 35.8171Z" fill="#EE8F00"/>
<path d="M88.1815 31.6673C88.2744 32.7669 88.8441 33.7111 89.6615 34.3261C90.3613 33.5807 90.7514 32.5494 90.6585 31.4499C90.5656 30.3503 89.9959 29.406 89.1785 28.791C88.4788 29.5365 88.0886 30.5677 88.1815 31.6673Z" fill="#EE8F00"/>
<path d="M49.3485 78.2715C49.2556 77.172 49.6458 76.1407 50.3455 75.3953C51.1629 76.0103 51.7264 76.9545 51.8255 78.0541C51.9184 79.1537 51.5283 80.1849 50.8285 80.9304C50.0111 80.3154 49.4476 79.3711 49.3485 78.2715Z" fill="#EE8F00"/>
<path d="M53.2128 76.383C52.1167 76.4762 51.0888 76.0848 50.3457 75.3828C50.9588 74.5628 51.9 73.9975 52.9961 73.8981C54.0921 73.8049 55.1201 74.1963 55.8632 74.8983C55.2501 75.7183 54.3089 76.2836 53.2128 76.383Z" fill="#EE8F00"/>
<path d="M90.0327 39.0722C91.1288 39.1654 92.1567 38.774 92.8998 38.0721C92.2867 37.252 91.3455 36.6867 90.2494 36.5873C89.1534 36.4941 88.1254 36.8855 87.3823 37.5875C87.9954 38.4075 88.9366 38.9728 90.0327 39.0722Z" fill="#EE8F00"/>
<path d="M91.9154 35.1896C91.8225 36.2892 92.2126 37.3204 92.9124 38.0659C93.7298 37.4509 94.2933 36.5066 94.3924 35.407C94.4853 34.3075 94.0951 33.2762 93.3954 32.5308C92.578 33.1458 92.0145 34.09 91.9154 35.1896Z" fill="#EE8F00"/>
<path d="M45.6141 74.3083C45.707 73.2087 46.2767 72.2644 47.0941 71.6494C47.7939 72.3949 48.184 73.4261 48.0911 74.5257C47.9982 75.6253 47.4285 76.5695 46.6111 77.1845C45.9114 76.4391 45.5213 75.4078 45.6141 74.3083Z" fill="#EE8F00"/>
<path d="M49.7505 73.1279C48.6544 73.0347 47.7131 72.4632 47.1001 71.6432C47.8432 70.9412 48.8711 70.5498 49.9672 70.643C51.0633 70.7362 52.0045 71.3077 52.6176 72.1277C51.8745 72.8297 50.8465 73.2211 49.7505 73.1279Z" fill="#EE8F00"/>
<path d="M92.4601 42.8121C93.5252 43.0978 94.6026 42.8866 95.4572 42.3275C94.999 41.4143 94.1692 40.6937 93.1041 40.4079C92.039 40.1222 90.9615 40.3334 90.1069 40.8925C90.5652 41.8057 91.395 42.5263 92.4601 42.8121Z" fill="#EE8F00"/>
<path d="M94.9806 39.3207C94.6958 40.3892 94.9063 41.4702 95.4636 42.3275C96.3739 41.8678 97.0923 41.0353 97.3771 39.9668C97.662 38.8983 97.4514 37.8174 96.8941 36.9601C95.9838 37.4198 95.2655 38.2522 94.9806 39.3207Z" fill="#EE8F00"/>
<path d="M42.6232 69.7546C42.9081 68.6861 43.6264 67.8536 44.5367 67.3939C45.094 68.2512 45.3045 69.3321 45.0197 70.4006C44.7348 71.4692 44.0165 72.3016 43.1062 72.7613C42.5489 71.904 42.3384 70.8231 42.6232 69.7546Z" fill="#EE8F00"/>
<path d="M46.902 69.3135C45.8369 69.0278 45.0071 68.3071 44.5488 67.3939C45.4034 66.8348 46.4809 66.6236 47.5398 66.9094C48.6049 67.1951 49.4347 67.9158 49.8929 68.829C49.0383 69.3881 47.9609 69.5993 46.8958 69.3135H46.902Z" fill="#EE8F00"/>
<path d="M94.2062 46.9245C95.2032 47.3905 96.2992 47.3718 97.2405 46.968C96.9494 45.9865 96.2559 45.1354 95.2589 44.6695C94.2619 44.2036 93.1659 44.2222 92.2246 44.626C92.5157 45.6075 93.2092 46.4586 94.2062 46.9245Z" fill="#EE8F00"/>
<path d="M97.2961 43.9179C96.8316 44.918 96.8502 46.0176 97.2527 46.9619C98.2311 46.6699 99.0795 45.9741 99.5439 44.9739C100.008 43.9738 99.9898 42.8742 99.5873 41.9299C98.6089 42.2219 97.7605 42.9177 97.2961 43.9179Z" fill="#EE8F00"/>
<path d="M40.4562 64.7476C40.9207 63.7474 41.7752 63.0516 42.7474 62.7596C43.1499 63.6977 43.1685 64.8035 42.7041 65.8036C42.2396 66.8038 41.3851 67.4996 40.4129 67.7916C40.0104 66.8535 39.9918 65.7477 40.4562 64.7476Z" fill="#EE8F00"/>
<path d="M44.7477 65.052C43.7507 64.5861 43.0572 63.7288 42.7661 62.7534C43.7012 62.3496 44.8034 62.331 45.8004 62.7969C46.7974 63.2628 47.4909 64.1201 47.782 65.0955C46.8469 65.4993 45.7447 65.5179 44.7477 65.052Z" fill="#EE8F00"/>
<path d="M95.2159 51.2732C96.12 51.9068 97.2037 52.0808 98.1945 51.8447C98.0768 50.8259 97.5381 49.863 96.6402 49.2355C95.7361 48.6019 94.6524 48.4279 93.6616 48.664C93.7793 49.6828 94.318 50.6457 95.2159 51.2732Z" fill="#EE8F00"/>
<path d="M98.783 48.8566C98.1513 49.7636 97.9779 50.8508 98.2133 51.8447C99.2288 51.7267 100.189 51.1862 100.814 50.2855C101.44 49.3847 101.619 48.2913 101.384 47.2974C100.368 47.4154 99.4084 47.9559 98.783 48.8566Z" fill="#EE8F00"/>
<path d="M39.1868 59.4361C39.8184 58.5291 40.7782 57.9949 41.7876 57.8768C42.0229 58.8708 41.8495 59.9579 41.2179 60.8649C40.5863 61.7719 39.6264 62.3062 38.6171 62.4242C38.3817 61.4302 38.5551 60.3431 39.1868 59.4361Z" fill="#EE8F00"/>
<path d="M43.3605 60.4859C42.4564 59.8523 41.9238 58.8894 41.8062 57.8768C42.7969 57.6407 43.8806 57.8147 44.7847 58.4483C45.6888 59.082 46.2214 60.0449 46.339 61.0575C45.3482 61.2935 44.2646 61.1196 43.3605 60.4859Z" fill="#EE8F00"/>
<path d="M95.4698 55.7398C96.2501 56.5225 97.2842 56.8828 98.306 56.8207C98.3617 55.8019 98.0025 54.7582 97.2285 53.9755C96.4544 53.1927 95.4141 52.8324 94.3923 52.8945C94.3366 53.9134 94.6958 54.957 95.4698 55.7398Z" fill="#EE8F00"/>
<path d="M99.3958 53.9817C98.6156 54.7644 98.2564 55.8019 98.3184 56.8269C99.3339 56.8828 100.374 56.5225 101.154 55.746C101.935 54.9632 102.294 53.9258 102.232 52.9008C101.216 52.8449 100.176 53.2052 99.3958 53.9817Z" fill="#EE8F00"/>
<path d="M38.8521 53.9817C39.6324 53.199 40.6665 52.8387 41.6883 52.9008C41.744 53.9196 41.3849 54.9632 40.6108 55.746C39.8367 56.5287 38.7964 56.889 37.7747 56.8269C37.7189 55.8081 38.0781 54.7644 38.8521 53.9817Z" fill="#EE8F00"/>
<path d="M42.7782 55.7398C41.9979 54.957 41.6388 53.9196 41.7007 52.8945C42.7162 52.8386 43.7566 53.199 44.5368 53.9755C45.3171 54.7582 45.6762 55.7957 45.6143 56.8207C44.5987 56.8766 43.5584 56.5163 42.7782 55.7398Z" fill="#EE8F00"/>
<path d="M94.9431 60.1504C95.5747 61.0574 96.5346 61.5917 97.5439 61.7097C97.7793 60.7158 97.6059 59.6286 96.9742 58.7216C96.3426 57.8146 95.3828 57.2804 94.3734 57.1624C94.1381 58.1563 94.3115 59.2435 94.9431 60.1504Z" fill="#EE8F00"/>
<path d="M99.1168 59.1005C98.2127 59.7342 97.6802 60.6971 97.5625 61.7097C98.5533 61.9457 99.637 61.7718 100.541 61.1382C101.445 60.5045 101.978 59.5416 102.095 58.529C101.105 58.2929 100.021 58.4669 99.1168 59.1005Z" fill="#EE8F00"/>
<path d="M39.4654 48.5832C40.3695 47.9495 41.4532 47.7756 42.444 48.0117C42.3263 49.0305 41.7876 49.9934 40.8897 50.6208C39.9856 51.2545 38.9019 51.4284 37.9111 51.1923C38.0288 50.1735 38.5675 49.2106 39.4654 48.5832Z" fill="#EE8F00"/>
<path d="M43.0261 50.9998C42.3945 50.0928 42.2211 49.0057 42.4564 48.0117C43.472 48.1298 44.4318 48.6702 45.0572 49.571C45.6827 50.4718 45.8623 51.5651 45.6269 52.5591C44.6114 52.4411 43.6516 51.9006 43.0261 50.9998Z" fill="#EE8F00"/>
<path d="M93.6613 64.3996C94.1257 65.3998 94.9803 66.0955 95.9525 66.3875C96.355 65.4495 96.3736 64.3437 95.9092 63.3435C95.4447 62.3433 94.5902 61.6476 93.6179 61.3556C93.2154 62.2936 93.1969 63.3994 93.6613 64.3996Z" fill="#EE8F00"/>
<path d="M97.9464 64.0889C96.9494 64.5548 96.2559 65.4121 95.9648 66.3875C96.8999 66.7912 98.0022 66.8099 98.9991 66.344C99.9961 65.878 100.69 65.0208 100.981 64.0454C100.046 63.6416 98.9434 63.623 97.9464 64.0889Z" fill="#EE8F00"/>
<path d="M41.007 43.3711C42.004 42.9052 43.1 42.9239 44.0413 43.3277C43.7502 44.3092 43.0567 45.1603 42.0597 45.6262C41.0627 46.0921 39.9666 46.0735 39.0254 45.6697C39.3164 44.6881 40.01 43.8371 41.007 43.3711Z" fill="#EE8F00"/>
<path d="M44.091 46.3716C43.6266 45.3715 43.6451 44.2719 44.0476 43.3276C45.026 43.6196 45.8744 44.3154 46.3388 45.3156C46.8033 46.3157 46.7847 47.4153 46.3822 48.3596C45.4038 48.0676 44.5554 47.3718 44.091 46.3716Z" fill="#EE8F00"/>
<path d="M91.6549 68.3631C91.9398 69.4316 92.6581 70.264 93.5684 70.7237C94.1257 69.8664 94.3363 68.7855 94.0514 67.717C93.7666 66.6485 93.0482 65.816 92.138 65.3563C91.5806 66.2136 91.3701 67.2945 91.6549 68.3631Z" fill="#EE8F00"/>
<path d="M95.9278 68.8042C94.8627 69.0899 94.0329 69.8105 93.5747 70.7237C94.4293 71.2828 95.5067 71.4941 96.5718 71.2083C97.6369 70.9225 98.4667 70.2019 98.925 69.2887C98.0704 68.7296 96.9929 68.5184 95.934 68.8042H95.9278Z" fill="#EE8F00"/>
<path d="M43.4282 38.507C44.4933 38.2213 45.5708 38.4325 46.4191 38.9916C45.9609 39.9048 45.1311 40.6254 44.066 40.9112C43.0009 41.1969 41.9234 40.9857 41.0688 40.4266C41.5271 39.5134 42.3569 38.7928 43.422 38.507H43.4282Z" fill="#EE8F00"/>
<path d="M45.9484 42.0045C45.6635 40.936 45.8741 39.8551 46.4314 38.9978C47.3417 39.4575 48.06 40.29 48.3449 41.3585C48.6297 42.427 48.4192 43.5079 47.8619 44.3652C46.9516 43.9055 46.2333 43.073 45.9484 42.0045Z" fill="#EE8F00"/>
<path d="M88.9862 71.9164C89.0791 73.016 89.6488 73.9603 90.4662 74.5753C91.166 73.8298 91.5561 72.7986 91.4632 71.699C91.3703 70.5994 90.8006 69.6552 89.9832 69.0402C89.2834 69.7856 88.8933 70.8169 88.9862 71.9164Z" fill="#EE8F00"/>
<path d="M93.1225 73.0967C92.0265 73.1899 91.0852 73.7614 90.4722 74.5815C91.2153 75.2834 92.2432 75.6748 93.3393 75.5816C94.4353 75.4884 95.3766 74.9169 95.9896 74.0969C95.2465 73.3949 94.2186 73.0035 93.1225 73.0967Z" fill="#EE8F00"/>
<path d="M46.667 34.1398C47.763 34.0466 48.791 34.438 49.5341 35.14C48.921 35.96 47.9798 36.5253 46.8837 36.6247C45.7876 36.7179 44.7597 36.3265 44.0166 35.6245C44.6297 34.8045 45.5709 34.2392 46.667 34.1398Z" fill="#EE8F00"/>
<path d="M48.5433 38.0225C48.4505 36.9229 48.8406 35.8917 49.5403 35.1462C50.3577 35.7613 50.9212 36.7055 51.0203 37.8051C51.1132 38.9047 50.7231 39.9359 50.0233 40.6814C49.2059 40.0663 48.6424 39.1221 48.5433 38.0225Z" fill="#EE8F00"/>
<path d="M85.7411 74.9605C85.6482 76.0601 86.0383 77.0913 86.7381 77.8368C87.5555 77.2217 88.119 76.2775 88.2181 75.1779C88.311 74.0783 87.9208 73.0471 87.2211 72.3016C86.4037 72.9166 85.8402 73.8609 85.7411 74.9605Z" fill="#EE8F00"/>
<path d="M89.6054 76.8428C88.5093 76.7496 87.4814 77.141 86.7383 77.843C87.3513 78.663 88.2926 79.2283 89.3886 79.3277C90.4847 79.4209 91.5127 79.0295 92.2557 78.3276C91.6427 77.5075 90.7014 76.9422 89.6054 76.8428Z" fill="#EE8F00"/>
<path d="M50.6117 30.4C51.7078 30.4931 52.649 31.0647 53.2621 31.8847C52.519 32.5867 51.4911 32.978 50.395 32.8849C49.2989 32.7917 48.3577 32.2201 47.7446 31.4001C48.4877 30.6981 49.5157 30.3068 50.6117 30.4Z" fill="#EE8F00"/>
<path d="M51.7885 34.5435C51.8813 33.4439 52.451 32.4997 53.2685 31.8846C53.9682 32.6301 54.3583 33.6613 54.2654 34.7609C54.1725 35.8605 53.6028 36.8047 52.7854 37.4198C52.0857 36.6743 51.6956 35.6431 51.7885 34.5435Z" fill="#EE8F00"/>
<path d="M82.0075 77.3895C81.7226 78.458 81.9332 79.5389 82.4905 80.3962C83.4008 79.9365 84.1191 79.104 84.404 78.0355C84.6888 76.967 84.4783 75.8861 83.9209 75.0288C83.0107 75.4885 82.2923 76.321 82.0075 77.3895Z" fill="#EE8F00"/>
<path d="M85.4937 79.9178C84.4286 79.632 83.3511 79.8433 82.4966 80.4024C82.9548 81.3156 83.7846 82.0362 84.8497 82.3219C85.9148 82.6077 86.9923 82.3965 87.8469 81.8374C87.3886 80.9242 86.5588 80.2036 85.4937 79.9178Z" fill="#EE8F00"/>
<path d="M55.1505 27.3933C56.2156 27.679 57.0453 28.3996 57.5036 29.3129C56.649 29.872 55.5715 30.0832 54.5064 29.7974C53.4413 29.5116 52.6116 28.791 52.1533 27.8778C53.0079 27.3187 54.0854 27.1075 55.1505 27.3933Z" fill="#EE8F00"/>
<path d="M55.5964 31.686C55.8812 30.6175 56.5995 29.785 57.5098 29.3253C58.0671 30.1826 58.2777 31.2635 57.9928 32.332C57.708 33.4006 56.9897 34.233 56.0794 34.6927C55.522 33.8354 55.3115 32.7545 55.5964 31.686Z" fill="#EE8F00"/>
<path d="M77.9142 79.1414C77.4498 80.1415 77.4684 81.2411 77.8709 82.1854C78.8493 81.8934 79.6976 81.1976 80.1621 80.1974C80.6265 79.1973 80.6079 78.0977 80.2054 77.1534C79.227 77.4454 78.3787 78.1412 77.9142 79.1414Z" fill="#EE8F00"/>
<path d="M80.9054 82.2413C79.9084 81.7753 78.8123 81.794 77.8711 82.1978C78.1621 83.1793 78.8557 84.0304 79.8527 84.4963C80.8497 84.9622 81.9457 84.9436 82.887 84.5398C82.5959 83.5583 81.9024 82.7072 80.9054 82.2413Z" fill="#EE8F00"/>
<path d="M60.1481 25.2252C61.1451 25.6911 61.8386 26.5484 62.1296 27.5237C61.1946 27.9275 60.0923 27.9461 59.0954 27.4802C58.0984 27.0143 57.4048 26.157 57.1138 25.1817C58.0488 24.7779 59.1511 24.7592 60.1481 25.2252Z" fill="#EE8F00"/>
<path d="M59.8385 29.5241C60.303 28.5239 61.1575 27.8281 62.1297 27.5361C62.5323 28.4742 62.5508 29.58 62.0864 30.5801C61.622 31.5803 60.7674 32.2761 59.7952 32.5681C59.3927 31.63 59.3741 30.5242 59.8385 29.5241Z" fill="#EE8F00"/>
<path d="M73.573 80.1601C72.9414 81.0671 72.768 82.1542 73.0033 83.1482C74.0189 83.0302 74.9787 82.4897 75.6041 81.5889C76.2357 80.6819 76.4091 79.5948 76.1738 78.6008C75.1583 78.7189 74.1984 79.2593 73.573 80.1601Z" fill="#EE8F00"/>
<path d="M75.982 83.7321C75.0779 83.0985 73.9942 82.9245 73.0034 83.1606C73.1211 84.1794 73.6598 85.1423 74.5577 85.7697C75.4618 86.4034 76.5455 86.5773 77.5363 86.3413C77.4186 85.3225 76.8799 84.3596 75.982 83.7321Z" fill="#EE8F00"/>
<path d="M65.4424 23.9517C66.3465 24.5854 66.8791 25.5483 66.9967 26.5609C66.0059 26.7969 64.9223 26.623 64.0182 25.9893C63.1141 25.3557 62.5815 24.3928 62.4639 23.3802C63.4547 23.1441 64.5383 23.3181 65.4424 23.9517Z" fill="#EE8F00"/>
<path d="M64.3958 28.1325C65.0274 27.2255 65.9872 26.6913 66.9966 26.5732C67.2319 27.5672 67.0585 28.6543 66.4269 29.5613C65.7952 30.4683 64.8354 31.0026 63.826 31.1206C63.5907 30.1267 63.7641 29.0395 64.3958 28.1325Z" fill="#EE8F00"/>
<path d="M69.1209 80.4086C68.3407 81.1913 67.9815 82.2288 68.0435 83.2538C69.059 83.3097 70.0993 82.9494 70.8796 82.1729C71.6598 81.3901 72.019 80.3527 71.9571 79.3277C70.9415 79.2717 69.9012 79.6321 69.1209 80.4086Z" fill="#EE8F00"/>
<path d="M70.8794 84.3472C70.0991 83.5644 69.065 83.2041 68.0432 83.2663C67.9875 84.2851 68.3466 85.3287 69.1207 86.1115C69.9009 86.8942 70.9351 87.2545 71.9568 87.1924C72.0126 86.1736 71.6534 85.1299 70.8794 84.3472Z" fill="#EE8F00"/>
<path d="M70.8796 23.61C71.6598 24.3927 72.019 25.4302 71.9571 26.4552C70.9415 26.5111 69.9012 26.1508 69.1209 25.3743C68.3407 24.5915 67.9815 23.5541 68.0435 22.5291C69.059 22.4732 70.0993 22.8335 70.8796 23.61Z" fill="#EE8F00"/>
<path d="M69.1207 27.5486C69.9009 26.7659 70.9351 26.4055 71.9568 26.4677C72.0126 27.4865 71.6534 28.5301 70.8794 29.3129C70.0991 30.0956 69.065 30.4559 68.0432 30.3938C67.9875 29.375 68.3466 28.3313 69.1207 27.5486Z" fill="#EE8F00"/>
</g>
<defs>
<clipPath id="clip0_904_10306">
<rect width="78" height="108" fill="white" transform="translate(31 16)"/>
</clipPath>
</defs>
</svg>
