<svg width="258" height="232" viewBox="0 0 258 232" fill="none" xmlns="http://www.w3.org/2000/svg">
<g clip-path="url(#clip0_353_9481)">
<path d="M104.63 69.0966H102.087V198.396H104.63V69.0966Z" stroke="#BFBFBF" stroke-width="0.882381" stroke-miterlimit="10"/>
<path d="M119.887 69.0966H117.344V198.396H119.887V69.0966Z" stroke="#BFBFBF" stroke-width="0.882381" stroke-miterlimit="10"/>
<path d="M117.343 79.2383L104.629 71.6326V74.1678L115.227 80.5066L104.632 86.8447V89.3799L115.227 95.7174L104.632 102.056V104.591L115.227 110.93L104.632 117.268V119.803L115.227 126.141L104.632 132.479V135.014L115.227 141.353L104.632 147.691V150.226L115.227 156.564L104.632 162.903V165.437L115.227 171.776L104.632 178.114V180.649L115.227 186.988L104.632 193.326V195.861L117.346 188.255V185.72L106.751 179.382L117.346 173.044V170.508L106.751 164.17L117.346 157.832V155.297L106.751 148.958L117.346 142.62V140.085L106.751 133.747L117.343 127.409V124.874L106.749 118.536L117.343 112.198V109.662L106.749 103.324L117.343 96.9857V94.4504L106.749 88.1123L117.343 81.7742V79.2383Z" stroke="#BFBFBF" stroke-width="0.220595" stroke-miterlimit="10"/>
<path d="M127.515 198.396H94.459V200.931H127.515V198.396Z" stroke="#BFBFBF" stroke-width="0.882381" stroke-miterlimit="10"/>
<path d="M130.058 200.931H91.9155V228.82H130.058V200.931Z" stroke="#BFBFBF" stroke-width="0.882381" stroke-miterlimit="10"/>
<path d="M132.601 228.82H89.3726V231.355H132.601V228.82Z" stroke="#BFBFBF" stroke-width="0.882381" stroke-miterlimit="10"/>
<path d="M99.5438 197.128H97.001V198.396H99.5438V197.128Z" stroke="#BFBFBF" stroke-width="0.882381" stroke-miterlimit="10"/>
<path d="M124.972 197.128H122.43V198.396H124.972V197.128Z" stroke="#BFBFBF" stroke-width="0.882381" stroke-miterlimit="10"/>
<path d="M91.9155 218.679H130.058" stroke="#BFBFBF" stroke-width="0.882381" stroke-miterlimit="10"/>
<path d="M91.9155 221.214L130.058 226.285" stroke="#BFBFBF" stroke-width="0.220595" stroke-miterlimit="10"/>
<path d="M130.058 221.214L91.9155 226.285" stroke="#BFBFBF" stroke-width="0.220595" stroke-miterlimit="10"/>
<path d="M117.344 80.5065H104.63" stroke="#BFBFBF" stroke-width="0.745612" stroke-miterlimit="10"/>
<path d="M117.344 103.323H104.63" stroke="#BFBFBF" stroke-width="0.745612" stroke-miterlimit="10"/>
<path d="M117.344 110.929H104.63" stroke="#BFBFBF" stroke-width="0.745612" stroke-miterlimit="10"/>
<path d="M117.344 118.534H104.63" stroke="#BFBFBF" stroke-width="0.745612" stroke-miterlimit="10"/>
<path d="M117.344 126.141H104.63" stroke="#BFBFBF" stroke-width="0.745612" stroke-miterlimit="10"/>
<path d="M117.344 141.353H104.63" stroke="#BFBFBF" stroke-width="0.745612" stroke-miterlimit="10"/>
<path d="M117.344 148.958H104.63" stroke="#BFBFBF" stroke-width="0.745612" stroke-miterlimit="10"/>
<path d="M117.344 156.564H104.63" stroke="#BFBFBF" stroke-width="0.745612" stroke-miterlimit="10"/>
<path d="M117.344 164.17H104.63" stroke="#BFBFBF" stroke-width="0.745612" stroke-miterlimit="10"/>
<path d="M117.344 171.776H104.63" stroke="#BFBFBF" stroke-width="0.745612" stroke-miterlimit="10"/>
<path d="M117.344 179.381H104.63" stroke="#BFBFBF" stroke-width="0.745612" stroke-miterlimit="10"/>
<path d="M117.344 186.987H104.63" stroke="#BFBFBF" stroke-width="0.745612" stroke-miterlimit="10"/>
<path d="M117.344 194.593H104.63" stroke="#BFBFBF" stroke-width="0.745612" stroke-miterlimit="10"/>
<path d="M117.344 195.861H104.63" stroke="#BFBFBF" stroke-width="0.745612" stroke-miterlimit="10"/>
<path d="M117.344 133.747H104.63" stroke="#BFBFBF" stroke-width="0.745612" stroke-miterlimit="10"/>
<path d="M117.344 72.9004H104.63" stroke="#BFBFBF" stroke-width="0.745612" stroke-miterlimit="10"/>
<path d="M117.344 71.6326H104.63" stroke="#BFBFBF" stroke-width="0.745612" stroke-miterlimit="10"/>
<path d="M117.344 88.1118H104.63" stroke="#BFBFBF" stroke-width="0.745612" stroke-miterlimit="10"/>
<path d="M104.63 95.7173H117.344" stroke="#BFBFBF" stroke-width="0.745612" stroke-miterlimit="10"/>
<path d="M124.972 66.5609H97.0015V69.0968H124.972V66.5609Z" stroke="#BFBFBF" stroke-width="0.882381" stroke-miterlimit="10"/>
<path d="M124.972 38.6735H97.0015V41.2088H124.972V38.6735Z" stroke="#BFBFBF" stroke-width="0.882381" stroke-miterlimit="10"/>
<path d="M203.801 41.2071H178.372L174.558 38.6716H207.615L203.801 41.2071Z" stroke="#BFBFBF" stroke-width="0.882381" stroke-miterlimit="10"/>
<path d="M130.058 64.0267H91.916V41.2096H135.144L130.058 64.0267Z" stroke="#BFBFBF" stroke-width="0.882381" stroke-miterlimit="10"/>
<path d="M127.515 58.9554H112.258V43.744H130.894L127.515 58.9554Z" stroke="#BFBFBF" stroke-width="0.882381" stroke-miterlimit="10"/>
<path d="M109.715 43.744H99.5439V58.9559H109.715V43.744Z" stroke="#BFBFBF" stroke-width="0.882381" stroke-miterlimit="10"/>
<path d="M107.172 46.2793H102.087V56.4204H107.172V46.2793Z" stroke="#BFBFBF" stroke-width="0.220595" stroke-miterlimit="10"/>
<path d="M91.9155 61.4912H130.694" stroke="#BFBFBF" stroke-width="0.882381" stroke-miterlimit="10"/>
<path d="M114.801 46.2793H127.515L125.239 56.4204H114.801V46.2793Z" stroke="#BFBFBF" stroke-width="0.220595" stroke-miterlimit="10"/>
<path d="M122.43 64.0264H99.5439V66.5621H122.43V64.0264Z" stroke="#BFBFBF" stroke-width="0.882381" stroke-miterlimit="10"/>
<path d="M99.5439 64.0264L102.087 66.5621" stroke="#BFBFBF" stroke-width="0.220595" stroke-miterlimit="10"/>
<path d="M102.087 64.0264L104.63 66.5621" stroke="#BFBFBF" stroke-width="0.220595" stroke-miterlimit="10"/>
<path d="M104.63 64.0264L107.173 66.5621" stroke="#BFBFBF" stroke-width="0.220595" stroke-miterlimit="10"/>
<path d="M107.173 64.0264L109.716 66.5621" stroke="#BFBFBF" stroke-width="0.220595" stroke-miterlimit="10"/>
<path d="M109.716 64.0264L112.259 66.5621" stroke="#BFBFBF" stroke-width="0.220595" stroke-miterlimit="10"/>
<path d="M112.258 64.0264L114.801 66.5621" stroke="#BFBFBF" stroke-width="0.220595" stroke-miterlimit="10"/>
<path d="M114.801 64.0264L117.344 66.5621" stroke="#BFBFBF" stroke-width="0.220595" stroke-miterlimit="10"/>
<path d="M117.344 64.0264L119.887 66.5621" stroke="#BFBFBF" stroke-width="0.220595" stroke-miterlimit="10"/>
<path d="M119.887 64.0264L122.43 66.5621" stroke="#BFBFBF" stroke-width="0.220595" stroke-miterlimit="10"/>
<path d="M221.6 36.1383H25.8018V38.6737H221.6V36.1383Z" stroke="#BFBFBF" stroke-width="0.882381" stroke-miterlimit="10"/>
<path d="M221.6 28.5321H25.8018V31.0675H221.6V28.5321Z" stroke="#BFBFBF" stroke-width="0.882381" stroke-miterlimit="10"/>
<path d="M53.772 36.138L61.4004 31.0677H66.4866L58.8582 36.138H53.772Z" stroke="#BFBFBF" stroke-width="0.220595" stroke-miterlimit="10"/>
<path d="M79.2015 36.138L71.5731 31.0677H66.4868L74.1152 36.138H79.2015Z" stroke="#BFBFBF" stroke-width="0.220595" stroke-miterlimit="10"/>
<path d="M28.3447 36.138L35.9731 31.0677H41.0587L33.4307 36.138H28.3447Z" stroke="#BFBFBF" stroke-width="0.220595" stroke-miterlimit="10"/>
<path d="M53.7731 36.138L46.1447 31.0677H41.0591L48.6868 36.138H53.7731Z" stroke="#BFBFBF" stroke-width="0.220595" stroke-miterlimit="10"/>
<path d="M79.2012 36.138L86.8296 31.0677H91.9152L84.2868 36.138H79.2012Z" stroke="#BFBFBF" stroke-width="0.220595" stroke-miterlimit="10"/>
<path d="M104.63 36.138L97.0018 31.0677H91.9155L99.5439 36.138H104.63Z" stroke="#BFBFBF" stroke-width="0.220595" stroke-miterlimit="10"/>
<path d="M104.63 36.138L112.259 31.0677H117.344L109.716 36.138H104.63Z" stroke="#BFBFBF" stroke-width="0.220595" stroke-miterlimit="10"/>
<path d="M130.059 36.138L122.43 31.0677H117.347L124.975 36.138H130.059Z" stroke="#BFBFBF" stroke-width="0.220595" stroke-miterlimit="10"/>
<path d="M130.059 36.138L137.687 31.0677H142.773L135.144 36.138H130.059Z" stroke="#BFBFBF" stroke-width="0.220595" stroke-miterlimit="10"/>
<path d="M155.487 36.138L147.859 31.0677H142.773L150.401 36.138H155.487Z" stroke="#BFBFBF" stroke-width="0.220595" stroke-miterlimit="10"/>
<path d="M155.487 36.138L163.115 31.0677H168.201L160.573 36.138H155.487Z" stroke="#BFBFBF" stroke-width="0.220595" stroke-miterlimit="10"/>
<path d="M180.915 36.138L173.287 31.0677H168.201L175.829 36.138H180.915Z" stroke="#BFBFBF" stroke-width="0.220595" stroke-miterlimit="10"/>
<path d="M180.915 36.138L188.543 31.0677H193.629L186.001 36.138H180.915Z" stroke="#BFBFBF" stroke-width="0.220595" stroke-miterlimit="10"/>
<path d="M206.344 36.138L213.972 31.0677H219.058L211.43 36.138H206.344Z" stroke="#BFBFBF" stroke-width="0.220595" stroke-miterlimit="10"/>
<path d="M206.343 36.138L198.714 31.0677H193.628L201.256 36.138H206.343Z" stroke="#BFBFBF" stroke-width="0.220595" stroke-miterlimit="10"/>
<path d="M53.7734 36.138V31.0677" stroke="#BFBFBF" stroke-width="0.882381" stroke-miterlimit="10"/>
<path d="M41.0591 36.138V31.0677" stroke="#BFBFBF" stroke-width="0.882381" stroke-miterlimit="10"/>
<path d="M28.3447 36.138V31.0677" stroke="#BFBFBF" stroke-width="0.882381" stroke-miterlimit="10"/>
<path d="M66.4868 36.138V31.0677" stroke="#BFBFBF" stroke-width="0.882381" stroke-miterlimit="10"/>
<path d="M79.2012 36.138V31.0677" stroke="#BFBFBF" stroke-width="0.882381" stroke-miterlimit="10"/>
<path d="M91.9155 36.138V31.0677" stroke="#BFBFBF" stroke-width="0.882381" stroke-miterlimit="10"/>
<path d="M104.63 36.138V31.0677" stroke="#BFBFBF" stroke-width="0.882381" stroke-miterlimit="10"/>
<path d="M117.344 36.138V31.0677" stroke="#BFBFBF" stroke-width="0.882381" stroke-miterlimit="10"/>
<path d="M130.059 36.138V31.0677" stroke="#BFBFBF" stroke-width="0.882381" stroke-miterlimit="10"/>
<path d="M142.773 36.138V31.0677" stroke="#BFBFBF" stroke-width="0.882381" stroke-miterlimit="10"/>
<path d="M155.487 36.138V31.0677" stroke="#BFBFBF" stroke-width="0.882381" stroke-miterlimit="10"/>
<path d="M168.201 36.138V31.0677" stroke="#BFBFBF" stroke-width="0.882381" stroke-miterlimit="10"/>
<path d="M180.915 36.138V31.0677" stroke="#BFBFBF" stroke-width="0.882381" stroke-miterlimit="10"/>
<path d="M193.629 36.138V31.0677" stroke="#BFBFBF" stroke-width="0.882381" stroke-miterlimit="10"/>
<path d="M206.344 36.138V31.0677" stroke="#BFBFBF" stroke-width="0.882381" stroke-miterlimit="10"/>
<path d="M219.058 36.138V31.0677" stroke="#BFBFBF" stroke-width="0.882381" stroke-miterlimit="10"/>
<path d="M196.172 41.2087C196.159 42.5447 195.617 43.8213 194.665 44.7611C193.712 45.701 192.426 46.2282 191.087 46.2282C189.747 46.2282 188.461 45.701 187.508 44.7611C186.556 43.8213 186.015 42.5447 186.001 41.2087H196.172Z" stroke="#BFBFBF" stroke-width="0.882381" stroke-miterlimit="10"/>
<path d="M186.683 43.7448H195.49" stroke="#BFBFBF" stroke-width="0.220595" stroke-miterlimit="10"/>
<path d="M191.087 46.2793V58.9558L150.401 66.5616" stroke="#BFBFBF" stroke-width="0.224125" stroke-miterlimit="10"/>
<path d="M180.915 66.5614L191.086 58.9559L231.771 66.5614" stroke="#BFBFBF" stroke-width="0.224125" stroke-miterlimit="10"/>
<path d="M236.859 66.5613H142.773V91.9144H236.859V66.5613Z" stroke="#BFBFBF" stroke-width="0.882381" stroke-miterlimit="10"/>
<path d="M234.315 91.9146H145.315V94.4498H234.315V91.9146Z" stroke="#BFBFBF" stroke-width="0.882381" stroke-miterlimit="10"/>
<path d="M142.773 84.308H236.859" stroke="#BFBFBF" stroke-width="0.882381" stroke-miterlimit="10"/>
<path d="M152.944 91.9144V66.5613" stroke="#BFBFBF" stroke-width="0.220595" stroke-miterlimit="10"/>
<path d="M158.03 91.9144V66.5613" stroke="#BFBFBF" stroke-width="0.220595" stroke-miterlimit="10"/>
<path d="M163.115 91.9144V66.5613" stroke="#BFBFBF" stroke-width="0.220595" stroke-miterlimit="10"/>
<path d="M168.201 91.9144V66.5613" stroke="#BFBFBF" stroke-width="0.220595" stroke-miterlimit="10"/>
<path d="M155.487 91.9144V66.5613" stroke="#BFBFBF" stroke-width="0.220595" stroke-miterlimit="10"/>
<path d="M160.572 91.9144V66.5613" stroke="#BFBFBF" stroke-width="0.220595" stroke-miterlimit="10"/>
<path d="M147.858 91.9144V66.5613" stroke="#BFBFBF" stroke-width="0.220595" stroke-miterlimit="10"/>
<path d="M150.401 91.9144V66.5613" stroke="#BFBFBF" stroke-width="0.220595" stroke-miterlimit="10"/>
<path d="M165.658 91.9144V66.5613" stroke="#BFBFBF" stroke-width="0.220595" stroke-miterlimit="10"/>
<path d="M173.287 91.9144V66.5613" stroke="#BFBFBF" stroke-width="0.220595" stroke-miterlimit="10"/>
<path d="M178.372 91.9144V66.5613" stroke="#BFBFBF" stroke-width="0.220595" stroke-miterlimit="10"/>
<path d="M183.458 91.9144V66.5613" stroke="#BFBFBF" stroke-width="0.220595" stroke-miterlimit="10"/>
<path d="M188.543 91.9144V66.5613" stroke="#BFBFBF" stroke-width="0.220595" stroke-miterlimit="10"/>
<path d="M170.744 91.9144V66.5613" stroke="#BFBFBF" stroke-width="0.220595" stroke-miterlimit="10"/>
<path d="M175.83 91.9144V66.5613" stroke="#BFBFBF" stroke-width="0.220595" stroke-miterlimit="10"/>
<path d="M180.915 91.9144V66.5613" stroke="#BFBFBF" stroke-width="0.220595" stroke-miterlimit="10"/>
<path d="M186.001 91.9144V66.5613" stroke="#BFBFBF" stroke-width="0.220595" stroke-miterlimit="10"/>
<path d="M191.086 91.9144V66.5613" stroke="#BFBFBF" stroke-width="0.220595" stroke-miterlimit="10"/>
<path d="M196.172 91.9144V66.5613" stroke="#BFBFBF" stroke-width="0.220595" stroke-miterlimit="10"/>
<path d="M193.629 91.9144V66.5613" stroke="#BFBFBF" stroke-width="0.220595" stroke-miterlimit="10"/>
<path d="M201.258 91.9144V66.5613" stroke="#BFBFBF" stroke-width="0.220595" stroke-miterlimit="10"/>
<path d="M206.344 91.9144V66.5613" stroke="#BFBFBF" stroke-width="0.220595" stroke-miterlimit="10"/>
<path d="M211.429 91.9144V66.5613" stroke="#BFBFBF" stroke-width="0.220595" stroke-miterlimit="10"/>
<path d="M216.515 91.9144V66.5613" stroke="#BFBFBF" stroke-width="0.220595" stroke-miterlimit="10"/>
<path d="M198.715 91.9144V66.5613" stroke="#BFBFBF" stroke-width="0.220595" stroke-miterlimit="10"/>
<path d="M203.801 91.9144V66.5613" stroke="#BFBFBF" stroke-width="0.220595" stroke-miterlimit="10"/>
<path d="M208.886 91.9144V66.5613" stroke="#BFBFBF" stroke-width="0.220595" stroke-miterlimit="10"/>
<path d="M213.972 91.9144V66.5613" stroke="#BFBFBF" stroke-width="0.220595" stroke-miterlimit="10"/>
<path d="M221.601 91.9144V66.5613" stroke="#BFBFBF" stroke-width="0.220595" stroke-miterlimit="10"/>
<path d="M226.686 91.9144V66.5613" stroke="#BFBFBF" stroke-width="0.220595" stroke-miterlimit="10"/>
<path d="M231.772 91.9144V66.5613" stroke="#BFBFBF" stroke-width="0.220595" stroke-miterlimit="10"/>
<path d="M219.058 91.9144V66.5613" stroke="#BFBFBF" stroke-width="0.220595" stroke-miterlimit="10"/>
<path d="M224.143 91.9144V66.5613" stroke="#BFBFBF" stroke-width="0.220595" stroke-miterlimit="10"/>
<path d="M229.229 91.9144V66.5613" stroke="#BFBFBF" stroke-width="0.220595" stroke-miterlimit="10"/>
<path d="M191.086 58.9559L201.258 66.5614" stroke="#BFBFBF" stroke-width="0.220595" stroke-miterlimit="10"/>
<path d="M75.387 66.5613H34.7017V69.0965H75.387V66.5613Z" stroke="#BFBFBF" stroke-width="0.882381" stroke-miterlimit="10"/>
<path d="M70.3014 46.2793H39.7871V66.5616H70.3014V46.2793Z" stroke="#BFBFBF" stroke-width="0.882381" stroke-miterlimit="10"/>
<path d="M97.0017 3.18005L65.216 38.6736L43.6016 66.5619V84.3087" stroke="#BFBFBF" stroke-width="0.220595" stroke-miterlimit="10"/>
<path d="M65.2159 74.1677V66.5619L43.6021 38.6736L97.0003 3.18005" stroke="#BFBFBF" stroke-width="0.220595" stroke-miterlimit="10"/>
<path d="M39.7871 66.5622H37.2441L29.6157 38.6743H32.1587L39.7871 66.5622Z" stroke="#BFBFBF" stroke-width="0.882381" stroke-miterlimit="10"/>
<path d="M72.8452 66.5622H70.2998L79.2003 38.6743H81.7424L72.8452 66.5622Z" stroke="#BFBFBF" stroke-width="0.882381" stroke-miterlimit="10"/>
<path d="M99.5438 3.18005H97.001V28.5325H99.5438V3.18005Z" stroke="#BFBFBF" stroke-width="0.882381" stroke-miterlimit="10"/>
<path d="M124.973 28.5305H122.066L112.259 13.1629L110.805 10.8864L105.887 3.17651H108.79L112.259 8.61144L113.712 10.8843L124.973 28.5305Z" stroke="#BFBFBF" stroke-width="0.882381" stroke-miterlimit="10"/>
<path d="M112.259 13.1659L102.451 28.5335H99.5444L110.805 10.8894L112.259 13.1659Z" stroke="#BFBFBF" stroke-width="0.882381" stroke-miterlimit="10"/>
<path d="M112.259 0.644409H94.459V3.17981H112.259V0.644409Z" stroke="#BFBFBF" stroke-width="0.882381" stroke-miterlimit="10"/>
<path d="M206.342 28.5326L108.79 3.18115L178.373 28.5326" stroke="#BFBFBF" stroke-width="0.220595" stroke-miterlimit="10"/>
<path d="M86.8303 228.82H0.373047V231.355H86.8303V228.82Z" stroke="#BFBFBF" stroke-width="0.882381" stroke-miterlimit="10"/>
<path d="M244.486 124.873H208.886V127.408H244.486V124.873Z" stroke="#BFBFBF" stroke-width="0.882381" stroke-miterlimit="10"/>
<path d="M244.486 160.367H208.886V162.903H244.486V160.367Z" stroke="#BFBFBF" stroke-width="0.882381" stroke-miterlimit="10"/>
<path d="M224.143 132.479H213.972V152.761H224.143V132.479Z" stroke="#BFBFBF" stroke-width="0.882381" stroke-miterlimit="10"/>
<path d="M224.143 152.762H213.972V155.379H224.143V152.762Z" stroke="#BFBFBF" stroke-width="0.882381" stroke-miterlimit="10"/>
<path d="M224.143 154.111H213.972" stroke="#BFBFBF" stroke-width="0.220595" stroke-miterlimit="10"/>
<path d="M219.058 132.479V152.761" stroke="#BFBFBF" stroke-width="0.220595" stroke-miterlimit="10"/>
<path d="M239.401 132.439H229.229V152.721H239.401V132.439Z" stroke="#BFBFBF" stroke-width="0.882381" stroke-miterlimit="10"/>
<path d="M239.4 152.721H229.229V155.338H239.4V152.721Z" stroke="#BFBFBF" stroke-width="0.882381" stroke-miterlimit="10"/>
<path d="M239.401 154.071H229.229" stroke="#BFBFBF" stroke-width="0.220595" stroke-miterlimit="10"/>
<path d="M234.314 132.439V152.721" stroke="#BFBFBF" stroke-width="0.220595" stroke-miterlimit="10"/>
<path d="M244.488 109.662L208.888 117.268V119.803L244.488 112.197V109.662Z" stroke="#BFBFBF" stroke-width="0.882381" stroke-miterlimit="10"/>
<path d="M208.887 124.873H173.287V127.408H208.887V124.873Z" stroke="#BFBFBF" stroke-width="0.882381" stroke-miterlimit="10"/>
<path d="M208.887 160.367H173.287V162.903H208.887V160.367Z" stroke="#BFBFBF" stroke-width="0.882381" stroke-miterlimit="10"/>
<path d="M188.543 132.479H178.372V152.761H188.543V132.479Z" stroke="#BFBFBF" stroke-width="0.882381" stroke-miterlimit="10"/>
<path d="M188.543 152.762H178.372V155.379H188.543V152.762Z" stroke="#BFBFBF" stroke-width="0.882381" stroke-miterlimit="10"/>
<path d="M188.543 154.111H178.372" stroke="#BFBFBF" stroke-width="0.220595" stroke-miterlimit="10"/>
<path d="M183.458 132.479V152.761" stroke="#BFBFBF" stroke-width="0.220595" stroke-miterlimit="10"/>
<path d="M203.801 132.439H193.629V152.721H203.801V132.439Z" stroke="#BFBFBF" stroke-width="0.882381" stroke-miterlimit="10"/>
<path d="M203.801 152.721H193.629V155.338H203.801V152.721Z" stroke="#BFBFBF" stroke-width="0.882381" stroke-miterlimit="10"/>
<path d="M203.801 154.071H193.629" stroke="#BFBFBF" stroke-width="0.220595" stroke-miterlimit="10"/>
<path d="M198.715 132.439V152.721" stroke="#BFBFBF" stroke-width="0.220595" stroke-miterlimit="10"/>
<path d="M208.887 109.662L173.287 117.268V119.803L208.887 112.197V109.662Z" stroke="#BFBFBF" stroke-width="0.882381" stroke-miterlimit="10"/>
<path d="M208.886 228.819H137.687V119.802L173.286 112.197V119.802L208.886 112.197V228.819Z" stroke="#BFBFBF" stroke-width="0.882381" stroke-miterlimit="10"/>
<path d="M173.286 124.873H137.687V127.408H173.286V124.873Z" stroke="#BFBFBF" stroke-width="0.882381" stroke-miterlimit="10"/>
<path d="M173.286 160.367H137.687V162.903H173.286V160.367Z" stroke="#BFBFBF" stroke-width="0.882381" stroke-miterlimit="10"/>
<path d="M152.944 132.479H142.773V152.761H152.944V132.479Z" stroke="#BFBFBF" stroke-width="0.882381" stroke-miterlimit="10"/>
<path d="M152.944 152.762H142.773V155.379H152.944V152.762Z" stroke="#BFBFBF" stroke-width="0.882381" stroke-miterlimit="10"/>
<path d="M152.944 154.111H142.773" stroke="#BFBFBF" stroke-width="0.220595" stroke-miterlimit="10"/>
<path d="M147.858 132.479V152.761" stroke="#BFBFBF" stroke-width="0.220595" stroke-miterlimit="10"/>
<path d="M168.201 132.439H158.03V152.721H168.201V132.439Z" stroke="#BFBFBF" stroke-width="0.882381" stroke-miterlimit="10"/>
<path d="M168.201 152.721H158.03V155.338H168.201V152.721Z" stroke="#BFBFBF" stroke-width="0.882381" stroke-miterlimit="10"/>
<path d="M168.201 154.071H158.03" stroke="#BFBFBF" stroke-width="0.220595" stroke-miterlimit="10"/>
<path d="M163.115 132.439V152.721" stroke="#BFBFBF" stroke-width="0.220595" stroke-miterlimit="10"/>
<path d="M173.287 109.662L137.687 117.268V119.803L173.287 112.197V109.662Z" stroke="#BFBFBF" stroke-width="0.882381" stroke-miterlimit="10"/>
<path d="M208.886 127.408V160.367" stroke="#BFBFBF" stroke-width="0.882381" stroke-miterlimit="10"/>
<path d="M173.287 127.408V160.367" stroke="#BFBFBF" stroke-width="0.882381" stroke-miterlimit="10"/>
<path d="M239.4 124.873V113.284" stroke="#BFBFBF" stroke-width="0.220595" stroke-miterlimit="10"/>
<path d="M234.314 124.873V114.37" stroke="#BFBFBF" stroke-width="0.220595" stroke-miterlimit="10"/>
<path d="M229.229 124.873V115.456" stroke="#BFBFBF" stroke-width="0.220595" stroke-miterlimit="10"/>
<path d="M224.143 124.873V116.543" stroke="#BFBFBF" stroke-width="0.220595" stroke-miterlimit="10"/>
<path d="M219.058 124.873V117.63" stroke="#BFBFBF" stroke-width="0.220595" stroke-miterlimit="10"/>
<path d="M213.972 124.873V118.691" stroke="#BFBFBF" stroke-width="0.220595" stroke-miterlimit="10"/>
<path d="M203.801 124.873V113.284" stroke="#BFBFBF" stroke-width="0.220595" stroke-miterlimit="10"/>
<path d="M198.715 124.873V114.37" stroke="#BFBFBF" stroke-width="0.220595" stroke-miterlimit="10"/>
<path d="M193.629 124.873V115.456" stroke="#BFBFBF" stroke-width="0.220595" stroke-miterlimit="10"/>
<path d="M188.543 124.873V116.543" stroke="#BFBFBF" stroke-width="0.220595" stroke-miterlimit="10"/>
<path d="M183.458 124.873V117.63" stroke="#BFBFBF" stroke-width="0.220595" stroke-miterlimit="10"/>
<path d="M178.372 124.873V118.691" stroke="#BFBFBF" stroke-width="0.220595" stroke-miterlimit="10"/>
<path d="M168.201 124.873V113.284" stroke="#BFBFBF" stroke-width="0.220595" stroke-miterlimit="10"/>
<path d="M163.115 124.873V114.37" stroke="#BFBFBF" stroke-width="0.220595" stroke-miterlimit="10"/>
<path d="M158.03 124.873V115.456" stroke="#BFBFBF" stroke-width="0.220595" stroke-miterlimit="10"/>
<path d="M152.944 124.873V116.543" stroke="#BFBFBF" stroke-width="0.220595" stroke-miterlimit="10"/>
<path d="M147.858 124.873V117.63" stroke="#BFBFBF" stroke-width="0.220595" stroke-miterlimit="10"/>
<path d="M142.773 124.873V118.691" stroke="#BFBFBF" stroke-width="0.220595" stroke-miterlimit="10"/>
<path d="M208.886 124.873V119.803" stroke="#BFBFBF" stroke-width="0.882381" stroke-miterlimit="10"/>
<path d="M173.287 124.873V119.803" stroke="#BFBFBF" stroke-width="0.882381" stroke-miterlimit="10"/>
<path d="M203.801 173.044H142.773V228.82H203.801V173.044Z" stroke="#BFBFBF" stroke-width="0.882381" stroke-miterlimit="10"/>
<path d="M201.258 175.579H145.315V228.82H201.258V175.579Z" stroke="#BFBFBF" stroke-width="0.220595" stroke-miterlimit="10"/>
<path d="M173.287 175.579V228.772" stroke="#BFBFBF" stroke-width="0.220595" stroke-miterlimit="10"/>
<path d="M239.401 173.043H213.972V208.537H239.401V173.043Z" stroke="#BFBFBF" stroke-width="0.882381" stroke-miterlimit="10"/>
<path d="M236.858 175.579H216.515V206.002H236.858V175.579Z" stroke="#BFBFBF" stroke-width="0.220595" stroke-miterlimit="10"/>
<path d="M226.686 175.579V206.002" stroke="#BFBFBF" stroke-width="0.220595" stroke-miterlimit="10"/>
<path d="M216.515 183.185H236.858" stroke="#BFBFBF" stroke-width="0.220595" stroke-miterlimit="10"/>
<path d="M216.515 190.79H236.858" stroke="#BFBFBF" stroke-width="0.220595" stroke-miterlimit="10"/>
<path d="M216.515 198.396H236.858" stroke="#BFBFBF" stroke-width="0.220595" stroke-miterlimit="10"/>
<path d="M244.486 218.679H203.801" stroke="#BFBFBF" stroke-width="0.882381" stroke-miterlimit="10"/>
<path d="M239.4 228.82V218.679" stroke="#BFBFBF" stroke-width="0.220595" stroke-miterlimit="10"/>
<path d="M234.314 228.82V218.679" stroke="#BFBFBF" stroke-width="0.220595" stroke-miterlimit="10"/>
<path d="M229.229 228.82V218.679" stroke="#BFBFBF" stroke-width="0.220595" stroke-miterlimit="10"/>
<path d="M224.143 228.82V218.679" stroke="#BFBFBF" stroke-width="0.220595" stroke-miterlimit="10"/>
<path d="M219.058 228.82V218.679" stroke="#BFBFBF" stroke-width="0.220595" stroke-miterlimit="10"/>
<path d="M213.972 228.82V218.679" stroke="#BFBFBF" stroke-width="0.220595" stroke-miterlimit="10"/>
<path d="M142.772 218.679H137.687" stroke="#BFBFBF" stroke-width="0.882381" stroke-miterlimit="10"/>
<path d="M208.886 228.819H244.487V112.197L208.888 119.802L208.886 228.819Z" stroke="#BFBFBF" stroke-width="0.882381" stroke-miterlimit="10"/>
<path d="M254.658 20.926H244.486V228.819H254.658V20.926Z" stroke="#BFBFBF" stroke-width="0.882381" stroke-miterlimit="10"/>
<path d="M254.658 193.326H244.486V228.819H254.658V193.326Z" stroke="#BFBFBF" stroke-width="0.882381" stroke-miterlimit="10"/>
<path d="M254.658 195.861H244.486" stroke="#BFBFBF" stroke-width="0.882381" stroke-miterlimit="10"/>
<path d="M254.658 198.396H244.486" stroke="#BFBFBF" stroke-width="0.220595" stroke-miterlimit="10"/>
<path d="M252.115 31.0677H250.843V46.2792H252.115V31.0677Z" stroke="#BFBFBF" stroke-width="0.191035" stroke-miterlimit="10"/>
<path d="M248.3 31.0677H247.029V46.2792H248.3V31.0677Z" stroke="#BFBFBF" stroke-width="0.191035" stroke-miterlimit="10"/>
<path d="M254.658 20.926H244.486V23.4615H254.658V20.926Z" stroke="#BFBFBF" stroke-width="0.882381" stroke-miterlimit="10"/>
<path d="M254.658 23.4617H244.486V25.997H254.658V23.4617Z" stroke="#BFBFBF" stroke-width="0.191035" stroke-miterlimit="10"/>
<path d="M257.201 228.82H135.144V231.355H257.201V228.82Z" stroke="#BFBFBF" stroke-width="0.882381" stroke-miterlimit="10"/>
<path d="M168.201 223.749H170.743V180.649H168.201" stroke="#BFBFBF" stroke-width="0.220595" stroke-miterlimit="10"/>
<path d="M178.372 223.749H175.829V180.649H178.372" stroke="#BFBFBF" stroke-width="0.220595" stroke-miterlimit="10"/>
<path d="M8.00098 102.056L10.5455 101.149V102.056H8.00098Z" stroke="#BFBFBF" stroke-width="0.882381" stroke-miterlimit="10"/>
<path d="M79.2 102.055H76.6592V101.152L79.2 102.055Z" stroke="#BFBFBF" stroke-width="0.882381" stroke-miterlimit="10"/>
<path d="M81.7441 102.056H5.45898V104.591H81.7441V102.056Z" stroke="#BFBFBF" stroke-width="0.882381" stroke-miterlimit="10"/>
<path d="M86.8303 137.549H0.373047V140.085H86.8303V137.549Z" stroke="#BFBFBF" stroke-width="0.882381" stroke-miterlimit="10"/>
<path d="M84.2869 140.085H2.91602V228.771H84.2869V140.085Z" stroke="#BFBFBF" stroke-width="0.882381" stroke-miterlimit="10"/>
<path d="M79.2023 104.591H8.00244V137.55H79.2023V104.591Z" stroke="#BFBFBF" stroke-width="0.898705" stroke-miterlimit="10"/>
<path d="M23.2592 109.662H13.0879V119.803H23.2592V109.662Z" stroke="#BFBFBF" stroke-width="0.882381" stroke-miterlimit="10"/>
<path d="M18.1733 109.662V119.803" stroke="#BFBFBF" stroke-width="0.220595" stroke-miterlimit="10"/>
<path d="M23.2587 114.732H13.0874" stroke="#BFBFBF" stroke-width="0.220595" stroke-miterlimit="10"/>
<path d="M35.9731 109.662H25.8018V119.803H35.9731V109.662Z" stroke="#BFBFBF" stroke-width="0.882381" stroke-miterlimit="10"/>
<path d="M30.8877 109.662V119.803" stroke="#BFBFBF" stroke-width="0.220595" stroke-miterlimit="10"/>
<path d="M35.9731 114.732H25.8018" stroke="#BFBFBF" stroke-width="0.220595" stroke-miterlimit="10"/>
<path d="M61.4017 109.662H51.2305V119.803H61.4017V109.662Z" stroke="#BFBFBF" stroke-width="0.882381" stroke-miterlimit="10"/>
<path d="M56.3154 109.662V119.803" stroke="#BFBFBF" stroke-width="0.220595" stroke-miterlimit="10"/>
<path d="M61.4017 114.732H51.2305" stroke="#BFBFBF" stroke-width="0.220595" stroke-miterlimit="10"/>
<path d="M74.1155 109.662H63.9443V119.803H74.1155V109.662Z" stroke="#BFBFBF" stroke-width="0.882381" stroke-miterlimit="10"/>
<path d="M69.0303 109.662V119.803" stroke="#BFBFBF" stroke-width="0.220595" stroke-miterlimit="10"/>
<path d="M74.1155 114.732H63.9443" stroke="#BFBFBF" stroke-width="0.220595" stroke-miterlimit="10"/>
<path d="M23.2592 119.803H13.0879V122.338H23.2592V119.803Z" stroke="#BFBFBF" stroke-width="0.882381" stroke-miterlimit="10"/>
<path d="M13.0874 121.07H23.2587" stroke="#BFBFBF" stroke-width="0.220595" stroke-miterlimit="10"/>
<path d="M25.8016 200.932H10.5449V203.467H25.8016V200.932Z" stroke="#BFBFBF" stroke-width="0.882381" stroke-miterlimit="10"/>
<path d="M10.5449 202.2H25.8016" stroke="#BFBFBF" stroke-width="0.220595" stroke-miterlimit="10"/>
<path d="M35.9731 119.803H25.8018V122.338H35.9731V119.803Z" stroke="#BFBFBF" stroke-width="0.882381" stroke-miterlimit="10"/>
<path d="M25.8018 121.07H35.9731" stroke="#BFBFBF" stroke-width="0.220595" stroke-miterlimit="10"/>
<path d="M48.6871 109.662H38.5161V119.803H48.6871V109.662Z" stroke="#BFBFBF" stroke-width="0.882381" stroke-miterlimit="10"/>
<path d="M43.6021 109.662V119.803" stroke="#BFBFBF" stroke-width="0.220595" stroke-miterlimit="10"/>
<path d="M48.6871 114.732H38.5161" stroke="#BFBFBF" stroke-width="0.220595" stroke-miterlimit="10"/>
<path d="M48.6871 119.803H38.5161V122.338H48.6871V119.803Z" stroke="#BFBFBF" stroke-width="0.882381" stroke-miterlimit="10"/>
<path d="M38.5161 121.07H48.6871" stroke="#BFBFBF" stroke-width="0.220595" stroke-miterlimit="10"/>
<path d="M61.4017 119.803H51.2305V122.338H61.4017V119.803Z" stroke="#BFBFBF" stroke-width="0.882381" stroke-miterlimit="10"/>
<path d="M51.2305 121.07H61.4017" stroke="#BFBFBF" stroke-width="0.220595" stroke-miterlimit="10"/>
<path d="M74.1155 119.803H63.9443V122.338H74.1155V119.803Z" stroke="#BFBFBF" stroke-width="0.882381" stroke-miterlimit="10"/>
<path d="M63.9443 121.07H74.1155" stroke="#BFBFBF" stroke-width="0.220595" stroke-miterlimit="10"/>
<path d="M8.00244 127.408H79.2023" stroke="#BFBFBF" stroke-width="0.882381" stroke-miterlimit="10"/>
<path d="M2.91602 208.538H84.2869" stroke="#BFBFBF" stroke-width="0.882381" stroke-miterlimit="10"/>
<path d="M8.00244 208.538V228.771" stroke="#BFBFBF" stroke-width="0.220595" stroke-miterlimit="10"/>
<path d="M13.0874 208.538V228.771" stroke="#BFBFBF" stroke-width="0.220595" stroke-miterlimit="10"/>
<path d="M18.1733 208.538V228.771" stroke="#BFBFBF" stroke-width="0.220595" stroke-miterlimit="10"/>
<path d="M23.2588 208.538V228.771" stroke="#BFBFBF" stroke-width="0.220595" stroke-miterlimit="10"/>
<path d="M28.3447 208.538V228.771" stroke="#BFBFBF" stroke-width="0.220595" stroke-miterlimit="10"/>
<path d="M33.4302 208.538V228.771" stroke="#BFBFBF" stroke-width="0.220595" stroke-miterlimit="10"/>
<path d="M38.5161 208.538V228.771" stroke="#BFBFBF" stroke-width="0.220595" stroke-miterlimit="10"/>
<path d="M43.6021 208.538V228.771" stroke="#BFBFBF" stroke-width="0.220595" stroke-miterlimit="10"/>
<path d="M48.687 208.538V228.771" stroke="#BFBFBF" stroke-width="0.220595" stroke-miterlimit="10"/>
<path d="M53.7734 208.538V228.771" stroke="#BFBFBF" stroke-width="0.220595" stroke-miterlimit="10"/>
<path d="M58.8584 208.538V228.771" stroke="#BFBFBF" stroke-width="0.220595" stroke-miterlimit="10"/>
<path d="M63.9443 208.538V228.771" stroke="#BFBFBF" stroke-width="0.220595" stroke-miterlimit="10"/>
<path d="M69.0303 208.538V228.771" stroke="#BFBFBF" stroke-width="0.220595" stroke-miterlimit="10"/>
<path d="M74.1157 208.538V228.771" stroke="#BFBFBF" stroke-width="0.220595" stroke-miterlimit="10"/>
<path d="M79.2012 208.538V228.771" stroke="#BFBFBF" stroke-width="0.220595" stroke-miterlimit="10"/>
<path d="M25.8016 200.932H10.5449V152.762C10.5449 150.745 11.3486 148.811 12.7792 147.385C14.2098 145.958 16.1501 145.157 18.1733 145.157C20.1964 145.157 22.1367 145.958 23.5673 147.385C24.9979 148.811 25.8016 150.745 25.8016 152.762V200.932Z" stroke="#BFBFBF" stroke-width="0.862968" stroke-miterlimit="10"/>
<path d="M23.2592 198.395H13.0879V152.762C13.0879 151.417 13.6237 150.127 14.5774 149.177C15.531 148.225 16.8245 147.691 18.1732 147.691C19.522 147.691 20.8155 148.225 21.7692 149.177C22.7229 150.127 23.2587 151.417 23.2587 152.762L23.2592 198.395Z" stroke="#BFBFBF" stroke-width="0.220595" stroke-miterlimit="10"/>
<path d="M18.1733 147.691V198.397" stroke="#BFBFBF" stroke-width="0.220595" stroke-miterlimit="10"/>
<path d="M13.0874 157.832H23.2587" stroke="#BFBFBF" stroke-width="0.220595" stroke-miterlimit="10"/>
<path d="M13.0874 167.972H23.2587" stroke="#BFBFBF" stroke-width="0.220595" stroke-miterlimit="10"/>
<path d="M13.0874 178.114H23.2587" stroke="#BFBFBF" stroke-width="0.220595" stroke-miterlimit="10"/>
<path d="M38.5161 157.832H48.6871" stroke="#BFBFBF" stroke-width="0.220595" stroke-miterlimit="10"/>
<path d="M38.5161 167.972H48.6871" stroke="#BFBFBF" stroke-width="0.220595" stroke-miterlimit="10"/>
<path d="M38.5161 178.114H48.6871" stroke="#BFBFBF" stroke-width="0.220595" stroke-miterlimit="10"/>
<path d="M63.9443 157.832H74.1155" stroke="#BFBFBF" stroke-width="0.220595" stroke-miterlimit="10"/>
<path d="M63.9443 167.972H74.1155" stroke="#BFBFBF" stroke-width="0.220595" stroke-miterlimit="10"/>
<path d="M63.9443 178.114H74.1155" stroke="#BFBFBF" stroke-width="0.220595" stroke-miterlimit="10"/>
<path d="M13.0874 188.255H23.2587" stroke="#BFBFBF" stroke-width="0.220595" stroke-miterlimit="10"/>
<path d="M51.2305 200.932H35.9736V203.467H51.2305V200.932Z" stroke="#BFBFBF" stroke-width="0.882381" stroke-miterlimit="10"/>
<path d="M35.9731 202.2H51.2299" stroke="#BFBFBF" stroke-width="0.220595" stroke-miterlimit="10"/>
<path d="M51.2305 200.932H35.9736V152.762C35.9736 150.745 36.7773 148.811 38.2079 147.385C39.6386 145.958 41.579 145.157 43.6021 145.157C45.6252 145.157 47.5656 145.958 48.996 147.385C50.4264 148.811 51.2305 150.745 51.2305 152.762V200.932Z" stroke="#BFBFBF" stroke-width="0.862968" stroke-miterlimit="10"/>
<path d="M48.6871 198.395H38.5161V152.762C38.5161 151.417 39.0519 150.127 40.0058 149.177C40.9592 148.225 42.2526 147.691 43.6015 147.691C44.9505 147.691 46.2439 148.225 47.1973 149.177C48.1513 150.127 48.6871 151.417 48.6871 152.762V198.395Z" stroke="#BFBFBF" stroke-width="0.220595" stroke-miterlimit="10"/>
<path d="M43.6021 147.691V198.397" stroke="#BFBFBF" stroke-width="0.220595" stroke-miterlimit="10"/>
<path d="M38.5161 188.255H48.6871" stroke="#BFBFBF" stroke-width="0.220595" stroke-miterlimit="10"/>
<path d="M76.6588 200.932H61.4014V203.467H76.6588V200.932Z" stroke="#BFBFBF" stroke-width="0.882381" stroke-miterlimit="10"/>
<path d="M61.4019 202.2H76.6587" stroke="#BFBFBF" stroke-width="0.220595" stroke-miterlimit="10"/>
<path d="M76.6587 200.932H61.4019V152.762C61.4019 150.745 62.2053 148.811 63.6357 147.385C65.0667 145.958 67.0071 145.157 69.0303 145.157C71.0534 145.157 72.9938 145.958 74.4242 147.385C75.8546 148.811 76.6587 150.745 76.6587 152.762V200.932Z" stroke="#BFBFBF" stroke-width="0.862968" stroke-miterlimit="10"/>
<path d="M74.1155 198.395H63.9443V152.762C63.9443 151.417 64.4802 150.127 65.4336 149.177C66.3876 148.225 67.681 147.691 69.0299 147.691C70.3783 147.691 71.6723 148.225 72.6257 149.177C73.5797 150.127 74.1149 151.417 74.1149 152.762L74.1155 198.395Z" stroke="#BFBFBF" stroke-width="0.220595" stroke-miterlimit="10"/>
<path d="M69.0303 147.691V198.397" stroke="#BFBFBF" stroke-width="0.220595" stroke-miterlimit="10"/>
<path d="M63.9443 188.255H74.1155" stroke="#BFBFBF" stroke-width="0.220595" stroke-miterlimit="10"/>
<path d="M76.659 101.153V102.057H10.5449V101.15L38.5149 91.1904L43.6 89.3801L48.6843 91.1904L76.659 101.153Z" stroke="#BFBFBF" stroke-width="0.882381" stroke-miterlimit="10"/>
<path d="M38.5149 86.842V91.1895L10.5449 101.149V86.842H38.5149Z" stroke="#BFBFBF" stroke-width="0.882381" stroke-miterlimit="10"/>
<path d="M76.6575 86.842V101.152L48.6841 91.1887V86.8413L76.6575 86.842Z" stroke="#BFBFBF" stroke-width="0.882381" stroke-miterlimit="10"/>
<path d="M10.5449 89.3801H38.5149" stroke="#BFBFBF" stroke-width="0.220595" stroke-miterlimit="10"/>
<path d="M48.687 89.3801H76.6585" stroke="#BFBFBF" stroke-width="0.220595" stroke-miterlimit="10"/>
<path d="M15.6303 79.2375H13.0874V86.842H15.6303V79.2375Z" stroke="#BFBFBF" stroke-width="0.882381" stroke-miterlimit="10"/>
<path d="M20.7163 74.167H18.1733V86.8419H20.7163V74.167Z" stroke="#BFBFBF" stroke-width="0.882381" stroke-miterlimit="10"/>
</g>
<defs>
<clipPath id="clip0_353_9481">
<rect width="258" height="232" fill="white"/>
</clipPath>
</defs>
</svg>
