<svg width="30" height="31" viewBox="0 0 30 31" fill="none" xmlns="http://www.w3.org/2000/svg">
<rect y="0.5" width="30" height="30" rx="15" fill="#FEFFFF"/>
<path d="M15.375 6.75C10.3355 6.75 6.25 10.8351 6.25 15.875C6.25 20.9149 10.3355 25 15.375 25C20.4145 25 24.5 20.9149 24.5 15.875C24.5 10.8351 20.4145 6.75 15.375 6.75ZM19.8269 19.9042C19.6803 20.1638 19.4107 20.3098 19.1328 20.3098C19.0029 20.3098 18.8688 20.2773 18.7457 20.2088C17.6065 19.5701 16.3649 19.1788 15.0529 19.0459C13.738 18.9142 12.4398 19.0476 11.1927 19.4458C10.7766 19.5786 10.3286 19.3487 10.1959 18.9319C10.0618 18.5143 10.2927 18.0679 10.7102 17.9343C12.1647 17.4697 13.6813 17.3116 15.2132 17.4673C16.7424 17.623 18.1913 18.0792 19.5213 18.8247C19.9043 19.0379 20.0412 19.5215 19.8269 19.9042ZM20.9191 17.1326C20.7781 17.404 20.5016 17.5597 20.2154 17.5597C20.091 17.5597 19.9665 17.5312 19.849 17.4697C18.4485 16.7402 16.9359 16.2885 15.3501 16.1276C13.7518 15.964 12.1688 16.1066 10.6424 16.5468C10.2208 16.6665 9.7811 16.4254 9.66082 16.0039C9.53915 15.583 9.78248 15.1433 10.2028 15.0218C11.9255 14.5251 13.7118 14.3659 15.5105 14.5484C17.2968 14.7304 19.0029 15.2392 20.5832 16.0626C20.9703 16.2652 21.1224 16.7441 20.9191 17.1326ZM21.3145 14.8267C21.1956 14.8267 21.0754 14.7999 20.9606 14.7435C19.2988 13.9148 17.5111 13.3987 15.646 13.2094C13.7781 13.0183 11.9199 13.166 10.1212 13.6463C9.69814 13.7586 9.26401 13.5076 9.15064 13.0839C9.03727 12.6606 9.28891 12.2256 9.71336 12.1126C11.6974 11.5828 13.7491 11.4214 15.8077 11.6308C17.8636 11.8388 19.8352 12.4086 21.6685 13.3229C22.0611 13.5184 22.2201 13.9953 22.0252 14.3871C21.8869 14.6659 21.6063 14.8267 21.3145 14.8267Z" fill="#0582C5"/>
</svg>
