<svg width="30" height="31" viewBox="0 0 30 31" fill="none" xmlns="http://www.w3.org/2000/svg">
<rect y="0.5" width="30" height="30" rx="15" fill="#FEFFFF"/>
<path d="M18.3947 6.75H15.1356V19.3514C15.1356 20.8529 13.8822 22.0862 12.3223 22.0862C10.7625 22.0862 9.50901 20.8529 9.50901 19.3514C9.50901 17.8768 10.7346 16.6703 12.2388 16.6167V13.4529C8.92405 13.5065 6.25 16.1072 6.25 19.3514C6.25 22.6225 8.97976 25.25 12.3502 25.25C15.7206 25.25 18.4504 22.5957 18.4504 19.3514V12.8898C19.676 13.7478 21.1801 14.2572 22.7679 14.2841V11.1203C20.3167 11.0399 18.3947 9.10942 18.3947 6.75Z" fill="#0582C5"/>
</svg>
