<svg width="60" height="66" viewBox="0 0 60 66" fill="none" xmlns="http://www.w3.org/2000/svg">
<g clip-path="url(#clip0_902_10141)">
<path d="M31.509 65.0847H4.5875C4.5875 65.0847 3.50098 64.5981 3.50098 63.9899V1.09488C3.50098 1.09488 3.6217 0.364956 3.98387 0.243302C4.22532 -5.33462e-06 4.5875 -5.33462e-06 4.94967 0.243302L31.8712 10.8272C31.8712 10.8272 32.5955 11.4354 32.5955 11.8004V63.9899C32.5955 63.9899 32.1126 65.0847 31.509 65.0847ZM5.67401 62.895H30.4225V12.5303L5.67401 2.67638V62.895Z" fill="white"/>
<path d="M11.4688 14.4768C11.4688 14.4768 10.3823 13.9902 10.3823 13.3819V10.4622C10.3823 10.4622 10.8652 9.36734 11.4688 9.36734C12.0725 9.36734 12.5554 9.85396 12.5554 10.4622V13.3819C12.5554 13.3819 12.0725 14.4768 11.4688 14.4768Z" fill="white"/>
<path d="M11.4688 22.2626C11.4688 22.2626 10.3823 21.776 10.3823 21.1677V18.2481C10.3823 18.2481 10.8652 17.1532 11.4688 17.1532C12.0725 17.1532 12.5554 17.6398 12.5554 18.2481V21.1677C12.5554 21.1677 12.0725 22.2626 11.4688 22.2626Z" fill="white"/>
<path d="M11.4688 29.9268C11.4688 29.9268 10.3823 29.4402 10.3823 28.8319V25.9122C10.3823 25.9122 10.8652 24.8174 11.4688 24.8174C12.0725 24.8174 12.5554 25.304 12.5554 25.9122V28.8319C12.5554 28.8319 12.0725 29.9268 11.4688 29.9268Z" fill="white"/>
<path d="M11.4688 37.7127C11.4688 37.7127 10.3823 37.2261 10.3823 36.6178V33.6981C10.3823 33.6981 10.8652 32.6032 11.4688 32.6032C12.0725 32.6032 12.5554 33.0898 12.5554 33.6981V36.6178C12.5554 36.6178 12.0725 37.7127 11.4688 37.7127Z" fill="white"/>
<path d="M11.4688 45.3769C11.4688 45.3769 10.3823 44.8902 10.3823 44.282V41.3623C10.3823 41.3623 10.8652 40.2674 11.4688 40.2674C12.0725 40.2674 12.5554 40.754 12.5554 41.3623V44.282C12.5554 44.282 12.0725 45.3769 11.4688 45.3769Z" fill="white"/>
<path d="M11.4688 53.1627C11.4688 53.1627 10.3823 52.6761 10.3823 52.0678V49.1481C10.3823 49.1481 10.8652 48.0532 11.4688 48.0532C12.0725 48.0532 12.5554 48.5398 12.5554 49.1481V52.0678C12.5554 52.0678 12.0725 53.1627 11.4688 53.1627Z" fill="white"/>
<path d="M11.4688 60.9485C11.4688 60.9485 10.3823 60.4619 10.3823 59.8536V56.9339C10.3823 56.9339 10.8652 55.8391 11.4688 55.8391C12.0725 55.8391 12.5554 56.3257 12.5554 56.9339V59.8536C12.5554 59.8536 12.0725 60.9485 11.4688 60.9485Z" fill="white"/>
<path d="M17.9879 14.4768C17.9879 14.4768 16.9014 13.9902 16.9014 13.3819V10.4622C16.9014 10.4622 17.3843 9.36734 17.9879 9.36734C18.5915 9.36734 19.0744 9.85396 19.0744 10.4622V13.3819C19.0744 13.3819 18.5915 14.4768 17.9879 14.4768Z" fill="white"/>
<path d="M17.9879 22.2626C17.9879 22.2626 16.9014 21.776 16.9014 21.1677V18.2481C16.9014 18.2481 17.3843 17.1532 17.9879 17.1532C18.5915 17.1532 19.0744 17.6398 19.0744 18.2481V21.1677C19.0744 21.1677 18.5915 22.2626 17.9879 22.2626Z" fill="white"/>
<path d="M17.9879 29.9268C17.9879 29.9268 16.9014 29.4402 16.9014 28.8319V25.9122C16.9014 25.9122 17.3843 24.8174 17.9879 24.8174C18.5915 24.8174 19.0744 25.304 19.0744 25.9122V28.8319C19.0744 28.8319 18.5915 29.9268 17.9879 29.9268Z" fill="white"/>
<path d="M17.9879 37.7127C17.9879 37.7127 16.9014 37.2261 16.9014 36.6178V33.6981C16.9014 33.6981 17.3843 32.6032 17.9879 32.6032C18.5915 32.6032 19.0744 33.0898 19.0744 33.6981V36.6178C19.0744 36.6178 18.5915 37.7127 17.9879 37.7127Z" fill="white"/>
<path d="M17.9879 45.3769C17.9879 45.3769 16.9014 44.8902 16.9014 44.282V41.3623C16.9014 41.3623 17.3843 40.2674 17.9879 40.2674C18.5915 40.2674 19.0744 40.754 19.0744 41.3623V44.282C19.0744 44.282 18.5915 45.3769 17.9879 45.3769Z" fill="white"/>
<path d="M17.9879 53.1627C17.9879 53.1627 16.9014 52.6761 16.9014 52.0678V49.1481C16.9014 49.1481 17.3843 48.0532 17.9879 48.0532C18.5915 48.0532 19.0744 48.5398 19.0744 49.1481V52.0678C19.0744 52.0678 18.5915 53.1627 17.9879 53.1627Z" fill="white"/>
<path d="M17.9879 60.9485C17.9879 60.9485 16.9014 60.4619 16.9014 59.8536V56.9339C16.9014 56.9339 17.3843 55.8391 17.9879 55.8391C18.5915 55.8391 19.0744 56.3257 19.0744 56.9339V59.8536C19.0744 59.8536 18.5915 60.9485 17.9879 60.9485Z" fill="white"/>
<path d="M24.6275 14.4768C24.6275 14.4768 24.0239 14.4768 23.9032 14.1118C23.6617 13.8685 23.541 13.6252 23.541 13.3819C23.541 13.1386 23.541 12.7736 23.9032 12.652C24.2654 12.287 24.9897 12.287 25.3519 12.652C25.5933 12.8953 25.7141 13.1386 25.7141 13.3819C25.7141 13.6252 25.7141 13.9902 25.3519 14.1118C25.1104 14.3551 24.869 14.4768 24.6275 14.4768Z" fill="white"/>
<path d="M24.6275 22.2626C24.6275 22.2626 23.541 21.776 23.541 21.1677V18.2481C23.541 18.2481 24.0239 17.1532 24.6275 17.1532C25.2312 17.1532 25.7141 17.6398 25.7141 18.2481V21.1677C25.7141 21.1677 25.2312 22.2626 24.6275 22.2626Z" fill="white"/>
<path d="M24.6275 29.9268C24.6275 29.9268 23.541 29.4402 23.541 28.8319V25.9122C23.541 25.9122 24.0239 24.8174 24.6275 24.8174C25.2312 24.8174 25.7141 25.304 25.7141 25.9122V28.8319C25.7141 28.8319 25.2312 29.9268 24.6275 29.9268Z" fill="white"/>
<path d="M24.6275 37.7127C24.6275 37.7127 23.541 37.2261 23.541 36.6178V33.6981C23.541 33.6981 24.0239 32.6032 24.6275 32.6032C25.2312 32.6032 25.7141 33.0898 25.7141 33.6981V36.6178C25.7141 36.6178 25.2312 37.7127 24.6275 37.7127Z" fill="white"/>
<path d="M24.6275 45.3769C24.6275 45.3769 23.541 44.8902 23.541 44.282V41.3623C23.541 41.3623 24.0239 40.2674 24.6275 40.2674C25.2312 40.2674 25.7141 40.754 25.7141 41.3623V44.282C25.7141 44.282 25.2312 45.3769 24.6275 45.3769Z" fill="white"/>
<path d="M24.6275 53.1627C24.6275 53.1627 23.541 52.6761 23.541 52.0678V49.1481C23.541 49.1481 24.0239 48.0532 24.6275 48.0532C25.2312 48.0532 25.7141 48.5398 25.7141 49.1481V52.0678C25.7141 52.0678 25.2312 53.1627 24.6275 53.1627Z" fill="white"/>
<path d="M24.6275 60.9485C24.6275 60.9485 23.541 60.4619 23.541 59.8536V56.9339C23.541 56.9339 24.0239 55.8391 24.6275 55.8391C25.2312 55.8391 25.7141 56.3257 25.7141 56.9339V59.8536C25.7141 59.8536 25.2312 60.9485 24.6275 60.9485Z" fill="white"/>
<path d="M59.0342 65.0848H1.08652C1.08652 65.0848 0 64.5981 0 63.9899C0 63.3816 0.482897 62.895 1.08652 62.895H59.0342C59.0342 62.895 60.1207 63.3816 60.1207 63.9899C60.1207 64.5981 59.6378 65.0848 59.0342 65.0848Z" fill="white"/>
<path d="M54.8087 65.0847C54.8087 65.0847 53.7222 64.5981 53.7222 63.9899V22.3843C53.7222 22.3843 54.2051 21.2894 54.8087 21.2894C55.4123 21.2894 55.8952 21.776 55.8952 22.3843V63.9899C55.8952 63.9899 55.4123 65.0847 54.8087 65.0847Z" fill="white"/>
<path d="M49.0143 65.0847C49.0143 65.0847 47.9277 64.5981 47.9277 63.9899V22.3843C47.9277 22.3843 48.4106 21.2894 49.0143 21.2894C49.6179 21.2894 50.1008 21.776 50.1008 22.3843V63.9899C50.1008 63.9899 49.6179 65.0847 49.0143 65.0847Z" fill="white"/>
<path d="M43.2193 65.0847C43.2193 65.0847 42.1328 64.5981 42.1328 63.9899V22.3843C42.1328 22.3843 42.6157 21.2894 43.2193 21.2894C43.823 21.2894 44.3059 21.776 44.3059 22.3843V63.9899C44.3059 63.9899 43.823 65.0847 43.2193 65.0847Z" fill="white"/>
<path d="M37.4244 65.0847C37.4244 65.0847 36.3379 64.5981 36.3379 63.9899V22.3843C36.3379 22.3843 36.8208 21.2894 37.4244 21.2894C38.028 21.2894 38.5109 21.776 38.5109 22.3843V63.9899C38.5109 63.9899 38.028 65.0847 37.4244 65.0847Z" fill="white"/>
<path d="M59.034 28.467H31.5089C31.5089 28.467 30.4224 27.9804 30.4224 27.3721C30.4224 26.7638 30.9053 26.2772 31.5089 26.2772H59.034C59.034 26.2772 60.1206 26.7638 60.1206 27.3721C60.1206 27.9804 59.6377 28.467 59.034 28.467Z" fill="white"/>
<path d="M37.4244 37.7127H31.5089C31.5089 37.7127 30.4224 37.226 30.4224 36.6178C30.4224 36.0095 30.9053 35.5229 31.5089 35.5229H37.4244C37.4244 35.5229 38.5109 36.0095 38.5109 36.6178C38.5109 37.226 38.028 37.7127 37.4244 37.7127Z" fill="white"/>
<path d="M59.0344 37.7127H49.0143C49.0143 37.7127 47.9277 37.226 47.9277 36.6178C47.9277 36.0095 48.4106 35.5229 49.0143 35.5229H59.0344C59.0344 35.5229 60.1209 36.0095 60.1209 36.6178C60.1209 37.226 59.638 37.7127 59.0344 37.7127Z" fill="white"/>
<path d="M49.0139 46.8367H31.5089C31.5089 46.8367 30.4224 46.3501 30.4224 45.7418C30.4224 45.1335 30.9053 44.6469 31.5089 44.6469H49.0139C49.0139 44.6469 50.1004 45.1335 50.1004 45.7418C50.1004 46.3501 49.6175 46.8367 49.0139 46.8367Z" fill="white"/>
<path d="M59.034 46.8367H54.8087C54.8087 46.8367 53.7222 46.3501 53.7222 45.7418C53.7222 45.1335 54.2051 44.6469 54.8087 44.6469H59.034C59.034 44.6469 60.1206 45.1335 60.1206 45.7418C60.1206 46.3501 59.6377 46.8367 59.034 46.8367Z" fill="white"/>
<path d="M59.0341 56.0824H37.4244C37.4244 56.0824 36.3379 55.5958 36.3379 54.9875C36.3379 54.3792 36.8208 53.8926 37.4244 53.8926H59.0341C59.0341 53.8926 60.1206 54.3792 60.1206 54.9875C60.1206 55.5958 59.6377 56.0824 59.0341 56.0824Z" fill="white"/>
</g>
<defs>
<clipPath id="clip0_902_10141">
<rect width="60" height="65.0847" fill="white"/>
</clipPath>
</defs>
</svg>
