<svg width="32" height="32" viewBox="0 0 32 32" fill="none" xmlns="http://www.w3.org/2000/svg">
<path d="M18.6665 10.6667H19.9998C20.3535 10.6667 20.6926 10.5262 20.9426 10.2762C21.1927 10.0261 21.3332 9.68698 21.3332 9.33335C21.3332 8.97973 21.1927 8.64059 20.9426 8.39054C20.6926 8.1405 20.3535 8.00002 19.9998 8.00002H18.6665C18.3129 8.00002 17.9737 8.1405 17.7237 8.39054C17.4736 8.64059 17.3332 8.97973 17.3332 9.33335C17.3332 9.68698 17.4736 10.0261 17.7237 10.2762C17.9737 10.5262 18.3129 10.6667 18.6665 10.6667ZM18.6665 16H19.9998C20.3535 16 20.6926 15.8595 20.9426 15.6095C21.1927 15.3594 21.3332 15.0203 21.3332 14.6667C21.3332 14.3131 21.1927 13.9739 20.9426 13.7239C20.6926 13.4738 20.3535 13.3334 19.9998 13.3334H18.6665C18.3129 13.3334 17.9737 13.4738 17.7237 13.7239C17.4736 13.9739 17.3332 14.3131 17.3332 14.6667C17.3332 15.0203 17.4736 15.3594 17.7237 15.6095C17.9737 15.8595 18.3129 16 18.6665 16ZM11.9998 10.6667H13.3332C13.6868 10.6667 14.0259 10.5262 14.276 10.2762C14.526 10.0261 14.6665 9.68698 14.6665 9.33335C14.6665 8.97973 14.526 8.64059 14.276 8.39054C14.0259 8.1405 13.6868 8.00002 13.3332 8.00002H11.9998C11.6462 8.00002 11.3071 8.1405 11.057 8.39054C10.807 8.64059 10.6665 8.97973 10.6665 9.33335C10.6665 9.68698 10.807 10.0261 11.057 10.2762C11.3071 10.5262 11.6462 10.6667 11.9998 10.6667ZM11.9998 16H13.3332C13.6868 16 14.0259 15.8595 14.276 15.6095C14.526 15.3594 14.6665 15.0203 14.6665 14.6667C14.6665 14.3131 14.526 13.9739 14.276 13.7239C14.0259 13.4738 13.6868 13.3334 13.3332 13.3334H11.9998C11.6462 13.3334 11.3071 13.4738 11.057 13.7239C10.807 13.9739 10.6665 14.3131 10.6665 14.6667C10.6665 15.0203 10.807 15.3594 11.057 15.6095C11.3071 15.8595 11.6462 16 11.9998 16ZM27.9998 26.6667H26.6665V4.00002C26.6665 3.6464 26.526 3.30726 26.276 3.05721C26.0259 2.80716 25.6868 2.66669 25.3332 2.66669H6.6665C6.31288 2.66669 5.97374 2.80716 5.7237 3.05721C5.47365 3.30726 5.33317 3.6464 5.33317 4.00002V26.6667H3.99984C3.64622 26.6667 3.30708 26.8072 3.05703 27.0572C2.80698 27.3073 2.6665 27.6464 2.6665 28C2.6665 28.3536 2.80698 28.6928 3.05703 28.9428C3.30708 29.1929 3.64622 29.3334 3.99984 29.3334H27.9998C28.3535 29.3334 28.6926 29.1929 28.9426 28.9428C29.1927 28.6928 29.3332 28.3536 29.3332 28C29.3332 27.6464 29.1927 27.3073 28.9426 27.0572C28.6926 26.8072 28.3535 26.6667 27.9998 26.6667ZM17.3332 26.6667H14.6665V21.3334H17.3332V26.6667ZM23.9998 26.6667H19.9998V20C19.9998 19.6464 19.8594 19.3073 19.6093 19.0572C19.3593 18.8072 19.0201 18.6667 18.6665 18.6667H13.3332C12.9795 18.6667 12.6404 18.8072 12.3904 19.0572C12.1403 19.3073 11.9998 19.6464 11.9998 20V26.6667H7.99984V5.33335H23.9998V26.6667Z" fill="#FEFFFF"/>
</svg>
