<svg width="20" height="21" viewBox="0 0 20 21" fill="none" xmlns="http://www.w3.org/2000/svg">
<path fill-rule="evenodd" clip-rule="evenodd" d="M10 0.499999C15.5228 0.5 20 4.97715 20 10.5C20 16.0228 15.5228 20.5 10 20.5C4.47715 20.5 -1.35705e-06 16.0228 -8.74228e-07 10.5C-3.91405e-07 4.97715 4.47715 0.499999 10 0.499999ZM9.46967 5.803C9.61032 5.66235 9.80109 5.58333 10 5.58333C10.1989 5.58333 10.3897 5.66235 10.5303 5.803L13.8637 9.13633C14.1566 9.42923 14.1566 9.9041 13.8637 10.197C13.5708 10.4899 13.0959 10.4899 12.803 10.197L10.75 8.14399L10.75 14.6667C10.75 15.0809 10.4142 15.4167 10 15.4167C9.58578 15.4167 9.25 15.0809 9.25 14.6667L9.25 8.14399L7.197 10.197C6.9041 10.4899 6.42923 10.4899 6.13633 10.197C5.84344 9.9041 5.84344 9.42923 6.13633 9.13634L9.46967 5.803Z" fill="#0582C5"/>
</svg>
