<svg width="16" height="17" viewBox="0 0 16 17" fill="none" xmlns="http://www.w3.org/2000/svg">
<path d="M9.26016 6.29992L8.00016 7.55992L6.74016 6.29992C6.48016 6.03992 6.06016 6.03992 5.80016 6.29992C5.54016 6.55992 5.54016 6.97992 5.80016 7.23992L7.06016 8.49992L5.80016 9.75992C5.54016 10.0199 5.54016 10.4399 5.80016 10.6999C6.06016 10.9599 6.48016 10.9599 6.74016 10.6999L8.00016 9.43992L9.26016 10.6999C9.52016 10.9599 9.94016 10.9599 10.2002 10.6999C10.4602 10.4399 10.4602 10.0199 10.2002 9.75992L8.94016 8.49992L10.2002 7.23992C10.4602 6.97992 10.4602 6.55992 10.2002 6.29992C9.94016 6.04659 9.5135 6.04659 9.26016 6.29992ZM8.00016 1.83325C4.3135 1.83325 1.3335 4.81325 1.3335 8.49992C1.3335 12.1866 4.3135 15.1666 8.00016 15.1666C11.6868 15.1666 14.6668 12.1866 14.6668 8.49992C14.6668 4.81325 11.6868 1.83325 8.00016 1.83325ZM8.00016 13.8333C5.06016 13.8333 2.66683 11.4399 2.66683 8.49992C2.66683 5.55992 5.06016 3.16659 8.00016 3.16659C10.9402 3.16659 13.3335 5.55992 13.3335 8.49992C13.3335 11.4399 10.9402 13.8333 8.00016 13.8333Z" fill="#FEFFFF"/>
</svg>
