<svg width="20" height="20" viewBox="0 0 20 20" fill="none" xmlns="http://www.w3.org/2000/svg">
<path fill-rule="evenodd" clip-rule="evenodd" d="M10 20C4.47715 20 -7.8281e-07 15.5228 -1.74846e-06 10C-2.7141e-06 4.47715 4.47715 -7.8281e-07 10 -1.74846e-06C15.5228 -2.7141e-06 20 4.47715 20 10C20 15.5228 15.5228 20 10 20ZM9.697 12.803C9.98989 13.0959 9.98989 13.5708 9.697 13.8637C9.4041 14.1566 8.92923 14.1566 8.63634 13.8637L5.303 10.5303C5.01011 10.2374 5.01011 9.76256 5.303 9.46967L8.63633 6.13634C8.92923 5.84344 9.4041 5.84344 9.69699 6.13634C9.98989 6.42923 9.98989 6.9041 9.69699 7.19699L7.64399 9.25L14.1667 9.25C14.5809 9.25 14.9167 9.58578 14.9167 10C14.9167 10.4142 14.5809 10.75 14.1667 10.75L7.64399 10.75L9.697 12.803Z" fill="#0582C5"/>
</svg>
