<svg width="32" height="32" viewBox="0 0 32 32" fill="none" xmlns="http://www.w3.org/2000/svg">
<path d="M4.33333 12.3333C4.68696 12.3333 5.02609 12.1929 5.27614 11.9428C5.52619 11.6928 5.66667 11.3536 5.66667 11V7C5.66667 6.64638 5.80714 6.30724 6.05719 6.05719C6.30724 5.80714 6.64638 5.66667 7 5.66667H11C11.3536 5.66667 11.6928 5.52619 11.9428 5.27614C12.1929 5.02609 12.3333 4.68696 12.3333 4.33333C12.3333 3.97971 12.1929 3.64057 11.9428 3.39052C11.6928 3.14048 11.3536 3 11 3H7C5.93913 3 4.92172 3.42143 4.17157 4.17157C3.42143 4.92172 3 5.93913 3 7V11C3 11.3536 3.14048 11.6928 3.39052 11.9428C3.64057 12.1929 3.97971 12.3333 4.33333 12.3333ZM11 27H7C6.64638 27 6.30724 26.8595 6.05719 26.6095C5.80714 26.3594 5.66667 26.0203 5.66667 25.6667V21.6667C5.66667 21.313 5.52619 20.9739 5.27614 20.7239C5.02609 20.4738 4.68696 20.3333 4.33333 20.3333C3.97971 20.3333 3.64057 20.4738 3.39052 20.7239C3.14048 20.9739 3 21.313 3 21.6667V25.6667C3 26.7275 3.42143 27.7449 4.17157 28.4951C4.92172 29.2452 5.93913 29.6667 7 29.6667H11C11.3536 29.6667 11.6928 29.5262 11.9428 29.2761C12.1929 29.0261 12.3333 28.687 12.3333 28.3333C12.3333 27.9797 12.1929 27.6406 11.9428 27.3905C11.6928 27.1405 11.3536 27 11 27ZM23 17.6667C23.3536 17.6667 23.6928 17.5262 23.9428 17.2761C24.1929 17.0261 24.3333 16.687 24.3333 16.3333C24.3333 15.9797 24.1929 15.6406 23.9428 15.3905C23.6928 15.1405 23.3536 15 23 15H21.48C21.2406 14.0829 20.7611 13.2461 20.0908 12.5758C19.4206 11.9056 18.5838 11.4261 17.6667 11.1867V9.66667C17.6667 9.31304 17.5262 8.97391 17.2761 8.72386C17.0261 8.47381 16.687 8.33333 16.3333 8.33333C15.9797 8.33333 15.6406 8.47381 15.3905 8.72386C15.1405 8.97391 15 9.31304 15 9.66667V11.1867C14.0829 11.4261 13.2461 11.9056 12.5758 12.5758C11.9056 13.2461 11.4261 14.0829 11.1867 15H9.66667C9.31304 15 8.97391 15.1405 8.72386 15.3905C8.47381 15.6406 8.33333 15.9797 8.33333 16.3333C8.33333 16.687 8.47381 17.0261 8.72386 17.2761C8.97391 17.5262 9.31304 17.6667 9.66667 17.6667H11.1867C11.4261 18.5838 11.9056 19.4206 12.5758 20.0908C13.2461 20.7611 14.0829 21.2406 15 21.48V23C15 23.3536 15.1405 23.6928 15.3905 23.9428C15.6406 24.1929 15.9797 24.3333 16.3333 24.3333C16.687 24.3333 17.0261 24.1929 17.2761 23.9428C17.5262 23.6928 17.6667 23.3536 17.6667 23V21.48C18.5838 21.2406 19.4206 20.7611 20.0908 20.0908C20.7611 19.4206 21.2406 18.5838 21.48 17.6667H23ZM16.3333 19C15.8059 19 15.2903 18.8436 14.8518 18.5506C14.4133 18.2576 14.0715 17.8411 13.8697 17.3538C13.6678 16.8666 13.615 16.3304 13.7179 15.8131C13.8208 15.2958 14.0748 14.8207 14.4477 14.4477C14.8207 14.0748 15.2958 13.8208 15.8131 13.7179C16.3304 13.615 16.8666 13.6678 17.3538 13.8697C17.8411 14.0715 18.2576 14.4133 18.5506 14.8518C18.8436 15.2903 19 15.8059 19 16.3333C19 17.0406 18.719 17.7189 18.219 18.219C17.7189 18.719 17.0406 19 16.3333 19ZM28.3333 20.3333C27.9797 20.3333 27.6406 20.4738 27.3905 20.7239C27.1405 20.9739 27 21.313 27 21.6667V25.6667C27 26.0203 26.8595 26.3594 26.6095 26.6095C26.3594 26.8595 26.0203 27 25.6667 27H21.6667C21.313 27 20.9739 27.1405 20.7239 27.3905C20.4738 27.6406 20.3333 27.9797 20.3333 28.3333C20.3333 28.687 20.4738 29.0261 20.7239 29.2761C20.9739 29.5262 21.313 29.6667 21.6667 29.6667H25.6667C26.7275 29.6667 27.7449 29.2452 28.4951 28.4951C29.2452 27.7449 29.6667 26.7275 29.6667 25.6667V21.6667C29.6667 21.313 29.5262 20.9739 29.2761 20.7239C29.0261 20.4738 28.687 20.3333 28.3333 20.3333ZM25.6667 3H21.6667C21.313 3 20.9739 3.14048 20.7239 3.39052C20.4738 3.64057 20.3333 3.97971 20.3333 4.33333C20.3333 4.68696 20.4738 5.02609 20.7239 5.27614C20.9739 5.52619 21.313 5.66667 21.6667 5.66667H25.6667C26.0203 5.66667 26.3594 5.80714 26.6095 6.05719C26.8595 6.30724 27 6.64638 27 7V11C27 11.3536 27.1405 11.6928 27.3905 11.9428C27.6406 12.1929 27.9797 12.3333 28.3333 12.3333C28.687 12.3333 29.0261 12.1929 29.2761 11.9428C29.5262 11.6928 29.6667 11.3536 29.6667 11V7C29.6667 5.93913 29.2452 4.92172 28.4951 4.17157C27.7449 3.42143 26.7275 3 25.6667 3Z" fill="#FEFFFF"/>
</svg>
