<svg width="56" height="56" viewBox="0 0 56 56" fill="none" xmlns="http://www.w3.org/2000/svg">
<g clip-path="url(#clip0_273_45036)">
<path d="M3.71707 44.6907C3.00366 44.4815 2.30634 44.1973 1.7163 43.7093C0.412852 42.6208 -0.15573 41.2051 0.0588292 39.532C0.284117 37.757 1.28182 36.5022 2.93929 35.8212C4.75768 35.0758 6.40442 35.4726 7.80979 36.7703C9.22588 38.0788 9.63891 39.7358 9.07032 41.5536C8.59829 43.0497 7.5255 44.0525 6.01822 44.5298C5.62128 44.6531 5.53009 44.8086 5.54082 45.2323C5.58373 47.4201 5.57301 49.6134 5.58373 51.8013C5.58373 52.5091 5.58373 53.2223 5.59446 53.9301C5.59446 53.9945 5.68029 54.091 5.75002 54.1178C5.83584 54.15 5.94848 54.1339 6.04504 54.1339C12.6213 54.1339 19.1975 54.1339 25.7684 54.1339C25.8757 54.1339 25.9883 54.1339 26.1171 54.1339C26.1278 54.0159 26.1385 53.9194 26.1385 53.8229C26.1385 52.7558 26.1332 51.6886 26.1439 50.6215C26.1439 50.3748 26.0634 50.2837 25.8328 50.2086C23.9768 49.5866 22.7968 48.3318 22.4964 46.3798C22.0512 43.4734 24.4113 40.9101 27.3454 41.0549C29.668 41.1675 31.6259 43.2589 31.6795 45.5808C31.7278 47.5971 30.4726 49.5276 28.2895 50.2032C28.0535 50.273 27.9784 50.3695 27.9784 50.6162C27.9891 51.7744 27.9837 52.9274 27.9837 54.1393H28.3538C35.8849 54.1393 43.4159 54.1393 50.947 54.1446C51.2688 54.1446 51.3868 54.091 51.3814 53.7317C51.3653 52.0426 51.3814 50.3534 51.3922 48.6589C51.3922 48.4605 51.3278 48.38 51.1347 48.3049C49.1607 47.5274 48.206 45.8329 48.7263 43.763C49.1178 42.2132 50.5822 41.0067 52.4542 41.0549C54.0527 41.0978 55.5439 42.3634 55.8872 43.9667C56.2627 45.7471 55.3937 47.4416 53.7309 48.1762C53.5968 48.2352 53.4519 48.2728 53.3339 48.3478C53.2696 48.3907 53.2052 48.498 53.2052 48.5731C53.2052 50.2837 53.2266 51.9997 53.2159 53.7103C53.2159 54.0481 53.2964 54.1661 53.645 54.1393C54.0634 54.1071 54.4925 54.1071 54.9109 54.1393C55.147 54.1554 55.3937 54.2251 55.5975 54.3431C55.9086 54.52 56.0535 54.9436 55.973 55.2386C55.8604 55.6515 55.5171 55.9303 55.045 55.984C54.9324 55.9947 54.8251 55.9893 54.7125 55.9893C36.9148 55.9893 19.1117 55.9893 1.314 55.9893C0.938523 55.9893 0.573772 55.9732 0.289481 55.689C0.0481012 55.4531 -0.0699065 55.1796 0.0373732 54.8418C0.139289 54.5146 0.332392 54.2412 0.691779 54.2036C1.18527 54.15 1.68948 54.1446 2.18833 54.1339C2.61209 54.1232 3.03584 54.1232 3.45423 54.1339C3.6527 54.1339 3.72779 54.0696 3.72779 53.8658C3.72243 51.1202 3.71707 48.3747 3.71707 45.6237C3.71707 45.3234 3.71707 45.0231 3.71707 44.6799V44.6907ZM1.80749 40.0361C1.78067 41.6073 3.03584 42.8996 4.64504 42.921C6.25423 42.9425 7.4504 41.618 7.54695 40.1487C7.63278 38.8295 6.05576 37.3066 4.7094 37.3119C3.10557 37.3173 1.83431 38.4809 1.80749 40.0361ZM27.1309 48.4926C28.7883 48.6321 29.9094 46.9697 29.8719 45.7363C29.8236 44.1544 28.5523 42.8942 27.0021 42.921C25.4627 42.9479 24.2611 44.2188 24.2558 45.7685C24.2558 47.0877 25.4519 48.691 27.1255 48.4926H27.1309ZM52.2826 42.921C51.2742 42.921 50.4213 43.7522 50.4213 44.7496C50.4213 45.9187 51.2795 46.6426 52.2987 46.664C53.3607 46.6855 54.1922 45.8382 54.1868 44.7925C54.1868 43.7576 53.3339 42.9211 52.2826 42.9264V42.921Z" fill="white"/>
<path d="M27.9946 18.8919C27.9946 19.0635 27.9946 19.2029 27.9946 19.3477C27.9946 25.5628 27.9946 31.7832 27.9946 37.9983C27.9946 38.1967 27.9732 38.4005 27.9034 38.5828C27.7693 38.9528 27.3617 39.2102 27.0237 39.1834C26.6697 39.1566 26.3103 38.8616 26.2084 38.4916C26.1655 38.3307 26.144 38.1645 26.144 37.9983C26.144 31.3381 26.144 24.678 26.144 18.0125C26.144 17.3475 26.3586 16.9721 26.8575 16.8327C27.0184 16.7845 27.2115 16.7791 27.3724 16.8166C28.7563 17.1437 30.1348 17.4816 31.5134 17.8194C32.377 18.0285 33.2352 18.2484 34.0935 18.4629C34.4314 18.5487 34.7693 18.6184 35.0965 18.7203C35.6007 18.8704 36.0942 19.0528 36.6038 19.1976C36.7808 19.2458 36.9847 19.1976 37.1617 19.2458C37.6927 19.396 38.2076 19.589 38.7387 19.7338C39.1785 19.8518 39.6291 19.9108 40.0689 20.0126C40.2513 20.0555 40.423 20.136 40.6 20.1842C41.1257 20.3129 41.6513 20.4202 42.1716 20.565C42.708 20.7151 42.9494 21.0583 42.9494 21.6214C42.9494 23.9111 42.9494 26.2009 42.9494 28.496C42.9494 36.0142 42.9494 43.5323 42.9494 51.0505C42.9494 51.2596 42.9226 51.4741 42.8529 51.6671C42.7241 52.0425 42.3272 52.2946 41.9785 52.2677C41.6138 52.2409 41.2651 51.9621 41.1686 51.576C41.1149 51.3722 41.0988 51.1577 41.0988 50.9486C41.0988 41.516 41.0988 32.0889 41.0988 22.6563C41.0988 22.1683 41.0988 22.163 40.6268 22.0611C40.3264 21.9967 40.0207 21.9431 39.7149 21.8788C39.6398 21.8627 39.5272 21.8573 39.5004 21.8091C39.2965 21.4766 39.0122 21.5249 38.7011 21.6053C38.626 21.6267 38.4973 21.5624 38.449 21.4927C38.2666 21.246 38.0467 21.246 37.7785 21.305C37.6552 21.3318 37.4567 21.305 37.3923 21.2246C37.1778 20.9403 36.8935 20.9993 36.6092 20.9993C36.5126 20.9993 36.3678 21.0101 36.3195 20.9564C36.0835 20.6829 35.7885 20.7044 35.4827 20.7366C35.413 20.7419 35.3057 20.7527 35.2789 20.7205C35.0483 20.3934 34.7157 20.447 34.3885 20.4577C34.3456 20.4577 34.2866 20.4845 34.2598 20.4631C33.8199 20.0609 33.2245 20.0984 32.7042 19.9537C31.6153 19.648 30.5103 19.412 29.4107 19.1547C28.9601 19.0528 28.4988 18.9777 28.0053 18.8812L27.9946 18.8919Z" fill="white"/>
<path d="M44.8266 9.55054C44.3224 9.66851 43.8718 9.7704 43.4213 9.88837C40.868 10.5319 38.3201 11.1754 35.7669 11.8081C35.4933 11.8778 35.4397 11.9851 35.4397 12.2586C35.4611 13.4705 35.4504 14.6824 35.4343 15.8943C35.4289 16.3662 35.0052 16.7255 34.5224 16.7255C34.0611 16.7255 33.6695 16.3555 33.6642 15.8836C33.6588 14.2802 33.6588 12.6822 33.6642 11.0788C33.6642 10.6874 33.8841 10.4353 34.3669 10.3066C35.0856 10.1082 35.8044 9.93127 36.5285 9.74895C38.8565 9.1698 41.1845 8.59066 43.5125 8.01152C43.845 7.92572 44.1722 7.81311 44.5102 7.74876C44.773 7.69513 44.8588 7.56643 44.8374 7.3144C44.8213 7.06236 44.8266 6.80497 44.8374 6.54757C44.8642 6.01133 45.186 5.66277 45.6956 5.6145C46.1944 5.57161 46.5538 5.83436 46.6397 6.39206C46.704 6.81569 46.6987 7.25541 46.6987 7.68977C46.6987 12.9396 46.6987 18.1841 46.704 23.4339C46.704 23.7449 46.6772 24.0559 46.704 24.367C46.7094 24.4635 46.8113 24.6029 46.9025 24.6351C49.0427 25.4395 51.1883 26.2331 53.3339 27.0321C53.999 27.2788 54.1653 27.5308 54.1653 28.2172C54.1653 31.5205 54.1653 34.8237 54.1653 38.127C54.1653 38.4648 54.0634 38.7437 53.8113 38.9528C53.3232 39.3657 52.5722 39.1512 52.3898 38.5292C52.3201 38.2879 52.3094 38.0251 52.3094 37.7731C52.3094 34.8613 52.3094 31.9495 52.3416 29.0377C52.3416 28.6516 52.186 28.5389 51.9017 28.4371C49.9331 27.7078 47.9699 26.9731 46.0013 26.2438C45.8458 26.1848 45.6902 26.1259 45.5347 26.0669C45.0412 25.8738 44.8266 25.5092 44.8266 24.9783C44.8266 19.9859 44.8266 14.9934 44.8266 10.001C44.8266 9.87228 44.8266 9.73822 44.8266 9.5559V9.55054Z" fill="white"/>
<path d="M27.9948 9.7704C27.9948 11.1378 27.9948 12.5052 27.9948 13.8727C27.9948 14.5215 27.4691 14.9666 26.8791 14.8325C26.5358 14.7575 26.3052 14.5376 26.214 14.2051C26.1603 14.0175 26.1442 13.8083 26.1442 13.6153C26.1442 11.2343 26.1389 8.85342 26.1442 6.47786C26.1442 6.19901 26.0638 6.04886 25.8009 5.92016C24.4707 5.27131 23.1511 4.61173 21.837 3.93606C21.558 3.79127 21.3274 3.79663 21.0538 3.93606C19.7075 4.62245 18.3557 5.29812 16.9986 5.96306C16.7948 6.06495 16.7734 6.19901 16.7734 6.38669C16.7734 8.76762 16.7626 11.1485 16.7841 13.5241C16.7894 14.2266 16.5373 14.6663 15.8937 14.9559C15.014 15.3527 14.1611 15.8139 13.2921 16.2375C13.0937 16.334 13.0293 16.452 13.0347 16.6719C13.0454 18.8168 13.0454 20.9672 13.0347 23.1122C13.0347 23.3052 12.9971 23.5143 12.922 23.6913C12.7718 24.0399 12.4714 24.2115 12.1067 24.2275C11.7688 24.2436 11.3879 23.9541 11.2753 23.6055C11.2163 23.4178 11.1894 23.214 11.1894 23.0156C11.1841 20.7151 11.1894 18.4093 11.1841 16.1088C11.1841 15.5833 11.3504 15.1918 11.8492 14.9452C12.7665 14.4947 13.6676 14.0175 14.5902 13.567C14.8423 13.4437 14.9389 13.2935 14.9335 13.0093C14.9228 10.6069 14.9335 8.20456 14.9174 5.80219C14.9174 5.22841 15.1481 4.8584 15.6469 4.61173C17.1971 3.83953 18.7366 3.05125 20.2921 2.29515C20.5657 2.16109 20.6354 1.99485 20.614 1.72673C20.5925 1.44788 20.5871 1.16904 20.5871 0.895552C20.5764 0.418295 20.9143 0.048286 21.3864 0.00538641C21.8262 -0.0321507 22.2714 0.278871 22.3304 0.718591C22.3787 1.09932 22.3894 1.49615 22.3626 1.88224C22.3465 2.1021 22.4055 2.20399 22.5879 2.29515C23.5963 2.78313 24.5994 3.28184 25.6025 3.78055C26.2354 4.09693 26.8737 4.41332 27.5013 4.74579C27.8553 4.93884 27.9894 5.27131 27.9894 5.66813C27.9894 7.03555 27.9894 8.40297 27.9894 9.7704H27.9948Z" fill="white"/>
<path d="M14.9226 27.9812H5.56248C5.56248 28.4102 5.56248 28.8392 5.56248 29.2682C5.55712 30.3568 5.55175 31.4454 5.5303 32.534C5.51957 33.1292 5.25673 33.4402 4.77398 33.5099C4.15175 33.6011 3.71191 33.1935 3.71191 32.4964C3.71191 31.2416 3.71191 29.9868 3.71191 28.7266C3.71191 28.2386 3.70654 27.7507 3.70654 27.2573C3.70654 26.5602 4.00693 26.2116 4.69888 26.1205C4.81689 26.1044 4.94562 26.1097 5.06363 26.1097C8.55558 26.1097 12.0475 26.1097 15.5395 26.1097C16.4138 26.1097 16.7732 26.4637 16.7732 27.3431C16.7732 35.2259 16.7732 43.1087 16.7732 50.9915C16.7732 51.1899 16.7571 51.3937 16.7035 51.5814C16.5962 51.9728 16.2207 52.2517 15.8399 52.2517C15.4859 52.2517 15.1104 51.9782 14.9977 51.6028C14.9387 51.4044 14.9226 51.1899 14.9226 50.9808C14.9226 43.4733 14.9226 35.9713 14.9226 28.4639C14.9226 28.3137 14.9226 28.1582 14.9226 27.9759V27.9812Z" fill="white"/>
<path d="M44.827 49.4471C44.827 48.8573 44.8216 48.2727 44.827 47.6829C44.8323 47.3182 44.9557 46.9965 45.299 46.8249C45.6101 46.6694 45.9373 46.6533 46.2484 46.8571C46.5595 47.0608 46.6668 47.3826 46.6668 47.7204C46.6776 48.9216 46.6776 50.1174 46.6561 51.3186C46.6454 51.8709 46.2377 52.2624 45.7281 52.2624C45.2507 52.2624 44.8377 51.8334 44.827 51.2864C44.8109 50.6751 44.827 50.0638 44.827 49.4525V49.4471Z" fill="white"/>
<path d="M13.0401 49.4739C13.0401 50.053 13.0401 50.6268 13.0401 51.206C13.0401 51.7851 12.6539 52.2355 12.1389 52.257C11.683 52.2784 11.2109 51.8548 11.2002 51.3078C11.1734 50.0959 11.1949 48.8894 11.2002 47.6775C11.2002 47.6453 11.2109 47.6131 11.2163 47.5809C11.3182 47.0072 11.7205 46.6318 12.1926 46.6693C12.6539 46.7069 13.0454 47.1895 13.0454 47.7365C13.0454 48.3156 13.0454 48.8894 13.0454 49.4685L13.0401 49.4739Z" fill="white"/>
<path d="M39.2056 49.4954C39.2056 50.0745 39.2056 50.6483 39.2056 51.2274C39.2056 51.8227 38.7926 52.2677 38.2562 52.257C37.7573 52.2463 37.3765 51.8173 37.3765 51.2328C37.3765 50.3587 37.3926 49.4793 37.3979 48.6052C37.3979 48.2942 37.3818 47.9832 37.3872 47.6721C37.3872 47.0984 37.7627 46.7015 38.3044 46.6962C38.7765 46.6962 39.2002 47.1412 39.2056 47.6668C39.2109 48.2781 39.2056 48.8894 39.2056 49.4954Z" fill="white"/>
<path d="M20.4798 49.5544C20.4798 50.1657 20.4905 50.777 20.4798 51.383C20.4637 51.8924 20.1204 52.2141 19.6001 52.2463C19.1978 52.2678 18.7955 51.9353 18.715 51.4956C18.6882 51.3562 18.6882 51.2114 18.6828 51.0666C18.6721 49.9458 18.6828 48.8251 18.656 47.7097C18.6453 47.1949 18.9671 46.782 19.4874 46.7284C20.0185 46.6694 20.4208 46.9536 20.453 47.4952C20.4959 48.1816 20.4637 48.868 20.4637 49.5544H20.4744H20.4798Z" fill="white"/>
<path d="M35.4397 49.5651C35.4397 50.1657 35.4504 50.7609 35.4397 51.3615C35.429 51.9997 34.9891 52.2142 34.5117 52.241C34.0397 52.2678 33.6642 51.8602 33.6642 51.3562C33.6642 50.3802 33.6803 49.4042 33.6803 48.4283C33.6803 48.187 33.6642 47.9403 33.6374 47.699C33.5838 47.211 33.8895 46.8142 34.3937 46.7337C34.9033 46.6533 35.37 46.9214 35.4022 47.404C35.4504 48.1226 35.4129 48.8412 35.4129 49.5651H35.4451H35.4397Z" fill="white"/>
<path d="M7.49884 49.4686C7.49884 48.8787 7.50957 48.2942 7.49884 47.7043C7.48811 47.1198 7.76167 46.7713 8.29807 46.723C8.83447 46.6748 9.2475 46.9965 9.26895 47.5703C9.3065 48.5891 9.29577 49.608 9.30114 50.6322C9.30114 50.8628 9.30114 51.0988 9.30114 51.3294C9.27432 52.0479 8.58236 52.4501 7.94941 52.123C7.62757 51.9568 7.49884 51.6886 7.5042 51.3347C7.50957 50.7127 7.5042 50.0906 7.5042 49.474L7.49884 49.4686Z" fill="white"/>
<path d="M42.9442 14.8539C42.9442 15.1435 42.9549 15.4331 42.9442 15.7173C42.9174 16.334 42.5526 16.7094 42.0055 16.7147C41.4959 16.7147 41.1151 16.3179 41.099 15.7227C41.0829 15.1435 41.0829 14.5697 41.099 13.9906C41.1151 13.4544 41.5335 13.0414 42.027 13.0468C42.5473 13.0468 42.9442 13.4651 42.9496 14.0228C42.9496 14.3016 42.9496 14.5805 42.9496 14.8539H42.9442Z" fill="white"/>
<path d="M13.0397 42.8942C13.0397 43.1945 13.045 43.4948 13.0397 43.7951C13.0236 44.326 12.6857 44.696 12.1922 44.7389C11.7148 44.7818 11.2749 44.4868 11.232 43.9667C11.173 43.2642 11.1784 42.5456 11.2427 41.8431C11.2857 41.3552 11.7845 41.0334 12.2297 41.0924C12.7178 41.1568 13.0397 41.5375 13.045 42.063C13.045 42.3419 13.045 42.6207 13.045 42.8996L13.0397 42.8942Z" fill="white"/>
<path d="M44.8324 31.6921C44.8324 31.4025 44.8217 31.1129 44.8324 30.8287C44.8539 30.3085 45.2454 29.8527 45.7121 29.8688C46.168 29.8849 46.624 30.1209 46.6615 30.7483C46.6991 31.3757 46.6883 32.0138 46.6562 32.6412C46.624 33.2311 46.2592 33.5314 45.696 33.5153C45.2132 33.4992 44.8699 33.1399 44.8378 32.5929C44.8217 32.2926 44.8378 31.9923 44.8378 31.6921H44.8324Z" fill="white"/>
<path d="M29.8773 31.6652C29.8773 31.3864 29.8719 31.1129 29.8773 30.8341C29.8934 30.3193 30.2903 29.8849 30.7516 29.8635C31.2129 29.842 31.6581 30.2013 31.6903 30.7161C31.7332 31.3649 31.7439 32.0245 31.6957 32.6734C31.6581 33.2472 31.2612 33.5421 30.698 33.5153C30.242 33.4938 29.8987 33.1185 29.8719 32.5929C29.8558 32.2819 29.8719 31.9709 29.8719 31.6599L29.8773 31.6652Z" fill="white"/>
<path d="M29.8773 37.3173C29.8773 37.0277 29.8666 36.7381 29.8773 36.4539C29.8934 35.9177 30.2582 35.5369 30.7677 35.5155C31.2666 35.4887 31.6582 35.8051 31.6957 36.3574C31.7386 36.9955 31.744 37.6444 31.7172 38.2879C31.6957 38.8027 31.2398 39.1995 30.7731 39.1888C30.3118 39.178 29.9095 38.749 29.8827 38.2235C29.8666 37.9232 29.8827 37.6229 29.8827 37.3226L29.8773 37.3173Z" fill="white"/>
<path d="M44.827 37.3066C44.827 37.0277 44.8217 36.7489 44.827 36.4754C44.8431 35.9284 45.1864 35.5531 45.696 35.5155C46.2056 35.478 46.6079 35.7729 46.6454 36.3306C46.6937 37.017 46.683 37.7088 46.6347 38.3898C46.6025 38.851 46.1412 39.1995 45.7067 39.1834C45.2401 39.162 44.8485 38.7437 44.827 38.2128C44.8163 37.9125 44.827 37.6122 44.827 37.3119V37.3066Z" fill="white"/>
<path d="M14.9228 20.463C14.9228 20.1842 14.9121 19.9053 14.9228 19.6319C14.9443 19.1063 15.309 18.7149 15.8025 18.6666C16.2424 18.6237 16.6929 18.9616 16.7305 19.4817C16.7788 20.1842 16.768 20.8974 16.709 21.6052C16.6715 22.0611 16.3121 22.3184 15.8883 22.3345C15.4431 22.3506 15.0837 22.1147 14.9925 21.6589C14.9175 21.2728 14.9228 20.8652 14.896 20.4738C14.9067 20.4738 14.9121 20.4738 14.9228 20.4738V20.463Z" fill="white"/>
<path d="M29.8774 26.0829C29.8774 25.7934 29.872 25.5038 29.8774 25.2142C29.8935 24.7102 30.2743 24.3187 30.7571 24.2972C31.2559 24.2758 31.6797 24.6083 31.7011 25.1284C31.7333 25.7826 31.7333 26.4422 31.7011 27.0911C31.669 27.6059 31.2237 27.9705 30.7624 27.9437C30.2958 27.9169 29.9042 27.5093 29.8827 27.0106C29.8667 26.6996 29.8827 26.3886 29.8827 26.0776L29.8774 26.0829Z" fill="white"/>
<path d="M13.0398 37.344C13.0398 37.6336 13.0451 37.9232 13.0398 38.2074C13.029 38.7007 12.6589 39.119 12.1923 39.1726C11.79 39.2209 11.2857 38.883 11.2482 38.4111C11.1892 37.6872 11.1892 36.9525 11.2536 36.2286C11.2965 35.7299 11.747 35.4672 12.2513 35.5154C12.6643 35.553 13.0183 35.9498 13.0398 36.4109C13.0505 36.722 13.0398 37.033 13.0398 37.344Z" fill="white"/>
<path d="M13.0401 31.7082C13.0401 31.9977 13.0454 32.2873 13.0401 32.5715C13.024 33.1078 12.7021 33.4724 12.2033 33.5207C11.6937 33.5689 11.2807 33.2954 11.2378 32.7378C11.1788 32.0353 11.1949 31.3221 11.2592 30.6196C11.2968 30.1584 11.7742 29.8259 12.1711 29.8635C12.6217 29.9064 13.024 30.3407 13.0401 30.8126C13.0508 31.1129 13.0401 31.4132 13.0401 31.7082Z" fill="white"/>
<path d="M44.827 42.8835C44.827 42.6046 44.827 42.3258 44.827 42.0469C44.8378 41.5321 45.224 41.1192 45.7121 41.0978C46.2217 41.0763 46.6562 41.4678 46.6669 42.004C46.683 42.6261 46.6776 43.2481 46.6508 43.8701C46.6293 44.3957 46.2056 44.7603 45.696 44.7442C45.2293 44.7281 44.8485 44.3313 44.827 43.8165C44.8163 43.5055 44.827 43.1945 44.827 42.8835Z" fill="white"/>
<path d="M39.2056 37.3548C39.2056 37.6444 39.2056 37.934 39.2056 38.2235C39.2002 38.733 38.7711 39.1781 38.2883 39.1834C37.827 39.1888 37.414 38.792 37.3979 38.2825C37.3765 37.6498 37.3711 37.017 37.3926 36.3842C37.4087 35.8587 37.7841 35.5209 38.2991 35.5209C38.8033 35.5209 39.1788 35.8748 39.2056 36.395C39.2217 36.7167 39.2056 37.0384 39.2056 37.3602V37.3548Z" fill="white"/>
<path d="M24.2559 37.3494C24.2559 37.6497 24.2559 37.95 24.2559 38.2503C24.2451 38.7544 23.7946 39.1941 23.3118 39.1834C22.829 39.1673 22.4589 38.7758 22.4536 38.2557C22.4482 37.6551 22.4536 37.0545 22.4536 36.4592C22.4536 35.8962 22.7754 35.5423 23.3118 35.5262C23.8375 35.5101 24.2237 35.8586 24.2559 36.3895C24.2773 36.7113 24.2559 37.033 24.2559 37.3548V37.3494Z" fill="white"/>
<path d="M22.4482 9.28243C22.4482 8.99286 22.4482 8.70329 22.4482 8.41908C22.4482 7.87211 22.7594 7.51819 23.2797 7.49138C23.8053 7.46457 24.2237 7.79704 24.2452 8.32792C24.272 8.99286 24.272 9.66317 24.2452 10.3281C24.2291 10.7678 23.7356 11.17 23.3011 11.1539C22.8452 11.1325 22.4697 10.7571 22.4536 10.2852C22.4429 9.95274 22.4536 9.62027 22.4536 9.2878L22.4482 9.28243Z" fill="white"/>
<path d="M22.4428 20.4792C22.4428 20.1896 22.4428 19.9054 22.4428 19.6158C22.4428 19.0742 22.7539 18.7256 23.2742 18.6827C23.7409 18.6452 24.1915 18.9723 24.2237 19.4657C24.2666 20.152 24.2719 20.8438 24.229 21.5248C24.1968 22.0557 23.7624 22.356 23.226 22.3131C22.7486 22.2809 22.4589 21.9431 22.4428 21.4069C22.4374 21.0958 22.4428 20.7848 22.4428 20.4738V20.4792Z" fill="white"/>
<path d="M22.4482 31.6867C22.4482 31.3971 22.4482 31.1076 22.4482 30.8234C22.4482 30.2871 22.7969 29.8903 23.3065 29.8635C23.7249 29.8367 24.213 30.2281 24.2398 30.6947C24.2774 31.3703 24.2827 32.046 24.2398 32.7217C24.2076 33.2525 23.7839 33.5528 23.2421 33.5207C22.7647 33.4885 22.4643 33.1507 22.4536 32.6198C22.4482 32.3088 22.4536 31.9977 22.4536 31.6867H22.4482Z" fill="white"/>
<path d="M39.2053 14.9237C39.2053 15.224 39.2107 15.5243 39.2053 15.8246C39.1892 16.318 38.7977 16.7041 38.3042 16.7202C37.859 16.7362 37.4245 16.3877 37.3977 15.9158C37.3655 15.2294 37.3655 14.5376 37.3977 13.8513C37.4191 13.3794 37.8482 13.0576 38.3203 13.0737C38.7762 13.0898 39.1785 13.4705 39.2 13.921C39.2161 14.2534 39.2 14.5859 39.2 14.9237H39.2053Z" fill="white"/>
<path d="M39.2055 26.1419C39.2055 26.4315 39.2055 26.7211 39.2055 27.0107C39.1947 27.5147 38.7924 27.933 38.3043 27.9491C37.8269 27.9652 37.4139 27.5898 37.3978 27.075C37.371 26.4422 37.371 25.8095 37.3817 25.1767C37.3924 24.678 37.8001 24.308 38.2989 24.308C38.7978 24.308 39.184 24.6726 39.2055 25.1821C39.2215 25.5038 39.2055 25.8256 39.2055 26.1473V26.1419Z" fill="white"/>
<path d="M24.2559 26.1365C24.2559 26.4368 24.2613 26.7371 24.2559 27.0374C24.2452 27.5308 23.8161 27.9544 23.3333 27.9544C22.8452 27.9544 22.4697 27.5737 22.459 27.0482C22.4482 26.4368 22.4536 25.8255 22.4482 25.2142C22.4482 24.6994 22.7969 24.324 23.3118 24.3079C23.8161 24.2865 24.2237 24.6351 24.2559 25.1391C24.2774 25.4716 24.2559 25.8041 24.2559 26.1419V26.1365Z" fill="white"/>
<path d="M39.2052 31.6813C39.2052 31.9923 39.2159 32.3033 39.2052 32.6143C39.1838 33.1667 38.8351 33.5045 38.2987 33.5206C37.7784 33.5367 37.4244 33.2256 37.3976 32.6626C37.3707 32.0191 37.3707 31.3756 37.3976 30.7375C37.4136 30.2388 37.8535 29.8473 38.3148 29.8634C38.76 29.8795 39.1891 30.3192 39.2052 30.7857C39.2159 31.086 39.2052 31.3863 39.2052 31.6866V31.6813Z" fill="white"/>
<path d="M48.646 37.3173C48.6353 37.0277 48.6192 36.7435 48.6085 36.4539C48.587 35.9338 48.8874 35.5798 49.397 35.5262C49.928 35.4726 50.3357 35.7568 50.3733 36.2877C50.4162 36.9848 50.4162 37.6873 50.3893 38.3844C50.3732 38.8295 49.9119 39.1941 49.4721 39.1834C48.9947 39.1727 48.63 38.7919 48.6246 38.2879C48.6246 37.9661 48.6246 37.6444 48.6246 37.3226C48.6353 37.3226 48.6407 37.3226 48.6514 37.3226L48.646 37.3173Z" fill="white"/>
<path d="M39.2053 42.9425C39.2053 43.2428 39.2107 43.5431 39.2053 43.8434C39.1946 44.3421 38.8191 44.7228 38.3149 44.7496C37.8482 44.7764 37.4137 44.4225 37.3923 43.9292C37.3601 43.2535 37.3655 42.5725 37.3923 41.8968C37.4137 41.4196 37.8321 41.0978 38.3042 41.1085C38.7762 41.1193 39.1785 41.5 39.1946 41.9719C39.2053 42.2936 39.1946 42.6154 39.1946 42.9371L39.2053 42.9425Z" fill="white"/>
<path d="M7.53125 31.6813C7.51516 31.3918 7.49907 31.1076 7.49371 30.818C7.47761 30.3086 7.82091 29.9225 8.31976 29.8688C8.73279 29.8259 9.22627 30.1852 9.24773 30.6357C9.28528 31.3757 9.27991 32.1211 9.23164 32.8557C9.19945 33.3169 8.80252 33.5528 8.27685 33.5153C7.837 33.4831 7.53662 33.1882 7.5098 32.7431C7.49907 32.5661 7.5098 32.3892 7.51516 32.2122C7.51516 32.0353 7.51516 31.8583 7.51516 31.6813C7.52053 31.6813 7.52589 31.6813 7.53125 31.6813Z" fill="white"/>
<path d="M20.4796 37.403C20.4796 37.7033 20.4904 38.0036 20.4796 38.3039C20.4635 38.7972 20.1042 39.1458 19.5999 39.178C19.2137 39.1994 18.8007 38.8669 18.7202 38.454C18.6881 38.3039 18.6881 38.1484 18.6881 37.9929C18.6773 37.4834 18.6881 36.974 18.6666 36.4646C18.6505 36.0088 18.967 35.6119 19.439 35.5315C19.9164 35.4511 20.3348 35.7192 20.4474 36.1804C20.4635 36.2554 20.485 36.3359 20.485 36.4109C20.485 36.7434 20.485 37.0759 20.485 37.4084H20.4743L20.4796 37.403Z" fill="white"/>
<path d="M35.44 37.3655C35.44 37.6765 35.4507 37.9875 35.44 38.2985C35.4239 38.8026 35.027 39.1726 34.5281 39.1726C34.0615 39.1726 33.6806 38.7919 33.6645 38.2878C33.6484 37.6443 33.6377 37.0008 33.6377 36.3573C33.6377 35.9015 33.9917 35.5583 34.4637 35.5154C34.9519 35.4725 35.3166 35.7353 35.4185 36.1964C35.4346 36.2608 35.4454 36.3305 35.4507 36.3949C35.4507 36.7166 35.4507 37.0383 35.4507 37.3601C35.4507 37.3601 35.4507 37.3601 35.4454 37.3601L35.44 37.3655Z" fill="white"/>
<path d="M20.4851 9.35748C20.4851 9.65778 20.4905 9.95808 20.4851 10.2584C20.4744 10.7571 20.1311 11.1056 19.6215 11.1485C19.2138 11.1861 18.774 10.8268 18.7203 10.3817C18.6828 10.0546 18.7203 9.71677 18.7096 9.38429C18.7043 9.07327 18.6935 8.76225 18.6721 8.45659C18.6399 7.9847 18.9725 7.57179 19.4552 7.50208C19.938 7.43236 20.3725 7.69512 20.4475 8.16702C20.5119 8.55848 20.4958 8.96066 20.5173 9.35748C20.5066 9.35748 20.4905 9.35748 20.4797 9.35748H20.4851Z" fill="white"/>
<path d="M22.4428 14.8647C22.4428 14.5644 22.4428 14.2641 22.4428 13.9638C22.4428 13.4811 22.7861 13.1111 23.2581 13.079C23.7516 13.0468 24.2236 13.3953 24.2397 13.8726C24.2666 14.5483 24.2666 15.2293 24.2397 15.905C24.2183 16.3822 23.7463 16.7415 23.2635 16.7093C22.7968 16.6825 22.4482 16.3072 22.4374 15.8245C22.4321 15.5028 22.4374 15.181 22.4374 14.8593L22.4428 14.8647Z" fill="white"/>
<path d="M20.4637 31.8047C20.4637 32.1157 20.4798 32.4267 20.4637 32.7324C20.4315 33.215 20.1043 33.4992 19.6001 33.5099C19.1066 33.5206 18.7848 33.274 18.7258 32.786C18.6882 32.4589 18.7204 32.121 18.715 31.7886C18.715 31.4883 18.7097 31.188 18.6829 30.893C18.6399 30.3675 18.9779 29.9332 19.5035 29.8634C19.9273 29.8045 20.3993 30.1691 20.4637 30.641C20.512 31.0217 20.5066 31.4132 20.5227 31.7993C20.5066 31.7993 20.4852 31.7993 20.4691 31.7993L20.4637 31.8047Z" fill="white"/>
<path d="M35.4185 31.8046C35.4185 32.1157 35.4346 32.4267 35.4185 32.7377C35.3864 33.2418 35.0538 33.5153 34.5174 33.5153C34.0132 33.5153 33.6913 33.2257 33.6752 32.7163C33.6484 32.0513 33.6431 31.3864 33.6431 30.7214C33.6431 30.2924 34.0293 29.9171 34.4798 29.8742C34.8714 29.8366 35.3059 30.1477 35.4025 30.5391C35.4239 30.6356 35.4507 30.7375 35.4507 30.834C35.4561 31.1558 35.4507 31.4775 35.4507 31.7993C35.44 31.7993 35.4293 31.7993 35.4185 31.7993V31.8046Z" fill="white"/>
<path d="M20.4689 20.581C20.4689 20.892 20.485 21.2031 20.4689 21.5141C20.4421 22.0074 20.1256 22.2916 19.6214 22.3185C19.1386 22.3399 18.806 22.0879 18.7256 21.616C18.6988 21.4658 18.7041 21.305 18.6988 21.1548C18.688 20.6668 18.688 20.1788 18.6666 19.6909C18.6398 19.1761 18.967 18.7632 19.4873 18.6988C20.0076 18.6345 20.4045 18.9187 20.4635 19.4549C20.5064 19.8249 20.4689 20.2057 20.4689 20.581Z" fill="white"/>
<path d="M35.4397 26.1794C35.4397 26.4797 35.4451 26.7746 35.4397 27.0749C35.4236 27.5575 34.9999 27.9651 34.5332 27.9597C34.029 27.9544 33.675 27.5844 33.6643 27.0588C33.6535 26.4422 33.6428 25.8201 33.6267 25.2034C33.616 24.7691 33.9593 24.383 34.4152 24.3186C34.8872 24.2543 35.3378 24.5385 35.4022 24.9943C35.4612 25.3858 35.4505 25.7879 35.4719 26.1848C35.4612 26.1848 35.4505 26.1848 35.4344 26.1848L35.4397 26.1794Z" fill="white"/>
<path d="M48.6512 31.6813C48.6352 31.3917 48.6137 31.1075 48.603 30.8179C48.5815 30.3138 48.9355 29.917 49.4398 29.8795C49.8742 29.8419 50.3409 30.1905 50.3624 30.6517C50.3945 31.381 50.3892 32.1156 50.3463 32.8449C50.3248 33.29 49.944 33.5313 49.429 33.5152C48.9785 33.4991 48.6566 33.2203 48.6298 32.7806C48.6083 32.4159 48.6298 32.0459 48.6298 31.6813C48.6405 31.6813 48.6459 31.6813 48.6566 31.6813H48.6512Z" fill="white"/>
<path d="M20.4741 26.2009C20.4741 26.469 20.4741 26.7318 20.4741 26.9999C20.4741 27.5415 20.0879 27.9598 19.5837 27.9544C19.0902 27.9544 18.6933 27.5522 18.6826 27.0267C18.6718 26.41 18.6611 25.788 18.6665 25.1713C18.6665 24.7262 19.058 24.3401 19.5193 24.3026C19.9967 24.2651 20.4098 24.5654 20.458 25.0372C20.4956 25.418 20.4688 25.8094 20.4688 26.1955C20.4688 26.1955 20.4688 26.1955 20.4741 26.1955V26.2009Z" fill="white"/>
<path d="M20.4795 42.9693C20.4795 43.2589 20.4795 43.5485 20.4795 43.838C20.4795 44.3743 20.1094 44.7389 19.5784 44.7443C19.0849 44.7496 18.688 44.3367 18.6826 43.8219C18.6826 43.2106 18.6719 42.6047 18.6665 41.9934C18.6665 41.5697 19.0313 41.1622 19.4765 41.1139C19.9646 41.0603 20.4259 41.3713 20.4742 41.8378C20.5117 42.2132 20.4795 42.5939 20.4795 42.9693Z" fill="white"/>
<path d="M20.4795 14.9558C20.4795 15.2454 20.4795 15.5349 20.4795 15.8192C20.4688 16.35 20.0933 16.7147 19.5677 16.7147C19.0903 16.7147 18.6933 16.3125 18.688 15.8138C18.6772 15.1918 18.6772 14.5697 18.6719 13.953C18.6719 13.5187 19.042 13.1326 19.4872 13.0897C19.9592 13.0414 20.4152 13.3417 20.4634 13.7975C20.5064 14.1836 20.4742 14.5751 20.4742 14.9612L20.4795 14.9558Z" fill="white"/>
<path d="M33.6914 42.9157C33.6806 42.6261 33.6645 42.3366 33.6538 42.0523C33.6324 41.5536 33.9649 41.1622 34.4477 41.1193C34.9573 41.071 35.3971 41.3928 35.4186 41.8968C35.4507 42.6047 35.4454 43.3179 35.4186 44.0257C35.4025 44.4494 34.9519 44.7765 34.4906 44.755C34.0615 44.7336 33.6914 44.3957 33.6699 43.9828C33.6538 43.6289 33.6699 43.275 33.6699 42.9157C33.6806 42.9157 33.686 42.9157 33.6967 42.9157H33.6914Z" fill="white"/>
</g>
<defs>
<clipPath id="clip0_273_45036">
<rect width="56" height="56" fill="white"/>
</clipPath>
</defs>
</svg>
