<svg width="56" height="57" viewBox="0 0 56 57" fill="none" xmlns="http://www.w3.org/2000/svg">
<g clip-path="url(#clip0_659_3378)">
<path d="M1.86439 28.5477C2.47015 28.5477 3.03835 28.5429 3.61124 28.5572C3.66759 28.5572 3.75211 28.6711 3.77559 28.7471C3.92116 29.2363 4.34379 29.526 4.84155 29.4595C5.26887 29.4025 5.60697 28.9941 5.61636 28.5239C5.62575 28.0585 5.30174 27.6501 4.82276 27.5836C4.32501 27.5123 3.90708 27.3461 3.78029 26.7952C3.74272 26.6242 3.75211 26.4438 3.75211 26.268C3.75211 20.4883 3.75211 14.7132 3.75681 8.93344C3.75681 8.63424 3.68168 8.54875 3.38584 8.5535C2.65329 8.56775 1.92544 8.544 1.19289 8.5345C0.347638 8.51076 0.00484219 8.16407 0.00484219 7.30921C0.00484219 6.22639 0.00484219 5.13882 0.00484219 4.056C0.00484219 3.25339 0.394596 2.85445 1.18819 2.8402C1.44177 2.8402 1.69534 2.8402 1.94892 2.8402C13.557 2.8402 25.1651 2.8402 36.7732 2.8402C36.9188 2.8402 37.0643 2.8402 37.2475 2.8402C37.2569 2.71672 37.2709 2.60749 37.2756 2.49351C37.285 1.9711 37.2756 1.44869 37.3085 0.926273C37.3414 0.408609 37.5997 0.142654 38.0974 0.0476694C38.2477 0.0191742 38.4073 0.000177338 38.5623 0.000177338C41.4549 0.000177338 44.3523 -0.00932108 47.2449 0.00967575C47.5219 0.00967575 47.8225 0.109409 48.0714 0.237638C48.3578 0.389612 48.4517 0.70306 48.4564 1.02126C48.4658 1.53417 48.4846 2.04709 48.4611 2.56C48.4517 2.78796 48.5034 2.8497 48.7288 2.84495C50.6494 2.83545 52.57 2.83545 54.4905 2.8402C54.6549 2.8402 54.824 2.84495 54.9836 2.87345C55.5988 2.97318 55.8946 3.29613 55.904 3.92777C55.9181 5.10083 55.9181 6.27388 55.904 7.44694C55.8946 8.14032 55.533 8.51076 54.8474 8.51551C52.9081 8.52976 50.9687 8.51551 49.0293 8.52026C48.638 8.52026 48.4408 8.71814 48.4376 9.11391C48.4329 10.1587 48.1559 10.4294 47.1087 10.4247C46.719 10.4247 46.3292 10.4342 45.9394 10.4152C45.7 10.4009 45.6342 10.5007 45.6389 10.7239C45.6483 11.1656 45.6436 11.612 45.6436 12.0537C45.6436 24.4681 45.6436 36.8778 45.6436 49.2922C45.6436 51.1634 45.653 53.0393 45.6671 54.9105C45.6671 54.9818 45.7469 55.1147 45.7939 55.1147C46.2869 55.129 46.78 55.1242 47.3294 55.1242C46.6626 54.2694 46.4466 53.3575 46.7424 52.3697C47.0383 51.3819 47.7473 50.7882 48.71 50.4653C48.4188 49.7909 48.4376 49.1117 48.6489 48.4469C48.8368 47.8579 49.2218 47.3973 49.729 47.0506C50.7057 46.3857 52.0158 46.4332 52.8987 47.1361C53.9458 47.9672 54.3356 49.3112 53.8097 50.4558C54.7629 50.793 55.4532 51.4056 55.749 52.4077C56.0402 53.4003 55.8054 54.2836 55.1386 55.1242H55.8852V56.9954H0.0236255V55.1717C0.0236255 55.1717 0.0424088 55.1432 0.0564963 55.1432C0.488513 55.2145 0.756175 54.9628 1.02853 54.6778C2.21188 53.4525 3.40932 52.2367 4.60206 51.0209C4.70537 50.9164 4.80868 50.812 4.91668 50.7122C5.39565 50.2705 5.83706 50.2753 6.30195 50.7407C6.99224 51.4341 7.67313 52.1417 8.35872 52.8399C9.0584 53.5522 9.76278 54.2646 10.4671 54.9723C10.5329 55.0388 10.6268 55.1147 10.7066 55.1195C11.1246 55.1385 11.5425 55.1385 11.9604 55.1195C12.0074 55.1195 12.0919 54.9723 12.0919 54.8915C12.106 54.1412 12.1154 53.3955 12.1154 52.6451C12.1154 43.199 12.1154 33.7528 12.1154 24.3114C12.1154 20.4455 12.1154 16.5797 12.106 12.7186C12.106 12.4194 12.1999 12.3481 12.4676 12.3624C12.8573 12.3814 13.2471 12.3909 13.6368 12.3719C13.8716 12.3624 13.9468 12.4431 13.9421 12.6711C13.9327 13.7254 13.9421 14.7797 13.9139 15.834C13.9092 16.1142 13.9843 16.1902 14.252 16.1855C17.8302 16.176 21.4037 16.176 24.982 16.176C25.2637 16.176 25.5455 16.2045 25.8272 16.195C26.0103 16.1902 26.0667 16.2567 26.062 16.4324C26.0526 16.8741 26.0479 17.3205 26.062 17.7622C26.062 17.9807 25.9869 18.0472 25.7709 18.0424C23.8315 18.0377 21.8921 18.0424 19.9527 18.0424C18.0415 18.0424 16.1303 18.0519 14.2238 18.0424C13.9796 18.0424 13.9139 18.1137 13.9186 18.3654C13.9421 19.1062 13.9374 19.8424 13.9233 20.5832C13.9233 20.8207 13.9655 20.9252 14.2238 20.9204C15.8908 20.9109 17.5579 20.9062 19.2249 20.9109C19.5019 20.9109 19.5958 20.8302 19.5865 20.5453C19.5583 19.9658 19.5771 19.9611 20.1453 19.9611C20.4881 19.9611 20.8262 19.9801 21.1689 19.9753C21.3662 19.9753 21.446 20.0323 21.4272 20.2508C21.3709 20.9727 21.3615 20.9014 22.0142 20.9014C23.5826 20.9014 25.151 20.8872 26.7194 20.9014C26.9542 20.9014 27.0293 20.8397 27.0246 20.607C27.0153 20.1653 27.034 19.7189 27.0293 19.2772C27.0293 19.0825 27.0904 18.997 27.3064 19.0065C27.7243 19.0303 28.1423 19.0303 28.5649 19.0208C28.7997 19.016 28.8936 19.0825 28.8842 19.339C28.8701 19.7711 28.8936 20.2081 28.8889 20.6402C28.8889 20.8112 28.9405 20.8967 29.1237 20.8967C30.8658 20.8967 32.6127 20.8967 34.3548 20.8919C34.383 20.8919 34.4112 20.8729 34.4628 20.8587C34.4722 20.702 34.4863 20.5358 34.4863 20.3695C34.4863 19.3817 34.4769 18.3986 34.4722 17.4108C34.4722 17.2683 34.4628 17.1163 34.6648 17.1163C35.2095 17.1163 35.7542 17.1163 36.3271 17.1163C36.3271 17.3348 36.3271 17.501 36.3271 17.6672C36.3271 29.3123 36.3271 40.9573 36.3271 52.5977C36.3271 53.3575 36.3412 54.1174 36.3365 54.8725C36.3365 55.0672 36.3975 55.1385 36.5854 55.1385C37.6748 55.1385 38.7689 55.1337 39.8583 55.1385C40.0931 55.1385 40.1025 55.0103 40.1025 54.8393C40.1025 54.0224 40.1025 53.2008 40.1025 52.3839C40.1025 38.9437 40.1025 25.5082 40.1025 12.0679C40.1025 11.6357 40.0978 11.1988 40.1072 10.7666C40.1119 10.5482 40.0556 10.4437 39.8161 10.4437C39.3277 10.4484 38.844 10.4342 38.3557 10.4199C37.6231 10.4009 37.3367 10.1112 37.2991 9.37511C37.2944 9.23739 37.285 9.09966 37.285 8.96193C37.285 8.5535 37.285 8.54875 36.8953 8.54875C29.0016 8.544 21.1079 8.53925 13.2142 8.5345C10.8569 8.5345 8.4996 8.52975 6.1376 8.52975C5.55062 8.52975 5.55531 8.5345 5.55531 9.12815C5.55531 14.49 5.55531 19.8519 5.54122 25.2137C5.54122 25.6079 5.59288 25.8359 5.98263 26.0543C7.34912 26.8285 7.78583 28.4384 7.07676 29.8347C6.98284 30.0247 6.84197 30.1909 6.6964 30.4094C6.74805 30.4806 6.83258 30.5803 6.91241 30.6896C7.62617 31.6631 8.35403 32.6272 9.04901 33.6151C9.18519 33.8098 9.26971 34.0852 9.27441 34.3275C9.29789 35.5195 9.2838 36.7116 9.2885 37.9084C9.2885 38.2551 9.1758 38.5305 8.92692 38.7775C8.35872 39.3331 7.80461 39.903 7.25051 40.4682C7.0345 40.6866 6.79501 40.8386 6.48039 40.8386C5.236 40.8386 3.98691 40.8434 2.74251 40.8149C2.53589 40.8101 2.29171 40.6771 2.13205 40.5299C1.56855 39.998 1.03792 39.4329 0.493208 38.8819C0.155109 38.5353 -0.00454946 38.1411 0.000146365 37.6567C0.0142339 36.6498 0.0142339 35.643 0.000146365 34.6409C-0.00454946 34.1992 0.103455 33.805 0.366421 33.4536C1.0661 32.5085 1.76108 31.5539 2.46546 30.6136C2.58755 30.4521 2.60633 30.3619 2.46546 30.1909C2.0804 29.7255 1.92544 29.1603 1.85969 28.5477H1.86439ZM13.9515 40.6914C13.9515 40.8671 13.9515 41.0476 13.9515 41.2233C13.9515 45.7303 13.9515 50.2326 13.9515 54.7396C13.9515 55.1337 13.9421 55.1385 14.3318 55.1385C20.9201 55.1385 27.5083 55.1385 34.0966 55.1385C34.4863 55.1385 34.4863 55.1385 34.4863 54.7443C34.4863 53.7707 34.4863 52.7924 34.4863 51.8188C34.4863 48.1239 34.4863 44.4243 34.4863 40.7294C34.4863 38.7205 34.4957 36.7068 34.5004 34.6979C34.5004 34.2182 34.5004 34.2135 34.0261 34.2087C32.1337 34.204 30.246 34.185 28.3536 34.2087C27.8135 34.2135 27.405 34.033 27.0387 33.6436C26.0996 32.67 25.1322 31.7249 24.1931 30.7513C23.9677 30.5186 23.7376 30.4379 23.4229 30.4379C22.4509 30.4473 21.4742 30.4521 20.5021 30.4094C19.8964 30.3809 19.6052 30.0199 19.6005 29.3978C19.5911 28.4527 19.5865 27.5076 19.5958 26.5578C19.5958 26.3535 19.5301 26.3013 19.347 26.3013C17.6236 26.3013 15.8955 26.2918 14.1722 26.2775C14.0031 26.2775 13.9421 26.3393 13.9468 26.496C13.9515 26.705 13.9655 26.9092 13.9655 27.1182C13.9655 31.6442 13.9655 36.1701 13.9655 40.6914H13.9515ZM28.8842 27.5693C28.8842 27.5693 28.8795 27.5693 28.8748 27.5693C28.8748 29.0653 28.8748 30.5661 28.8748 32.0621C28.8748 32.2521 28.9171 32.3185 29.119 32.3185C30.8236 32.309 32.5282 32.309 34.2327 32.3185C34.4628 32.3185 34.5192 32.2283 34.5098 32.0241C34.4957 31.6014 34.4863 31.1787 34.4816 30.7513C34.4816 28.22 34.4722 25.6839 34.4816 23.1526C34.4816 22.8771 34.3783 22.8249 34.1435 22.8296C32.4859 22.8344 30.833 22.8344 29.1753 22.8296C28.9405 22.8296 28.8795 22.9056 28.8842 23.1383C28.8936 24.6153 28.8889 26.0971 28.8889 27.5741L28.8842 27.5693ZM26.9495 30.946C26.9777 30.9365 27.0012 30.927 27.0293 30.9175C27.0293 30.5756 27.0293 30.2384 27.0293 29.8964C27.0293 27.6501 27.0246 25.4037 27.0293 23.1573C27.0293 22.9246 26.9683 22.8249 26.7194 22.8249C25.043 22.8296 23.3666 22.8249 21.6949 22.8154C21.4554 22.8154 21.4084 22.9009 21.4084 23.1288C21.4178 24.8338 21.4131 26.5388 21.4037 28.2437C21.4037 28.4764 21.4742 28.5619 21.6996 28.5572C22.1973 28.5477 22.6951 28.5524 23.1882 28.5572C24.8317 28.5714 24.4232 28.4384 25.5267 29.5213C25.8413 29.83 26.1559 30.1387 26.4705 30.4474C26.6349 30.6088 26.7945 30.7798 26.9542 30.9508L26.9495 30.946ZM1.855 35.1918C1.855 35.9754 1.84561 36.7448 1.86439 37.5094C1.86439 37.6187 1.9677 37.7374 2.04753 37.8276C2.29171 38.0936 2.56407 38.3358 2.79886 38.6112C3.02896 38.8819 3.30131 38.9817 3.64411 38.9722C4.39544 38.9579 5.14678 38.9722 5.89341 38.9532C6.03898 38.9532 6.21273 38.8724 6.32543 38.7727C6.65883 38.4735 6.98284 38.1553 7.28338 37.8181C7.39138 37.6994 7.4806 37.5142 7.4853 37.3575C7.50878 36.6451 7.49469 35.9327 7.49469 35.1871H1.855V35.1918ZM44.7279 1.89511C44.7279 2.57425 44.7279 3.21539 44.7279 3.85653C44.7232 4.77313 44.7185 5.68973 44.6997 6.60633C44.6904 7.14299 44.4415 7.44219 43.9249 7.57042C43.7653 7.60841 43.5962 7.62741 43.4366 7.62741C42.211 7.62741 40.9853 7.62741 39.755 7.62266C39.1164 7.62266 39.1211 7.62266 39.1211 8.2638C39.1211 8.48701 39.1821 8.5725 39.4216 8.56775C41.7273 8.5535 44.0376 8.54875 46.3433 8.54875C46.5687 8.54875 46.6203 8.46327 46.6203 8.2543C46.6109 6.7298 46.6109 5.20056 46.6109 3.67606C46.6109 3.18215 46.6109 2.69298 46.6109 2.19906C46.6109 2.06133 46.6203 1.90461 46.4184 1.89986C45.8643 1.89986 45.3149 1.89986 44.7279 1.89986V1.89511ZM42.8543 5.68973C42.8637 5.59474 42.8731 5.54725 42.8731 5.49976C42.8731 4.40744 42.8637 3.31038 42.8731 2.21806C42.8731 1.9521 42.7604 1.88086 42.5209 1.88561C41.4784 1.89511 40.4359 1.89511 39.3935 1.88561C39.1868 1.88561 39.1258 1.95685 39.1258 2.16107C39.1352 2.83071 39.1258 3.50034 39.1258 4.16998C39.1258 4.60216 39.1258 5.03909 39.1258 5.47127C39.1258 5.65648 39.1821 5.72297 39.3888 5.70873C39.7973 5.68023 40.2058 5.69448 40.6144 5.69448C41.3516 5.69448 42.0936 5.69448 42.8543 5.69448V5.68973ZM13.9327 24.3351C13.9937 24.3589 14.0125 24.3731 14.0313 24.3731C15.8157 24.3731 17.5954 24.3731 19.3798 24.3779C19.5395 24.3779 19.5771 24.3066 19.5771 24.1642C19.5724 23.808 19.563 23.4565 19.5771 23.1003C19.5818 22.8961 19.5066 22.8201 19.3047 22.8249C18.8586 22.8296 18.4078 22.8201 17.9617 22.8201C16.7032 22.8201 15.4494 22.8201 14.1909 22.8249C14.1064 22.8249 13.9515 22.9199 13.9515 22.9768C13.9327 23.428 13.9421 23.8792 13.9421 24.3351H13.9327ZM8.01123 55.129C7.16129 54.2836 6.363 53.5 5.58349 52.7211C4.79928 53.5095 4.00569 54.3074 3.19331 55.129H8.01593H8.01123ZM43.7183 17.7052C43.7512 17.7005 43.7794 17.691 43.8122 17.6862V12.6806C43.8122 12.6806 43.7653 12.6663 43.7465 12.6568C43.183 13.5069 42.6195 14.357 42.0654 15.1929C42.6101 16.024 43.1642 16.8646 43.7183 17.71V17.7052ZM43.7277 29.1318C43.7512 29.1271 43.7747 29.1176 43.7981 29.1128V24.1357C43.662 24.1974 43.5962 24.2781 43.5352 24.3636C43.1736 24.9145 42.8496 25.4939 42.4457 26.0021C42.0983 26.439 42.0889 26.7525 42.4457 27.2036C42.9247 27.8068 43.3051 28.4859 43.723 29.1318H43.7277ZM2.7566 33.2399H6.51326C6.44752 33.1259 6.40056 33.0357 6.33952 32.9549C6.08125 32.5987 5.77132 32.271 5.5647 31.8864C5.27826 31.3592 4.84155 31.2927 4.3344 31.3497C4.25457 31.3592 4.14656 31.3829 4.1043 31.4399C3.6582 32.0193 3.22618 32.6082 2.7566 33.2399ZM43.8075 46.9271C43.7794 46.9271 43.7512 46.9224 43.723 46.9176C43.1971 47.706 42.6711 48.4943 42.1546 49.2922C42.1123 49.354 42.1264 49.5012 42.1734 49.5724C42.5537 50.1661 42.9435 50.755 43.3333 51.3439C43.4647 51.5433 43.6056 51.7333 43.7418 51.9328C43.7653 51.9233 43.7841 51.9185 43.8075 51.909V46.9319V46.9271ZM10.8146 4.84912C10.8052 4.82062 10.8006 4.79213 10.7912 4.76363H5.98263C6.09064 4.92036 6.21742 5.02484 6.3536 5.11508C6.92649 5.50451 7.51347 5.87495 8.07697 6.27863C8.30707 6.44485 8.46203 6.4496 8.69213 6.28813C9.32606 5.84645 9.97409 5.43327 10.6174 5.00584C10.6879 4.95835 10.7489 4.90136 10.8146 4.84912ZM17.1071 4.77313C17.1822 4.85387 17.2151 4.90611 17.2573 4.93461C17.9288 5.39053 18.6003 5.83695 19.2671 6.29763C19.4831 6.44485 19.6616 6.43535 19.8776 6.28813C20.535 5.83695 21.2065 5.40003 21.8733 4.95835C21.9156 4.92986 21.9438 4.87761 22.0236 4.77313H17.1071ZM11.3922 6.64907H16.4496C16.3745 6.56358 16.3416 6.51609 16.2994 6.48285C15.5762 5.98893 14.8484 5.49501 14.1158 5.01059C14.0454 4.9631 13.8904 4.9821 13.8106 5.03434C13.3739 5.30979 12.9465 5.59949 12.5145 5.8892C12.1623 6.12666 11.8149 6.36412 11.3922 6.64907ZM28.3536 4.77313C28.3442 4.80163 28.3395 4.83012 28.3301 4.85862C29.1049 5.37628 29.8797 5.89394 30.6592 6.40211C30.7203 6.4401 30.8564 6.41636 30.9222 6.37362C31.6313 5.91294 32.3356 5.43802 33.04 4.96785C33.0823 4.93935 33.101 4.88236 33.1997 4.74939C31.5326 4.73514 29.9408 4.70664 28.3536 4.78263V4.77313ZM43.8028 35.5622C43.77 35.5575 43.7418 35.548 43.7089 35.5433C43.1877 36.3221 42.6618 37.101 42.1499 37.8894C42.1076 37.9558 42.1311 38.1031 42.1781 38.1791C42.5397 38.7395 42.9153 39.2904 43.2863 39.846C43.4366 40.0692 43.5868 40.2877 43.7371 40.5062L43.8028 40.4872V35.5622ZM22.6763 6.59208C22.6763 6.59208 22.6998 6.63007 22.7092 6.64907H27.6868C27.5647 6.54934 27.5083 6.50184 27.4473 6.4591C26.7852 6.01268 26.109 5.5805 25.4609 5.11033C25.2214 4.93935 25.0618 4.95835 24.8411 5.11033C24.2635 5.51401 23.6765 5.89869 23.0942 6.28813C22.9534 6.38311 22.8125 6.4876 22.6716 6.58733L22.6763 6.59208ZM41.9527 29.8205V34.8024C42.0513 34.7026 42.1217 34.6551 42.164 34.5934C42.5866 33.9523 42.9858 33.3016 43.4272 32.6747C43.6056 32.423 43.6103 32.2378 43.446 31.9908C43.0045 31.3212 42.5772 30.6373 42.1405 29.9629C42.1123 29.9202 42.056 29.8964 41.9527 29.8205ZM41.9433 46.115C41.9433 46.115 41.9902 46.153 42.009 46.172C42.0795 46.0817 42.1593 46.001 42.225 45.906C42.6571 45.2506 43.0797 44.5905 43.5211 43.9446C43.6056 43.8164 43.6479 43.7309 43.5493 43.5837C43.0656 42.8475 42.596 42.0972 42.117 41.361C42.0936 41.323 42.0278 41.3088 41.9433 41.266V46.1245V46.115ZM41.9433 23.314C41.9902 23.3615 42.0325 23.4043 42.0795 23.4518C42.1076 23.3663 42.117 23.2713 42.164 23.1953C42.5913 22.5257 43.0233 21.8608 43.4647 21.2006C43.6009 21.0012 43.615 20.8492 43.4788 20.6402C43.0327 19.9611 42.6007 19.2677 42.1593 18.5838C42.1264 18.5316 42.0513 18.4983 41.9433 18.4129V23.314ZM37.2662 6.64432C37.2662 6.04117 37.2709 5.47127 37.2569 4.90611C37.2569 4.84912 37.1348 4.73514 37.0831 4.73989C36.8108 4.78738 36.5102 4.80638 36.2895 4.9441C35.5147 5.42852 34.7681 5.96043 34.0073 6.47335C33.9463 6.51134 33.8899 6.55883 33.7819 6.63957H37.2662V6.64432ZM1.86909 6.64432H5.28295C5.2266 6.57783 5.20782 6.54459 5.17965 6.52559C4.37196 5.97943 3.57367 5.41902 2.74721 4.89661C2.54998 4.77313 2.26823 4.77313 2.01935 4.73989C1.97709 4.73514 1.87378 4.83962 1.87378 4.89661C1.86439 5.46652 1.86909 6.03642 1.86909 6.64907V6.64432ZM54.0491 53.2056C54.0397 52.6784 53.5983 52.2747 53.0489 52.289C52.57 52.2985 52.1755 52.7401 52.1896 53.253C52.2037 53.7945 52.6216 54.1981 53.1522 54.1839C53.6312 54.1696 54.0632 53.709 54.0538 53.2056H54.0491ZM48.4564 53.2103C48.4564 53.7422 48.9025 54.1839 49.4284 54.1696C49.9027 54.1554 50.3629 53.6947 50.3535 53.2436C50.3441 52.7354 49.8652 52.2795 49.358 52.2842C48.8743 52.289 48.4564 52.7211 48.4564 53.2103ZM50.3394 49.4062C50.3394 49.9713 50.7151 50.3513 51.2692 50.3513C51.7576 50.3513 52.1943 49.9191 52.1896 49.4394C52.1849 48.936 51.7482 48.4991 51.2551 48.5038C50.748 48.5038 50.3394 48.9075 50.3394 49.4109V49.4062ZM50.9123 4.84912C50.856 4.80163 50.8325 4.76838 50.8137 4.76838C50.0765 4.75888 49.3345 4.74464 48.5973 4.74939C48.5409 4.74939 48.447 4.87287 48.4423 4.93935C48.4282 5.41902 48.4329 5.89394 48.4329 6.48285C49.2923 5.91769 50.0906 5.39053 50.9076 4.84912H50.9123ZM51.5604 6.58258C51.5604 6.58258 51.5838 6.62057 51.5979 6.63957H54.0257V4.93461C53.171 5.50926 52.368 6.04592 51.565 6.58258H51.5604ZM43.6385 55.1385C43.0844 54.2551 42.5537 53.443 41.9762 52.6641C41.9339 53.4478 41.9292 54.2029 41.9433 54.958C41.9433 55.0198 42.0748 55.129 42.1452 55.1337C42.6195 55.148 43.0938 55.1432 43.6385 55.1432V55.1385ZM41.9245 11.9539C41.9949 11.9302 42.0419 11.9349 42.0607 11.9112C42.3471 11.4933 42.6336 11.0753 42.9153 10.6527C42.9388 10.6194 42.9059 10.5007 42.8965 10.5007C42.5913 10.4912 42.2861 10.4912 41.9809 10.4959C41.9621 10.4959 41.9292 10.5577 41.9292 10.5909C41.9292 11.0373 41.9292 11.4838 41.9292 11.9587L41.9245 11.9539Z" fill="white"/>
<path d="M27.0294 51.339C27.6211 51.339 28.1799 51.339 28.7387 51.3485C28.7857 51.3485 28.8655 51.4577 28.8655 51.5195C28.8749 52.0086 28.8655 52.5025 28.8655 52.9917C28.8655 53.1627 28.8044 53.2387 28.626 53.2339C28.1705 53.2244 27.7103 53.2244 27.2548 53.2339C27.0717 53.2339 27.02 53.1674 27.02 52.9917C27.0294 52.4598 27.02 51.9326 27.02 51.3342L27.0294 51.339Z" fill="white"/>
<path d="M27.9496 49.3918C27.7242 49.3918 27.4988 49.3775 27.2781 49.3918C27.0949 49.406 27.0292 49.3253 27.0292 49.1591C27.0292 48.6746 27.0198 48.195 27.0386 47.7106C27.0386 47.6441 27.156 47.5253 27.2217 47.5253C27.7101 47.5111 28.1938 47.5111 28.6821 47.5253C28.7479 47.5253 28.8606 47.6441 28.8653 47.7058C28.8794 48.1997 28.87 48.6936 28.87 49.1828C28.87 49.3538 28.8089 49.4298 28.6211 49.4108C28.4004 49.387 28.175 49.406 27.9496 49.406V49.387V49.3918Z" fill="white"/>
<path d="M27.9827 43.7259C28.1987 43.7259 28.41 43.7354 28.626 43.7259C28.8091 43.7164 28.889 43.7687 28.8843 43.9729C28.8702 44.424 28.8749 44.88 28.8796 45.3311C28.8796 45.5259 28.8279 45.6161 28.6119 45.6066C28.1658 45.5876 27.715 45.5923 27.2689 45.6018C27.0858 45.6018 27.0247 45.5354 27.0247 45.3596C27.0247 44.8895 27.0294 44.4145 27.02 43.9444C27.02 43.7592 27.1092 43.7259 27.2548 43.7307C27.499 43.7307 27.7432 43.7307 27.9827 43.7307V43.7259Z" fill="white"/>
<path d="M27.0196 40.8622C27.0196 40.6248 27.029 40.392 27.0196 40.1546C27.0102 39.9884 27.0807 39.9219 27.2403 39.9219C27.724 39.9219 28.2124 39.9219 28.696 39.9409C28.7618 39.9409 28.8698 40.0644 28.8698 40.1308C28.8839 40.6105 28.8698 41.0949 28.8745 41.5746C28.8745 41.7313 28.8134 41.8073 28.6491 41.8073C28.1842 41.8073 27.7146 41.8026 27.2497 41.8121C27.0666 41.8121 27.0102 41.7456 27.0149 41.5699C27.0243 41.3324 27.0149 41.0997 27.0149 40.8622H27.0196Z" fill="white"/>
<path d="M28.8745 37.0628C28.8745 37.3002 28.8745 37.5377 28.8745 37.7704C28.8745 37.9414 28.8134 38.0221 28.6303 38.0174C28.1654 38.0126 27.6958 38.0269 27.2309 38.0126C27.1605 38.0126 27.0337 37.8844 27.029 37.8132C27.0102 37.3192 27.0149 36.8301 27.029 36.3362C27.029 36.2697 27.1464 36.1462 27.2121 36.1462C27.7099 36.1319 28.2029 36.1319 28.7007 36.1462C28.7618 36.1462 28.8557 36.2744 28.8651 36.3504C28.8885 36.5831 28.8745 36.8206 28.8745 37.058V37.0628Z" fill="white"/>
<path d="M17.6655 40.8717C17.6655 41.0996 17.6561 41.3228 17.6655 41.5508C17.6749 41.7218 17.6232 41.8073 17.4401 41.8073C16.9846 41.8073 16.5244 41.8073 16.0689 41.812C15.8482 41.812 15.7919 41.717 15.8013 41.5033C15.82 41.0616 15.82 40.62 15.8107 40.1783C15.8107 40.0121 15.867 39.9361 16.022 39.9361C16.5056 39.9361 16.994 39.9266 17.4777 39.9503C17.5434 39.9503 17.6514 40.0833 17.6608 40.164C17.6843 40.3968 17.6702 40.6342 17.6702 40.8717H17.6608H17.6655Z" fill="white"/>
<path d="M23.296 40.8717C23.296 40.6343 23.3007 40.3968 23.296 40.1641C23.2913 40.0026 23.3477 39.9266 23.512 39.9266C23.991 39.9314 24.4653 39.9266 24.9443 39.9456C25.0147 39.9456 25.1368 40.0739 25.1415 40.1451C25.1603 40.6248 25.1603 41.1092 25.1415 41.5936C25.1415 41.6648 25.0147 41.7931 24.9396 41.7978C24.4653 41.8168 23.9863 41.8073 23.5073 41.8168C23.3336 41.8168 23.2866 41.7408 23.2913 41.5841C23.296 41.3466 23.2913 41.1139 23.2913 40.8765L23.296 40.8717Z" fill="white"/>
<path d="M16.7407 34.1895C16.6609 34.1895 16.5858 34.1895 16.5059 34.1895C16.0457 34.1895 15.8156 33.9599 15.8156 33.5009C15.8156 33.1969 15.825 32.893 15.8156 32.589C15.8063 32.3943 15.8908 32.3231 16.0692 32.3231C16.5341 32.3231 17.0037 32.3136 17.4686 32.3326C17.539 32.3326 17.6611 32.4608 17.6658 32.5368C17.6799 33.0164 17.6658 33.5009 17.6705 33.9805C17.6705 34.1325 17.6188 34.1942 17.4686 34.1895C17.2244 34.1847 16.9849 34.1895 16.7407 34.1895Z" fill="white"/>
<path d="M15.8154 48.4752C15.8154 48.2377 15.8248 48.005 15.8154 47.7675C15.806 47.5918 15.867 47.5111 16.0455 47.5158C16.5198 47.5206 16.9987 47.5253 17.473 47.5253C17.6233 47.5253 17.6749 47.5918 17.6749 47.739C17.6702 48.2187 17.6655 48.7031 17.6749 49.1828C17.6749 49.349 17.6139 49.406 17.4495 49.4013C16.994 49.4013 16.5385 49.4013 16.0783 49.4155C15.8952 49.4203 15.8389 49.3538 15.8436 49.178C15.8529 48.9406 15.8436 48.7079 15.8436 48.4704C15.8342 48.4704 15.8248 48.4704 15.8154 48.4704V48.4752Z" fill="white"/>
<path d="M21.4036 40.8527C21.4036 41.0379 21.4036 41.2279 21.4036 41.4131C21.4036 41.7883 21.4036 41.7931 21.0185 41.7978C20.6194 41.8026 20.2202 41.7978 19.8211 41.8121C19.6098 41.8168 19.53 41.7456 19.544 41.5224C19.5675 41.0807 19.5675 40.639 19.5534 40.1926C19.5487 39.9884 19.6192 39.9266 19.8023 39.9266C20.2719 39.9266 20.7368 39.9361 21.2064 39.9314C21.3801 39.9314 21.4224 40.0121 21.413 40.1688C21.4036 40.3968 21.413 40.62 21.413 40.848L21.4036 40.8527Z" fill="white"/>
<path d="M17.6706 44.6758C17.6706 44.9133 17.6894 45.1507 17.6612 45.3834C17.6518 45.4594 17.5344 45.5829 17.464 45.5829C16.9897 45.5972 16.5107 45.5829 16.0318 45.5877C15.8815 45.5877 15.8251 45.5259 15.8251 45.3787C15.8251 44.9085 15.8251 44.4336 15.8064 43.9634C15.8017 43.7877 15.8768 43.7307 16.0271 43.7307C16.5154 43.7307 16.9991 43.7307 17.4875 43.745C17.5532 43.745 17.6565 43.8827 17.6659 43.9634C17.6894 44.1961 17.6753 44.4336 17.6753 44.6711L17.6706 44.6758Z" fill="white"/>
<path d="M19.591 45.5971C19.5816 45.4927 19.5675 45.4119 19.5675 45.3264C19.5628 44.8753 19.5675 44.4241 19.5487 43.9729C19.544 43.8114 19.5816 43.726 19.7459 43.726C20.239 43.726 20.7368 43.726 21.2298 43.7449C21.2909 43.7449 21.4036 43.8684 21.4036 43.9349C21.4177 44.4146 21.4036 44.899 21.4036 45.3787C21.4036 45.5212 21.3707 45.6019 21.211 45.5971C20.6757 45.5924 20.1451 45.5971 19.5863 45.5971H19.591Z" fill="white"/>
<path d="M25.1414 37.0723C25.1414 37.3097 25.1414 37.5472 25.1414 37.7799C25.1414 37.9414 25.0757 38.0079 24.916 38.0079C24.4465 38.0079 23.9816 38.0079 23.512 38.0126C23.3429 38.0126 23.2866 37.9461 23.2913 37.7847C23.3054 37.3003 23.3007 36.8206 23.3242 36.3362C23.3242 36.2649 23.4509 36.1414 23.5261 36.1414C23.991 36.1224 24.4605 36.1319 24.9301 36.1272C25.0945 36.1272 25.1555 36.1889 25.1461 36.3552C25.1367 36.5926 25.1461 36.8301 25.1461 37.0628L25.1414 37.0723Z" fill="white"/>
<path d="M20.4924 34.1896C20.2576 34.1896 20.0228 34.1801 19.7927 34.1896C19.619 34.1991 19.5533 34.1469 19.5579 33.9569C19.5767 33.5057 19.5767 33.0498 19.5579 32.5986C19.5486 32.3897 19.619 32.3089 19.8209 32.3137C20.2764 32.3184 20.7366 32.3184 21.1968 32.3137C21.3752 32.3137 21.4316 32.3849 21.4222 32.5654C21.4034 33.0166 21.4034 33.4725 21.4081 33.9237C21.4081 34.1136 21.3611 34.1944 21.1639 34.1849C20.9385 34.1706 20.7178 34.1849 20.4924 34.1849C20.4924 34.1849 20.4924 34.1849 20.4924 34.1896Z" fill="white"/>
<path d="M19.5723 51.3438H21.3896V53.2339C20.8261 53.2339 20.2672 53.2387 19.7084 53.2244C19.6615 53.2244 19.5817 53.0915 19.5817 53.0155C19.5723 52.4741 19.577 51.9374 19.577 51.3438H19.5723Z" fill="white"/>
<path d="M19.5626 37.077C19.5626 36.8586 19.5814 36.6401 19.5579 36.4264C19.5344 36.1984 19.6283 36.1272 19.835 36.1319C20.2811 36.1414 20.7319 36.1414 21.178 36.1367C21.347 36.1367 21.4174 36.1937 21.4128 36.3789C21.3987 36.8396 21.3987 37.305 21.4034 37.7704C21.4034 37.9509 21.3517 38.0126 21.1686 38.0126C20.7131 38.0031 20.2529 38.0126 19.7974 38.0221C19.6002 38.0269 19.5391 37.9509 19.5532 37.7609C19.5673 37.5377 19.5532 37.3097 19.5532 37.0818L19.5626 37.077Z" fill="white"/>
<path d="M23.3148 45.6019C23.3148 45.146 23.3148 44.7233 23.3148 44.3054C23.3195 43.7402 23.3241 43.7402 23.8736 43.7355C24.221 43.7355 24.5732 43.7355 24.9207 43.7307C25.0804 43.7307 25.1461 43.7782 25.1414 43.9492C25.132 44.4193 25.132 44.8943 25.1367 45.3644C25.1367 45.5117 25.1086 45.6066 24.9301 45.6019C24.4042 45.5924 23.8829 45.6019 23.3101 45.6019H23.3148Z" fill="white"/>
<path d="M23.3146 33.273C23.3146 33.026 23.2958 32.7791 23.324 32.5369C23.3334 32.4561 23.4508 32.3326 23.5212 32.3279C24.0049 32.3089 24.4933 32.3089 24.9769 32.3231C25.0333 32.3231 25.1319 32.4371 25.1319 32.4989C25.146 32.988 25.1507 33.482 25.1319 33.9711C25.1319 34.0471 25.0098 34.1753 24.9441 34.1753C24.4604 34.1943 23.972 34.1848 23.4884 34.1943C23.324 34.1943 23.2911 34.1183 23.2958 33.9759C23.3005 33.7384 23.2958 33.5057 23.2958 33.2682C23.3005 33.2682 23.3052 33.2682 23.3099 33.2682L23.3146 33.273Z" fill="white"/>
<path d="M30.7434 44.6378C30.7434 44.4099 30.7622 44.1867 30.7387 43.9635C30.7246 43.8067 30.7716 43.7307 30.9125 43.7307C31.4149 43.7307 31.9221 43.726 32.4245 43.7402C32.4809 43.7402 32.5748 43.859 32.5795 43.9255C32.5936 44.4146 32.5936 44.9085 32.5748 45.3977C32.5748 45.4689 32.4433 45.5877 32.3729 45.5877C31.8986 45.6067 31.4243 45.5877 30.9453 45.5972C30.781 45.5972 30.7528 45.5117 30.7528 45.374C30.7528 45.127 30.7528 44.8848 30.7528 44.6378C30.7528 44.6378 30.7434 44.6378 30.7387 44.6378H30.7434Z" fill="white"/>
<path d="M20.4691 49.4013C19.8743 49.4171 19.5784 49.1274 19.5815 48.5322C19.5815 48.2757 19.5815 48.0193 19.5675 47.7628C19.5534 47.6014 19.5956 47.5159 19.7647 47.5159C20.2531 47.5159 20.7367 47.5254 21.2251 47.5254C21.3801 47.5254 21.4176 47.6061 21.4176 47.7486C21.4082 48.2235 21.4035 48.6937 21.4129 49.1686C21.4129 49.3491 21.3519 49.4108 21.1734 49.4013C20.9386 49.3871 20.7085 49.4013 20.4738 49.4013H20.4691Z" fill="white"/>
<path d="M30.7387 40.8717C30.7387 40.6343 30.7246 40.3968 30.7481 40.1641C30.7575 40.0834 30.8608 39.9456 30.9265 39.9456C31.4337 39.9266 31.9361 39.9314 32.4433 39.9456C32.4949 39.9456 32.5794 40.0739 32.5794 40.1451C32.5888 40.6153 32.5794 41.0902 32.5794 41.5604C32.5794 41.7266 32.5372 41.8121 32.3447 41.8073C31.8892 41.7978 31.429 41.8073 30.9735 41.8168C30.7762 41.8216 30.7199 41.7408 30.734 41.5509C30.7481 41.3277 30.734 41.0997 30.734 40.8717H30.7387Z" fill="white"/>
<path d="M17.6703 37.0723C17.6703 37.3098 17.6844 37.5472 17.6609 37.78C17.6516 37.8607 17.5435 37.9889 17.4731 37.9937C16.9988 38.0127 16.5199 37.9984 16.0409 38.0032C15.8765 38.0032 15.8249 37.9272 15.8249 37.7657C15.8249 37.324 15.8249 36.8776 15.8061 36.4359C15.7967 36.227 15.8577 36.1225 16.0831 36.1272C16.5386 36.1367 16.9988 36.1367 17.4543 36.132C17.6187 36.132 17.6797 36.1937 17.6703 36.3599C17.6562 36.5974 17.6703 36.8349 17.6703 37.0676V37.0723Z" fill="white"/>
<path d="M30.7764 51.339C31.3446 51.339 31.9034 51.339 32.4622 51.3485C32.5044 51.3485 32.5749 51.472 32.5749 51.5385C32.5843 52.0324 32.589 52.5215 32.5749 53.0155C32.5749 53.0914 32.4763 53.2244 32.4199 53.2244C31.8799 53.2387 31.3352 53.2339 30.7764 53.2339V51.339Z" fill="white"/>
<path d="M23.3196 51.3531H25.1369C25.1369 51.9373 25.1369 52.512 25.1275 53.0866C25.1275 53.1341 25.0195 53.2243 24.9584 53.2243C24.4748 53.2338 23.9864 53.2386 23.5027 53.2243C23.437 53.2243 23.329 53.0819 23.329 53.0059C23.3149 52.4692 23.3196 51.9278 23.3196 51.3579V51.3531Z" fill="white"/>
<path d="M17.6517 51.3485V53.2339C17.0788 53.2339 16.5294 53.2339 15.9753 53.2244C15.9283 53.2244 15.8391 53.1152 15.8391 53.0535C15.8297 52.5405 15.8297 52.0276 15.8391 51.5195C15.8391 51.4625 15.9283 51.358 15.9799 51.3532C16.5294 51.3437 17.0835 51.3438 17.647 51.3438L17.6517 51.3485Z" fill="white"/>
<path d="M30.7483 49.4013C30.7483 48.7981 30.7436 48.2377 30.7577 47.682C30.7577 47.625 30.8986 47.5206 30.9737 47.5206C31.448 47.5063 31.927 47.5111 32.4012 47.5253C32.4623 47.5253 32.5703 47.6488 32.575 47.7153C32.5891 48.2045 32.5891 48.6984 32.575 49.1923C32.575 49.2635 32.4858 49.3918 32.4388 49.3918C31.8988 49.406 31.3541 49.4013 30.7483 49.4013Z" fill="white"/>
<path d="M25.1413 48.4609C25.1413 48.6984 25.1367 48.9358 25.1413 49.1686C25.146 49.3443 25.0803 49.4108 24.9019 49.406C24.4558 49.3918 24.005 49.3823 23.5589 49.3918C23.3804 49.3918 23.31 49.349 23.3147 49.1638C23.3194 48.6794 23.31 48.1997 23.3241 47.7153C23.3241 47.6488 23.4368 47.5301 23.5025 47.5253C23.9909 47.5111 24.4745 47.5111 24.9629 47.5253C25.024 47.5253 25.132 47.6441 25.1367 47.7153C25.1601 47.9575 25.146 48.2092 25.146 48.4514L25.1413 48.4609Z" fill="white"/>
<path d="M32.5889 37.0628C32.5889 37.3098 32.603 37.5567 32.5795 37.7989C32.5701 37.8749 32.4527 37.9937 32.3823 37.9984C31.908 38.0174 31.429 38.0079 30.9547 38.0174C30.7951 38.0174 30.7575 37.9414 30.7575 37.7989C30.7575 37.3193 30.7387 36.8348 30.7528 36.3552C30.7528 36.2792 30.8749 36.1415 30.9406 36.1415C31.4337 36.1272 31.9315 36.132 32.4292 36.151C32.4856 36.151 32.5748 36.2839 32.5842 36.3599C32.603 36.5926 32.5936 36.8301 32.5936 37.0676L32.5889 37.0628Z" fill="white"/>
</g>
<defs>
<clipPath id="clip0_659_3378">
<rect width="55.9038" height="57" fill="white"/>
</clipPath>
</defs>
</svg>
