<svg width="40" height="41" viewBox="0 0 40 41" fill="none" xmlns="http://www.w3.org/2000/svg">
<g clip-path="url(#clip0_1194_4544)">
<path d="M1.334 20.5339C1.76743 20.5339 2.17398 20.5305 2.58389 20.5407C2.62421 20.5407 2.68469 20.6227 2.70149 20.6774C2.80565 21.0292 3.10804 21.2376 3.4642 21.1898C3.76995 21.1488 4.01186 20.855 4.01858 20.5168C4.0253 20.1821 3.79347 19.8883 3.45076 19.8404C3.0946 19.7892 2.79557 19.6696 2.70485 19.2734C2.67797 19.1504 2.68469 19.0206 2.68469 18.8942C2.68469 14.7368 2.68469 10.5828 2.68805 6.42543C2.68805 6.21022 2.63429 6.14873 2.42262 6.15215C1.89847 6.16239 1.37768 6.14531 0.853528 6.13848C0.24874 6.1214 0.00346466 5.87203 0.00346466 5.25713C0.00346466 4.47826 0.00346466 3.69597 0.00346466 2.9171C0.00346466 2.33978 0.282339 2.05283 0.850168 2.04258C1.0316 2.04258 1.21304 2.04258 1.39448 2.04258C9.70023 2.04258 18.006 2.04258 26.3117 2.04258C26.4159 2.04258 26.5201 2.04258 26.6511 2.04258C26.6578 1.95376 26.6679 1.87519 26.6712 1.79321C26.678 1.41744 26.6712 1.04166 26.6948 0.665894C26.7183 0.293539 26.9031 0.102238 27.2592 0.0339159C27.3668 0.0134193 27.481 -0.000245076 27.5919 -0.000245076C29.6616 -0.000245076 31.7347 -0.00707727 33.8044 0.00658712C34.0026 0.00658712 34.2177 0.0783252 34.3957 0.17056C34.6007 0.279875 34.6679 0.505337 34.6712 0.734216C34.678 1.10315 34.6914 1.47209 34.6746 1.84103C34.6679 2.005 34.7048 2.04941 34.8661 2.046C36.2403 2.03916 37.6146 2.03917 38.9888 2.04258C39.1064 2.04258 39.2273 2.046 39.3416 2.06649C39.7817 2.13823 39.9934 2.37053 40.0001 2.82487C40.0102 3.66864 40.0102 4.51242 40.0001 5.3562C39.9934 5.85495 39.7347 6.1214 39.2441 6.12482C37.8565 6.13507 36.4688 6.12482 35.0812 6.12823C34.8012 6.12823 34.66 6.27057 34.6578 6.55525C34.6544 7.30679 34.4562 7.5015 33.7069 7.49809C33.4281 7.49809 33.1492 7.50492 32.8703 7.49126C32.699 7.48101 32.6519 7.55275 32.6553 7.7133C32.662 8.031 32.6586 8.35211 32.6586 8.66981C32.6586 17.5995 32.6586 26.5257 32.6586 35.4554C32.6586 36.8014 32.6654 38.1507 32.6754 39.4967C32.6754 39.5479 32.7326 39.6436 32.7662 39.6436C33.119 39.6538 33.4718 39.6504 33.8649 39.6504C33.3878 39.0355 33.2332 38.3796 33.4449 37.6691C33.6566 36.9585 34.1639 36.5315 34.8527 36.2992C34.6444 35.8141 34.6578 35.3256 34.809 34.8474C34.9434 34.4238 35.2189 34.0924 35.5818 33.843C36.2807 33.3648 37.2181 33.3989 37.8497 33.9045C38.599 34.5023 38.8779 35.4691 38.5016 36.2924C39.1836 36.5349 39.6776 36.9756 39.8892 37.6964C40.0975 38.4104 39.9295 39.0457 39.4524 39.6504H39.9867V40.9963H0.0169044V39.6846C0.0169044 39.6846 0.0303441 39.6641 0.0404239 39.6641C0.349538 39.7153 0.541054 39.5342 0.73593 39.3293C1.58263 38.4479 2.43942 37.5734 3.29284 36.6989C3.36676 36.6237 3.44068 36.5486 3.51795 36.4768C3.86067 36.1591 4.1765 36.1626 4.50913 36.4973C5.00304 36.9961 5.49023 37.5051 5.98078 38.0073C6.48141 38.5197 6.9854 39.0321 7.48939 39.5411C7.53643 39.5889 7.60363 39.6436 7.66075 39.647C7.95978 39.6606 8.25882 39.6606 8.55785 39.647C8.59145 39.647 8.65193 39.5411 8.65193 39.483C8.66201 38.9433 8.66873 38.4069 8.66873 37.8672C8.66873 31.0726 8.66873 24.278 8.66873 17.4868C8.66873 14.7061 8.66873 11.9254 8.66201 9.14806C8.66201 8.93285 8.72921 8.88161 8.92072 8.89186C9.1996 8.90552 9.47847 8.91235 9.75735 8.89869C9.92535 8.89186 9.9791 8.94993 9.97574 9.1139C9.96902 9.87228 9.97574 10.6306 9.95558 11.389C9.95222 11.5906 10.006 11.6452 10.1975 11.6418C12.7578 11.635 15.3147 11.635 17.8749 11.635C18.0765 11.635 18.2781 11.6555 18.4797 11.6486C18.6108 11.6452 18.6511 11.6931 18.6477 11.8195C18.641 12.1371 18.6377 12.4583 18.6477 12.776C18.6477 12.9331 18.594 12.9809 18.4394 12.9775C17.0518 12.9741 15.6641 12.9775 14.2765 12.9775C12.909 12.9775 11.5415 12.9843 10.1773 12.9775C10.0026 12.9775 9.95558 13.0287 9.95894 13.2098C9.97574 13.7427 9.97238 14.2722 9.9623 14.8051C9.9623 14.9759 9.99254 15.0511 10.1773 15.0477C11.3701 15.0408 12.5629 15.0374 13.7557 15.0408C13.9539 15.0408 14.0211 14.9828 14.0144 14.7778C13.9942 14.361 14.0077 14.3576 14.4142 14.3576C14.6595 14.3576 14.9014 14.3713 15.1467 14.3679C15.2878 14.3679 15.3449 14.4089 15.3315 14.566C15.2912 15.0852 15.2844 15.034 15.7515 15.034C16.8737 15.034 17.9959 15.0238 19.1181 15.034C19.2861 15.034 19.3399 14.9896 19.3365 14.8222C19.3298 14.5045 19.3432 14.1834 19.3399 13.8657C19.3399 13.7256 19.3836 13.6641 19.5381 13.671C19.8371 13.6881 20.1362 13.6881 20.4386 13.6812C20.6066 13.6778 20.6738 13.7256 20.667 13.9101C20.657 14.221 20.6738 14.5352 20.6704 14.8461C20.6704 14.9691 20.7074 15.0306 20.8384 15.0306C22.0849 15.0306 23.3348 15.0306 24.5814 15.0272C24.6015 15.0272 24.6217 15.0135 24.6586 15.0033C24.6654 14.8905 24.6755 14.771 24.6755 14.6514C24.6755 13.9408 24.6687 13.2337 24.6654 12.5232C24.6654 12.4207 24.6586 12.3114 24.8031 12.3114C25.1929 12.3114 25.5826 12.3114 25.9925 12.3114C25.9925 12.4685 25.9925 12.5881 25.9925 12.7076C25.9925 21.0839 25.9925 29.4602 25.9925 37.833C25.9925 38.3796 26.0026 38.9262 25.9993 39.4693C25.9993 39.6094 26.0429 39.6606 26.1773 39.6606C26.9568 39.6606 27.7397 39.6572 28.5192 39.6606C28.6872 39.6606 28.6939 39.5684 28.6939 39.4454C28.6939 38.8579 28.6939 38.2669 28.6939 37.6793C28.6939 28.0118 28.6939 18.3476 28.6939 8.68006C28.6939 8.36919 28.6906 8.05491 28.6973 7.74405C28.7007 7.58691 28.6603 7.51175 28.489 7.51175C28.1395 7.51517 27.7935 7.50492 27.444 7.49467C26.9199 7.48101 26.7149 7.27263 26.688 6.74313C26.6847 6.64406 26.678 6.545 26.678 6.44593C26.678 6.15215 26.678 6.14873 26.3991 6.14873C20.751 6.14531 15.103 6.1419 9.45495 6.13848C7.76827 6.13848 6.08158 6.13506 4.39154 6.13506C3.97154 6.13506 3.97491 6.13848 3.97491 6.56549C3.97491 10.4223 3.97491 14.279 3.96483 18.1358C3.96483 18.4194 4.00178 18.5833 4.28066 18.7405C5.2584 19.2973 5.57087 20.4553 5.06352 21.4597C4.99632 21.5963 4.89553 21.7159 4.79137 21.873C4.82833 21.9243 4.88881 21.996 4.94593 22.0746C5.45664 22.7749 5.97742 23.4683 6.47469 24.1789C6.57213 24.3189 6.63261 24.5171 6.63597 24.6913C6.65277 25.5487 6.64269 26.4062 6.64605 27.267C6.64605 27.5164 6.56541 27.7146 6.38734 27.8922C5.98078 28.2919 5.58431 28.7018 5.18784 29.1083C5.03328 29.2655 4.86193 29.3748 4.63681 29.3748C3.74643 29.3748 2.85269 29.3782 1.96231 29.3577C1.81447 29.3543 1.63975 29.2586 1.52551 29.1527C1.12232 28.7701 0.74265 28.3636 0.352898 27.9673C0.110982 27.718 -0.00325521 27.4344 0.000104726 27.086C0.0101845 26.3618 0.0101845 25.6376 0.000104726 24.9168C-0.00325521 24.5991 0.0740232 24.3155 0.262179 24.0627C0.762809 23.3829 1.26008 22.6963 1.76407 22.0199C1.85143 21.9038 1.86487 21.8389 1.76407 21.7159C1.48855 21.3811 1.37768 20.9746 1.33064 20.5339H1.334ZM9.98246 29.2689C9.98246 29.3953 9.98246 29.5251 9.98246 29.6515C9.98246 32.8934 9.98246 36.1318 9.98246 39.3737C9.98246 39.6572 9.97574 39.6606 10.2546 39.6606C14.9686 39.6606 19.6826 39.6606 24.3966 39.6606C24.6754 39.6606 24.6755 39.6606 24.6755 39.3771C24.6755 38.6768 24.6755 37.9731 24.6755 37.2728C24.6755 34.6151 24.6755 31.9539 24.6755 29.2962C24.6755 27.8512 24.6822 26.4028 24.6855 24.9578C24.6855 24.6127 24.6855 24.6093 24.3462 24.6059C22.9921 24.6025 21.6414 24.5888 20.2874 24.6059C19.901 24.6093 19.6087 24.4795 19.3466 24.1994C18.6746 23.4991 17.9825 22.8193 17.3105 22.119C17.1492 21.9516 16.9846 21.8935 16.7594 21.8935C16.0639 21.9004 15.3651 21.9038 14.6696 21.873C14.2361 21.8525 14.0278 21.5929 14.0245 21.1454C14.0177 20.4656 14.0144 19.7858 14.0211 19.1026C14.0211 18.9557 13.9741 18.9181 13.843 18.9181C12.6099 18.9181 11.3735 18.9113 10.1404 18.901C10.0194 18.901 9.97574 18.9454 9.9791 19.0582C9.98246 19.2085 9.99254 19.3554 9.99254 19.5057C9.99254 22.7612 9.99254 26.0168 9.99254 29.2689H9.98246ZM20.667 19.8302C20.667 19.8302 20.6637 19.8302 20.6603 19.8302C20.6603 20.9063 20.6603 21.9858 20.6603 23.0618C20.6603 23.1985 20.6906 23.2463 20.835 23.2463C22.0547 23.2395 23.2744 23.2395 24.494 23.2463C24.6587 23.2463 24.699 23.1814 24.6922 23.0345C24.6822 22.7305 24.6754 22.4264 24.6721 22.119C24.6721 20.2982 24.6654 18.474 24.6721 16.6532C24.6721 16.4551 24.5982 16.4175 24.4302 16.4209C23.2441 16.4244 22.0614 16.4244 20.8754 16.4209C20.7074 16.4209 20.6637 16.4756 20.667 16.643C20.6738 17.7054 20.6704 18.7712 20.6704 19.8336L20.667 19.8302ZM19.2828 22.259C19.3029 22.2522 19.3197 22.2454 19.3399 22.2385C19.3399 21.9926 19.3399 21.75 19.3399 21.5041C19.3399 19.8883 19.3365 18.2725 19.3399 16.6566C19.3399 16.4893 19.2962 16.4175 19.1181 16.4175C17.9186 16.4209 16.7191 16.4175 15.523 16.4107C15.3516 16.4107 15.318 16.4722 15.318 16.6361C15.3248 17.8625 15.3214 19.0889 15.3147 20.3153C15.3147 20.4827 15.3651 20.5442 15.5264 20.5407C15.8825 20.5339 16.2387 20.5373 16.5915 20.5407C17.7674 20.551 17.4751 20.4553 18.2647 21.2342C18.4898 21.4563 18.7149 21.6783 18.94 21.9004C19.0576 22.0165 19.1719 22.1395 19.2861 22.2625L19.2828 22.259ZM1.32728 25.313C1.32728 25.8767 1.32056 26.4301 1.334 26.9801C1.334 27.0587 1.40792 27.1441 1.46504 27.209C1.63975 27.4003 1.83463 27.5745 2.00262 27.7726C2.16726 27.9673 2.36214 28.0391 2.60741 28.0322C3.145 28.022 3.68259 28.0322 4.21682 28.0186C4.32098 28.0186 4.4453 27.9605 4.52593 27.8888C4.76449 27.6736 4.99632 27.4447 5.21136 27.2021C5.28864 27.1167 5.35248 26.9835 5.35584 26.8708C5.37264 26.3584 5.36256 25.8459 5.36256 25.3096H1.32728V25.313ZM32.0035 1.36278C32.0035 1.85128 32.0035 2.31245 32.0035 2.77363C32.0001 3.43293 31.9967 4.09224 31.9833 4.75155C31.9766 5.13757 31.7985 5.35278 31.4289 5.44501C31.3147 5.47234 31.1937 5.48601 31.0795 5.48601C30.2025 5.48601 29.3256 5.48601 28.4453 5.48259C27.9883 5.48259 27.9917 5.48259 27.9917 5.94376C27.9917 6.10432 28.0354 6.16581 28.2067 6.16239C29.8565 6.15215 31.5096 6.14873 33.1593 6.14873C33.3206 6.14873 33.3575 6.08724 33.3575 5.93693C33.3508 4.84036 33.3508 3.74038 33.3508 2.64381C33.3508 2.28854 33.3508 1.93668 33.3508 1.58141C33.3508 1.48234 33.3575 1.36961 33.213 1.36619C32.8166 1.36619 32.4235 1.36619 32.0035 1.36619V1.36278ZM30.6629 4.09224C30.6696 4.02392 30.6763 3.98976 30.6763 3.9556C30.6763 3.16989 30.6696 2.38077 30.6763 1.59507C30.6763 1.40377 30.5957 1.35253 30.4243 1.35595C29.6784 1.36278 28.9325 1.36278 28.1866 1.35595C28.0387 1.35595 27.9951 1.40719 27.9951 1.55408C28.0018 2.03575 27.9951 2.51742 27.9951 2.99909C27.9951 3.30995 27.9951 3.62423 27.9951 3.9351C27.9951 4.06833 28.0354 4.11615 28.1832 4.1059C28.4755 4.08541 28.7678 4.09566 29.0602 4.09566C29.5877 4.09566 30.1185 4.09566 30.6629 4.09566V4.09224ZM9.96902 17.5038C10.0127 17.5209 10.0261 17.5312 10.0396 17.5312C11.3164 17.5312 12.5898 17.5312 13.8665 17.5346C13.9808 17.5346 14.0077 17.4833 14.0077 17.3809C14.0043 17.1247 13.9976 16.8719 14.0077 16.6157C14.011 16.4688 13.9573 16.4141 13.8128 16.4175C13.4936 16.4209 13.171 16.4141 12.8518 16.4141C11.9514 16.4141 11.0543 16.4141 10.1538 16.4175C10.0933 16.4175 9.98246 16.4858 9.98246 16.5268C9.96902 16.8514 9.97574 17.1759 9.97574 17.5038H9.96902ZM5.73215 39.6538C5.124 39.0457 4.55281 38.4821 3.99506 37.9218C3.43396 38.4889 2.86613 39.0628 2.28486 39.6538H5.73551H5.73215ZM31.2811 12.735C31.3046 12.7315 31.3248 12.7247 31.3483 12.7213V9.12073C31.3483 9.12073 31.3147 9.11049 31.3012 9.10365C30.898 9.71513 30.4949 10.3266 30.0984 10.9278C30.4881 11.5257 30.8846 12.1303 31.2811 12.7384V12.735ZM31.2878 20.9541C31.3046 20.9507 31.3214 20.9438 31.3382 20.9404V17.3604C31.2408 17.4048 31.1937 17.4628 31.15 17.5243C30.8913 17.9206 30.6595 18.3374 30.3705 18.7029C30.1219 19.0172 30.1152 19.2426 30.3705 19.5672C30.7132 20.001 30.9854 20.4895 31.2844 20.9541H31.2878ZM1.97239 23.909H4.66033C4.61329 23.827 4.57969 23.7621 4.53601 23.7041C4.35122 23.4478 4.12946 23.2121 3.98163 22.9354C3.77667 22.5562 3.4642 22.5084 3.10132 22.5494C3.0442 22.5562 2.96693 22.5733 2.93669 22.6143C2.61749 23.0311 2.30838 23.4547 1.97239 23.909ZM31.3449 33.7542C31.3248 33.7542 31.3046 33.7508 31.2844 33.7474C30.9081 34.3144 30.5318 34.8815 30.1622 35.4554C30.132 35.4998 30.1421 35.6057 30.1757 35.657C30.4478 36.084 30.7267 36.5076 31.0056 36.9312C31.0996 37.0747 31.2004 37.2113 31.2979 37.3548C31.3147 37.3479 31.3281 37.3445 31.3449 37.3377V33.7576V33.7542ZM7.73803 3.48759C7.73131 3.46709 7.72795 3.4466 7.72123 3.4261H4.28066C4.35794 3.53883 4.44866 3.61399 4.54609 3.67889C4.95601 3.95901 5.376 4.22547 5.77919 4.51584C5.94383 4.6354 6.0547 4.63881 6.21934 4.52267C6.67293 4.20497 7.1366 3.90777 7.59691 3.60032C7.64731 3.56616 7.69099 3.52517 7.73803 3.48759ZM12.2403 3.43293C12.2941 3.49101 12.3176 3.52858 12.3479 3.54908C12.8283 3.87703 13.3088 4.19814 13.7859 4.5295C13.9405 4.6354 14.0681 4.62857 14.2227 4.52267C14.6931 4.19814 15.1736 3.88386 15.6507 3.56616C15.6809 3.54566 15.7011 3.50809 15.7582 3.43293H12.2403ZM8.1513 4.78229H11.7699C11.7162 4.7208 11.6927 4.68664 11.6624 4.66273C11.145 4.30745 10.6242 3.95218 10.1001 3.60374C10.0497 3.56958 9.93878 3.58324 9.88167 3.62082C9.56919 3.81895 9.26344 4.02733 8.95432 4.23572C8.70233 4.40652 8.4537 4.57733 8.1513 4.78229ZM20.2874 3.43293C20.2807 3.45343 20.2773 3.47393 20.2706 3.49442C20.825 3.86678 21.3794 4.23913 21.9371 4.60465C21.9808 4.63198 22.0782 4.6149 22.1253 4.58416C22.6326 4.2528 23.1366 3.91119 23.6406 3.57299C23.6708 3.5525 23.6843 3.5115 23.7548 3.41585C22.5621 3.4056 21.423 3.38511 20.2874 3.43976V3.43293ZM31.3416 25.5795C31.318 25.5761 31.2979 25.5692 31.2744 25.5658C30.9014 26.1261 30.5251 26.6863 30.1589 27.2534C30.1286 27.3012 30.1454 27.4071 30.179 27.4618C30.4377 27.8649 30.7065 28.2611 30.972 28.6608C31.0795 28.8214 31.187 28.9785 31.2945 29.1356L31.3416 29.122V25.5795ZM16.2252 4.7413C16.2252 4.7413 16.242 4.76863 16.2487 4.78229H19.8103C19.7229 4.71055 19.6826 4.67639 19.6389 4.64565C19.1652 4.32453 18.6813 4.01367 18.2177 3.67548C18.0463 3.5525 17.9321 3.56616 17.7741 3.67548C17.3609 3.96584 16.9409 4.24255 16.5243 4.52267C16.4235 4.59099 16.3227 4.66614 16.2219 4.73788L16.2252 4.7413ZM30.0177 21.4494V25.0329C30.0883 24.9612 30.1387 24.927 30.1689 24.8826C30.4713 24.4214 30.7569 23.9534 31.0728 23.5025C31.2004 23.3215 31.2038 23.1882 31.0862 23.0106C30.7704 22.5289 30.4646 22.037 30.1521 21.5519C30.132 21.5212 30.0917 21.5041 30.0177 21.4494ZM30.011 33.1701C30.011 33.1701 30.0446 33.1974 30.0581 33.2111C30.1085 33.1461 30.1656 33.0881 30.2126 33.0197C30.5217 32.5483 30.8241 32.0735 31.14 31.6089C31.2004 31.5167 31.2307 31.4552 31.1601 31.3493C30.814 30.8198 30.4781 30.28 30.1353 29.7505C30.1185 29.7232 30.0715 29.713 30.011 29.6822V33.1769V33.1701ZM30.011 16.7694C30.0446 16.8035 30.0749 16.8343 30.1085 16.8684C30.1286 16.807 30.1353 16.7386 30.1689 16.684C30.4747 16.2023 30.7838 15.7241 31.0996 15.2492C31.1971 15.1057 31.2072 14.9964 31.1097 14.8461C30.7905 14.3576 30.4814 13.8589 30.1656 13.3669C30.1421 13.3294 30.0883 13.3055 30.011 13.244V16.7694ZM26.6645 4.77887C26.6645 4.34503 26.6679 3.9351 26.6578 3.52858C26.6578 3.48759 26.5705 3.4056 26.5335 3.40902C26.3386 3.44318 26.1236 3.45685 25.9657 3.55591C25.4113 3.90435 24.877 4.28696 24.3327 4.6559C24.2891 4.68322 24.2487 4.71738 24.1715 4.77546H26.6645V4.77887ZM1.33736 4.77887H3.78003C3.73971 4.73105 3.72627 4.70714 3.70611 4.69347C3.1282 4.30062 2.55701 3.89752 1.96567 3.52175C1.82455 3.43293 1.62295 3.43293 1.44488 3.40902C1.41464 3.4056 1.34072 3.48076 1.34072 3.52175C1.334 3.93168 1.33736 4.34161 1.33736 4.78229V4.77887ZM38.6729 38.2703C38.6662 37.8911 38.3504 37.6007 37.9573 37.611C37.6146 37.6178 37.3323 37.9355 37.3424 38.3045C37.3525 38.6939 37.6515 38.9843 38.0312 38.974C38.3739 38.9638 38.683 38.6324 38.6763 38.2703H38.6729ZM34.6712 38.2737C34.6712 38.6563 34.9904 38.974 35.3668 38.9638C35.7061 38.9535 36.0354 38.6222 36.0287 38.2976C36.0219 37.9321 35.6792 37.6041 35.3164 37.6076C34.9703 37.611 34.6712 37.9218 34.6712 38.2737ZM36.0186 35.5374C36.0186 35.9439 36.2874 36.2172 36.6838 36.2172C37.0333 36.2172 37.3458 35.9063 37.3424 35.5613C37.339 35.1992 37.0266 34.8849 36.6738 34.8884C36.3109 34.8884 36.0186 35.1787 36.0186 35.5408V35.5374ZM36.4285 3.48759C36.3882 3.45343 36.3714 3.42952 36.3579 3.42952C35.8304 3.42268 35.2996 3.41244 34.772 3.41585C34.7317 3.41585 34.6645 3.50467 34.6612 3.5525C34.6511 3.89752 34.6544 4.23913 34.6544 4.66273C35.2693 4.25621 35.8405 3.87703 36.4251 3.48759H36.4285ZM36.8922 4.73447C36.8922 4.73447 36.909 4.76179 36.919 4.77546H38.6561V3.54908C38.0446 3.96243 37.4701 4.34845 36.8955 4.73447H36.8922ZM31.224 39.6606C30.8275 39.0252 30.4478 38.4411 30.0345 37.8809C30.0043 38.4445 30.0009 38.9877 30.011 39.5308C30.011 39.5752 30.1051 39.6538 30.1555 39.6572C30.4949 39.6675 30.8342 39.6641 31.224 39.6641V39.6606ZM29.9976 8.59807C30.048 8.58099 30.0816 8.58441 30.095 8.56733C30.3 8.26671 30.5049 7.96609 30.7065 7.66206C30.7233 7.63815 30.6998 7.55275 30.6931 7.55275C30.4747 7.54591 30.2563 7.54591 30.0379 7.54933C30.0245 7.54933 30.0009 7.59374 30.0009 7.61765C30.0009 7.93876 30.0009 8.25988 30.0009 8.60149L29.9976 8.59807Z" fill="white"/>
<path d="M19.3397 36.9282C19.7631 36.9282 20.1629 36.9282 20.5627 36.9351C20.5963 36.9351 20.6535 37.0136 20.6535 37.058C20.6602 37.4099 20.6535 37.7652 20.6535 38.117C20.6535 38.24 20.6098 38.2947 20.4821 38.2912C20.1562 38.2844 19.8269 38.2844 19.501 38.2912C19.37 38.2912 19.333 38.2434 19.333 38.117C19.3397 37.7344 19.333 37.3552 19.333 36.9248L19.3397 36.9282Z" fill="white"/>
<path d="M19.9981 35.527C19.8368 35.527 19.6756 35.5167 19.5176 35.527C19.3866 35.5372 19.3396 35.4791 19.3396 35.3596C19.3396 35.0111 19.3329 34.6661 19.3463 34.3177C19.3463 34.2698 19.4303 34.1844 19.4773 34.1844C19.8268 34.1742 20.1728 34.1742 20.5223 34.1844C20.5693 34.1844 20.6499 34.2698 20.6533 34.3143C20.6634 34.6695 20.6567 35.0248 20.6567 35.3767C20.6567 35.4996 20.613 35.5543 20.4786 35.5406C20.3207 35.5236 20.1594 35.5372 19.9981 35.5372V35.5236V35.527Z" fill="white"/>
<path d="M20.0218 31.4519C20.1764 31.4519 20.3275 31.4588 20.4821 31.4519C20.6131 31.4451 20.6703 31.4827 20.6669 31.6296C20.6568 31.9541 20.6602 32.282 20.6635 32.6066C20.6635 32.7466 20.6266 32.8115 20.472 32.8047C20.1528 32.791 19.8303 32.7945 19.5111 32.8013C19.38 32.8013 19.3364 32.7535 19.3364 32.6271C19.3364 32.2889 19.3397 31.9473 19.333 31.6091C19.333 31.4758 19.3968 31.4519 19.501 31.4553C19.6757 31.4553 19.8504 31.4553 20.0218 31.4553V31.4519Z" fill="white"/>
<path d="M19.3331 29.3922C19.3331 29.2214 19.3399 29.054 19.3331 28.8832C19.3264 28.7636 19.3768 28.7158 19.4911 28.7158C19.8371 28.7158 20.1866 28.7158 20.5326 28.7295C20.5797 28.7295 20.657 28.8183 20.657 28.8661C20.667 29.2112 20.657 29.5596 20.6603 29.9046C20.6603 30.0174 20.6166 30.072 20.499 30.072C20.1664 30.072 19.8304 30.0686 19.4978 30.0754C19.3667 30.0754 19.3264 30.0276 19.3298 29.9012C19.3365 29.7304 19.3298 29.563 19.3298 29.3922H19.3331Z" fill="white"/>
<path d="M20.6604 26.6592C20.6604 26.83 20.6604 27.0008 20.6604 27.1682C20.6604 27.2912 20.6167 27.3492 20.4857 27.3458C20.153 27.3424 19.817 27.3526 19.4844 27.3424C19.434 27.3424 19.3433 27.2502 19.3399 27.1989C19.3265 26.8437 19.3298 26.4918 19.3399 26.1365C19.3399 26.0887 19.4239 25.9999 19.471 25.9999C19.8271 25.9896 20.1799 25.9896 20.5361 25.9999C20.5797 25.9999 20.6469 26.0921 20.6537 26.1468C20.6705 26.3142 20.6604 26.485 20.6604 26.6558V26.6592Z" fill="white"/>
<path d="M12.6403 29.3989C12.6403 29.5629 12.6335 29.7235 12.6403 29.8874C12.647 30.0104 12.61 30.0719 12.479 30.0719C12.1531 30.0719 11.8238 30.0719 11.4979 30.0753C11.34 30.0753 11.2996 30.007 11.3064 29.8533C11.3198 29.5356 11.3198 29.2179 11.3131 28.9002C11.3131 28.7806 11.3534 28.726 11.4643 28.726C11.8103 28.726 12.1598 28.7191 12.5059 28.7362C12.5529 28.7362 12.6302 28.8319 12.6369 28.8899C12.6537 29.0573 12.6436 29.2281 12.6436 29.3989H12.6369H12.6403Z" fill="white"/>
<path d="M16.6686 29.3986C16.6686 29.2277 16.672 29.0569 16.6686 28.8896C16.6653 28.7734 16.7056 28.7188 16.8232 28.7188C17.1659 28.7222 17.5052 28.7188 17.848 28.7324C17.8984 28.7324 17.9857 28.8246 17.9891 28.8759C18.0025 29.2209 18.0025 29.5694 17.9891 29.9178C17.9891 29.969 17.8984 30.0613 17.8446 30.0647C17.5052 30.0784 17.1625 30.0715 16.8198 30.0784C16.6955 30.0784 16.6619 30.0237 16.6653 29.911C16.6686 29.7402 16.6653 29.5728 16.6653 29.402L16.6686 29.3986Z" fill="white"/>
<path d="M11.9783 24.5923C11.9212 24.5923 11.8675 24.5923 11.8103 24.5923C11.4811 24.5923 11.3164 24.4272 11.3164 24.0969C11.3164 23.8783 11.3231 23.6597 11.3164 23.4411C11.3097 23.301 11.3702 23.2498 11.4979 23.2498C11.8305 23.2498 12.1665 23.2429 12.4991 23.2566C12.5495 23.2566 12.6369 23.3488 12.6402 23.4035C12.6503 23.7485 12.6402 24.0969 12.6436 24.442C12.6436 24.5513 12.6066 24.5957 12.4991 24.5923C12.3244 24.5889 12.153 24.5923 11.9783 24.5923Z" fill="white"/>
<path d="M11.3161 34.8679C11.3161 34.6971 11.3228 34.5297 11.3161 34.3589C11.3094 34.2325 11.3531 34.1745 11.4807 34.1779C11.8201 34.1813 12.1628 34.1847 12.5021 34.1847C12.6097 34.1847 12.6466 34.2325 12.6466 34.3384C12.6433 34.6835 12.6399 35.0319 12.6466 35.3769C12.6466 35.4965 12.6029 35.5375 12.4853 35.5341C12.1594 35.5341 11.8335 35.5341 11.5042 35.5443C11.3732 35.5477 11.3329 35.4999 11.3363 35.3735C11.343 35.2027 11.3363 35.0353 11.3363 34.8645C11.3295 34.8645 11.3228 34.8645 11.3161 34.8645V34.8679Z" fill="white"/>
<path d="M15.3146 29.3849C15.3146 29.5181 15.3146 29.6548 15.3146 29.788C15.3146 30.0579 15.3146 30.0613 15.0391 30.0647C14.7535 30.0681 14.4679 30.0647 14.1823 30.0749C14.0311 30.0784 13.974 30.0271 13.984 29.8666C14.0008 29.5489 14.0008 29.2312 13.9908 28.9101C13.9874 28.7632 14.0378 28.7188 14.1688 28.7188C14.5048 28.7188 14.8375 28.7256 15.1734 28.7222C15.2978 28.7222 15.328 28.7802 15.3213 28.893C15.3146 29.0569 15.3213 29.2175 15.3213 29.3815L15.3146 29.3849Z" fill="white"/>
<path d="M12.6436 32.1349C12.6436 32.3057 12.6571 32.4765 12.6369 32.6439C12.6302 32.6985 12.5462 32.7874 12.4958 32.7874C12.1564 32.7976 11.8137 32.7874 11.471 32.7908C11.3635 32.7908 11.3232 32.7464 11.3232 32.6405C11.3232 32.3023 11.3232 31.9607 11.3097 31.6225C11.3064 31.4961 11.3601 31.4551 11.4676 31.4551C11.8171 31.4551 12.1631 31.4551 12.5126 31.4653C12.5596 31.4653 12.6335 31.5644 12.6403 31.6225C12.6571 31.7899 12.647 31.9607 12.647 32.1315L12.6436 32.1349Z" fill="white"/>
<path d="M14.0178 32.7981C14.0111 32.7229 14.001 32.6649 14.001 32.6034C13.9977 32.2788 14.001 31.9543 13.9876 31.6298C13.9842 31.5136 14.0111 31.4521 14.1287 31.4521C14.4815 31.4521 14.8376 31.4521 15.1904 31.4658C15.2341 31.4658 15.3147 31.5546 15.3147 31.6025C15.3248 31.9475 15.3147 32.2959 15.3147 32.641C15.3147 32.7434 15.2912 32.8015 15.177 32.7981C14.794 32.7947 14.4143 32.7981 14.0145 32.7981H14.0178Z" fill="white"/>
<path d="M17.989 26.6661C17.989 26.8369 17.989 27.0077 17.989 27.1751C17.989 27.2913 17.942 27.3391 17.8278 27.3391C17.4918 27.3391 17.1591 27.3391 16.8231 27.3425C16.7022 27.3425 16.6619 27.2947 16.6652 27.1785C16.6753 26.8301 16.672 26.4851 16.6888 26.1366C16.6888 26.0854 16.7795 25.9966 16.8332 25.9966C17.1659 25.9829 17.5019 25.9897 17.8378 25.9863C17.9554 25.9863 17.9991 26.0307 17.9924 26.1503C17.9857 26.3211 17.9924 26.4919 17.9924 26.6593L17.989 26.6661Z" fill="white"/>
<path d="M14.6629 24.5927C14.4949 24.5927 14.3269 24.5858 14.1622 24.5927C14.0379 24.5995 13.9909 24.5619 13.9942 24.4253C14.0077 24.1007 14.0077 23.7728 13.9942 23.4483C13.9875 23.298 14.0379 23.2399 14.1824 23.2433C14.5083 23.2467 14.8376 23.2467 15.1669 23.2433C15.2945 23.2433 15.3349 23.2945 15.3281 23.4244C15.3147 23.7489 15.3147 24.0768 15.3181 24.4014C15.3181 24.538 15.2845 24.5961 15.1433 24.5892C14.9821 24.579 14.8241 24.5892 14.6629 24.5892C14.6629 24.5892 14.6629 24.5892 14.6629 24.5927Z" fill="white"/>
<path d="M14.0044 36.9316H15.3047V38.2912C14.9015 38.2912 14.5017 38.2947 14.1018 38.2844C14.0682 38.2844 14.0111 38.1888 14.0111 38.1341C14.0044 37.7447 14.0078 37.3587 14.0078 36.9316H14.0044Z" fill="white"/>
<path d="M13.9974 26.6692C13.9974 26.5121 14.0108 26.3549 13.994 26.2012C13.9772 26.0372 14.0444 25.986 14.1922 25.9894C14.5114 25.9962 14.834 25.9962 15.1532 25.9928C15.2741 25.9928 15.3245 26.0338 15.3212 26.1671C15.3111 26.4984 15.3111 26.8332 15.3145 27.168C15.3145 27.2978 15.2775 27.3422 15.1465 27.3422C14.8205 27.3354 14.4913 27.3422 14.1654 27.349C14.0242 27.3524 13.9806 27.2978 13.9906 27.1611C14.0007 27.0006 13.9906 26.8366 13.9906 26.6726L13.9974 26.6692Z" fill="white"/>
<path d="M16.6821 32.801C16.6821 32.4731 16.6821 32.169 16.6821 31.8684C16.6854 31.4619 16.6888 31.4619 17.0819 31.4585C17.3305 31.4585 17.5825 31.4585 17.8312 31.4551C17.9454 31.4551 17.9924 31.4892 17.9891 31.6122C17.9824 31.9504 17.9824 32.292 17.9857 32.6302C17.9857 32.7361 17.9656 32.8044 17.8379 32.801C17.4616 32.7942 17.0886 32.801 16.6787 32.801H16.6821Z" fill="white"/>
<path d="M16.6822 23.9327C16.6822 23.7551 16.6688 23.5774 16.6889 23.4032C16.6956 23.3451 16.7796 23.2563 16.83 23.2529C17.1761 23.2392 17.5255 23.2392 17.8716 23.2495C17.9119 23.2495 17.9825 23.3315 17.9825 23.3759C17.9926 23.7277 17.9959 24.083 17.9825 24.4349C17.9825 24.4895 17.8951 24.5818 17.8481 24.5818C17.502 24.5954 17.1526 24.5886 16.8065 24.5954C16.6889 24.5954 16.6654 24.5408 16.6688 24.4383C16.6721 24.2675 16.6688 24.1001 16.6688 23.9293C16.6721 23.9293 16.6755 23.9293 16.6788 23.9293L16.6822 23.9327Z" fill="white"/>
<path d="M21.9973 32.1081C21.9973 31.9441 22.0107 31.7836 21.9939 31.623C21.9838 31.5103 22.0174 31.4556 22.1182 31.4556C22.4777 31.4556 22.8406 31.4522 23.2001 31.4625C23.2404 31.4625 23.3076 31.5479 23.311 31.5957C23.3211 31.9475 23.3211 32.3028 23.3076 32.6547C23.3076 32.7059 23.2136 32.7913 23.1632 32.7913C22.8238 32.805 22.4844 32.7913 22.1417 32.7982C22.0241 32.7982 22.004 32.7367 22.004 32.6376C22.004 32.46 22.004 32.2857 22.004 32.1081C22.004 32.1081 21.9973 32.1081 21.9939 32.1081H21.9973Z" fill="white"/>
<path d="M14.6459 35.5339C14.2203 35.5453 14.0087 35.3369 14.0109 34.9088C14.0109 34.7243 14.0109 34.5398 14.0008 34.3554C13.9907 34.2392 14.021 34.1777 14.1419 34.1777C14.4914 34.1777 14.8374 34.1846 15.1869 34.1846C15.2978 34.1846 15.3246 34.2426 15.3246 34.3451C15.3179 34.6867 15.3146 35.0249 15.3213 35.3665C15.3213 35.4963 15.2776 35.5408 15.1499 35.5339C14.9819 35.5237 14.8173 35.5339 14.6493 35.5339H14.6459Z" fill="white"/>
<path d="M21.9941 29.3988C21.9941 29.228 21.984 29.0572 22.0008 28.8898C22.0075 28.8317 22.0814 28.7326 22.1285 28.7326C22.4914 28.719 22.8509 28.7224 23.2137 28.7326C23.2507 28.7326 23.3112 28.8249 23.3112 28.8761C23.3179 29.2143 23.3112 29.5559 23.3112 29.8941C23.3112 30.0137 23.2809 30.0752 23.1432 30.0718C22.8173 30.0649 22.488 30.0718 22.1621 30.0786C22.021 30.082 21.9806 30.0239 21.9907 29.8873C22.0008 29.7267 21.9907 29.5628 21.9907 29.3988H21.9941Z" fill="white"/>
<path d="M12.6436 26.6662C12.6436 26.837 12.6537 27.0079 12.6369 27.1752C12.6302 27.2333 12.5529 27.3255 12.5025 27.329C12.1632 27.3426 11.8204 27.3324 11.4777 27.3358C11.3601 27.3358 11.3232 27.2811 11.3232 27.165C11.3232 26.8473 11.3232 26.5262 11.3097 26.2085C11.303 26.0582 11.3467 25.983 11.508 25.9864C11.8339 25.9933 12.1632 25.9933 12.4891 25.9899C12.6067 25.9899 12.6503 26.0343 12.6436 26.1538C12.6335 26.3246 12.6436 26.4954 12.6436 26.6628V26.6662Z" fill="white"/>
<path d="M22.021 36.9277C22.4275 36.9277 22.8274 36.9277 23.2272 36.9346C23.2575 36.9346 23.3079 37.0234 23.3079 37.0712C23.3146 37.4265 23.3179 37.7783 23.3079 38.1336C23.3079 38.1883 23.2373 38.2839 23.197 38.2839C22.8106 38.2942 22.4208 38.2908 22.021 38.2908V36.9277Z" fill="white"/>
<path d="M16.6856 36.9385H17.9859C17.9859 37.3587 17.9859 37.772 17.9792 38.1854C17.9792 38.2195 17.9019 38.2844 17.8582 38.2844C17.5121 38.2913 17.1627 38.2947 16.8166 38.2844C16.7696 38.2844 16.6923 38.1819 16.6923 38.1273C16.6822 37.7413 16.6856 37.3518 16.6856 36.9419V36.9385Z" fill="white"/>
<path d="M12.6301 36.9351V38.2912C12.2202 38.2912 11.8271 38.2912 11.4306 38.2844C11.397 38.2844 11.3332 38.2058 11.3332 38.1614C11.3264 37.7925 11.3264 37.4236 11.3332 37.058C11.3332 37.017 11.397 36.9419 11.434 36.9385C11.8271 36.9316 12.2235 36.9316 12.6267 36.9316L12.6301 36.9351Z" fill="white"/>
<path d="M22.001 35.5338C22.001 35.0999 21.9977 34.6968 22.0077 34.2971C22.0077 34.2561 22.1085 34.181 22.1623 34.181C22.5017 34.1707 22.8444 34.1742 23.1837 34.1844C23.2274 34.1844 23.3047 34.2732 23.308 34.3211C23.3181 34.6729 23.3181 35.0282 23.308 35.3835C23.308 35.4347 23.2442 35.5269 23.2106 35.5269C22.8242 35.5372 22.4345 35.5338 22.001 35.5338Z" fill="white"/>
<path d="M17.9893 34.8574C17.9893 35.0282 17.9859 35.199 17.9893 35.3664C17.9927 35.4928 17.9456 35.5406 17.8179 35.5372C17.4987 35.527 17.1762 35.5201 16.857 35.527C16.7293 35.527 16.6789 35.4962 16.6823 35.363C16.6856 35.0146 16.6789 34.6695 16.689 34.3211C16.689 34.2733 16.7696 34.1879 16.8167 34.1844C17.1661 34.1742 17.5122 34.1742 17.8616 34.1844C17.9053 34.1844 17.9826 34.2698 17.9859 34.3211C18.0027 34.4953 17.9927 34.6764 17.9927 34.8506L17.9893 34.8574Z" fill="white"/>
<path d="M23.318 26.6589C23.318 26.8366 23.3281 27.0142 23.3113 27.1884C23.3045 27.2431 23.2205 27.3285 23.1701 27.3319C22.8308 27.3456 22.4881 27.3387 22.1487 27.3456C22.0345 27.3456 22.0076 27.2909 22.0076 27.1884C22.0076 26.8434 21.9942 26.4949 22.0042 26.1499C22.0042 26.0953 22.0916 25.9962 22.1386 25.9962C22.4914 25.9859 22.8476 25.9894 23.2037 26.003C23.2441 26.003 23.3079 26.0987 23.3146 26.1533C23.3281 26.3207 23.3213 26.4915 23.3213 26.6623L23.318 26.6589Z" fill="white"/>
</g>
<defs>
<clipPath id="clip0_1194_4544">
<rect width="40" height="41" fill="white"/>
</clipPath>
</defs>
</svg>
