<svg width="32" height="32" viewBox="0 0 32 32" fill="none" xmlns="http://www.w3.org/2000/svg">
<path d="M22.6665 14.6667H21.3332C20.9795 14.6667 20.6404 14.8071 20.3904 15.0572C20.1403 15.3072 19.9998 15.6464 19.9998 16C19.9998 16.3536 20.1403 16.6928 20.3904 16.9428C20.6404 17.1929 20.9795 17.3333 21.3332 17.3333H22.6665C23.0201 17.3333 23.3593 17.1929 23.6093 16.9428C23.8594 16.6928 23.9998 16.3536 23.9998 16C23.9998 15.6464 23.8594 15.3072 23.6093 15.0572C23.3593 14.8071 23.0201 14.6667 22.6665 14.6667ZM22.6665 20H21.3332C20.9795 20 20.6404 20.1405 20.3904 20.3905C20.1403 20.6406 19.9998 20.9797 19.9998 21.3333C19.9998 21.687 20.1403 22.0261 20.3904 22.2761C20.6404 22.5262 20.9795 22.6667 21.3332 22.6667H22.6665C23.0201 22.6667 23.3593 22.5262 23.6093 22.2761C23.8594 22.0261 23.9998 21.687 23.9998 21.3333C23.9998 20.9797 23.8594 20.6406 23.6093 20.3905C23.3593 20.1405 23.0201 20 22.6665 20ZM14.6665 12H22.6665C23.0201 12 23.3593 11.8595 23.6093 11.6095C23.8594 11.3594 23.9998 11.0203 23.9998 10.6667C23.9998 10.313 23.8594 9.97391 23.6093 9.72386C23.3593 9.47381 23.0201 9.33333 22.6665 9.33333H14.6665C14.3129 9.33333 13.9737 9.47381 13.7237 9.72386C13.4736 9.97391 13.3332 10.313 13.3332 10.6667C13.3332 11.0203 13.4736 11.3594 13.7237 11.6095C13.9737 11.8595 14.3129 12 14.6665 12ZM27.9998 4H9.33317C8.97955 4 8.64041 4.14048 8.39036 4.39052C8.14031 4.64057 7.99984 4.97971 7.99984 5.33333V9.33333H3.99984C3.64622 9.33333 3.30708 9.47381 3.05703 9.72386C2.80698 9.97391 2.6665 10.313 2.6665 10.6667V24C2.6665 25.0609 3.08793 26.0783 3.83808 26.8284C4.58822 27.5786 5.60564 28 6.6665 28H23.9998C25.4143 28 26.7709 27.4381 27.7711 26.4379C28.7713 25.4377 29.3332 24.0812 29.3332 22.6667V5.33333C29.3332 4.97971 29.1927 4.64057 28.9426 4.39052C28.6926 4.14048 28.3535 4 27.9998 4ZM7.99984 24C7.99984 24.3536 7.85936 24.6928 7.60931 24.9428C7.35926 25.1929 7.02013 25.3333 6.6665 25.3333C6.31288 25.3333 5.97374 25.1929 5.7237 24.9428C5.47365 24.6928 5.33317 24.3536 5.33317 24V12H7.99984V24ZM26.6665 22.6667C26.6665 23.3739 26.3855 24.0522 25.8855 24.5523C25.3854 25.0524 24.7071 25.3333 23.9998 25.3333H10.4265C10.5817 24.9058 10.6629 24.4549 10.6665 24V6.66667H26.6665V22.6667ZM14.6665 17.3333H15.9998C16.3535 17.3333 16.6926 17.1929 16.9426 16.9428C17.1927 16.6928 17.3332 16.3536 17.3332 16C17.3332 15.6464 17.1927 15.3072 16.9426 15.0572C16.6926 14.8071 16.3535 14.6667 15.9998 14.6667H14.6665C14.3129 14.6667 13.9737 14.8071 13.7237 15.0572C13.4736 15.3072 13.3332 15.6464 13.3332 16C13.3332 16.3536 13.4736 16.6928 13.7237 16.9428C13.9737 17.1929 14.3129 17.3333 14.6665 17.3333ZM14.6665 22.6667H15.9998C16.3535 22.6667 16.6926 22.5262 16.9426 22.2761C17.1927 22.0261 17.3332 21.687 17.3332 21.3333C17.3332 20.9797 17.1927 20.6406 16.9426 20.3905C16.6926 20.1405 16.3535 20 15.9998 20H14.6665C14.3129 20 13.9737 20.1405 13.7237 20.3905C13.4736 20.6406 13.3332 20.9797 13.3332 21.3333C13.3332 21.687 13.4736 22.0261 13.7237 22.2761C13.9737 22.5262 14.3129 22.6667 14.6665 22.6667Z" fill="#FEFFFF"/>
</svg>
