<svg width="56" height="57" viewBox="0 0 56 57" fill="none" xmlns="http://www.w3.org/2000/svg">
<g clip-path="url(#clip0_273_44966)">
<path d="M9.96741 32.0432V20.0492C9.11756 20.5538 8.23957 20.8748 7.29404 20.8691C6.34289 20.8691 5.47052 20.5308 4.60942 20.0664C4.60942 20.4735 4.62067 20.8175 4.60942 21.1558C4.59253 21.5743 4.67133 22.0157 4.33364 22.3712C4.01846 22.7037 3.56821 22.8413 3.1461 22.6865C2.72962 22.5317 2.45947 22.1705 2.45947 21.7061C2.45947 19.6766 2.43133 17.647 2.47635 15.6174C2.52138 13.6968 3.90027 11.8335 5.69565 11.243C6.26972 11.0538 6.69746 10.7327 7.10831 10.3142C10.0575 7.30995 13.001 4.29999 15.9614 1.30723C17.6836 -0.435679 20.16 -0.429946 21.8653 1.30723C24.3867 3.87573 26.8912 6.45569 29.4126 9.02419C30.1274 9.75231 30.6114 10.5779 30.6058 11.6386C30.6002 13.0203 29.9867 14.0408 28.8104 14.6944C28.5515 14.8377 28.439 14.981 28.4896 15.2677C28.5065 15.3709 28.5121 15.4856 28.4896 15.5888C28.2983 16.5634 28.6922 17.2629 29.4183 17.8591C29.8685 18.2318 30.24 18.7077 30.6677 19.1147C30.9322 19.3727 31.0673 19.6651 31.0729 20.032C31.0729 20.6283 31.0898 21.2246 31.0617 21.8208C31.0335 22.4687 30.5495 22.9503 30.0036 22.9331C29.3676 22.9101 28.8048 22.3597 28.9061 21.7004C29.0524 20.7315 28.7429 20.0492 28.0112 19.4472C27.2852 18.8452 27.5497 18.7936 26.7618 19.4472C26.0189 20.0664 25.7375 20.7602 25.8669 21.7233C25.9682 22.4744 25.6362 22.9044 25.0283 23.0477C24.4655 23.1853 23.8408 22.8241 23.7957 22.2393C23.7338 21.3965 23.7507 20.548 23.7957 19.7052C23.807 19.4874 23.9984 19.2523 24.1616 19.0803C24.8144 18.3923 25.4898 17.7387 26.1483 17.0507C26.2552 16.9361 26.3397 16.7469 26.3453 16.5863C26.3734 16.122 26.3734 15.6576 26.3566 15.1932C26.3566 15.0842 26.244 14.9466 26.1427 14.8721C25.6643 14.5166 25.1184 14.2357 24.6963 13.8229C23.1373 12.2864 21.612 10.7155 20.0868 9.14459C19.8786 8.92672 19.7547 8.89806 19.524 9.13312C17.1377 11.5812 14.7344 14.0121 12.3481 16.466C12.2299 16.5863 12.1736 16.8271 12.1736 17.0106C12.1736 21.0124 12.1849 25.0142 12.1905 29.016C12.1905 29.7442 12.1962 30.4723 12.1905 31.2004C12.1905 31.4584 12.2749 31.5616 12.5395 31.5559C13.5919 31.5387 14.65 31.5444 15.7025 31.5329C16.1752 31.5329 16.1696 31.5215 16.1696 31.0169C16.1696 28.953 16.1921 26.8833 16.1584 24.8193C16.1415 23.8962 16.6874 23.5752 17.3797 23.5465C17.7905 23.5293 18.2014 23.5465 18.6122 23.5465C20.6271 23.5465 22.6476 23.5465 24.6625 23.5522C24.8707 23.5522 25.0846 23.5752 25.2928 23.6038C25.8219 23.6898 26.1652 24.0568 26.1652 24.6072C26.1821 26.803 26.1877 28.9988 26.1765 31.1947C26.1765 31.4756 26.2552 31.5559 26.5029 31.5559C27.7805 31.5501 29.0581 31.5559 30.3356 31.5329C30.4201 31.5329 30.5777 31.3839 30.5777 31.2979C30.6339 29.5492 30.679 27.8063 30.7071 26.0577C30.7127 25.6564 30.6283 25.2608 30.6227 24.8594C30.6114 23.9822 31.0448 23.535 31.9172 23.535C33.6056 23.5293 35.294 23.535 36.9825 23.535C37.2189 23.535 37.4552 23.5064 37.686 23.5293C37.9899 23.5522 38.0912 23.4491 38.1419 23.1223C38.4739 20.915 39.6052 19.258 41.5469 18.2089C41.9521 17.991 42.4136 17.8763 42.8583 17.7273C43.1172 17.6413 43.044 17.4922 42.9483 17.3431C42.5206 16.701 42.318 15.9786 42.2448 15.2276C42.1941 14.7173 42.2167 14.2013 42.2223 13.6911C42.2223 13.4847 42.1998 13.3413 41.9972 13.2267C41.682 13.0489 41.53 12.7508 41.5075 12.3724C41.3668 9.95298 42.4305 8.147 44.4454 7.04622C48.2163 4.98224 52.2798 7.81447 52.488 11.6271C52.4993 11.8679 52.4993 12.1029 52.5049 12.3437C52.5049 12.7336 52.3586 13.0203 52.0321 13.2439C51.9196 13.3184 51.8295 13.5305 51.8295 13.6739C51.8633 14.7574 51.8295 15.8238 51.368 16.8329C51.2948 16.9934 51.216 17.1597 51.1091 17.2973C50.9065 17.5495 50.974 17.647 51.2611 17.733C53.7037 18.4554 55.2289 20.0836 55.803 22.6063C55.9212 23.1223 55.9775 23.6669 55.9831 24.2001C56 27.0323 55.9943 29.8588 55.9887 32.6911C55.9887 35.0876 54.5986 36.8075 52.2967 37.2719C52.0997 37.3121 52.0152 37.3694 52.0152 37.5873C52.0321 41.6923 52.0434 45.803 52.049 49.908C52.049 51.8172 52.0378 53.7321 52.0265 55.6413C52.0209 56.5185 51.5931 56.9542 50.732 56.9828C50.6364 56.9828 50.5463 56.9828 50.4506 56.9828C34.1909 56.9828 17.9256 56.9828 1.6659 56.9828C1.54771 56.9828 1.42952 56.9828 1.31696 56.9828C0.450223 56.9484 0.00559978 56.4841 -2.83578e-05 55.6011C-2.83578e-05 50.1087 -0.0281691 44.6105 0.0112279 39.118C0.0281123 37.0025 0.742886 35.1277 2.27937 33.6256C2.3863 33.5224 2.44258 33.316 2.44258 33.1554C2.45384 32.1521 2.44258 31.1488 2.43133 30.1455C2.43133 29.7212 2.49887 29.3428 2.8647 29.0676C3.53444 28.5631 4.45183 28.9128 4.54188 29.7614C4.60942 30.3748 4.58691 30.9997 4.57565 31.6189C4.57002 32.0088 4.59816 32.0547 4.94711 31.9343C6.59615 31.3667 8.23957 31.424 9.95052 32.026L9.96741 32.0432ZM14.6275 46.9267C14.6275 47.1446 14.6275 47.2879 14.6275 47.4313C14.6106 49.7704 14.5937 52.1096 14.5712 54.4488C14.5712 54.7239 14.6782 54.7927 14.9258 54.7927C16.7437 54.787 18.5616 54.787 20.3738 54.787C27.409 54.787 34.4386 54.787 41.4737 54.787C42.014 54.787 42.014 54.7813 42.014 54.2424C42.014 51.0317 42.014 47.8211 42.014 44.6048C42.014 43.7218 41.9972 42.8389 42.0028 41.956C42.0028 41.7095 41.9465 41.5833 41.6707 41.5833C41.2824 41.5891 40.8997 41.5432 40.5113 41.5432C32.8908 41.5432 25.276 41.5432 17.6554 41.5432C16.7324 41.5432 15.8038 41.5776 14.8808 41.5833C14.6219 41.5833 14.5881 41.6636 14.5937 41.9216C14.6163 42.6956 14.5937 43.4753 14.5937 44.2493C14.5937 44.3869 14.5937 44.5245 14.5937 44.6908C14.7795 44.6908 14.9145 44.6908 15.0552 44.6908C19.0175 44.6908 22.9797 44.6908 26.9419 44.6908C27.1839 44.6908 27.4372 44.7252 27.6679 44.7882C28.1857 44.9373 28.5121 45.4131 28.4727 45.9062C28.439 46.3993 27.9943 46.835 27.4597 46.8866C27.1783 46.9153 26.8969 46.921 26.6154 46.921C23.0416 46.921 19.4677 46.921 15.8882 46.921C15.4774 46.921 15.0721 46.921 14.6163 46.921L14.6275 46.9267ZM28.5966 39.376C32.2436 39.376 35.885 39.376 39.532 39.376C41.4794 39.376 43.4267 39.399 45.3684 39.3588C47.3045 39.3187 48.5933 37.0254 47.6422 35.3111C47.085 34.3021 46.2014 33.7746 45.042 33.7746C34.0615 33.7746 23.0753 33.7746 12.0948 33.7746C11.8416 33.7746 11.5827 33.8033 11.3294 33.8492C9.41022 34.1932 8.49284 36.5094 9.6466 38.1032C10.2544 38.9403 11.0424 39.3818 12.1061 39.376C17.6048 39.3588 23.1035 39.3703 28.5966 39.3646V39.376ZM7.80057 33.7517C7.33344 33.7861 6.95073 33.7976 6.57364 33.8492C4.93585 34.0785 3.70329 34.9442 2.85907 36.3833C2.34691 37.2547 2.17806 38.2294 2.17806 39.2327C2.17243 44.2952 2.17243 49.3576 2.16118 54.4201C2.16118 54.7125 2.25686 54.787 2.52701 54.787C5.69002 54.7755 8.85304 54.7698 12.0217 54.7755C12.3594 54.7755 12.4325 54.6609 12.4269 54.3398C12.4157 50.4584 12.4156 46.5827 12.4156 42.7013C12.4156 42.3344 12.4156 41.9675 12.4156 41.6407C11.6615 41.5088 10.9748 41.3769 10.2826 41.2737C10.1869 41.2623 10.0575 41.3483 9.97867 41.4285C8.89243 42.5351 7.59233 42.8905 6.1459 42.4032C4.7051 41.9216 3.84962 40.838 3.67515 39.3072C3.43877 37.1745 4.76138 35.4774 6.83816 35.1277C6.98449 35.1048 7.19836 35.0761 7.25464 34.9786C7.45163 34.6232 7.59233 34.2333 7.8062 33.746L7.80057 33.7517ZM49.8315 34.8181C49.8597 34.8181 49.8934 34.8066 49.9216 34.8009C49.9328 34.6404 49.9497 34.4798 49.9497 34.3193C49.9385 31.9801 49.9216 29.641 49.916 27.2961C49.916 26.6998 49.916 26.1035 49.9385 25.5073C49.961 24.9798 50.3549 24.5785 50.8446 24.5326C51.3962 24.481 51.8858 24.8193 51.9984 25.3582C52.0434 25.5646 52.049 25.7825 52.049 26.0003C52.0546 28.3166 52.0603 30.6328 52.0659 32.9491C52.0659 33.6256 52.0659 34.3021 52.0659 35.0188C52.1954 35.0016 52.2967 34.9958 52.398 34.9672C53.2197 34.7493 53.8106 33.981 53.8163 33.0178C53.8331 29.985 53.8388 26.9521 53.8163 23.9192C53.7937 21.4596 51.6888 19.6078 49.5164 19.711C47.7716 19.797 46.0213 19.7511 44.2766 19.7224C42.4699 19.688 40.5338 21.0984 40.2074 23.4892C40.1905 23.6153 40.2468 23.7988 40.3312 23.879C40.6408 24.1428 40.6633 24.4925 40.6633 24.8537C40.6633 26.7858 40.6633 28.7236 40.6633 30.6558C40.6633 31.5845 40.6577 31.5845 41.5582 31.5731C41.8621 31.5692 42.014 31.4087 42.014 31.0915C42.014 29.2912 42.014 27.4853 42.014 25.685C42.014 25.3181 42.1153 25.0028 42.408 24.7734C42.7513 24.5097 43.134 24.418 43.528 24.6072C43.9614 24.8136 44.1696 25.192 44.1696 25.6736C44.1696 27.4165 44.1696 29.1594 44.1696 30.9023C44.1696 31.5673 44.1696 31.5845 44.8281 31.5616C46.6854 31.5043 48.1431 32.2668 49.2237 33.7918C49.4544 34.1129 49.6289 34.4798 49.8259 34.8238L49.8315 34.8181ZM38.5359 27.6114C38.5359 27.6114 38.5133 27.6114 38.4965 27.6114C38.4965 27.1241 38.4796 26.6367 38.5021 26.1494C38.5133 25.8685 38.4289 25.7596 38.1531 25.7596C36.4534 25.7596 34.7537 25.7596 33.054 25.7596C32.8402 25.7596 32.7726 25.8284 32.7726 26.0462C32.7783 27.7891 32.7783 29.532 32.7726 31.2749C32.7726 31.4813 32.8289 31.5845 33.0484 31.5845C34.7706 31.5731 36.4928 31.5731 38.215 31.5559C38.2995 31.5559 38.4402 31.4297 38.4514 31.3495C38.5133 30.8449 38.5752 30.3347 38.5865 29.8244C38.609 29.0103 38.5921 28.1962 38.5921 27.3821H38.5584C38.5471 27.4623 38.5415 27.5426 38.5302 27.6286L38.5359 27.6114ZM18.2914 28.6434C18.2914 28.6434 18.3196 28.6434 18.3308 28.6434C18.3308 29.4919 18.3533 30.3404 18.3196 31.1832C18.3083 31.5157 18.4152 31.5673 18.6854 31.5673C20.3007 31.5559 21.916 31.5616 23.5312 31.5559C24.0152 31.5559 24.0209 31.5501 24.0209 31.0685C24.0265 29.446 24.0209 27.8235 24.0378 26.201C24.0378 25.8628 23.9308 25.7481 23.5931 25.7481C21.9328 25.7596 20.2669 25.7596 18.6066 25.7481C18.3308 25.7481 18.2802 25.8456 18.2858 26.1035C18.3027 26.9521 18.2914 27.7949 18.2914 28.6434ZM15.1115 5.26317C13.0573 7.22395 11.1606 9.29365 9.09505 11.306C10.3501 11.8449 11.245 12.7221 11.7459 13.9605C13.7551 11.9252 15.7194 9.93577 17.6892 7.93487C16.4848 7.43034 15.5843 6.62195 15.1059 5.25744L15.1115 5.26317ZM49.8991 38.2179C49.8034 38.3326 49.764 38.3727 49.7359 38.4243C49.3475 39.2098 48.8916 39.9379 48.1994 40.4883C48.1318 40.5399 48.1037 40.6775 48.1037 40.7749C48.0981 41.182 48.1037 41.5833 48.1037 41.9904C48.1037 46.1413 48.1093 50.2979 48.1037 54.4488C48.1037 54.6953 48.16 54.8042 48.4132 54.7927C48.6721 54.7813 48.931 54.7927 49.1843 54.7927C49.9047 54.7813 49.9047 54.7755 49.9047 54.0302C49.916 48.9448 49.9272 43.8594 49.9385 38.7798C49.9385 38.625 49.916 38.4644 49.8934 38.2236L49.8991 38.2179ZM45.965 41.5891C45.4022 41.5891 44.9182 41.5948 44.4398 41.5891C44.2146 41.5833 44.1696 41.6923 44.1696 41.8929C44.1696 46.0839 44.1696 50.2692 44.1696 54.4602C44.1696 54.7182 44.2653 54.7985 44.4961 54.787C44.8337 54.7755 45.1771 54.7641 45.5147 54.787C45.8749 54.8157 45.965 54.6666 45.965 54.3112C45.9537 50.5043 45.965 46.6974 45.965 42.8905C45.965 42.4548 45.965 42.0133 45.965 41.5891ZM22.7996 5.41224C22.4056 5.9397 22.0173 6.51876 21.567 7.04048C21.3531 7.28701 21.3531 7.40168 21.567 7.61954C22.7095 8.76619 23.8408 9.92431 24.9833 11.071C25.5011 11.5927 26.0189 12.1087 26.5535 12.6075C26.8969 12.9285 27.319 12.9629 27.7354 12.7737C28.1576 12.5788 28.4671 12.2692 28.5234 11.7647C28.5797 11.2315 28.2589 10.899 27.9324 10.5722C26.2102 8.83499 24.4824 7.10928 22.7996 5.41797V5.41224ZM7.32781 18.6217C8.98248 18.7248 10.1081 17.1425 10.0012 15.7092C9.89424 14.3217 8.566 13.1005 7.17022 13.1693C5.59434 13.2496 4.49123 14.4937 4.58691 16.0876C4.67696 17.5438 5.9264 18.7019 7.32781 18.6217ZM47.0569 13.4503C47.0569 13.4503 47.0569 13.4503 47.0569 13.4445C46.2858 13.4445 45.5091 13.4503 44.7381 13.4445C44.4735 13.4445 44.3835 13.5477 44.3947 13.8057C44.406 14.1497 44.3947 14.4994 44.3947 14.8434C44.3947 16.1908 45.6273 17.7043 47.282 17.5323C48.5708 17.4005 49.7527 16.1793 49.6852 14.9524C49.6627 14.5854 49.6739 14.2128 49.6908 13.8401C49.7021 13.5707 49.6233 13.4445 49.3363 13.4503C48.5765 13.4617 47.811 13.4503 47.0512 13.4503H47.0569ZM17.0364 4.03053C17.0364 5.09118 17.8412 5.89383 18.9218 5.89957C19.918 5.9053 20.734 5.11411 20.7509 4.12226C20.7678 3.10747 19.8954 2.19015 18.9162 2.20162C17.8918 2.21308 17.042 3.03867 17.0364 4.02479V4.03053ZM8.35776 40.0526C8.31836 39.9838 8.29022 39.9264 8.25645 39.8806C7.73866 39.1811 7.2659 38.4644 7.14208 37.5643C7.11394 37.3522 6.96198 37.3465 6.79877 37.3809C6.38791 37.4669 5.84761 38.0402 5.76882 38.4644C5.63374 39.1868 5.89826 39.8347 6.47796 40.1902C7.09706 40.5743 7.73867 40.5341 8.35776 40.0468V40.0526ZM45.9706 8.73752C44.7493 9.19045 44.0852 10.0332 43.725 11.157C43.77 11.1971 43.7869 11.22 43.8038 11.22C44.4679 11.2258 45.1377 11.2372 45.8018 11.2315C45.8581 11.2315 45.9594 11.1168 45.965 11.0538C45.9763 10.3027 45.9706 9.55738 45.9706 8.73752ZM50.3043 11.2143C50.0792 10.0906 48.9029 8.83499 48.1037 8.87512V11.2143H50.3043Z" fill="white"/>
<path d="M4.57561 26.1494C4.57561 26.694 4.09159 27.2215 3.5738 27.233C3.01662 27.2444 2.4538 26.7284 2.43692 26.1838C2.42003 25.6277 2.94908 25.0715 3.50064 25.0658C3.9734 25.0658 4.63189 25.5015 4.57561 26.1494Z" fill="white"/>
<path d="M30.5215 45.8144C30.5215 45.2124 30.9886 44.748 31.6021 44.7423C32.1649 44.7423 32.6827 45.2411 32.6827 45.7915C32.6827 46.382 32.1818 46.8923 31.6077 46.8923C31.0168 46.8923 30.5271 46.405 30.5271 45.8144H30.5215Z" fill="white"/>
<path d="M22.1075 35.5003C22.6928 35.5003 23.1655 36.0048 23.1599 36.6068C23.1543 37.1629 22.6703 37.6445 22.1187 37.6503C21.5278 37.6503 21.0325 37.1687 21.0269 36.5781C21.0269 35.9762 21.5052 35.4946 22.1075 35.5003Z" fill="white"/>
<path d="M29.0806 37.6503C28.5065 37.6503 28.0112 37.1343 28.0112 36.5552C28.0112 35.959 28.5009 35.4946 29.1031 35.5003C29.6603 35.506 30.1724 36.0163 30.1612 36.5667C30.1556 37.1457 29.6434 37.656 29.0749 37.6503H29.0806Z" fill="white"/>
<path d="M36.0935 37.6502C35.525 37.6502 35.041 37.1686 35.041 36.5896C35.041 35.999 35.5025 35.506 36.071 35.506C36.6844 35.506 37.1741 35.9933 37.1685 36.6068C37.1685 37.1686 36.6675 37.656 36.0935 37.656V37.6502Z" fill="white"/>
<path d="M43.0663 37.6503C42.4754 37.6388 42.0026 37.1343 42.0195 36.538C42.0364 35.959 42.5542 35.4774 43.1451 35.5003C43.6798 35.5175 44.1694 36.0392 44.1694 36.5782C44.1694 37.1572 43.6516 37.6617 43.0719 37.6503H43.0663Z" fill="white"/>
<path d="M15.1396 35.506C15.7024 35.506 16.1808 36.0106 16.1695 36.5839C16.1582 37.1744 15.6742 37.6503 15.0776 37.6445C14.5317 37.6445 14.0252 37.1113 14.0308 36.5552C14.0364 35.9704 14.5373 35.4946 15.1396 35.5003V35.506Z" fill="white"/>
<path d="M7.33358 14.8607C7.90765 14.8607 8.33539 15.3136 8.34102 15.9156C8.34665 16.5004 7.86826 16.9934 7.29981 16.9934C6.72012 16.9934 6.24735 16.4889 6.25298 15.8812C6.25298 15.2964 6.72574 14.8549 7.33358 14.8607Z" fill="white"/>
<path d="M18.8879 2.97553C19.4733 2.96407 19.9685 3.46859 19.9629 4.06485C19.9629 4.60378 19.462 5.11404 18.9217 5.1255C18.3308 5.1427 17.8242 4.63244 17.8242 4.01899C17.8242 3.49726 18.3476 2.98127 18.8823 2.97553H18.8879Z" fill="white"/>
</g>
<defs>
<clipPath id="clip0_273_44966">
<rect width="56" height="57" fill="white"/>
</clipPath>
</defs>
</svg>
