<svg width="60" height="62" viewBox="0 0 60 62" fill="none" xmlns="http://www.w3.org/2000/svg">
<g clip-path="url(#clip0_904_10192)">
<path d="M52.7998 61.7684H7.19983C7.19983 61.7684 6.06299 61.2631 6.06299 60.6316C6.06299 60 6.56825 59.4947 7.19983 59.4947C9.97878 59.4947 12.1261 57.221 12.1261 54.5684C12.1261 51.9158 9.85246 49.6421 7.19983 49.6421C6.56825 49.6421 6.06299 49.1368 6.06299 48.5052C6.06299 47.8737 6.56825 47.3684 7.19983 47.3684H52.7998C56.7156 47.3684 59.9998 50.5263 59.9998 54.5684C59.9998 58.6105 56.8419 61.7684 52.7998 61.7684ZM12.2525 59.621H52.7998C55.5788 59.621 57.7261 57.3474 57.7261 54.6947C57.7261 52.0421 55.4525 49.7684 52.7998 49.7684H12.2525C13.5156 51.0316 14.2735 52.8 14.2735 54.6947C14.2735 56.5895 13.5156 58.3579 12.2525 59.621Z" fill="#FEFFFF"/>
<path d="M6.94737 61.7684C3.15789 61.7684 0 58.7368 0 54.821V5.81052C0 5.81052 0.505263 4.67368 1.13684 4.67368H52.8C52.8 4.67368 53.9368 5.17894 53.9368 5.81052V48.5053C53.9368 48.5053 53.4316 49.6421 52.8 49.6421H12.2526C12.2526 49.6421 12.2526 49.6421 12.3789 49.7684C13.7684 51.2842 14.4 53.3053 14.1474 55.3263C13.7684 58.9895 10.6105 61.7684 6.82105 61.7684H6.94737ZM2.14737 6.94736V54.9474C2.14737 57.6 4.29474 59.621 6.82105 59.621C9.34737 59.621 11.7474 57.6 12 55.0737C12.1263 53.6842 11.7474 52.2947 10.7368 51.2842C9.85263 50.2737 8.46316 49.6421 7.07368 49.6421C6.4421 49.6421 5.93684 49.1368 5.93684 48.5053C5.93684 47.8737 6.4421 47.3684 7.07368 47.3684H51.6632V6.94736H2.14737Z" fill="#FEFFFF"/>
<path d="M57.8527 44.8421H52.8001C52.8001 44.8421 51.6633 44.3368 51.6633 43.7053V6.94737H6.18958C6.18958 6.94737 5.05273 6.44211 5.05273 5.81053V1.13684C5.05273 1.13684 5.558 0 6.18958 0H57.8527C57.8527 0 58.9896 0.505263 58.9896 1.13684V43.8316C58.9896 43.8316 58.4843 44.9684 57.8527 44.9684V44.8421ZM53.9369 42.6947H56.8422V2.14737H7.2001V4.67368H52.8001C52.8001 4.67368 53.9369 5.17895 53.9369 5.81053V42.6947Z" fill="#FEFFFF"/>
<path d="M37.8946 16.6737H16.2946C16.2946 16.6737 15.1577 16.1684 15.1577 15.5368C15.1577 14.9053 15.663 14.4 16.2946 14.4H37.8946C37.8946 14.4 39.0314 14.9053 39.0314 15.5368C39.0314 16.1684 38.5261 16.6737 37.8946 16.6737Z" fill="#FEFFFF"/>
<path d="M46.8633 12.8842H7.07385C7.07385 12.8842 5.93701 12.379 5.93701 11.7474C5.93701 11.1158 6.44227 10.6105 7.07385 10.6105H46.8633C46.8633 10.6105 48.0002 11.1158 48.0002 11.7474C48.0002 12.379 47.4949 12.8842 46.8633 12.8842Z" fill="#FEFFFF"/>
<path d="M39.7893 44.0842C35.3682 44.0842 31.7051 40.4211 31.7051 36C31.7051 31.579 35.3682 27.9158 39.7893 27.9158C44.2103 27.9158 47.8735 31.579 47.8735 36C47.8735 40.4211 44.2103 44.0842 39.7893 44.0842ZM39.7893 30.0632C36.5051 30.0632 33.8524 32.7158 33.8524 36C33.8524 39.2842 36.5051 41.9369 39.7893 41.9369C43.0735 41.9369 45.7261 39.2842 45.7261 36C45.7261 32.7158 43.0735 30.0632 39.7893 30.0632Z" fill="#FEFFFF"/>
<path d="M39.7897 40.0421C37.516 40.0421 35.7476 38.2737 35.7476 36C35.7476 33.7263 37.516 31.9579 39.7897 31.9579C40.4212 31.9579 40.9265 32.4631 40.9265 33.0947C40.9265 33.7263 40.4212 34.2316 39.7897 34.2316C38.7791 34.2316 37.8949 35.1158 37.8949 36.1263C37.8949 37.1368 38.7791 38.021 39.7897 38.021C40.8002 38.021 41.6844 37.1368 41.6844 36.1263C41.6844 35.4947 42.1897 34.9895 42.8212 34.9895C43.4528 34.9895 43.9581 35.4947 43.9581 36.1263C43.9581 38.4 42.1897 40.1684 39.916 40.1684L39.7897 40.0421Z" fill="#FEFFFF"/>
<path d="M43.7054 49.6421H36.0001C36.0001 49.6421 34.8633 49.1368 34.8633 48.5053V41.8105C34.8633 41.8105 35.1159 41.0526 35.4949 40.8C35.8738 40.5474 36.2528 40.6737 36.6317 40.8C38.5264 42.0632 41.1791 42.0632 43.0738 40.8C43.4528 40.5474 43.8317 40.5474 44.2106 40.8C44.5896 40.9263 44.8422 41.3053 44.8422 41.8105V48.5053C44.8422 48.5053 44.337 49.6421 43.7054 49.6421ZM37.137 47.4947H42.5685V43.579C40.8001 44.2105 38.7791 44.2105 37.137 43.579V47.4947Z" fill="#FEFFFF"/>
<path d="M30.5686 29.6842H7.07385C7.07385 29.6842 5.93701 29.1789 5.93701 28.5474V21.221C5.93701 21.221 6.44227 20.0842 7.07385 20.0842H30.5686C30.5686 20.0842 31.7054 20.5895 31.7054 21.221V28.5474C31.7054 28.5474 31.2002 29.6842 30.5686 29.6842ZM8.2107 27.5368H29.5581V22.3579H8.08438V27.5368H8.2107Z" fill="#FEFFFF"/>
<path d="M10.9894 42.1895C10.9894 42.1895 10.3578 42.1895 10.1052 41.8105C9.34726 41.0526 9.85253 40.0421 9.97884 39.6632C10.2315 39.0316 10.9894 37.7684 11.9999 36.6316C11.7473 36.379 11.4946 35.8737 11.6209 35.4948C11.7473 34.8632 12.3788 34.6105 13.0104 34.7369C13.2631 34.7369 13.5157 34.8632 13.7683 34.9895C14.3999 34.6105 14.9052 34.3579 15.6631 34.2316C16.4209 34.1053 17.6841 34.2316 18.8209 35.3684C20.0841 36.7579 20.4631 38.2737 20.7157 39.2842C20.7157 39.2842 20.7157 39.2842 20.7157 39.4105C20.7157 39.4105 20.9683 39.2842 21.0946 39.1579C23.242 37.5158 23.8736 36.8842 23.8736 36.8842C24.1262 36.379 24.7578 36.2527 25.2631 36.5053C25.7683 36.7579 26.0209 37.3895 25.8946 37.8948C25.8946 38.1474 25.642 38.6526 22.4841 40.9263C21.7262 41.5579 20.842 42.0632 19.9578 41.8105C19.0736 41.5579 18.9473 40.6737 18.6946 39.9158C18.442 39.0316 18.1894 38.0211 17.3052 37.0105C16.9262 36.6316 16.5473 36.5053 16.2946 36.5053C16.6736 36.8842 17.0525 37.3895 17.0525 38.0211C17.0525 38.6526 16.9262 39.6632 15.4104 40.4211C13.2631 41.5579 11.9999 42.3158 11.1157 42.3158L10.9894 42.1895ZM14.0209 37.6421C14.0209 37.6421 13.0104 38.779 12.6315 39.2842C13.2631 39.0316 13.7683 38.6526 14.1473 38.4C14.3999 38.2737 14.5262 38.1474 14.6525 38.0211C14.6525 37.8948 14.2736 37.7684 14.0209 37.5158V37.6421Z" fill="#FEFFFF"/>
</g>
<defs>
<clipPath id="clip0_904_10192">
<rect width="60" height="61.7684" fill="white"/>
</clipPath>
</defs>
</svg>
