<svg width="54" height="66" viewBox="0 0 54 66" fill="none" xmlns="http://www.w3.org/2000/svg">
<g clip-path="url(#clip0_902_10176)">
<path d="M51.1316 38.1617H2.86836C1.24711 38.1617 0 36.9146 0 35.2933V26.3141C0 24.6929 1.24711 23.4457 2.86836 23.4457H51.1316C52.7529 23.4457 54 24.6929 54 26.3141V35.2933C54 36.9146 52.7529 38.1617 51.1316 38.1617ZM2.86836 25.5658C2.86836 25.5658 2.12009 25.94 2.12009 26.3141V35.2933C2.12009 35.2933 2.49423 36.0416 2.86836 36.0416H51.1316C51.1316 36.0416 51.8799 35.6674 51.8799 35.2933V26.3141C51.8799 26.3141 51.5058 25.5658 51.1316 25.5658H2.86836Z" fill="#FEFFFF"/>
<path d="M5.23798 38.1617C5.23798 38.1617 4.73913 38.1617 4.61442 37.9122C4.11558 37.5381 3.99087 36.9146 4.365 36.4157L13.8431 23.8199C13.8431 23.8199 14.8407 23.1963 15.3396 23.5704C15.8384 23.9446 15.9632 24.5681 15.589 25.067L6.11096 37.7875C6.11096 37.7875 5.61211 38.1617 5.23798 38.1617Z" fill="#FEFFFF"/>
<path d="M16.5866 38.1617C16.5866 38.1617 16.0878 38.1617 15.9631 37.9122C15.4642 37.5381 15.3395 36.9146 15.7136 36.4157L25.1917 23.8199C25.1917 23.8199 26.1894 23.1963 26.6882 23.5704C27.1871 23.9446 27.3118 24.5681 26.9377 25.067L17.4596 37.6628C17.4596 37.6628 16.9607 38.037 16.5866 38.037V38.1617Z" fill="#FEFFFF"/>
<path d="M27.9352 38.1617C27.9352 38.1617 27.4364 38.1617 27.3117 37.9122C26.8128 37.5381 26.6881 36.9146 27.0623 36.4157L36.5403 23.8199C36.5403 23.8199 37.538 23.1963 38.0369 23.5704C38.5357 23.9446 38.6604 24.5681 38.2863 25.067L28.8082 37.6628C28.8082 37.6628 28.3094 38.037 27.9352 38.037V38.1617Z" fill="#FEFFFF"/>
<path d="M39.2839 38.1617C39.2839 38.1617 38.785 38.1617 38.6603 37.9122C38.1615 37.5381 38.0368 36.9146 38.4109 36.4157L47.889 23.8199C47.889 23.8199 48.8866 23.1963 49.3855 23.5704C49.8843 23.9446 50.0091 24.5681 49.6349 25.067L40.1569 37.6628C40.1569 37.6628 39.658 38.037 39.2839 38.037V38.1617Z" fill="#FEFFFF"/>
<path d="M15.8385 25.5658H7.73227C7.73227 25.5658 6.60986 25.067 6.60986 24.4434V17.3349C6.60986 17.3349 7.10871 16.2125 7.73227 16.2125H15.8385C15.8385 16.2125 16.9609 16.7113 16.9609 17.3349V24.4434C16.9609 24.4434 16.4621 25.5658 15.8385 25.5658ZM8.85467 23.4457H14.8408V18.4573H8.85467V23.4457Z" fill="#FEFFFF"/>
<path d="M15.8385 65.7229H7.73227C7.73227 65.7229 6.60986 65.224 6.60986 64.6005V37.0393C6.60986 37.0393 7.10871 35.9169 7.73227 35.9169H15.8385C15.8385 35.9169 16.9609 36.4157 16.9609 37.0393V64.6005C16.9609 64.6005 16.4621 65.7229 15.8385 65.7229ZM8.85467 63.6028H14.8408V38.1617H8.85467V63.6028Z" fill="#FEFFFF"/>
<path d="M11.723 18.4573C11.723 18.4573 10.6006 17.9584 10.6006 17.3349V11.4734C10.6006 11.4734 11.0994 10.351 11.723 10.351C12.3465 10.351 12.8454 10.8499 12.8454 11.4734V17.3349C12.8454 17.3349 12.3465 18.4573 11.723 18.4573Z" fill="#FEFFFF"/>
<path d="M11.7229 12.5959C8.23095 12.5959 5.4873 9.7275 5.4873 6.36029C5.4873 2.99309 8.35566 0.124725 11.7229 0.124725C15.0901 0.124725 17.9584 2.99309 17.9584 6.36029C17.9584 9.7275 15.0901 12.5959 11.7229 12.5959ZM11.7229 2.12011C9.47807 2.12011 7.6074 3.99078 7.6074 6.23558C7.6074 8.48038 9.47807 10.3511 11.7229 10.3511C13.9677 10.3511 15.8383 8.48038 15.8383 6.23558C15.8383 3.99078 13.9677 2.12011 11.7229 2.12011Z" fill="#FEFFFF"/>
<path d="M46.2677 25.5658H38.1615C38.1615 25.5658 37.0391 25.067 37.0391 24.4434V17.3349C37.0391 17.3349 37.5379 16.2125 38.1615 16.2125H46.2677C46.2677 16.2125 47.3901 16.7113 47.3901 17.3349V24.4434C47.3901 24.4434 46.8913 25.5658 46.2677 25.5658ZM39.2839 23.4457H45.27V18.4573H39.2839V23.4457Z" fill="#FEFFFF"/>
<path d="M46.2677 65.7229H38.1615C38.1615 65.7229 37.0391 65.224 37.0391 64.6005V37.0393C37.0391 37.0393 37.5379 35.9169 38.1615 35.9169H46.2677C46.2677 35.9169 47.3901 36.4157 47.3901 37.0393V64.6005C47.3901 64.6005 46.8913 65.7229 46.2677 65.7229ZM39.2839 63.6028H45.27V38.1617H39.2839V63.6028Z" fill="#FEFFFF"/>
<path d="M38.1615 55.4965H15.8382C15.8382 55.4965 14.7158 54.9977 14.7158 54.3742V47.3903C14.7158 47.3903 15.2147 46.2679 15.8382 46.2679H38.1615C38.1615 46.2679 39.284 46.7668 39.284 47.3903V54.3742C39.284 54.3742 38.7851 55.4965 38.1615 55.4965ZM16.8359 53.3765H37.0391V48.5127H16.8359V53.3765Z" fill="#FEFFFF"/>
<path d="M42.2772 18.4573C42.2772 18.4573 41.1548 17.9584 41.1548 17.3349V11.4734C41.1548 11.4734 41.6536 10.351 42.2772 10.351C42.9007 10.351 43.3996 10.8499 43.3996 11.4734V17.3349C43.3996 17.3349 42.9007 18.4573 42.2772 18.4573Z" fill="#FEFFFF"/>
<path d="M42.2771 12.5959C38.7852 12.5959 36.0415 9.7275 36.0415 6.36029C36.0415 2.99309 38.9099 0.124725 42.2771 0.124725C45.6443 0.124725 48.5126 2.99309 48.5126 6.36029C48.5126 9.7275 45.6443 12.5959 42.2771 12.5959ZM42.2771 2.12011C40.0323 2.12011 38.1616 3.99078 38.1616 6.23558C38.1616 8.48038 40.0323 10.3511 42.2771 10.3511C44.5219 10.3511 46.3925 8.48038 46.3925 6.23558C46.3925 3.99078 44.5219 2.12011 42.2771 2.12011Z" fill="#FEFFFF"/>
<path d="M52.8776 65.9723H1.1224C1.1224 65.9723 0 65.4734 0 64.8499C0 64.2263 0.498845 63.7275 1.1224 63.7275H52.8776C52.8776 63.7275 54 64.2263 54 64.8499C54 65.4734 53.5012 65.9723 52.8776 65.9723Z" fill="#FEFFFF"/>
</g>
<defs>
<clipPath id="clip0_902_10176">
<rect width="54" height="65.9723" fill="white"/>
</clipPath>
</defs>
</svg>
