<svg width="30" height="31" viewBox="0 0 30 31" fill="none" xmlns="http://www.w3.org/2000/svg">
<path fill-rule="evenodd" clip-rule="evenodd" d="M0 15.5C0 7.21573 6.71573 0.5 15 0.5C23.2843 0.5 30 7.21573 30 15.5C30 23.7843 23.2843 30.5 15 30.5C6.71573 30.5 0 23.7843 0 15.5ZM7.6875 12.9688V23H10.875V12.9688H7.6875ZM7.5 9.78125C7.5 10.8125 8.25 11.5625 9.28125 11.5625C10.3125 11.5625 11.0625 10.8125 11.0625 9.78125C11.0625 8.75 10.3125 8 9.28125 8C8.34375 8 7.5 8.75 7.5 9.78125ZM19.3125 23H22.3125V16.8125C22.3125 13.7187 20.4375 12.6875 18.6562 12.6875C17.0625 12.6875 15.9375 13.7187 15.6562 14.375V12.9688H12.6562V23H15.8437V17.6563C15.8437 16.25 16.7812 15.5 17.7187 15.5C18.6562 15.5 19.3125 15.9688 19.3125 17.5625V23Z" fill="white"/>
</svg>
