<svg width="30" height="31" viewBox="0 0 30 31" fill="none" xmlns="http://www.w3.org/2000/svg">
<path d="M17.4375 15.5L13.5 13.25V17.75L17.4375 15.5Z" fill="white"/>
<path fill-rule="evenodd" clip-rule="evenodd" d="M0 15.5C0 7.21573 6.71573 0.5 15 0.5C23.2843 0.5 30 7.21573 30 15.5C30 23.7843 23.2843 30.5 15 30.5C6.71573 30.5 0 23.7843 0 15.5ZM20.8125 10.5313C21.4688 10.7188 21.9375 11.1875 22.125 11.8438C22.5 13.0625 22.5 15.5 22.5 15.5C22.5 15.5 22.5 17.9375 22.2188 19.1563C22.0313 19.8125 21.5625 20.2812 20.9062 20.4688C19.6875 20.75 15 20.75 15 20.75C15 20.75 10.2187 20.75 9.09375 20.4688C8.4375 20.2812 7.96875 19.8125 7.78125 19.1563C7.5 17.9375 7.5 15.5 7.5 15.5C7.5 15.5 7.5 13.0625 7.6875 11.8438C7.875 11.1875 8.34376 10.7188 9.00001 10.5313C10.2188 10.25 14.9062 10.25 14.9062 10.25C14.9062 10.25 19.6875 10.25 20.8125 10.5313Z" fill="white"/>
</svg>
